<?xml version="1.0" encoding="UTF-8"?>
<svg version="1.1" xmlns="http://www.w3.org/2000/svg" width="315" height="218">
<path d="M0 0 C103.95 0 207.9 0 315 0 C315 71.94 315 143.88 315 218 C211.05 218 107.1 218 0 218 C0 146.06 0 74.12 0 0 Z " fill="#F5D650" transform="translate(0,0)"/>
<path d="M0 0 C1.30055321 3.90165962 0.24552421 6.61559377 -0.8125 10.4375 C-2.40278006 16.44416432 -3.68603499 22.39440233 -4.60546875 28.546875 C-5 31 -5 31 -5.52075195 32.81884766 C-6.08598512 35.39133523 -6.0953559 37.71807062 -6.0625 40.3515625 C-6.05089844 41.87523438 -6.05089844 41.87523438 -6.0390625 43.4296875 C-6.02617187 44.48414063 -6.01328125 45.53859375 -6 46.625 C-5.97455943 48.72130332 -5.95350303 50.8176659 -5.9375 52.9140625 C-5.92589844 53.8417041 -5.91429687 54.7693457 -5.90234375 55.72509766 C-6 58 -6 58 -7 60 C-7.13504138 61.93559313 -7.23201129 63.873872 -7.3125 65.8125 C-7.70445006 72.175156 -8.76571029 78.2017651 -10.0625 84.4375 C-12.0560021 94.20759061 -12.96706049 103.45547438 -11.49609375 113.41015625 C-10.95758962 117.30689083 -10.77988404 121.13648372 -10.75 125.0625 C-10.729375 125.74376953 -10.70875 126.42503906 -10.6875 127.12695312 C-10.65131213 131.83589954 -11.4999314 135.0143834 -14 139 C-16.125 140.1875 -16.125 140.1875 -18 141 C-18.33 141.99 -18.66 142.98 -19 144 C-24.34919431 147.90346612 -30.63992847 147.70667461 -37 147 C-37.99 146.34 -38.98 145.68 -40 145 C-40.9865634 139.69589567 -39.76746827 134.99049864 -38 130 C-37.87625 128.72125 -37.7525 127.4425 -37.625 126.125 C-36.45287395 114.16123063 -32.86703767 102.31649155 -26.79296875 91.9375 C-23.625556 86.38613348 -22.95662881 81.33280947 -24 75 C-25.28208685 71.71567539 -27.06013088 68.93247747 -29 66 C-30.06671394 64.18997683 -31.12920694 62.37745959 -32.1875 60.5625 C-33.6830427 58.04099134 -34.92347397 56.07652603 -37 54 C-37.24050903 52.08908081 -37.24050903 52.08908081 -37.22705078 49.73388672 C-37.22689972 48.85312469 -37.22674866 47.97236267 -37.22659302 47.06491089 C-37.21627045 46.11278717 -37.20594788 45.16066345 -37.1953125 44.1796875 C-37.1924826 43.20589142 -37.18965271 42.23209534 -37.18673706 41.22879028 C-37.17551913 38.11073651 -37.1504117 34.99296732 -37.125 31.875 C-37.11497228 29.76432706 -37.10584607 27.65364962 -37.09765625 25.54296875 C-37.07557458 20.36188165 -37.04208129 15.18096115 -37 10 C-36.02957764 9.89042969 -35.05915527 9.78085937 -34.05932617 9.66796875 C-26.50488767 8.74996103 -19.49467223 7.616409 -12.3125 5 C-11.55517578 4.73960938 -10.79785156 4.47921875 -10.01757812 4.2109375 C-6.56163277 3.00516273 -3.21768444 1.76590597 0 0 Z " fill="#070600" transform="translate(202,29)"/>
<path d="M0 0 C1.22589844 0.42925781 2.45179687 0.85851562 3.71484375 1.30078125 C9.58378815 3.25709605 15.55584147 4.72113671 21.5625 6.1875 C22.66658203 6.46013672 23.77066406 6.73277344 24.90820312 7.01367188 C27.60468557 7.67903767 30.30193885 8.34107074 33 9 C32.98839844 9.95519531 32.97679687 10.91039062 32.96484375 11.89453125 C32.92241736 17.97362654 32.89289433 24.05420364 33.25 30.125 C33.29640625 30.95257813 33.3428125 31.78015625 33.390625 32.6328125 C34.20919951 35.81265964 35.86651123 37.52033668 38 40 C39.4111598 42.01016071 40.80603281 44.03181872 42.1875 46.0625 C46.06082771 51.73383706 50.14160203 57.20839237 54.34765625 62.63671875 C56 65 56 65 56 67 C54.89591797 66.94779297 54.89591797 66.94779297 53.76953125 66.89453125 C46.27194596 66.46628339 46.27194596 66.46628339 40 70 C35.87963399 75.64810307 33.31810746 81.74148447 30.875 88.25 C30.21149354 90.00739549 29.54240892 91.76269723 28.8671875 93.515625 C28.43575439 94.66466309 28.43575439 94.66466309 27.99560547 95.83691406 C26.923131 98.16700818 25.56717471 99.97819866 24 102 C23.31000427 103.65714457 22.64740544 105.32575736 22 107 C20.68961061 109.73039858 19.31150299 112.42615334 17.9375 115.125 C17.21556532 116.54331415 16.49543884 117.9625505 15.77734375 119.3828125 C15.46015381 120.00559082 15.14296387 120.62836914 14.81616211 121.27001953 C13.87593757 123.1742167 13.87593757 123.1742167 13 126 C12.34 126 11.68 126 11 126 C10.87625 126.969375 10.7525 127.93875 10.625 128.9375 C10.315625 130.4534375 10.315625 130.4534375 10 132 C9.34 132.33 8.68 132.66 8 133 C7.78392145 126.90100872 8.54721871 121.61180311 9.9375 115.6875 C11.47899781 108.79968568 12.68221033 102.07082015 13 95 C12.01 95 11.02 95 10 95 C6.76849516 91.05038297 6.59141444 87.98474384 7 83 C7.46818034 80.62308443 7.97968424 78.26946845 8.5625 75.91796875 C9.82570749 67.49282591 8.74126476 60.93354174 5.625 53.0625 C0.70546882 40.39370731 -0.28450891 28.78498411 -0.125 15.3125 C-0.11494292 13.8209696 -0.10582192 12.32943258 -0.09765625 10.83789062 C-0.07587544 7.22512026 -0.0414985 3.61260407 0 0 Z " fill="#070600" transform="translate(116,30)"/>
<path d="M0 0 C3.1875 1.25 3.1875 1.25 5 4 C6.59766461 12.76701675 4.06625423 19.36705992 0 27 C-3.97630095 34.68844205 -5.4634398 42.5489189 -7 51 C-7.4689051 53.2150517 -7.96680179 55.41999059 -8.48046875 57.625 C-8.89792745 59.53338263 -9.26402276 61.45296604 -9.61328125 63.375 C-11.67768774 74.26214931 -14.78268046 81.52519388 -24 88 C-28.27004944 90.5224284 -32.14767254 90.56422412 -37 90 C-40.75675757 88.36662715 -42.88472535 86.48398178 -45 83 C-46.32515181 73.73587567 -44.50692648 65.5481333 -41 57 C-40.34 57 -39.68 57 -39 57 C-38.91878906 56.17242187 -38.83757812 55.34484375 -38.75390625 54.4921875 C-37.82927461 50.20917874 -36.06643331 46.91957543 -33.9375 43.125 C-33.56044922 42.43664062 -33.18339844 41.74828125 -32.79492188 41.0390625 C-31.87106965 39.3550787 -30.93660333 37.67692533 -30 36 C-29.34 36 -28.68 36 -28 36 C-27.896875 35.154375 -27.79375 34.30875 -27.6875 33.4375 C-27.07306482 30.36532412 -26.17145565 27.81376725 -24.87890625 24.97265625 C-23.88315894 22.73775673 -23.00711174 20.46956235 -22.125 18.1875 C-20.68519298 14.59347791 -19.16197108 11.05977657 -17.5 7.5625 C-17.1184375 6.75941406 -16.736875 5.95632812 -16.34375 5.12890625 C-12.35981188 -1.18285618 -6.81903986 -0.83724898 0 0 Z " fill="#070500" transform="translate(171,99)"/>
<path d="M0 0 C0.66 0 1.32 0 2 0 C2.9795958 1.79143207 3.9586633 3.58315304 4.9375 5.375 C5.48277344 6.37273437 6.02804688 7.37046875 6.58984375 8.3984375 C9.49839233 13.76434707 9.99615461 17.89590369 9 24 C7.65512115 27.35449916 5.87987015 30.47801423 4.14257812 33.64160156 C0.70696797 40.08260782 -0.87852258 46.53019908 -2.30859375 53.6484375 C-3 57 -3 57 -4 59 C-4.56313295 62.62956787 -5.02668703 66.26786506 -5.5 69.91015625 C-6 73 -6 73 -7 74 C-7.23075082 75.34747084 -7.41153063 76.70377565 -7.5625 78.0625 C-7.706875 79.361875 -7.85125 80.66125 -8 82 C-8.99 81.34 -9.98 80.68 -11 80 C-10.55156105 76.93596674 -10.08949346 73.87413721 -9.625 70.8125 C-9.43550781 69.51602539 -9.43550781 69.51602539 -9.2421875 68.19335938 C-8.57382823 63.83231514 -7.73032237 60.07760395 -6 56 C-5.66398968 54.09060805 -5.37423177 52.17264507 -5.125 50.25 C-4.07658497 43.59378367 -1.7715862 38.33118773 1.37109375 32.421875 C4.69665058 25.82728639 6.65904218 19.41420228 5 12 C2.85976507 9.71182256 1.46028883 9.08231693 -1.62109375 8.53125 C-7.55873978 8.44231502 -7.55873978 8.44231502 -12.875 10.8125 C-17.04627261 17.06940892 -19.67812045 23.87956939 -22 31 C-23.00343834 33.29819749 -24.04047028 35.57761532 -25.09765625 37.8515625 C-25.95414938 39.89083185 -26.52668761 41.84325693 -27 44 C-27.66 44 -28.32 44 -29 44 C-29.309375 45.1446875 -29.309375 45.1446875 -29.625 46.3125 C-31.23167561 50.62131187 -33.37814369 54.43030464 -35.66015625 58.4140625 C-36.82582609 60.66383928 -37.52999651 62.52812977 -38 65 C-38.66 65 -39.32 65 -40 65 C-40.33 65.99 -40.66 66.98 -41 68 C-41.66 67.67 -42.32 67.34 -43 67 C-43 66.34 -43 65.68 -43 65 C-42.34 65 -41.68 65 -41 65 C-40.88527344 64.44183594 -40.77054688 63.88367188 -40.65234375 63.30859375 C-39.91078504 60.6842752 -38.81875329 58.48181271 -37.5625 56.0625 C-35.85135149 52.75768482 -34.37004764 49.4588088 -33 46 C-32.401875 44.824375 -31.80375 43.64875 -31.1875 42.4375 C-29.53288323 39.18281426 -28.11459041 35.88620584 -26.75 32.5 C-24.65235118 27.40849326 -22.36319275 22.44130923 -19.9375 17.5 C-19.60911133 16.81744141 -19.28072266 16.13488281 -18.94238281 15.43164062 C-17.07340053 11.67873914 -15.25656339 8.6733961 -12 6 C-7.35601989 4.45200663 -2.67482292 4.50405667 2 6 C1.01 4.35 0.02 2.7 -1 1 C-0.67 0.67 -0.34 0.34 0 0 Z " fill="#D8BD47" transform="translate(170,91)"/>
<path d="M0 0 C0.99 0 1.98 0 3 0 C3.66964286 7.76785714 3.66964286 7.76785714 0.625 11.4375 C-3.58336158 15.54566249 -6.58772374 15.33392681 -12.29296875 15.2890625 C-15.91250576 14.90256071 -17.64739102 13.74471048 -20 11 C-21.1577506 7.52674819 -21.06866652 4.63932552 -21 1 C-19.989375 1.33 -18.97875 1.66 -17.9375 2 C-11.87399906 3.72022864 -6.15357197 3.00466481 0 2 C0 1.34 0 0.68 0 0 Z " fill="#0B0A02" transform="translate(182,175)"/>
<path d="M0 0 C0.99 0.33 1.98 0.66 3 1 C2.24614472 8.28726769 2.24614472 8.28726769 1.02734375 11.81640625 C-0.10441191 15.32355781 -0.60338067 18.65883607 -1.0625 22.3125 C-1.89473684 28.89473684 -1.89473684 28.89473684 -3 30 C-3.23075082 31.34747084 -3.41153063 32.70377565 -3.5625 34.0625 C-3.706875 35.361875 -3.85125 36.66125 -4 38 C-4.99 37.34 -5.98 36.68 -7 36 C-6.55156105 32.93596674 -6.08949346 29.87413721 -5.625 26.8125 C-5.49867188 25.94818359 -5.37234375 25.08386719 -5.2421875 24.19335938 C-4.57377635 19.83197661 -3.73135187 16.0770544 -2 12 C-1.57426894 9.90550831 -1.19999506 7.79996789 -0.875 5.6875 C-0.70742187 4.61886719 -0.53984375 3.55023438 -0.3671875 2.44921875 C-0.24601563 1.64097656 -0.12484375 0.83273438 0 0 Z " fill="#D1B744" transform="translate(166,135)"/>
<path d="M0 0 C0.99 0.33 1.98 0.66 3 1 C0.38646661 8.18721681 -2.54171437 15.17564969 -6 22 C-6.33 21.34 -6.66 20.68 -7 20 C-7.66 20.33 -8.32 20.66 -9 21 C-7.52836447 17.3004718 -6.02506472 13.61532377 -4.5 9.9375 C-4.0771875 8.91527344 -3.654375 7.89304687 -3.21875 6.83984375 C-2.21898079 4.51025331 -1.16538525 2.24984097 0 0 Z " fill="#CFB443" transform="translate(148,113)"/>
<path d="M0 0 C0.66 0 1.32 0 2 0 C3.98 3.96 5.96 7.92 8 12 C4 11 4 11 1 9 C-1.0492094 8.54860541 -1.0492094 8.54860541 -3.1875 8.375 C-4.445625 8.25125 -5.70375 8.1275 -7 8 C-7 7.34 -7 6.68 -7 6 C-4.03 6 -1.06 6 2 6 C1.01 4.35 0.02 2.7 -1 1 C-0.67 0.67 -0.34 0.34 0 0 Z " fill="#E6C94B" transform="translate(170,91)"/>
<path d="M0 0 C0.66 0.33 1.32 0.66 2 1 C2 1.99 2 2.98 2 4 C-3.51394711 5.80047253 -8.81407992 7.30704414 -14.4375 5 C-14.953125 4.67 -15.46875 4.34 -16 4 C-16 3.67 -16 3.34 -16 3 C-15.09636719 2.95101562 -14.19273437 2.90203125 -13.26171875 2.8515625 C-12.08222656 2.77679688 -10.90273437 2.70203125 -9.6875 2.625 C-7.92986328 2.52058594 -7.92986328 2.52058594 -6.13671875 2.4140625 C-2.84300113 2.21386253 -2.84300113 2.21386253 0 0 Z " fill="#C9AF42" transform="translate(180,173)"/>
<path d="M0 0 C0.71484375 1.546875 0.71484375 1.546875 1 4 C-0.05391226 6.53857885 -1.13965574 8.84495527 -2.4375 11.25 C-2.77587891 11.8996875 -3.11425781 12.549375 -3.46289062 13.21875 C-4.29786887 14.81814494 -5.14753114 16.40985859 -6 18 C-7.39813294 13.63440123 -6.01916814 10.92435098 -4 7 C-2.71177123 4.63518004 -1.3720597 2.31830777 0 0 Z " fill="#DCC148" transform="translate(174,119)"/>
<path d="M0 0 C0.99 0.33 1.98 0.66 3 1 C2.01 3.31 1.02 5.62 0 8 C-0.66 8 -1.32 8 -2 8 C-2.33 8.99 -2.66 9.98 -3 11 C-3.66 10.67 -4.32 10.34 -5 10 C-5 9.34 -5 8.68 -5 8 C-4.34 8 -3.68 8 -3 8 C-2.87625 7.4225 -2.7525 6.845 -2.625 6.25 C-1.99351176 3.97664233 -1.11141809 2.0746471 0 0 Z " fill="#CCB242" transform="translate(132,148)"/>
<path d="M0 0 C0.99 0.33 1.98 0.66 3 1 C2.67 3.64 2.34 6.28 2 9 C1.01 9 0.02 9 -1 9 C-0.67 6.03 -0.34 3.06 0 0 Z " fill="#C6AD41" transform="translate(166,135)"/>
<path d="M0 0 C0.33 0 0.66 0 1 0 C0.6875 3.375 0.6875 3.375 0 7 C-0.99 7.66 -1.98 8.32 -3 9 C-2.01 6.03 -1.02 3.06 0 0 Z " fill="#E6C94B" transform="translate(166,143)"/>
<path d="M0 0 C1 3 1 3 -0.4375 6.1875 C-1.2109375 7.5796875 -1.2109375 7.5796875 -2 9 C-2.6875 7.3125 -2.6875 7.3125 -3 5 C-1.5625 2.25 -1.5625 2.25 0 0 Z " fill="#E5C84B" transform="translate(170,128)"/>
</svg>
