<svg width="3961" height="743" viewBox="0 0 3961 743" fill="none" xmlns="http://www.w3.org/2000/svg">
<path d="M0 484.617L83.723 475.727C86.0486 502.399 89.537 514.253 100.002 527.885C116.863 550.408 147.097 562.855 184.888 562.855C243.029 562.855 277.914 536.183 277.914 491.73C277.914 467.429 266.867 447.277 248.843 437.201C231.401 427.718 227.912 427.125 147.678 408.158C104.072 398.082 80.8159 388.599 59.8852 372.003C30.2333 348.295 15.1166 315.696 15.1166 275.985C15.1166 193.598 80.2345 140.255 180.237 140.255C246.518 140.255 296.519 161 325.008 200.118C339.543 219.678 346.52 237.459 353.497 268.872L270.355 278.948C266.867 258.796 262.797 248.72 252.913 236.866C237.796 218.492 212.214 208.416 180.237 208.416C129.654 208.416 95.3511 234.495 95.3511 273.021C95.3511 297.915 108.142 315.103 134.887 326.957C147.678 332.292 152.329 333.477 216.866 348.295C262.797 358.371 290.705 369.632 311.635 384.45C344.776 409.344 359.892 441.943 359.892 486.396C359.892 528.478 347.101 562.855 323.264 587.156C292.449 617.384 246.518 632.201 184.307 632.201C136.631 632.201 90.1185 620.347 62.2108 601.381C38.9544 585.378 22.0936 562.855 11.0468 533.812C5.81409 520.18 3.48846 508.918 0 484.617Z" fill="#D80000"/>
<path d="M464.455 191.228H547.597C545.271 211.972 543.527 237.459 543.527 264.131V282.504H567.946C595.272 282.504 608.063 281.912 626.668 278.948V348.888C607.482 345.924 596.435 345.331 569.69 345.331H543.527V529.07C543.527 558.113 553.992 568.782 581.9 568.782C597.017 568.782 606.319 565.818 624.343 555.742L634.808 618.569C609.808 628.053 592.365 631.016 562.132 631.016C495.27 631.016 468.525 606.715 468.525 544.481V345.331H446.432C424.919 345.331 413.873 345.924 394.686 348.888V278.948C411.547 281.912 422.594 282.504 447.013 282.504H468.525V264.131C468.525 238.644 466.781 212.565 464.455 191.228Z" fill="#D80000"/>
<path d="M912.486 282.504H996.208C992.139 307.991 991.557 326.365 991.557 359.556V545.666C991.557 578.265 992.72 598.417 996.208 622.718H917.137V591.305C917.137 582.414 917.137 580.636 917.718 565.818C885.741 612.049 853.763 629.238 798.529 629.238C768.878 629.238 747.947 623.904 728.76 612.049C696.783 591.305 681.666 558.113 681.666 509.511V359.556C681.666 326.957 679.922 304.435 677.015 282.504H761.319C757.831 309.176 757.249 329.328 757.249 359.556V491.137C757.249 525.514 765.97 547.444 783.994 558.706C792.715 563.448 804.925 567.004 815.972 567.004C857.833 567.004 890.974 537.961 917.137 479.283V359.556C917.137 330.514 915.393 307.991 912.486 282.504Z" fill="#D80000"/>
<path d="M1329.85 622.718V593.676C1329.85 586.563 1329.85 580.043 1330.43 572.338C1300.2 615.606 1269.38 631.016 1212.99 631.016C1172.29 631.016 1141.47 621.533 1115.89 600.788C1076.94 569.967 1055.43 516.031 1055.43 452.019C1055.43 343.553 1116.47 274.799 1212.41 274.799C1248.45 274.799 1278.11 283.69 1300.78 302.064C1311.25 310.362 1317.64 317.474 1330.43 334.663C1330.43 327.55 1330.43 327.55 1329.85 315.696C1329.27 311.547 1329.27 300.286 1329.27 290.21V230.939C1329.27 195.377 1328.11 175.817 1325.2 150.924H1407.18C1404.27 179.373 1403.11 200.118 1403.11 230.346V542.703C1403.11 577.672 1404.27 596.639 1407.18 622.718H1329.85ZM1131.01 452.611C1131.01 523.143 1168.22 567.596 1226.36 567.596C1257.18 567.596 1286.83 552.779 1304.27 528.478C1318.8 508.918 1326.94 479.876 1326.94 449.055C1326.94 420.012 1315.9 389.192 1299.04 370.225C1281.01 350.073 1251.36 337.033 1223.45 337.033C1167.06 337.033 1131.01 382.079 1131.01 452.611Z" fill="#D80000"/>
<path d="M1479.87 150.924H1565.34V226.197H1479.87V150.924ZM1479.87 282.504H1564.76C1561.85 304.435 1560.69 323.994 1560.69 360.149V545.074C1560.69 577.672 1561.85 597.824 1564.76 622.718H1479.87C1483.36 596.046 1484.52 575.302 1484.52 545.666V359.556C1484.52 326.957 1483.36 306.805 1479.87 282.504Z" fill="#D80000"/>
<path d="M2636.6 622.718H2548.8C2552.29 599.603 2553.45 576.487 2553.45 545.666V219.085H2525.55C2504.03 219.085 2487.17 220.27 2465.66 222.641V147.367C2483.69 150.331 2496.48 150.924 2523.8 150.924H2577.29C2606.94 150.924 2615.67 150.331 2636.6 147.96C2633.11 182.93 2631.94 210.194 2631.94 245.757V545.666C2631.94 577.08 2633.11 598.417 2636.6 622.718Z" fill="#D80000"/>
<path d="M2761.55 529.663L2841.78 508.326C2848.76 525.514 2852.83 533.219 2859.81 540.925C2874.34 556.928 2897.02 565.226 2926.67 565.226C2954.58 565.226 2976.09 557.52 2992.37 540.925C3021.44 512.475 3034.81 469.8 3037.72 399.86C3026.67 416.456 3020.28 423.569 3006.9 433.645C2980.74 452.019 2951.09 460.909 2912.72 460.909C2816.2 460.909 2754.57 400.453 2754.57 305.027C2754.57 244.571 2780.74 195.377 2828.41 165.741C2855.16 148.553 2890.04 139.662 2930.16 139.662C3004.58 139.662 3065.63 184.115 3090.05 256.425C3101.09 288.432 3106.91 330.514 3106.91 379.116C3106.91 468.614 3083.65 546.852 3045.28 584.785C3014.46 616.198 2976.67 629.831 2921.44 629.831C2872.6 629.831 2838.3 619.162 2809.22 595.454C2789.46 579.451 2778.41 564.04 2761.55 529.663ZM2924.34 396.897C2981.32 396.897 3024.35 355.407 3024.35 300.286C3024.35 244.571 2984.23 204.86 2926.67 204.86C2870.85 204.86 2831.9 245.164 2831.9 302.064C2831.9 359.556 2867.95 396.897 2924.34 396.897Z" fill="#D80000"/>
<path d="M3569.08 441.35V517.216C3547.56 514.253 3535.35 513.66 3510.94 513.067H3490V555.15C3490 585.378 3491.17 600.788 3494.66 622.718H3412.1C3415.58 601.973 3416.75 583.599 3416.75 553.964V513.067H3255.7C3221.39 513.067 3202.79 513.66 3183.02 515.438V442.535C3202.79 420.605 3209.18 412.9 3229.53 388.006L3367.33 216.121C3392.91 184.708 3402.21 172.261 3415.58 150.924H3494.07C3490.59 185.301 3490 206.045 3490 251.091V445.499H3510.35C3533.61 445.499 3547.56 444.313 3569.08 441.35ZM3417.33 446.092V323.401C3417.33 295.544 3417.91 276.577 3420.24 252.276C3408.61 269.465 3401.63 278.948 3380.7 305.027L3269.07 446.092H3417.33Z" fill="#D80000"/>
<path d="M3960.9 147.96V216.714C3942.29 235.088 3925.43 259.389 3900.43 302.064C3838.8 406.973 3807.99 497.657 3792.29 622.718H3700.43C3719.61 523.736 3737.05 466.836 3770.78 393.341C3797.52 334.663 3821.36 294.359 3872.52 220.863H3692.87C3658.56 220.863 3640.54 222.048 3616.7 225.012V146.775C3643.45 149.738 3662.05 150.924 3696.36 150.924H3881.24C3924.85 150.924 3939.97 150.331 3960.9 147.96Z" fill="#D80000"/>
<path d="M2299.75 108.726C2230.84 38.4703 2139.44 0 2042.15 0C1944.87 0 1853.33 38.6067 1784.55 108.726C1715.63 178.982 1677.9 272.157 1677.9 371.334C1677.9 470.511 1715.77 563.822 1784.55 633.942C1853.47 704.198 1944.87 742.668 2042.15 742.668C2139.44 742.668 2230.97 704.061 2299.75 633.942C2368.67 563.686 2406.41 470.511 2406.41 371.334C2406.41 272.157 2368.54 178.846 2299.75 108.726ZM2275.8 567.369L2144.66 433.678C2134.49 451.003 2120.17 465.6 2103.17 475.968L2234.32 609.659C2189.09 647.584 2132.88 672.549 2071.32 678.551V489.473C2061.96 491.793 2052.05 493.293 2042.02 493.293C2031.98 493.293 2022.08 492.065 2012.71 489.473V678.551C1951.29 672.412 1894.95 647.72 1849.72 609.659L1980.86 475.968C1963.87 465.6 1949.55 451.003 1939.38 433.678L1808.24 567.369C1770.9 521.259 1746.54 463.963 1740.66 401.21H1926.13C1923.86 391.661 1922.38 381.566 1922.38 371.334C1922.38 361.103 1923.59 351.008 1926.13 341.458H1740.52C1746.54 278.842 1770.77 221.409 1808.1 175.299L1939.24 308.99C1949.42 291.665 1963.73 277.068 1980.73 266.7L1849.59 133.009C1894.82 94.948 1951.02 70.1197 2012.58 64.1172V253.195C2021.95 250.876 2031.85 249.375 2041.88 249.375C2051.92 249.375 2061.82 250.603 2071.19 253.195V64.1172C2132.61 70.2561 2188.95 94.948 2234.18 133.009L2103.04 266.7C2120.03 277.068 2134.35 291.665 2144.52 308.99L2275.67 175.299C2312.87 221.409 2337.36 278.705 2343.25 341.458H2157.77C2160.05 351.008 2161.52 361.103 2161.52 371.334C2161.52 381.566 2160.31 391.661 2157.77 401.21H2343.25C2337.22 463.827 2313 521.259 2275.67 567.369H2275.8Z" fill="#D80000"/>
<path d="M2042.15 466.563C2093.74 466.563 2135.56 423.931 2135.56 371.342C2135.56 318.753 2093.74 276.121 2042.15 276.121C1990.56 276.121 1948.74 318.753 1948.74 371.342C1948.74 423.931 1990.56 466.563 2042.15 466.563Z" fill="#D80000"/>
</svg>
