<svg width="2031" height="1243" viewBox="0 0 2031 1243" fill="none" xmlns="http://www.w3.org/2000/svg">
<g clip-path="url(#clip0_239_1003)">
<path d="M988.921 482.377C988.921 482.377 1060.81 583.794 1043.89 647.867C1043.89 647.867 991.924 565.615 921.272 560.663C921.272 560.663 957.355 610.202 964.232 677.095C967.35 707.286 962.329 737.844 948.529 764.918C938.328 784.931 925.65 793.963 902.016 802.33C902.016 802.33 1071.49 809.391 1090.02 654.904C1099.32 577.191 1045.11 520.018 988.921 482.377Z" fill="#BF0076"/>
<path d="M797.664 619.969C804.312 588.311 815.637 566.349 815.637 566.349C741.684 602.799 717.682 665.863 717.682 665.863C685.703 609.882 737.786 500.74 737.786 500.74C689.164 543.952 651.775 602.363 671.673 673.91C717.499 838.551 884.455 801.483 884.455 801.483C880.811 801.895 874.483 798.617 867.239 793.712C811.006 755.451 783.704 686.518 797.687 619.946L797.664 619.969Z" fill="#BF0076"/>
<path d="M936.311 646.696C867.263 651.74 849.566 688.006 849.566 688.006C839.089 650.02 887.735 592.48 887.735 592.48C887.735 592.48 823.501 613.135 815.844 690.619C808.188 768.103 899.174 802.42 899.174 802.42C867.011 736.811 936.265 646.696 936.288 646.696H936.311Z" fill="#BF0076"/>
<path d="M764.927 569.306C780.836 571.209 795.255 559.884 797.181 543.975C799.084 528.065 787.759 513.646 771.85 511.72C755.94 509.818 741.521 521.142 739.595 537.052C737.693 552.961 749.017 567.38 764.927 569.306Z" fill="#BF0076"/>
<path d="M970.282 563.461C985.275 565.272 998.892 554.566 1000.68 539.574C1002.49 524.581 991.785 510.964 976.793 509.176C961.8 507.365 948.183 518.071 946.395 533.04C944.584 548.033 955.29 561.65 970.282 563.438V563.461Z" fill="#BF0076"/>
<path d="M876.475 624.485C875.169 635.397 882.94 645.278 893.829 646.607C904.741 647.914 914.621 640.142 915.951 629.254C917.258 618.342 909.486 608.461 898.597 607.132C887.685 605.825 877.805 613.596 876.475 624.485Z" fill="#BF0076"/>
<path d="M491.053 798.592C474.112 798.592 458.913 795.543 445.388 789.469C431.885 783.371 421.203 774.362 413.386 762.418C405.568 750.475 401.648 735.757 401.648 718.243C401.648 703.159 404.422 690.711 409.993 680.854C415.563 670.996 423.151 663.11 432.78 657.196C442.408 651.281 453.274 646.788 465.401 643.716C477.505 640.645 490.067 638.421 503.065 637.023C518.722 635.395 531.422 633.928 541.165 632.598C550.908 631.269 558.014 629.183 562.462 626.34C566.932 623.497 569.156 619.073 569.156 613.044V611.989C569.156 598.877 565.281 588.744 557.51 581.546C549.739 574.348 538.552 570.772 523.949 570.772C508.521 570.772 496.325 574.142 487.339 580.858C482.984 584.114 479.339 587.644 476.358 591.472C470.238 599.335 460.472 603.462 450.592 602.063L449.4 601.903C427.392 598.785 417.604 571.918 433.032 555.894C433.146 555.779 433.238 555.665 433.353 555.573C444.012 544.615 457.056 536.385 472.484 530.884C487.912 525.382 504.945 522.631 523.628 522.631C536.489 522.631 549.303 524.144 562.072 527.147C574.818 530.173 586.486 535.125 597.031 542.025C607.577 548.925 616.081 558.278 622.523 570.107C628.965 581.936 632.174 596.722 632.174 614.465V793.274H608.356C588.091 793.274 571.654 776.837 571.654 756.572H569.568C565.74 764 560.376 770.923 553.475 777.365C546.575 783.806 537.933 788.964 527.548 792.838C517.163 796.713 505.037 798.661 491.122 798.661L491.053 798.592ZM507.398 752.331C520.029 752.331 530.987 749.81 540.271 744.766C549.555 739.723 556.708 733.029 561.751 724.685C566.794 716.34 569.316 707.239 569.316 697.382V665.907C567.345 667.535 564.021 669.048 559.321 670.423C554.622 671.822 549.372 673.037 543.572 674.068C537.772 675.1 532.041 676.04 526.356 676.842C520.671 677.644 515.742 678.355 511.57 678.928C502.171 680.212 493.758 682.298 486.353 685.186C478.926 688.075 473.08 692.109 468.793 697.267C464.507 702.425 462.352 709.073 462.352 717.189C462.352 728.788 466.593 737.545 475.052 743.46C483.511 749.374 494.308 752.331 507.398 752.331Z" fill="#BF0076"/>
<path d="M1250.74 798.41C1224.06 798.41 1201.2 792.564 1182.13 780.85C1163.05 769.136 1148.38 752.928 1138.11 732.228C1127.84 711.527 1122.73 687.686 1122.73 660.658C1122.73 633.631 1127.96 609.56 1138.39 588.745C1148.82 567.93 1163.58 551.7 1182.65 540.054C1201.73 528.409 1224.31 522.586 1250.4 522.586C1272.08 522.586 1291.29 526.552 1308.05 534.507C1324.81 542.461 1338.17 553.648 1348.14 568.068C1348.24 568.205 1348.35 568.366 1348.44 568.503C1362.95 589.754 1347.14 618.593 1321.41 618.593H1305.02C1302.59 605.732 1296.82 594.958 1287.72 586.338C1278.62 577.696 1266.47 573.386 1251.29 573.386C1238.43 573.386 1227.1 576.848 1217.36 583.725C1207.62 590.625 1200.05 600.505 1194.67 613.389C1189.28 626.249 1186.57 641.677 1186.57 659.65C1186.57 677.622 1189.23 693.486 1194.57 706.53C1199.92 719.574 1207.41 729.614 1217.09 736.629C1226.76 743.644 1238.15 747.151 1251.27 747.151C1260.55 747.151 1268.85 745.386 1276.23 741.856C1283.59 738.326 1289.78 733.191 1294.75 726.474C1299.73 719.757 1303.17 711.573 1305.02 701.945H1321.35C1346.88 701.945 1362.77 730.325 1348.81 751.69C1348.72 751.828 1348.63 751.988 1348.51 752.126C1338.88 766.683 1325.79 778.03 1309.2 786.214C1292.62 794.398 1273.14 798.479 1250.76 798.479L1250.74 798.41Z" fill="#BF0076"/>
<path d="M1455.18 636.656V730.233C1455.18 765.009 1426.98 793.206 1392.2 793.206V467.774C1392.2 450.764 1405.98 436.986 1422.99 436.986C1440 436.986 1453.78 450.764 1453.78 467.774V571.437H1456.92C1463.18 556.353 1472.9 544.455 1486.05 535.698C1499.21 526.941 1515.99 522.562 1536.4 522.562C1554.94 522.562 1571.13 526.46 1584.93 534.208C1598.73 541.979 1609.43 553.35 1617.02 568.296C1624.61 583.266 1628.41 601.513 1628.41 623.085V761.708C1628.41 779.084 1614.32 793.183 1596.94 793.183C1579.56 793.183 1565.46 779.084 1565.46 761.708V632.828C1565.46 614.855 1560.86 600.849 1551.64 590.831C1542.43 580.813 1529.52 575.792 1512.94 575.792C1501.8 575.792 1491.88 578.199 1483.12 583.014C1474.36 587.828 1467.53 594.751 1462.6 603.806C1457.67 612.861 1455.22 623.819 1455.22 636.679L1455.18 636.656Z" fill="#BF0076"/>
</g>
<defs>
<clipPath id="clip0_239_1003">
<rect width="1226.77" height="368.094" fill="white" transform="translate(401.648 436.988)"/>
</clipPath>
</defs>
</svg>
