<svg width="2031" height="1243" viewBox="0 0 2031 1243" fill="none" xmlns="http://www.w3.org/2000/svg">
<path d="M346.159 594.338C374.915 594.338 390.622 610.045 390.622 638.802V730.688C390.622 759.445 374.915 775.152 346.159 775.152H260.494C231.738 775.152 216.031 759.445 216.031 730.688V546.915C216.031 542.464 217.219 539.202 220.481 535.94L255.46 500.961C261.098 495.323 266.435 497.397 266.435 505.412V708.759H340.238V660.731H285.988C280.35 660.731 277.087 657.469 277.087 651.831V632.257C277.087 607.951 290.72 594.318 314.724 594.318H346.138L346.159 594.338Z" fill="#800000"/>
<path d="M597.815 708.758C603.454 708.758 606.716 712.021 606.716 717.659V739.307C606.716 763.613 593.083 777.246 569.079 777.246C545.076 777.246 531.443 763.613 531.443 739.307V683.285L474.534 696.334V708.778H512.473C518.112 708.778 521.374 712.041 521.374 717.679V739.327C521.374 763.633 507.741 777.266 483.737 777.266H466.238C437.482 777.266 421.774 761.559 421.774 732.802V719.753C421.774 703.16 432.749 690.997 452.001 686.547L531.443 668.464V660.751H436.293C430.655 660.751 427.393 657.489 427.393 651.85V603.239C427.393 597.6 430.655 594.338 436.293 594.338H537.383C566.139 594.338 581.846 610.045 581.846 638.801V708.758H597.856H597.815Z" fill="#800000"/>
<path d="M778.932 708.76C784.57 708.76 787.832 712.022 787.832 717.66V737.234C787.832 761.54 774.199 775.173 750.196 775.173H666.001C637.245 775.173 624.498 762.426 624.498 739.61V717.681C624.498 691.885 635.473 684.474 653.254 682.118L732.394 671.445V660.772H637.245C631.607 660.772 628.344 657.51 628.344 651.872V603.26C628.344 597.622 631.607 594.359 637.245 594.359H741.295C770.051 594.359 782.798 605.918 782.798 628.754V652.758C782.798 678.554 770.635 684.776 755.532 686.85L674.902 697.825V708.8H778.952L778.932 708.76Z" fill="#800000"/>
<path d="M1063.49 708.758C1069.13 708.758 1072.39 712.021 1072.39 717.659V739.307C1072.39 763.613 1058.76 777.245 1034.76 777.245C1010.75 777.245 997.119 763.613 997.119 739.307V660.751H956.22V766.271C956.22 771.909 952.958 775.171 947.319 775.171H914.717C909.078 775.171 905.816 771.909 905.816 766.271V660.751H864.917V766.271C864.917 771.909 861.655 775.171 856.016 775.171H823.414C817.775 775.171 814.513 771.909 814.513 766.271V638.801C814.513 610.045 830.22 594.338 858.977 594.338H891.579C912.622 594.338 926.255 605.011 929.82 623.98H932.196C935.76 605.011 949.393 594.338 970.437 594.338H1003.04C1031.8 594.338 1047.5 610.045 1047.5 638.801V708.758H1063.51H1063.49Z" fill="#800000"/>
<path d="M1270.1 708.758C1275.74 708.758 1279 712.021 1279 717.659V739.307C1279 763.613 1265.07 777.245 1239.57 777.245C1219.11 777.245 1207.27 769.251 1195.11 749.98L1169.31 709.081H1143.52V765.989C1143.52 771.023 1139.37 775.171 1134.33 775.171H1102.32C1097.28 775.171 1093.13 771.023 1093.13 765.989V546.934C1093.13 542.484 1094.32 539.222 1097.58 535.96L1132.56 500.981C1138.2 495.342 1143.54 497.417 1143.54 505.431V644.46H1172.88L1205.48 599.694C1208.14 595.848 1211.7 594.358 1216.45 594.358H1256.47C1263.88 594.358 1266.25 599.392 1262.11 605.333L1220.9 661.959C1216.17 668.484 1208.74 673.518 1203.12 674.122V676.498C1206.69 676.8 1214.1 680.345 1217.64 686.285L1230.97 708.819H1270.1V708.758Z" fill="#800000"/>
<path d="M1470.79 708.758C1476.43 708.758 1479.69 712.021 1479.69 717.659V739.307C1479.69 763.613 1466.06 777.246 1442.05 777.246C1418.05 777.246 1404.42 763.613 1404.42 739.307V683.285L1347.51 696.334V708.778H1385.45C1391.09 708.778 1394.35 712.041 1394.35 717.679V739.327C1394.35 763.633 1380.72 777.266 1356.71 777.266H1339.21C1310.46 777.266 1294.75 761.559 1294.75 732.802V719.753C1294.75 703.16 1305.73 690.997 1324.98 686.547L1404.42 668.464V660.751H1309.27C1303.63 660.751 1300.37 657.489 1300.37 651.85V603.239C1300.37 597.6 1303.63 594.338 1309.27 594.338H1410.36C1439.11 594.338 1454.82 610.045 1454.82 638.801V708.758H1470.83H1470.79Z" fill="#800000"/>
<path d="M1672.04 708.758C1677.68 708.758 1680.94 712.021 1680.94 717.659V739.307C1680.94 763.613 1667.31 777.246 1643.31 777.246C1619.3 777.246 1605.67 763.613 1605.67 739.307V683.285L1548.76 696.334V708.778H1586.7C1592.34 708.778 1595.6 712.041 1595.6 717.679V739.327C1595.6 763.633 1581.97 777.266 1557.97 777.266H1540.47C1511.71 777.266 1496 761.559 1496 732.802V719.753C1496 703.16 1506.98 690.997 1526.23 686.547L1605.67 668.464V660.751H1510.52C1504.88 660.751 1501.62 657.489 1501.62 651.85V603.239C1501.62 597.6 1504.88 594.338 1510.52 594.338H1611.61C1640.37 594.338 1656.07 610.045 1656.07 638.801V708.758H1672.08H1672.04Z" fill="#800000"/>
<path d="M1710.59 775.152C1704.95 775.152 1701.68 771.89 1701.68 766.251V638.782C1701.68 610.026 1717.39 594.318 1746.15 594.318H1805.13C1810.77 594.318 1814.03 597.581 1814.03 603.219V651.831C1814.03 657.469 1810.77 660.731 1805.13 660.731H1752.07V766.251C1752.07 771.89 1748.81 775.152 1743.17 775.152H1710.57H1710.59Z" fill="#800000"/>
<path d="M1431.69 510.828L1381.21 465.712C1380.66 465.215 1379.81 465.263 1379.31 465.818L1334.19 516.296C1333.7 516.852 1333.74 517.705 1334.3 518.201L1384.78 563.318C1385.33 563.815 1386.19 563.767 1386.68 563.211L1431.8 512.733C1432.3 512.178 1432.25 511.325 1431.69 510.828Z" fill="#800000"/>
<path d="M1618.41 522.174L1567.93 477.057C1567.38 476.561 1566.53 476.609 1566.03 477.164L1520.91 527.642C1520.42 528.198 1520.46 529.051 1521.02 529.547L1571.5 574.664C1572.05 575.16 1572.91 575.113 1573.4 574.557L1618.52 524.079C1619.01 523.523 1618.97 522.67 1618.41 522.174Z" fill="#800000"/>
<path d="M913.443 510.83L862.965 465.714C862.41 465.217 861.557 465.265 861.06 465.82L815.944 516.298C815.447 516.854 815.495 517.707 816.051 518.203L866.528 563.32C867.084 563.817 867.937 563.769 868.434 563.213L913.55 512.735C914.047 512.18 913.999 511.327 913.443 510.83Z" fill="#800000"/>
<path d="M1045.83 510.83L995.357 465.714C994.801 465.217 993.948 465.265 993.452 465.82L948.335 516.298C947.839 516.854 947.886 517.707 948.442 518.203L998.92 563.32C999.476 563.817 1000.33 563.769 1000.83 563.213L1045.94 512.735C1046.44 512.18 1046.39 511.327 1045.83 510.83Z" fill="#800000"/>
</svg>
