<svg width="2031" height="1243" viewBox="0 0 2031 1243" fill="none" xmlns="http://www.w3.org/2000/svg">
<path d="M1690.84 553.321C1687.42 547.828 1681.85 544.435 1675.53 543.895C1671.11 543.515 1666.73 543.322 1661.33 543.269C1658.97 543.242 1656.64 543.249 1654.32 543.255C1652.05 543.255 1649.78 543.262 1647.48 543.242C1641.41 543.182 1634.69 542.942 1626.51 541.775L1626.12 493.7C1626.06 486.394 1620.06 480.394 1612.75 480.321L1603.05 480.221C1595.73 480.148 1589.61 486.027 1589.41 493.333L1588.74 517.051C1588.67 519.651 1588.76 522.424 1588.85 525.364C1588.99 529.657 1589.15 534.329 1588.71 538.196C1586.16 537.969 1583.64 537.842 1581.13 537.816C1573.29 537.736 1565.51 538.662 1557.37 540.649C1553.82 541.515 1550.24 542.495 1546.78 543.449C1536.27 546.342 1526.34 549.075 1516.31 548.975C1515.57 548.968 1514.82 548.941 1514.09 548.901C1505.24 548.421 1496.6 546.362 1487.45 544.175C1479.96 542.382 1472.2 540.529 1464.23 539.596C1460.97 539.216 1457.66 539.002 1454.39 538.969C1404.08 538.469 1363.06 579.352 1331.79 614.102C1324.64 583.538 1302.49 556.541 1273.4 544.335C1247.06 533.276 1214.42 534.016 1189.23 547.848C1168.83 559.054 1153.24 577.959 1148.16 600.743C1136.37 583.292 1124.32 566.88 1107.27 554.114C1087.53 539.329 1064.54 531.063 1042.56 530.843C1031.36 530.73 1020.41 532.65 1010.02 536.549C983.225 546.615 960.848 568.58 950.158 595.311C947.153 602.817 945.016 610.729 943.787 618.835C941.136 624.588 938.912 628.988 936.642 633.014C929.417 645.813 921.117 657.418 911.982 667.511C891.135 690.529 861.9 704.661 835.677 704.401C818.65 704.234 803.799 698.141 791.532 686.296C783.733 678.763 778.037 669.671 775.018 660.078C782.891 660.611 790.818 660.925 798.69 660.998C816.059 661.171 833.634 660.231 850.922 658.205C853.306 657.925 855.797 657.672 858.435 657.398C880.744 655.112 908.51 652.259 921.117 630.227C929.17 616.149 928.589 599.704 919.447 582.658C912.59 569.88 900.744 557.054 887.756 548.355C872.124 537.889 852.745 532.01 833.18 531.816C818.075 531.663 803.138 534.869 789.99 541.089C761.116 554.741 739.948 583.018 734.586 614.382C698.1 608.523 666.956 583.438 641.08 559.327C636.679 555.228 632.219 550.975 627.898 546.862C624.186 543.329 620.46 539.776 616.693 536.243C633.675 529.037 650.656 521.824 667.583 514.498C672.705 512.278 676.498 508.538 677.973 502.972C680.591 493.093 676.718 484.734 671.69 476.475C662.789 481.061 654.074 485.554 645.36 490.04C645.928 488.96 646.709 488.234 647.51 487.527C657.44 478.781 667.329 469.995 677.346 461.349C678.975 459.943 679.115 458.763 677.98 457.283C675.449 453.99 673.206 450.357 670.181 447.584C652.225 431.145 631.257 420.206 607.599 414.473C600.941 412.86 594.183 412.26 587.386 413.987C585.302 414.513 584.314 415.453 583.96 417.76C581.503 433.865 578.852 449.944 576.254 466.029C576.094 467.009 575.88 467.975 575.693 468.949C575.179 467.709 575.112 466.542 575.092 465.382C574.899 453.697 574.665 442.018 574.585 430.332C574.571 428.352 573.937 427.659 572.041 427.439C563.553 426.459 555.34 427.486 547.527 430.899C544.983 432.005 542.553 433.558 540.389 435.305C536.135 438.751 534.673 443.204 536.109 448.657C539.281 460.683 542.339 472.735 545.424 484.787C545.023 484.607 544.623 484.427 544.215 484.254C523.588 475.415 501.031 470.995 475.263 470.735C440.172 470.382 404.648 478.114 377.623 484.887C367.767 487.36 361.751 497.386 364.215 507.239C366.252 515.378 373.537 521.124 381.937 521.204C383.506 521.217 385.082 521.031 386.611 520.651C415.218 513.511 445.755 506.945 475.216 507.239C496.391 507.452 514.747 511.145 531.341 518.524C540.022 522.384 548.062 527.197 555.721 532.683C554.278 532.383 553.37 532.183 552.469 532.01C543.948 530.383 535.601 532.03 527.368 533.769C481.226 543.522 439.05 562.46 400.514 589.438C379.7 604.01 361.223 621.042 348.356 643.34C338.48 660.451 334.119 678.71 337.531 698.455C339.902 712.18 345.044 724.379 356.582 733.052C363.681 738.391 370.639 743.951 377.997 748.904C399.319 763.249 421.962 775.335 444.947 786.773C466.028 797.266 487.623 806.705 509.679 814.944C523.221 820.004 536.923 824.617 551.153 827.396C558.191 828.77 565.29 830.083 572.448 828.183C599.926 820.904 617.087 802.625 627.09 776.834C633.514 760.262 636.245 742.937 636.886 725.279C638.496 681.176 630.336 638.66 615.351 597.344C613.281 591.638 611.038 586.005 608.534 580.499C612.593 584.412 616.707 588.305 620.88 592.064C653.347 621.328 692.778 642.433 735.14 653.252C735.688 655.439 736.375 658.332 736.903 660.538C738.766 668.344 739.38 670.791 739.841 671.99C742.919 679.996 746.979 687.636 751.914 694.715C770.745 721.699 801.836 737.385 837.2 737.738C858.642 737.951 879.756 732.505 898.246 721.979C913.504 713.3 926.773 702.781 937.69 690.735C941.937 686.049 946.051 681.056 949.984 675.823C954.765 687.756 961.476 698.488 969.956 707.741C978.764 717.353 989.375 725.046 1001.51 730.618C1013.69 736.211 1027.19 739.118 1041.63 739.264C1050.98 739.358 1060.18 738.231 1068.95 735.911C1077.75 733.592 1085.93 730.185 1093.26 725.786C1100.61 721.386 1107.11 716.12 1112.58 710.134L1112.74 709.947C1117.61 704.588 1119.37 697.201 1117.45 690.195C1115.51 683.129 1110.18 677.617 1103.17 675.457L1097.37 673.664C1093.93 672.601 1090.27 674.459 1089.09 677.863C1087.94 681.19 1085.88 684.423 1082.96 687.469C1079.8 690.769 1075.94 693.748 1071.48 696.342C1066.97 698.961 1062.03 701.014 1056.76 702.461C1051.54 703.894 1046.21 704.594 1040.91 704.541C1032.67 704.461 1024.83 702.621 1017.61 699.081C1010.25 695.475 1003.72 690.529 998.209 684.369C992.68 678.197 988.266 670.771 985.094 662.285C981.923 653.799 980.36 644.64 980.46 635.054C980.667 614.169 990.19 593.351 1005.3 580.719C1016.26 571.559 1029.69 566.373 1042.14 566.5C1043.16 566.513 1044.18 566.553 1045.19 566.633C1067.4 568.406 1086.25 579.225 1102.85 599.697C1117.84 618.182 1129.04 642.066 1138.93 663.138C1140.26 665.964 1141.57 668.757 1142.87 671.49C1152.73 692.289 1167.29 717.82 1192.44 730.818C1205.09 737.351 1219.62 740.884 1234.47 741.031C1255.18 741.238 1275.35 734.918 1291.25 723.239C1310.14 709.36 1322.4 689.362 1334.27 670.024C1342.93 655.905 1351.23 642.38 1361.76 631.274L1360.53 795.773C1360.45 805.918 1368.66 814.258 1378.82 814.364C1388.84 814.464 1397.24 806.365 1397.49 796.373C1397.84 782.247 1398.19 769.435 1398.53 756.616C1398.8 746.697 1399.06 736.565 1399.34 725.779C1404.27 729.539 1409.33 732.152 1411.91 733.378C1422.39 738.351 1433.78 741.404 1445.76 742.457C1448.16 742.671 1450.62 742.784 1453.05 742.811C1484.12 743.124 1515.33 727.952 1534.5 703.228C1556.57 674.763 1560.57 634.207 1544.93 597.384C1542.58 591.838 1539.82 586.485 1536.69 581.385C1553.07 576.992 1575.63 575.619 1588.38 575.372L1586.73 687.782C1586.57 698.921 1586.36 712.787 1593.62 724.359C1601.17 736.398 1615.74 743.691 1632.61 743.857C1633.41 743.864 1634.22 743.857 1635.02 743.831C1647.43 743.417 1659.11 739.364 1667.91 735.871C1675.97 732.672 1680.23 723.726 1677.6 715.507C1675.43 708.707 1669.16 704.088 1661.99 704.014C1659.99 703.994 1658.01 704.334 1656.11 705.021C1651.54 706.681 1647.76 707.587 1644.22 707.874C1643.48 707.934 1642.71 707.961 1641.96 707.954C1636.02 707.894 1630.81 705.754 1628.03 702.221C1624.32 697.508 1624.14 690.355 1624.28 682.169L1626.03 577.732C1635.77 579.139 1643.64 580.099 1651.29 581.032C1657.45 581.785 1663.82 582.558 1671.08 583.565C1671.92 583.678 1672.77 583.745 1673.62 583.752C1683.69 583.852 1692.23 576.399 1693.5 566.413L1693.51 566.313C1694.08 561.794 1693.2 557.167 1690.79 553.294L1690.84 553.321ZM609.155 515.078C612.513 513.185 615.886 511.325 619.251 509.452C619.438 509.712 619.371 509.618 619.558 509.878C614.209 514.631 608.861 519.391 603.505 524.144C602.15 522.944 600.788 521.744 599.412 520.564C602.651 518.724 605.909 516.904 609.155 515.078ZM528.737 552.861C527.989 553.254 527.214 553.594 526.446 553.968C526.359 553.821 526.266 553.674 526.179 553.528C535.928 546.748 545.671 539.962 555.948 532.81C557.477 533.909 558.993 535.029 560.495 536.183C549.931 541.789 539.327 547.322 528.737 552.868V552.861ZM576.581 578.512C576.641 568.96 576.728 559.4 576.755 549.848C578.912 551.808 581.062 553.801 583.206 555.827C581.169 564.393 579.172 572.813 577.176 581.232C576.641 580.279 576.575 579.399 576.581 578.512ZM777.75 599.404C781.148 591.944 785.656 585.485 791.145 580.219C796.62 574.966 803.098 570.826 810.376 567.92C817.648 565.013 825.454 563.587 833.574 563.667C841.674 563.747 849.38 565.327 856.471 568.366C863.59 571.426 869.933 575.699 875.309 581.065C885.919 591.651 892.41 603.017 891.088 608.703C890.206 612.509 887.909 613.562 879.896 615.462C879.342 615.595 878.788 615.729 878.234 615.862C869.539 617.982 860.217 620.115 850.896 621.422C833.834 623.808 817.12 624.941 801.215 624.781C794.804 624.715 788.434 624.441 782.284 623.961C778.725 623.681 775.139 623.315 771.573 622.868C772.414 614.449 774.484 606.563 777.75 599.41V599.404ZM1294.89 648.999C1292.75 663.718 1285.38 678.377 1274.68 689.222C1263.59 700.461 1250.01 706.581 1236.43 706.447C1235.76 706.441 1235.07 706.421 1234.39 706.381C1213.71 705.234 1193.72 689.989 1183.66 672.47C1171.81 651.846 1172.44 628.734 1183.19 607.963C1192.69 589.604 1209.55 573.999 1230.68 571.166C1249.73 568.613 1269.28 577.999 1281.03 592.824C1292.7 607.543 1297.88 628.541 1294.89 649.006V648.999ZM1511.92 666.531C1509.02 674.617 1504.84 681.91 1499.49 688.209C1494.19 694.448 1487.74 699.521 1480.32 703.294C1473.08 706.974 1464.91 708.8 1456.05 708.707C1449.97 708.647 1444.04 707.527 1438.41 705.381C1432.63 703.181 1427.16 700.135 1422.14 696.322C1417.11 692.509 1412.55 687.916 1408.59 682.676L1408.47 682.516C1402.5 674.597 1399.27 664.624 1399.37 654.439L1399.8 611.656C1400.69 606.776 1402.87 602.023 1406.3 597.53C1410.07 592.564 1414.67 588.185 1419.94 584.505C1420.56 584.072 1421.24 583.618 1422.01 583.125C1428.6 579.892 1435.18 577.459 1441.56 575.892C1447.79 574.359 1453.97 573.613 1459.93 573.673C1463.17 573.706 1466.43 573.979 1469.63 574.479C1472.83 575.379 1475.96 576.566 1478.93 578.025C1486.51 581.745 1493.14 586.805 1498.64 593.051C1504.21 599.384 1508.64 606.79 1511.81 615.055C1514.97 623.295 1516.53 632.074 1516.44 641.16C1516.35 649.859 1514.83 658.405 1511.91 666.544L1511.92 666.531Z" fill="white"/>
</svg>
