<svg width="2031" height="1243" viewBox="0 0 2031 1243" fill="none" xmlns="http://www.w3.org/2000/svg">
<mask id="mask0_239_895" style="mask-type:luminance" maskUnits="userSpaceOnUse" x="459" y="241" width="1112" height="760">
<path d="M1570.44 241.457H459.637V1000.59H1570.44V241.457Z" fill="white"/>
</mask>
<g mask="url(#mask0_239_895)">
<path d="M1296.78 836.134C1296.78 875.862 1316.52 894.082 1344.04 894.082C1367.13 894.082 1375.1 883.39 1377.69 879.658H1378.14V882.695C1378.14 903.508 1368.02 914.895 1343.09 914.895C1336.74 914.863 1330.45 913.572 1324.6 911.097C1318.74 908.621 1313.44 905.009 1308.99 900.471L1297.48 928.559C1310.55 939.311 1327.13 944.873 1344.04 944.185C1391.3 944.185 1412.74 921.917 1412.74 878.456V784.45C1397.97 777.224 1381.66 773.726 1365.23 774.265C1325.95 774.265 1296.78 791.852 1296.78 836.134ZM1377.44 855.113C1374.96 858.308 1371.74 860.861 1368.06 862.556C1364.39 864.252 1360.36 865.04 1356.31 864.855C1342.2 864.855 1332.78 857.011 1332.78 834.553C1332.78 812.095 1344.99 803.365 1361.44 803.365C1366.91 803.241 1372.35 804.209 1377.44 806.212V855.113Z" fill="#D70000"/>
<path d="M783.97 362.427C796.622 362.427 803.96 355.595 803.96 344.208V343.512C803.96 332.188 796.685 325.293 783.97 325.293C771.254 325.293 764.232 332.188 764.232 343.512V344.208C764.232 355.342 771.318 362.427 783.97 362.427Z" fill="#D70000"/>
<path d="M801.628 376.416H766.328V493.133H801.628V376.416Z" fill="#D70000"/>
<path d="M584.142 437.589H650.946V405.959H584.142V380.148C584.142 364.08 593.315 359.588 613.558 359.588C628.442 359.662 643.28 361.252 657.841 364.333V331.437C642.075 328.842 626.12 327.572 610.142 327.641C569.655 327.641 546.881 342.824 546.881 375.657V493.133H584.015V437.589H584.142Z" fill="#D70000"/>
<path d="M720.965 586.193V525.715H685.729V682.603C692.055 687.094 707.364 696.33 735.831 696.33C775.939 696.33 801.243 677.162 801.243 630.159C801.243 592.582 782.645 573.92 755.379 573.92C742.922 573.399 730.762 577.808 721.534 586.193H720.965ZM765.248 633.196C765.248 658.057 754.683 667.04 737.982 667.04C732.059 667.347 726.173 665.942 721.028 662.992V612.889C723.725 609.813 727.054 607.355 730.788 605.685C734.522 604.014 738.573 603.17 742.664 603.21C756.961 603.21 765.185 612.193 765.185 633.196H765.248Z" fill="#D70000"/>
<path d="M1000.26 495.908C1022.85 495.908 1031.07 485.281 1034.17 480.789H1034.61V493.441H1068.02V325.293H1032.72V385.581H1032.27C1029.24 382.038 1021.71 373.498 1002.41 373.498C974.895 373.498 951.805 394.817 951.805 434.735C952.121 476.297 971.605 495.908 1000.26 495.908ZM1012.54 402.598C1016.48 402.435 1020.4 403.278 1023.93 405.049C1027.47 406.82 1030.49 409.46 1032.72 412.72V456.56C1030.38 459.742 1027.29 462.293 1023.72 463.983C1020.16 465.672 1016.22 466.448 1012.28 466.239C998.428 466.239 988.306 456.56 988.306 433.849C988.306 412.277 998.871 402.598 1012.54 402.598Z" fill="#D70000"/>
<path d="M1048.98 550.504V576.757H1034.62V604.592H1048.98V649.508C1048.98 685.693 1065.87 695.815 1093.27 695.815C1099.97 695.963 1106.65 694.935 1113 692.778V664.184C1109.58 665.22 1106.02 665.774 1102.44 665.829C1090.42 665.829 1084.28 661.844 1084.28 645.269V604.592H1113V576.757H1084.22V550.504H1048.98Z" fill="#D70000"/>
<path d="M1225.11 376.416H1189.81V493.133H1225.11V376.416Z" fill="#D70000"/>
<path d="M1308.79 495.922C1322.99 496.523 1337.05 492.913 1349.21 485.547L1340.29 459.103C1332.89 463.905 1324.18 466.292 1315.37 465.936C1296.77 465.936 1285 455.751 1285 433.546C1285 412.543 1298.66 402.611 1316.63 402.611C1324.81 402.451 1332.82 404.936 1339.47 409.696L1350.48 384.392C1339.44 376.562 1326.02 372.805 1312.52 373.764C1280.89 373.764 1249.26 393.185 1249.26 435.444C1249.26 477.702 1273.99 495.922 1308.79 495.922Z" fill="#D70000"/>
<path d="M1440.19 373.498C1433.8 373.089 1427.4 374.083 1421.43 376.41C1415.46 378.738 1410.08 382.343 1405.65 386.973H1405.14V325.293H1369.91V493.125H1405.14V412.72C1407.79 409.687 1411.05 407.242 1414.7 405.543C1418.35 403.843 1422.31 402.926 1426.34 402.851C1439.75 402.851 1445.88 409.683 1445.88 426.195V493.125H1481.37V420.311C1481.37 387.479 1463.98 373.498 1440.19 373.498Z" fill="#D70000"/>
<path d="M884.186 495.978C912.844 495.978 926.951 485.54 933.277 479.91L921.763 456.566C912.862 463.862 901.639 467.723 890.133 467.447C872.04 467.447 862.614 459.16 860.527 443.598H933.34V431.262C933.34 392.483 914.994 373.631 882.288 373.631C851.48 373.631 825.859 394.381 825.859 434.362C825.859 476.557 849.329 495.978 884.186 495.978ZM882.541 401.403C895.194 401.403 901.52 409.69 901.52 422.469H860.4C860.405 419.612 860.99 416.786 862.118 414.162C863.247 411.537 864.895 409.169 866.965 407.2C869.035 405.231 871.482 403.702 874.159 402.705C876.836 401.709 879.688 401.266 882.541 401.403Z" fill="#D70000"/>
<path d="M1207.2 362.427C1219.85 362.427 1227.19 355.595 1227.19 344.208V343.512C1227.19 332.188 1219.92 325.293 1207.2 325.293C1194.49 325.293 1187.46 332.188 1187.46 343.512V344.208C1187.46 355.342 1194.55 362.427 1207.2 362.427Z" fill="#D70000"/>
<path d="M605.774 695.813C623.926 696.226 642.047 694.097 659.609 689.487V658.995C644.65 661.818 629.472 663.321 614.251 663.487C593.311 663.487 584.138 659.248 584.138 643.876V624.897H650.499V595.165H584.138V561.826H657.774V530.195H547.004V649.253C547.004 681.2 569.335 695.813 605.774 695.813Z" fill="#D70000"/>
<path d="M1096.95 856.753C1094.38 859.806 1091.18 862.255 1087.56 863.928C1083.94 865.601 1079.99 866.456 1076.01 866.432C1062.66 866.432 1056.52 860.106 1056.52 843.026V777.107H1021.22V849.668C1021.22 882.943 1037.92 896.671 1062.41 896.671C1085.18 896.671 1094.04 886.992 1098.34 881.552H1098.59V893.824H1132.18V777.107H1096.69L1096.95 856.753Z" fill="#D70000"/>
<path d="M1021.97 574.107C997.74 574.107 988.757 584.039 984.582 594.478H984.076V576.764H950.674V693.481H985.974V619.023C989.082 614.063 993.476 610.037 998.689 607.375C1003.9 604.713 1009.74 603.513 1015.58 603.903C1017.7 603.876 1019.81 604.024 1021.91 604.346L1021.97 574.107Z" fill="#D70000"/>
<path d="M970.902 750.855H935.665V777.109H921.432V805.007H935.792V849.923C935.792 886.045 952.683 896.23 980.075 896.23C986.785 896.368 993.467 895.319 999.812 893.13V864.536C996.371 865.609 992.789 866.163 989.184 866.181C977.228 866.181 971.092 862.195 971.092 845.684V805.007H999.812V777.109H970.902V750.855Z" fill="#D70000"/>
<path d="M1231.44 774.258C1224.65 773.83 1217.86 774.971 1211.58 777.593C1205.31 780.215 1199.72 784.247 1195.25 789.377H1194.75V777.104H1161.41V893.821H1196.64V813.48C1199.28 810.447 1202.54 808.014 1206.19 806.345C1209.85 804.675 1213.82 803.808 1217.84 803.801C1230.49 803.801 1237.32 810.633 1237.32 826.954V893.821H1272.81V820.818C1272.81 788.238 1255.92 774.258 1231.44 774.258Z" fill="#D70000"/>
<path d="M1169.12 403.979V373.74C1144.9 373.74 1135.98 383.672 1131.74 394.047H1131.29V376.334H1097.89V493.114H1133.13V418.592C1136.25 413.627 1140.65 409.599 1145.88 406.937C1151.1 404.275 1156.95 403.078 1162.8 403.473C1164.92 403.495 1167.03 403.664 1169.12 403.979Z" fill="#D70000"/>
<path d="M850.539 771.922V777.109H836.242V805.007H850.539V893.573H885.839V805.007H911.143V777.109H885.839V770.783C885.839 758.131 892.861 753.07 904.375 753.07C907.72 752.959 911.059 753.43 914.243 754.462V726.753C909.206 725.309 903.985 724.605 898.744 724.666C870.846 724.666 850.539 739.279 850.539 771.922Z" fill="#D70000"/>
<path d="M795.545 726.053C782.893 726.053 775.744 732.885 775.744 744.272V744.968C775.744 756.292 782.829 763.187 795.545 763.187C808.26 763.187 815.472 756.292 815.472 744.968V744.272C815.472 732.885 808.197 726.053 795.545 726.053Z" fill="#D70000"/>
<path d="M725.328 750.855H690.218V777.109H675.857V805.007H690.154V849.923C690.154 886.045 707.108 896.23 734.437 896.23C741.149 896.384 747.834 895.334 754.175 893.13V864.536C750.754 865.604 747.194 866.159 743.61 866.181C731.654 866.181 725.328 862.195 725.328 845.684V805.007H753.985V777.109H725.328V750.855Z" fill="#D70000"/>
<path d="M926.703 680.256L915.126 656.596C906.225 663.893 895.001 667.753 883.495 667.477C865.403 667.477 855.977 659.253 853.889 643.628H926.703V631.608C926.703 592.829 908.42 573.914 875.714 573.914C844.906 573.914 819.285 594.664 819.285 634.645C819.285 676.967 842.818 696.325 877.612 696.325C906.269 696.325 920.377 685.95 926.703 680.256ZM875.904 602.065C888.556 602.065 894.882 610.289 894.882 623.068H853.826C853.831 620.22 854.414 617.402 855.539 614.785C856.664 612.169 858.308 609.807 860.372 607.844C862.436 605.881 864.876 604.356 867.546 603.363C870.216 602.37 873.059 601.928 875.904 602.065Z" fill="#D70000"/>
<path d="M709.965 418.599C713.078 413.644 717.473 409.623 722.685 406.961C727.897 404.299 733.732 403.097 739.571 403.48C741.691 403.459 743.808 403.629 745.897 403.986V373.811C721.732 373.811 712.749 383.679 708.51 394.117H708.067V376.404H674.729V493.121H710.028L709.965 418.599Z" fill="#D70000"/>
<path d="M813.147 777.107H777.91V893.824H813.147V777.107Z" fill="#D70000"/>
<path d="M616.838 797.169C584.385 787.047 579.451 782.999 579.451 773.067C579.451 763.135 588.877 759.402 606.716 759.402C620.838 759.727 634.685 763.367 647.14 770.03L655.364 739.538C639.596 731.496 622.07 727.517 604.376 727.961C568.633 727.961 542.316 746.94 542.316 775.913C542.316 801.218 555.918 813.87 589.762 825.51C616.838 834.493 624.113 838.985 624.113 849.17C624.113 858.406 611.461 864.036 591.217 864.036C575.441 864.226 559.758 861.591 544.91 856.255V889.594C560.979 894.429 577.739 896.566 594.507 895.92C630.945 895.92 662.007 876.941 662.007 844.868C662.07 820.829 648.089 807.354 616.838 797.169Z" fill="#D70000"/>
<path d="M1257.63 746.929C1279.81 747.042 1301.53 740.567 1320.02 728.325C1338.52 716.083 1352.97 698.625 1361.54 678.164C1370.11 657.702 1372.41 635.158 1368.15 613.388C1363.89 591.617 1353.26 571.601 1337.62 555.876C1321.97 540.151 1302.01 529.423 1280.26 525.054C1258.52 520.685 1235.96 522.87 1215.45 531.333C1194.95 539.796 1177.42 554.155 1165.08 572.591C1152.75 591.027 1146.16 612.711 1146.16 634.894C1146.13 664.519 1157.84 692.949 1178.74 713.951C1199.63 734.952 1228 746.812 1257.63 746.929ZM1251.93 735.226C1230.05 734 1209.19 725.57 1192.59 711.25H1251.93V735.226ZM1263.32 735.226V711.25H1322.72C1306.05 725.635 1285.06 734.069 1263.07 735.226H1263.32ZM1333.54 700.369H1263.07V675.76H1348.79C1344.91 684.651 1339.77 692.939 1333.54 700.369ZM1353.21 664.879H1263.07V640.461H1357.2C1356.89 648.734 1355.55 656.936 1353.21 664.879ZM1257.63 534.308C1283.31 534.389 1307.98 544.313 1326.56 562.036C1345.14 579.759 1356.22 603.933 1357.52 629.58H1263.07V568.849L1306.15 612.183C1306.67 612.705 1307.28 613.119 1307.96 613.402C1308.64 613.685 1309.37 613.831 1310.1 613.831C1310.84 613.831 1311.56 613.685 1312.24 613.402C1312.92 613.119 1313.54 612.705 1314.06 612.183C1315.09 611.129 1315.68 609.709 1315.68 608.229C1315.68 606.749 1315.09 605.329 1314.06 604.275L1261.55 551.452C1260.51 550.417 1259.1 549.836 1257.63 549.836C1256.16 549.836 1254.75 550.417 1253.7 551.452L1201.01 604.402C1199.97 605.455 1199.39 606.876 1199.39 608.355C1199.39 609.835 1199.97 611.256 1201.01 612.309C1202.05 613.345 1203.46 613.926 1204.93 613.926C1206.4 613.926 1207.81 613.345 1208.85 612.309L1251.93 568.975V629.706H1157.8C1159.06 604.048 1170.12 579.852 1188.69 562.104C1207.26 544.355 1231.94 534.407 1257.63 534.308ZM1157.8 640.461H1251.93V664.879H1161.85C1159.5 656.938 1158.14 648.736 1157.8 640.461ZM1251.93 675.76V700.369H1181.78C1175.46 692.946 1170.25 684.66 1166.28 675.76H1251.93Z" fill="#D70000"/>
</g>
</svg>
