<svg width="2031" height="1243" viewBox="0 0 2031 1243" fill="none" xmlns="http://www.w3.org/2000/svg">
<path d="M1614.33 780.324H610.975V793.514H1614.33V780.324Z" fill="#C20000"/>
<path d="M550.515 618.243V586.203H567.525V760.533C567.525 764.823 559.985 779.883 557.005 783.963C526.425 825.803 444.195 824.253 418.335 777.463L430.535 767.163C451.335 802.963 517.915 809.183 540.765 773.423C551.735 756.253 543.815 734.713 548.625 716.263L528.455 734.753C484.715 764.293 428.665 737.923 416.915 688.363C395.915 599.843 493.325 542.163 550.525 618.233L550.515 618.243ZM481.995 601.743C412.615 612.723 421.655 743.213 505.655 728.993C518.505 726.813 542.115 710.113 545.865 697.483C547.895 690.653 547.855 648.123 546.605 640.043C545.105 630.343 530.955 616.193 522.775 611.043C510.425 603.283 496.685 599.413 481.995 601.743Z" fill="#C20000"/>
<path d="M1453.73 522.133V722.843C1453.73 724.933 1460.82 726.973 1461.27 728.803C1458.57 740.553 1465.29 751.573 1446.06 745.553C1432.86 741.413 1434.29 727.383 1434.81 716.243C1404.65 755.673 1352.13 760.213 1318.6 721.923C1261.97 657.253 1330.78 543.033 1411.99 596.733L1432.94 616.363V522.133H1453.73ZM1366.31 601.733C1313.68 610.723 1302.89 695.503 1350.38 722.263C1377.78 737.703 1422.13 726.383 1431.46 694.993C1433.88 686.853 1434.32 650.783 1432.83 641.903C1431.16 631.933 1415.53 616.313 1407.11 611.013C1394.49 603.063 1381.38 599.153 1366.3 601.733H1366.31Z" fill="#C20000"/>
<path d="M593.735 524.233C595.045 526.483 593.435 528.803 592.175 530.703C590.915 532.603 568.225 555.224 566.675 556.134C548.175 566.934 516.375 542.854 507.395 526.504C475.465 468.414 533.665 404.544 594.015 436.344C647.305 464.424 607.095 528.303 671.065 544.173C699.325 551.183 731.065 527.964 732.045 498.574C732.845 474.734 713.815 445.874 688.905 443.253C681.115 442.434 663.515 468.544 659.195 468.894C656.425 469.114 646.845 462.414 650.545 457.044C652.995 453.494 677.945 429.514 680.835 428.654C697.215 423.754 725.725 444.804 734.165 458.624C779.415 532.714 676.785 599.723 627.165 531.423C609.135 506.603 622.735 479.124 596.845 456.124C552.035 416.314 488.595 467.494 520.655 520.804C528.705 534.194 540.545 540.494 555.335 544.644C566.145 538.194 575.485 529.524 582.585 519.154L593.735 524.223V524.233Z" fill="#C20000"/>
<path d="M1264.77 744.514H1243.98V636.145C1243.98 634.545 1240.28 622.535 1239.26 620.125C1228.47 594.715 1195.89 598.675 1176.91 612.595C1170.93 616.975 1151.4 639.165 1151.4 645.575V744.514H1130.61V586.204H1149.51V620.125C1173.29 583.785 1242.7 560.964 1260.57 613.944C1261.58 616.944 1264.77 628.354 1264.77 630.484V744.504V744.514Z" fill="#C20000"/>
<path d="M947.325 586.203L968.105 586.223C966.715 589.043 966.185 591.373 966.105 594.573C965.425 621.753 962.755 684.604 971.795 707.844C983.035 736.734 1017.58 734.393 1038.92 718.073C1044.68 713.663 1062.59 693.283 1062.59 687.023V586.193H1083.38V722.833C1083.38 724.123 1089.97 725.424 1090.95 730.344C1093.6 743.694 1089.6 749.823 1075.72 745.533C1058.91 740.343 1066.59 710.683 1063.54 710.563C1045.51 747.883 975.575 767.113 954.525 723.193C953.245 720.513 947.325 703.714 947.325 702.104V586.193V586.203Z" fill="#C20000"/>
<path d="M1589.14 721.263C1598.26 712.263 1598.37 694.923 1588.54 686.393C1564.27 665.333 1493.22 676.743 1493.28 630.503C1493.34 579.383 1565.26 573.543 1599.08 594.853C1611.76 602.843 1614.73 606.583 1600.42 616.253C1579.39 592.403 1509 588.283 1514.17 632.443C1515.17 640.963 1519.67 644.363 1527 647.913C1558.24 663.053 1623.31 656.843 1615.74 709.183C1608.8 757.233 1534.38 753.953 1501.61 735.423C1487.05 727.193 1483.94 724.443 1496.25 710.643C1516.78 730.963 1567.14 743.013 1589.15 721.283L1589.14 721.263Z" fill="#C20000"/>
<path d="M871.735 605.053H915.195V620.133H871.735V744.523H850.945V622.963C847.995 617.183 829.855 621.733 828.265 620.143V605.043L850.125 603.283C849.205 568.493 851.685 519.883 897.225 518.233C911.565 517.713 942.815 525.123 923.735 542.613C908.615 534.053 887.485 533.143 877.675 549.713C876.735 551.313 871.735 563.723 871.735 564.513V605.033V605.053Z" fill="#C20000"/>
<path d="M684.405 586.473L737.605 723.783L793.315 588.083L813.155 586.213L750.595 744.293L726.045 743.353L662.015 587.133L684.405 586.473Z" fill="#C20000"/>
<path d="M633.655 586.203H612.865V744.513H633.655V586.203Z" fill="#C20000"/>
</svg>
