<svg width="2031" height="1243" viewBox="0 0 2031 1243" fill="none" xmlns="http://www.w3.org/2000/svg">
<path d="M254.055 433.816C273.124 433.856 288.568 449.292 288.586 468.332C288.607 487.374 273.194 502.841 254.123 502.916C234.972 502.993 219.402 487.523 219.383 468.4C219.364 449.278 234.904 433.779 254.055 433.816Z" fill="#2C2A6B"/>
<path d="M621.864 433.852C640.894 432.888 657.119 447.476 658.149 466.473C659.179 485.47 644.627 501.721 625.604 502.814C606.489 503.913 590.118 489.295 589.083 470.207C588.048 451.117 602.742 434.82 621.864 433.852Z" fill="#2C2A6B"/>
<path d="M441.262 363.546C460.136 361.729 476.93 375.482 478.838 394.317C480.747 413.152 467.049 429.986 448.195 431.978C429.217 433.984 412.224 420.199 410.302 401.239C408.383 382.281 422.267 365.377 441.262 363.546Z" fill="#E37329"/>
<path d="M437.586 618.976C454.67 617.583 473.536 620.475 489.508 626.492C521.039 638.372 549.438 661.817 563.353 693.017C577.609 724.976 580.9 761.684 567.996 794.702C556.415 824.34 537.177 847.405 509.206 862.944C505.627 864.932 502.085 867.463 498.295 869C497.077 869.496 496.011 869.868 494.789 869.313C494.94 867.506 499.433 865.215 501.036 864.148C510.49 857.856 518.334 850.819 525.742 842.251C547.013 817.892 557.627 786.039 555.214 753.81C553.512 731.934 544.702 709.283 530.873 692.16C525.978 686.1 520.161 680.667 514.233 675.62C492.83 657.398 462.909 647.777 434.844 650.13C407.411 652.415 382.008 665.481 364.217 686.456C346.869 707.021 337.787 733.312 340.13 760.191C342.185 785.098 354.028 808.182 373.073 824.398C391.599 839.862 416.412 848.262 440.517 845.983C463.102 843.789 483.866 832.657 498.175 815.071C512.123 798.304 518.607 776.577 516.125 754.921C513.743 733.303 503.495 716.425 486.589 703.049C472.599 691.978 453.444 687.045 435.815 689.097C418.027 691.169 402.723 700.186 391.679 714.258C381.706 726.968 377.337 744.139 379.375 760.126C381.284 774.392 388.757 787.329 400.168 796.124C410.875 804.285 423.705 808.601 437.198 806.727C451.203 804.783 461.311 799.459 469.785 788.248C472.515 784.182 474.585 779.712 475.919 775.003C478.644 765.313 478.294 754.674 473.269 745.777C468.614 737.537 460.761 731.075 451.609 728.542C442.256 725.953 431.376 726.805 422.894 731.671C414.402 736.541 408.438 745.39 405.978 754.751C403.94 762.517 404.53 772.2 408.727 779.206C409.603 780.669 410.674 782.211 411.363 783.765C411.785 784.72 411.735 785.127 411.373 786.077L410.906 786.188C410.158 785.995 409.618 785.695 409.012 785.231C400.475 778.684 394.522 768.252 393.05 757.657C391.276 744.887 395.659 732.16 403.373 722.048C411.636 711.22 424.051 704.988 437.42 703.242C453.909 701.088 468.88 706.877 481.811 716.904C493.443 725.922 501.022 742.197 502.827 756.555C505.096 774.584 497.978 792.859 487.033 806.943C476.01 821.124 457.902 829.907 440.282 831.96C420.618 834.252 400.005 827.881 384.589 815.676C367.076 801.814 356.846 782.823 354.354 760.684C351.769 737.722 359.389 714.624 373.755 696.7C388.152 678.742 410.64 666.605 433.517 664.166C460.497 661.291 485.94 670.3 506.719 687.293C526.898 703.795 538.824 728.725 541.172 754.407C543.599 782.219 534.839 809.852 516.829 831.204C497.519 854.346 471.247 867.895 441.247 870.583C411.54 873.246 381.098 862.795 358.346 843.796C333.592 823.125 318.374 794.601 315.553 762.425C312.456 727.098 322.407 692.144 345.509 664.854C369.183 636.883 401.419 622.015 437.586 618.976Z" fill="#2C2A6B"/>
<path d="M346.106 396.453C351.964 394.564 357.489 395.399 362.883 398.19C385.856 410.082 397.886 444.9 405.137 468.328C411.074 487.513 413.611 506.297 414.749 526.314C415.006 530.835 415.998 538.36 413.851 542.376C413.39 543.239 412.601 543.911 411.88 544.553C413.139 545.149 414.408 545.736 415.707 546.244C437.059 554.59 458.129 552.88 478.907 544.081L478.812 543.268C478.082 543.249 476.843 543.434 476.291 542.933C473.633 540.525 474.572 531.338 474.67 527.866C475.673 492.326 490.731 429.695 517.188 404.965C526.541 396.223 530.072 395.606 542.302 396.01C548.921 398.717 552.949 403.266 555.701 409.729C558.361 415.975 559.343 422.696 559.969 429.408C562.57 457.31 555.586 486.902 544.984 512.618C537.585 530.563 528.538 545.953 516.857 561.41C511.584 567.129 506.708 573.017 500.747 578.085C495.761 582.324 490.049 585.758 485.162 590.042C478.146 594.756 468.8 598.316 460.609 600.337C440.25 605.356 421.62 599.834 404.093 589.318C401.327 586.22 396.71 583.951 393.488 581.175C386.975 575.56 380.908 569.196 375.105 562.859C372.806 560.953 370.969 557.708 369.253 555.244C359.745 541.825 351.631 527.473 345.04 512.41C334.251 487.462 328.082 459.118 329.86 431.911C330.348 424.423 331.251 416.954 334.102 409.946C336.475 404.113 340.128 398.955 346.106 396.453ZM386.984 527.981C386.973 527.495 386.977 527.007 386.958 526.523C386.689 519.631 388.607 512.137 389.219 505.186C390.353 490.914 389.985 476.561 388.118 462.366C385.882 445.003 380.346 421.065 365.498 410.075C360.477 406.358 355.799 406.276 349.852 407.205C344.664 409.902 341.101 412.625 339.224 418.455C333.059 437.608 340.902 461.642 349.854 478.728C356.341 491.109 364.46 504.016 373.679 514.504C377.85 519.251 382.711 523.343 386.984 527.981ZM500.827 529.925C503.414 527.746 505.781 525.066 508.142 522.642C524.58 505.756 538.329 485.323 546.708 463.245C551.761 449.933 555.869 429.849 549.461 416.299C546.916 410.917 543.229 408.791 537.842 406.906C533.988 405.85 529.365 407.224 525.963 409.128C515.466 415.005 508.812 430.203 505.75 441.325C500.245 461.32 498.942 484.322 500.582 504.933C501.105 511.504 502.281 517.994 502.982 524.544C502.202 526.175 501.403 527.794 500.586 529.405L500.827 529.925Z" fill="#E37329"/>
<path d="M346.104 396.453C351.962 394.564 357.487 395.399 362.881 398.19C385.854 410.082 397.884 444.9 405.135 468.328C411.072 487.513 413.609 506.297 414.747 526.314C415.004 530.835 415.996 538.36 413.849 542.376C413.388 543.239 412.599 543.911 411.878 544.553C411.687 544.522 411.492 544.514 411.305 544.462C405.896 542.98 390.199 532.634 386.982 527.981C386.971 527.495 386.975 527.007 386.956 526.523C386.687 519.631 388.605 512.137 389.217 505.186C390.351 490.914 389.983 476.561 388.116 462.366C385.88 445.003 380.344 421.065 365.496 410.075C360.475 406.358 355.797 406.276 349.85 407.205C348.539 403.639 347.228 400.084 346.104 396.453Z" fill="#2C2A6B"/>
<path d="M478.897 544.079L478.802 543.267C478.072 543.248 476.833 543.433 476.281 542.931C473.623 540.523 474.562 531.337 474.66 527.865C475.662 492.324 490.721 429.694 517.178 404.964C526.531 396.222 530.061 395.604 542.292 396.008C541.03 399.729 539.541 403.367 537.832 406.904C533.978 405.848 529.355 407.222 525.953 409.127C515.456 415.004 508.802 430.202 505.74 441.324C500.235 461.319 498.932 484.32 500.572 504.932C501.095 511.503 502.271 517.992 502.972 524.543C502.192 526.174 501.393 527.793 500.576 529.403L500.817 529.923C497.751 533.928 483.829 543.184 478.897 544.079Z" fill="#2C2A6B"/>
<path d="M404.093 589.316C403.963 591.746 403.377 593.688 402.396 595.891C395.599 611.156 381.621 625.161 365.944 631.161C337.03 642.226 303.763 634.664 276.451 622.476C244.367 608.159 209.426 582.245 191.164 551.765C189.156 548.414 186.219 544.437 184.954 540.77C184.648 539.883 184.549 539.774 184.99 538.918C185.681 539.2 198.866 551.785 201.597 553.93C228.503 575.085 262.128 592.504 296.74 595.537C318.743 597.465 341.401 593.415 358.241 578.182C362.476 574.351 367.032 567.632 370.593 564.822C373.161 562.798 373.238 564.249 375.684 564.56L375.104 562.858C380.908 569.194 386.975 575.559 393.488 581.174C396.71 583.949 401.327 586.219 404.093 589.316Z" fill="#2C2A6B"/>
<path d="M516.855 561.409C516.415 562.132 515.88 562.837 515.669 563.66C516.569 563.85 517.464 563.988 518.375 564.113C535.394 583.574 548.271 593.948 575.033 595.726C618.445 598.612 663.469 575.644 695.261 547.65C697.196 545.946 703.296 538.853 704.962 538.473C705.646 541.305 702.012 546.218 700.523 548.648C696.017 556.005 691.27 562.997 685.61 569.523C661.57 597.243 621.356 623.686 585.416 632.324C562.916 637.73 535.766 639.616 515.155 627.107C504.947 620.91 494.91 610.447 489.318 599.888C487.685 596.806 486.896 592.935 485.16 590.041C490.046 585.758 495.759 582.323 500.745 578.084C506.705 573.017 511.582 567.129 516.855 561.409Z" fill="#2C2A6B"/>
<path d="M813.627 404.276H836.898V481.92C836.898 489.097 835.285 495.332 832.059 500.624C828.869 505.916 824.429 509.994 818.738 512.858C813.047 515.722 806.432 517.153 798.892 517.153C792.186 517.153 786.096 515.975 780.623 513.619C775.186 511.227 770.872 507.602 767.682 502.745C764.492 497.851 762.916 491.707 762.952 484.313H786.386C786.459 487.249 787.057 489.768 788.181 491.87C789.341 493.936 790.917 495.531 792.911 496.655C794.941 497.743 797.333 498.286 800.088 498.286C802.988 498.286 805.435 497.67 807.428 496.438C809.458 495.169 810.999 493.32 812.05 490.892C813.101 488.463 813.627 485.472 813.627 481.92V404.276Z" fill="#E37329"/>
<path d="M879.744 517.208C874.415 517.208 869.667 516.283 865.498 514.435C861.33 512.55 858.031 509.777 855.602 506.116C853.21 502.419 852.014 497.815 852.014 492.305C852.014 487.665 852.866 483.769 854.569 480.615C856.273 477.462 858.593 474.924 861.529 473.003C864.465 471.082 867.8 469.632 871.533 468.653C875.303 467.675 879.254 466.986 883.387 466.587C888.244 466.08 892.159 465.608 895.131 465.173C898.103 464.702 900.26 464.013 901.601 463.107C902.943 462.201 903.613 460.86 903.613 459.084V458.757C903.613 455.314 902.526 452.65 900.351 450.765C898.212 448.88 895.167 447.937 891.216 447.937C887.048 447.937 883.731 448.862 881.266 450.71C878.801 452.523 877.17 454.806 876.373 457.561L854.95 455.821C856.037 450.747 858.176 446.361 861.366 442.663C864.556 438.93 868.67 436.066 873.708 434.072C878.783 432.043 884.655 431.028 891.325 431.028C895.965 431.028 900.405 431.571 904.646 432.659C908.924 433.746 912.712 435.432 916.01 437.715C919.345 439.999 921.973 442.935 923.894 446.524C925.815 450.076 926.776 454.335 926.776 459.301V515.631H904.809V504.05H904.157C902.816 506.66 901.021 508.961 898.774 510.955C896.527 512.912 893.826 514.453 890.673 515.577C887.519 516.664 883.876 517.208 879.744 517.208ZM886.377 501.222C889.784 501.222 892.793 500.552 895.403 499.211C898.013 497.833 900.061 495.984 901.547 493.665C903.033 491.345 903.776 488.717 903.776 485.781V476.918C903.051 477.389 902.055 477.824 900.786 478.223C899.553 478.585 898.158 478.93 896.599 479.256C895.04 479.546 893.482 479.818 891.923 480.071C890.364 480.289 888.951 480.488 887.682 480.67C884.963 481.068 882.589 481.703 880.559 482.573C878.529 483.443 876.953 484.621 875.829 486.107C874.705 487.557 874.143 489.369 874.143 491.544C874.143 494.698 875.285 497.108 877.569 498.776C879.889 500.407 882.825 501.222 886.377 501.222Z" fill="#E37329"/>
<path d="M967.909 467.348V515.631H944.746V432.115H966.821V446.85H967.8C969.648 441.993 972.748 438.15 977.098 435.323C981.447 432.459 986.721 431.028 992.92 431.028C998.72 431.028 1003.78 432.296 1008.09 434.834C1012.4 437.371 1015.76 440.996 1018.15 445.708C1020.54 450.384 1021.74 455.966 1021.74 462.455V515.631H998.575V466.587C998.611 461.476 997.306 457.489 994.66 454.625C992.014 451.725 988.371 450.275 983.731 450.275C980.614 450.275 977.859 450.946 975.466 452.287C973.11 453.628 971.262 455.586 969.92 458.159C968.615 460.697 967.945 463.76 967.909 467.348Z" fill="#E37329"/>
<path d="M1136.27 436.302C1135.84 431.916 1133.97 428.508 1130.67 426.08C1127.37 423.651 1122.9 422.437 1117.24 422.437C1113.4 422.437 1110.16 422.98 1107.51 424.068C1104.86 425.119 1102.83 426.587 1101.42 428.472C1100.04 430.357 1099.35 432.496 1099.35 434.888C1099.28 436.882 1099.7 438.622 1100.6 440.108C1101.55 441.594 1102.83 442.881 1104.46 443.968C1106.1 445.019 1107.98 445.944 1110.12 446.741C1112.26 447.502 1114.54 448.155 1116.97 448.699L1126.98 451.091C1131.83 452.178 1136.29 453.628 1140.35 455.441C1144.41 457.253 1147.93 459.482 1150.9 462.129C1153.87 464.775 1156.17 467.892 1157.8 471.481C1159.47 475.069 1160.32 479.183 1160.36 483.823C1160.32 490.638 1158.58 496.546 1155.14 501.549C1151.73 506.515 1146.8 510.375 1140.35 513.13C1133.93 515.849 1126.2 517.208 1117.13 517.208C1108.14 517.208 1100.31 515.83 1093.64 513.076C1087.01 510.321 1081.83 506.243 1078.09 500.842C1074.4 495.404 1072.46 488.68 1072.28 480.67H1095.06C1095.31 484.403 1096.38 487.52 1098.27 490.022C1100.19 492.487 1102.74 494.353 1105.93 495.622C1109.16 496.854 1112.8 497.471 1116.86 497.471C1120.85 497.471 1124.31 496.891 1127.25 495.731C1130.22 494.571 1132.52 492.958 1134.15 490.892C1135.78 488.825 1136.6 486.451 1136.6 483.769C1136.6 481.268 1135.86 479.165 1134.37 477.462C1132.92 475.758 1130.78 474.308 1127.95 473.112C1125.16 471.916 1121.74 470.828 1117.68 469.849L1105.55 466.805C1096.16 464.521 1088.75 460.951 1083.31 456.093C1077.88 451.236 1075.18 444.693 1075.21 436.465C1075.18 429.723 1076.97 423.832 1080.6 418.794C1084.26 413.755 1089.28 409.822 1095.66 406.995C1102.04 404.168 1109.29 402.754 1117.41 402.754C1125.67 402.754 1132.88 404.168 1139.05 406.995C1145.24 409.822 1150.07 413.755 1153.51 418.794C1156.95 423.832 1158.73 429.668 1158.84 436.302H1136.27Z" fill="#E37329"/>
<path d="M1199.58 517.208C1194.25 517.208 1189.5 516.283 1185.33 514.435C1181.16 512.55 1177.86 509.777 1175.43 506.116C1173.04 502.419 1171.85 497.815 1171.85 492.305C1171.85 487.665 1172.7 483.769 1174.4 480.615C1176.11 477.462 1178.42 474.924 1181.36 473.003C1184.3 471.082 1187.63 469.632 1191.37 468.653C1195.14 467.675 1199.09 466.986 1203.22 466.587C1208.08 466.08 1211.99 465.608 1214.96 465.173C1217.94 464.702 1220.09 464.013 1221.43 463.107C1222.77 462.201 1223.45 460.86 1223.45 459.084V458.757C1223.45 455.314 1222.36 452.65 1220.18 450.765C1218.04 448.88 1215 447.937 1211.05 447.937C1206.88 447.937 1203.56 448.862 1201.1 450.71C1198.63 452.523 1197 454.806 1196.2 457.561L1174.78 455.821C1175.87 450.747 1178.01 446.361 1181.2 442.663C1184.39 438.93 1188.5 436.066 1193.54 434.072C1198.62 432.043 1204.49 431.028 1211.16 431.028C1215.8 431.028 1220.24 431.571 1224.48 432.659C1228.76 433.746 1232.54 435.432 1235.84 437.715C1239.18 439.999 1241.81 442.935 1243.73 446.524C1245.65 450.076 1246.61 454.335 1246.61 459.301V515.631H1224.64V504.05H1223.99C1222.65 506.66 1220.85 508.961 1218.61 510.955C1216.36 512.912 1213.66 514.453 1210.5 515.577C1207.35 516.664 1203.71 517.208 1199.58 517.208ZM1206.21 501.222C1209.62 501.222 1212.63 500.552 1215.24 499.211C1217.84 497.833 1219.89 495.984 1221.38 493.665C1222.87 491.345 1223.61 488.717 1223.61 485.781V476.918C1222.88 477.389 1221.89 477.824 1220.62 478.223C1219.39 478.585 1217.99 478.93 1216.43 479.256C1214.87 479.546 1213.31 479.818 1211.76 480.071C1210.2 480.289 1208.78 480.488 1207.51 480.67C1204.8 481.068 1202.42 481.703 1200.39 482.573C1198.36 483.443 1196.78 484.621 1195.66 486.107C1194.54 487.557 1193.98 489.369 1193.98 491.544C1193.98 494.698 1195.12 497.108 1197.4 498.776C1199.72 500.407 1202.66 501.222 1206.21 501.222Z" fill="#E37329"/>
<path d="M1287.74 467.348V515.631H1264.58V404.276H1287.09V446.85H1288.07C1289.95 441.92 1293 438.06 1297.2 435.269C1301.41 432.441 1306.68 431.028 1313.02 431.028C1318.82 431.028 1323.88 432.296 1328.19 434.834C1332.54 437.335 1335.91 440.941 1338.31 445.654C1340.74 450.33 1341.93 455.93 1341.9 462.455V515.631H1318.73V466.587C1318.77 461.44 1317.46 457.434 1314.82 454.571C1312.21 451.707 1308.55 450.275 1303.83 450.275C1300.68 450.275 1297.89 450.946 1295.46 452.287C1293.07 453.628 1291.18 455.586 1289.81 458.159C1288.47 460.697 1287.78 463.76 1287.74 467.348Z" fill="#E37329"/>
<path d="M1383.94 517.208C1378.61 517.208 1373.86 516.283 1369.69 514.435C1365.52 512.55 1362.23 509.777 1359.8 506.116C1357.41 502.419 1356.21 497.815 1356.21 492.305C1356.21 487.665 1357.06 483.769 1358.76 480.615C1360.47 477.462 1362.79 474.924 1365.72 473.003C1368.66 471.082 1372 469.632 1375.73 468.653C1379.5 467.675 1383.45 466.986 1387.58 466.587C1392.44 466.08 1396.35 465.608 1399.33 465.173C1402.3 464.702 1404.46 464.013 1405.8 463.107C1407.14 462.201 1407.81 460.86 1407.81 459.084V458.757C1407.81 455.314 1406.72 452.65 1404.55 450.765C1402.41 448.88 1399.36 447.937 1395.41 447.937C1391.24 447.937 1387.93 448.862 1385.46 450.71C1383 452.523 1381.37 454.806 1380.57 457.561L1359.15 455.821C1360.23 450.747 1362.37 446.361 1365.56 442.663C1368.75 438.93 1372.87 436.066 1377.9 434.072C1382.98 432.043 1388.85 431.028 1395.52 431.028C1400.16 431.028 1404.6 431.571 1408.84 432.659C1413.12 433.746 1416.91 435.432 1420.21 437.715C1423.54 439.999 1426.17 442.935 1428.09 446.524C1430.01 450.076 1430.97 454.335 1430.97 459.301V515.631H1409V504.05H1408.35C1407.01 506.66 1405.22 508.961 1402.97 510.955C1400.72 512.912 1398.02 514.453 1394.87 515.577C1391.71 516.664 1388.07 517.208 1383.94 517.208ZM1390.57 501.222C1393.98 501.222 1396.99 500.552 1399.6 499.211C1402.21 497.833 1404.26 495.984 1405.74 493.665C1407.23 491.345 1407.97 488.717 1407.97 485.781V476.918C1407.25 477.389 1406.25 477.824 1404.98 478.223C1403.75 478.585 1402.35 478.93 1400.79 479.256C1399.24 479.546 1397.68 479.818 1396.12 480.071C1394.56 480.289 1393.15 480.488 1391.88 480.67C1389.16 481.068 1386.78 481.703 1384.75 482.573C1382.72 483.443 1381.15 484.621 1380.02 486.107C1378.9 487.557 1378.34 489.369 1378.34 491.544C1378.34 494.698 1379.48 497.108 1381.76 498.776C1384.08 500.407 1387.02 501.222 1390.57 501.222Z" fill="#E37329"/>
<path d="M1518.43 455.93L1497.22 457.235C1496.86 455.423 1496.08 453.791 1494.89 452.342C1493.69 450.855 1492.11 449.677 1490.16 448.807C1488.23 447.901 1485.93 447.448 1483.25 447.448C1479.66 447.448 1476.63 448.209 1474.17 449.732C1471.71 451.218 1470.47 453.211 1470.47 455.713C1470.47 457.706 1471.27 459.392 1472.87 460.769C1474.46 462.147 1477.2 463.252 1481.08 464.086L1496.19 467.131C1504.31 468.798 1510.36 471.481 1514.35 475.178C1518.34 478.875 1520.33 483.733 1520.33 489.75C1520.33 495.223 1518.72 500.026 1515.49 504.158C1512.3 508.291 1507.92 511.517 1502.33 513.837C1496.79 516.12 1490.39 517.262 1483.14 517.262C1472.09 517.262 1463.28 514.96 1456.72 510.357C1450.19 505.717 1446.37 499.41 1445.24 491.435L1468.03 490.239C1468.71 493.61 1470.38 496.184 1473.03 497.96C1475.67 499.7 1479.06 500.57 1483.2 500.57C1487.26 500.57 1490.52 499.791 1492.98 498.232C1495.48 496.637 1496.75 494.589 1496.79 492.088C1496.75 489.985 1495.86 488.264 1494.12 486.922C1492.38 485.545 1489.7 484.494 1486.08 483.769L1471.61 480.887C1463.46 479.256 1457.39 476.429 1453.4 472.405C1449.45 468.381 1447.47 463.252 1447.47 457.018C1447.47 451.653 1448.92 447.031 1451.82 443.153C1454.76 439.274 1458.87 436.284 1464.17 434.181C1469.49 432.079 1475.73 431.028 1482.87 431.028C1493.42 431.028 1501.72 433.257 1507.77 437.715C1513.86 442.174 1517.41 448.245 1518.43 455.93Z" fill="#E37329"/>
<path d="M769.041 681.503V570.148H844.075V589.559H792.585V616.093H840.215V635.504H792.585V662.092H844.293V681.503H769.041Z" fill="#E37329"/>
<path d="M862.358 681.503V597.987H884.433V612.722H885.412C887.152 607.829 890.052 603.968 894.112 601.141C898.171 598.313 903.029 596.9 908.683 596.9C914.411 596.9 919.286 598.331 923.31 601.195C927.333 604.022 930.016 607.865 931.357 612.722H932.227C933.93 607.937 937.011 604.113 941.47 601.249C945.965 598.35 951.275 596.9 957.401 596.9C965.194 596.9 971.52 599.383 976.377 604.349C981.271 609.278 983.717 616.274 983.717 625.336V681.503H960.609V629.904C960.609 625.264 959.377 621.784 956.912 619.464C954.447 617.144 951.366 615.984 947.668 615.984C943.464 615.984 940.183 617.326 937.827 620.008C935.471 622.654 934.293 626.152 934.293 630.502V681.503H911.837V629.414C911.837 625.318 910.659 622.056 908.303 619.627C905.983 617.199 902.92 615.984 899.114 615.984C896.54 615.984 894.22 616.637 892.154 617.942C890.124 619.21 888.511 621.005 887.315 623.325C886.119 625.608 885.521 628.291 885.521 631.372V681.503H862.358Z" fill="#E37329"/>
<path d="M1002.01 712.822V597.987H1024.85V612.015H1025.88C1026.9 609.768 1028.37 607.484 1030.29 605.164C1032.24 602.808 1034.78 600.851 1037.9 599.292C1041.05 597.697 1044.97 596.9 1049.64 596.9C1055.73 596.9 1061.35 598.495 1066.5 601.684C1071.65 604.838 1075.76 609.605 1078.84 615.984C1081.92 622.328 1083.46 630.284 1083.46 639.854C1083.46 649.17 1081.96 657.036 1078.95 663.451C1075.98 669.831 1071.92 674.67 1066.77 677.969C1061.66 681.231 1055.93 682.862 1049.59 682.862C1045.09 682.862 1041.27 682.119 1038.12 680.633C1035 679.147 1032.44 677.28 1030.45 675.033C1028.46 672.749 1026.93 670.447 1025.88 668.128H1025.18V712.822H1002.01ZM1024.69 639.745C1024.69 644.711 1025.38 649.043 1026.75 652.74C1028.13 656.437 1030.12 659.319 1032.73 661.385C1035.34 663.415 1038.52 664.43 1042.25 664.43C1046.02 664.43 1049.21 663.397 1051.82 661.331C1054.43 659.229 1056.4 656.329 1057.75 652.631C1059.12 648.898 1059.81 644.602 1059.81 639.745C1059.81 634.924 1059.14 630.683 1057.8 627.022C1056.46 623.361 1054.48 620.497 1051.87 618.431C1049.26 616.365 1046.06 615.332 1042.25 615.332C1038.48 615.332 1035.29 616.329 1032.68 618.322C1030.11 620.316 1028.13 623.143 1026.75 626.804C1025.38 630.466 1024.69 634.779 1024.69 639.745Z" fill="#E37329"/>
<path d="M1136.64 683.134C1128.19 683.134 1120.89 681.34 1114.73 677.751C1108.6 674.127 1103.87 669.088 1100.54 662.636C1097.2 656.147 1095.53 648.626 1095.53 640.071C1095.53 631.444 1097.2 623.905 1100.54 617.452C1103.87 610.964 1108.6 605.925 1114.73 602.337C1120.89 598.712 1128.19 596.9 1136.64 596.9C1145.09 596.9 1152.37 598.712 1158.5 602.337C1164.66 605.925 1169.41 610.964 1172.74 617.452C1176.08 623.905 1177.75 631.444 1177.75 640.071C1177.75 648.626 1176.08 656.147 1172.74 662.636C1169.41 669.088 1164.66 674.127 1158.5 677.751C1152.37 681.34 1145.09 683.134 1136.64 683.134ZM1136.75 665.191C1140.59 665.191 1143.8 664.104 1146.37 661.929C1148.95 659.718 1150.89 656.709 1152.19 652.903C1153.53 649.097 1154.2 644.765 1154.2 639.908C1154.2 635.051 1153.53 630.719 1152.19 626.913C1150.89 623.107 1148.95 620.099 1146.37 617.887C1143.8 615.676 1140.59 614.571 1136.75 614.571C1132.87 614.571 1129.61 615.676 1126.96 617.887C1124.35 620.099 1122.38 623.107 1121.03 626.913C1119.73 630.719 1119.08 635.051 1119.08 639.908C1119.08 644.765 1119.73 649.097 1121.03 652.903C1122.38 656.709 1124.35 659.718 1126.96 661.929C1129.61 664.104 1132.87 665.191 1136.75 665.191Z" fill="#E37329"/>
<path d="M1207.19 681.503L1184.46 597.987H1207.89L1220.84 654.099H1221.6L1235.08 597.987H1258.08L1271.78 653.773H1272.49L1285.21 597.987H1308.59L1285.92 681.503H1261.4L1247.04 628.979H1246.01L1231.66 681.503H1207.19Z" fill="#E37329"/>
<path d="M1356.92 683.134C1348.33 683.134 1340.93 681.394 1334.73 677.915C1328.57 674.398 1323.82 669.432 1320.49 663.016C1317.15 656.564 1315.48 648.934 1315.48 640.126C1315.48 631.535 1317.15 623.995 1320.49 617.507C1323.82 611.018 1328.52 605.962 1334.57 602.337C1340.66 598.712 1347.8 596.9 1355.99 596.9C1361.5 596.9 1366.63 597.788 1371.38 599.564C1376.16 601.304 1380.33 603.932 1383.88 607.448C1387.47 610.964 1390.26 615.386 1392.26 620.715C1394.25 626.007 1395.25 632.205 1395.25 639.31V645.672H1324.73V631.317H1373.45C1373.45 627.983 1372.72 625.028 1371.27 622.455C1369.82 619.881 1367.81 617.869 1365.23 616.419C1362.7 614.933 1359.74 614.19 1356.37 614.19C1352.86 614.19 1349.74 615.006 1347.02 616.637C1344.34 618.232 1342.24 620.389 1340.71 623.107C1339.19 625.79 1338.41 628.78 1338.38 632.079V645.726C1338.38 649.858 1339.14 653.429 1340.66 656.437C1342.22 659.446 1344.41 661.766 1347.24 663.397C1350.07 665.028 1353.42 665.844 1357.3 665.844C1359.87 665.844 1362.23 665.481 1364.36 664.756C1366.5 664.031 1368.33 662.944 1369.86 661.494C1371.38 660.044 1372.54 658.268 1373.34 656.166L1394.76 657.579C1393.67 662.727 1391.44 667.221 1388.07 671.064C1384.74 674.87 1380.42 677.842 1375.13 679.981C1369.87 682.083 1363.8 683.134 1356.92 683.134Z" fill="#E37329"/>
<path d="M1410.36 681.503V597.987H1432.82V612.559H1433.69C1435.21 607.375 1437.77 603.461 1441.36 600.814C1444.94 598.132 1449.08 596.791 1453.75 596.791C1454.91 596.791 1456.16 596.863 1457.5 597.008C1458.85 597.153 1460.02 597.353 1461.04 597.606V618.159C1459.95 617.833 1458.45 617.543 1456.53 617.289C1454.61 617.036 1452.85 616.909 1451.25 616.909C1447.84 616.909 1444.8 617.652 1442.12 619.138C1439.47 620.588 1437.37 622.618 1435.81 625.228C1434.29 627.838 1433.53 630.846 1433.53 634.253V681.503H1410.36Z" fill="#E37329"/>
<path d="M1473.01 681.503V597.987H1495.09V612.722H1496.07C1497.81 607.829 1500.71 603.968 1504.77 601.141C1508.83 598.313 1513.69 596.9 1519.34 596.9C1525.07 596.9 1529.94 598.331 1533.97 601.195C1537.99 604.022 1540.67 607.865 1542.01 612.722H1542.88C1544.59 607.937 1547.67 604.113 1552.13 601.249C1556.62 598.35 1561.93 596.9 1568.06 596.9C1575.85 596.9 1582.18 599.383 1587.03 604.349C1591.93 609.278 1594.37 616.274 1594.37 625.336V681.503H1571.27V629.904C1571.27 625.264 1570.03 621.784 1567.57 619.464C1565.1 617.144 1562.02 615.984 1558.32 615.984C1554.12 615.984 1550.84 617.326 1548.48 620.008C1546.13 622.654 1544.95 626.152 1544.95 630.502V681.503H1522.49V629.414C1522.49 625.318 1521.32 622.056 1518.96 619.627C1516.64 617.199 1513.58 615.984 1509.77 615.984C1507.2 615.984 1504.88 616.637 1502.81 617.942C1500.78 619.21 1499.17 621.005 1497.97 623.325C1496.78 625.608 1496.18 628.291 1496.18 631.372V681.503H1473.01Z" fill="#E37329"/>
<path d="M1650.73 683.134C1642.14 683.134 1634.75 681.394 1628.55 677.915C1622.38 674.398 1617.64 669.432 1614.3 663.016C1610.97 656.564 1609.3 648.934 1609.3 640.126C1609.3 631.535 1610.97 623.995 1614.3 617.507C1617.64 611.018 1622.33 605.962 1628.38 602.337C1634.47 598.712 1641.61 596.9 1649.81 596.9C1655.32 596.9 1660.45 597.788 1665.19 599.564C1669.98 601.304 1674.15 603.932 1677.7 607.448C1681.29 610.964 1684.08 615.386 1686.07 620.715C1688.07 626.007 1689.06 632.205 1689.06 639.31V645.672H1618.54V631.317H1667.26C1667.26 627.983 1666.54 625.028 1665.09 622.455C1663.64 619.881 1661.62 617.869 1659.05 616.419C1656.51 614.933 1653.56 614.19 1650.19 614.19C1646.67 614.19 1643.55 615.006 1640.84 616.637C1638.15 618.232 1636.05 620.389 1634.53 623.107C1633.01 625.79 1632.23 628.78 1632.19 632.079V645.726C1632.19 649.858 1632.95 653.429 1634.47 656.437C1636.03 659.446 1638.23 661.766 1641.05 663.397C1643.88 665.028 1647.23 665.844 1651.11 665.844C1653.69 665.844 1656.04 665.481 1658.18 664.756C1660.32 664.031 1662.15 662.944 1663.67 661.494C1665.19 660.044 1666.35 658.268 1667.15 656.166L1688.57 657.579C1687.49 662.727 1685.26 667.221 1681.89 671.064C1678.55 674.87 1674.24 677.842 1668.95 679.981C1663.69 682.083 1657.62 683.134 1650.73 683.134Z" fill="#E37329"/>
<path d="M1727.34 633.22V681.503H1704.18V597.987H1726.25V612.722H1727.23C1729.08 607.865 1732.18 604.022 1736.53 601.195C1740.88 598.331 1746.15 596.9 1752.35 596.9C1758.15 596.9 1763.21 598.168 1767.52 600.706C1771.84 603.243 1775.19 606.868 1777.58 611.58C1779.97 616.256 1781.17 621.838 1781.17 628.327V681.503H1758.01V632.459C1758.04 627.348 1756.74 623.361 1754.09 620.497C1751.45 617.597 1747.8 616.147 1743.16 616.147C1740.05 616.147 1737.29 616.818 1734.9 618.159C1732.54 619.5 1730.69 621.458 1729.35 624.031C1728.05 626.569 1727.38 629.632 1727.34 633.22Z" fill="#E37329"/>
<path d="M1843.85 597.987V615.386H1793.55V597.987H1843.85ZM1804.97 577.978H1828.13V655.839C1828.13 657.978 1828.46 659.645 1829.11 660.842C1829.77 662.002 1830.67 662.817 1831.83 663.288C1833.03 663.76 1834.41 663.995 1835.96 663.995C1837.05 663.995 1838.14 663.905 1839.23 663.723C1840.31 663.506 1841.15 663.343 1841.73 663.234L1845.37 680.47C1844.21 680.833 1842.58 681.249 1840.48 681.721C1838.37 682.228 1835.82 682.536 1832.81 682.645C1827.23 682.862 1822.33 682.119 1818.13 680.416C1813.96 678.712 1810.72 676.066 1808.4 672.477C1806.08 668.889 1804.94 664.358 1804.97 658.884V577.978Z" fill="#E37329"/>
<path d="M829.449 768.046C829.014 763.66 827.147 760.252 823.849 757.824C820.55 755.395 816.074 754.181 810.419 754.181C806.577 754.181 803.332 754.725 800.686 755.812C798.04 756.863 796.01 758.331 794.597 760.216C793.219 762.101 792.53 764.24 792.53 766.632C792.458 768.626 792.875 770.366 793.781 771.852C794.723 773.338 796.01 774.625 797.641 775.712C799.273 776.764 801.157 777.688 803.296 778.485C805.435 779.247 807.718 779.899 810.147 780.443L820.152 782.835C825.009 783.923 829.467 785.372 833.527 787.185C837.587 788.997 841.103 791.227 844.075 793.873C847.048 796.519 849.35 799.636 850.981 803.225C852.648 806.813 853.5 810.928 853.536 815.567C853.5 822.382 851.76 828.29 848.316 833.293C844.909 838.259 839.979 842.119 833.527 844.874C827.111 847.593 819.372 848.952 810.31 848.952C801.321 848.952 793.491 847.575 786.821 844.82C780.188 842.065 775.004 837.987 771.271 832.586C767.573 827.149 765.634 820.425 765.453 812.414H788.235C788.489 816.147 789.558 819.265 791.443 821.766C793.364 824.231 795.92 826.097 799.109 827.366C802.336 828.599 805.978 829.215 810.038 829.215C814.026 829.215 817.487 828.635 820.423 827.475C823.396 826.315 825.698 824.702 827.329 822.636C828.96 820.57 829.775 818.195 829.775 815.513C829.775 813.012 829.032 810.909 827.546 809.206C826.096 807.502 823.958 806.052 821.13 804.856C818.339 803.66 814.914 802.572 810.854 801.594L798.729 798.549C789.341 796.265 781.928 792.695 776.491 787.837C771.053 782.98 768.353 776.437 768.389 768.209C768.353 761.467 770.147 755.576 773.772 750.538C777.433 745.499 782.453 741.566 788.833 738.739C795.213 735.912 802.462 734.498 810.582 734.498C818.847 734.498 826.06 735.912 832.222 738.739C838.421 741.566 843.242 745.499 846.685 750.538C850.129 755.576 851.905 761.412 852.014 768.046H829.449Z" fill="#E37329"/>
<path d="M906.672 849.006C898.226 849.006 890.922 847.212 884.76 843.624C878.634 839.999 873.903 834.96 870.568 828.508C867.234 822.02 865.566 814.498 865.566 805.943C865.566 797.316 867.234 789.777 870.568 783.324C873.903 776.836 878.634 771.798 884.76 768.209C890.922 764.584 898.226 762.772 906.672 762.772C915.117 762.772 922.403 764.584 928.529 768.209C934.692 771.798 939.44 776.836 942.775 783.324C946.11 789.777 947.777 797.316 947.777 805.943C947.777 814.498 946.11 822.02 942.775 828.508C939.44 834.96 934.692 839.999 928.529 843.624C922.403 847.212 915.117 849.006 906.672 849.006ZM906.78 831.063C910.623 831.063 913.831 829.976 916.404 827.801C918.978 825.59 920.917 822.581 922.222 818.775C923.563 814.969 924.234 810.638 924.234 805.78C924.234 800.923 923.563 796.591 922.222 792.785C920.917 788.979 918.978 785.971 916.404 783.759C913.831 781.548 910.623 780.443 906.78 780.443C902.902 780.443 899.639 781.548 896.993 783.759C894.383 785.971 892.408 788.979 891.067 792.785C889.762 796.591 889.109 800.923 889.109 805.78C889.109 810.638 889.762 814.969 891.067 818.775C892.408 822.581 894.383 825.59 896.993 827.801C899.639 829.976 902.902 831.063 906.78 831.063Z" fill="#E37329"/>
<path d="M1000.57 849.006C992.018 849.006 984.66 847.194 978.498 843.569C972.372 839.908 967.659 834.833 964.361 828.345C961.098 821.856 959.467 814.389 959.467 805.943C959.467 797.389 961.117 789.885 964.415 783.433C967.75 776.945 972.48 771.888 978.606 768.263C984.732 764.602 992.018 762.772 1000.46 762.772C1007.75 762.772 1014.13 764.095 1019.6 766.741C1025.08 769.387 1029.41 773.102 1032.6 777.887C1035.79 782.672 1037.55 788.29 1037.87 794.743H1016.01C1015.4 790.574 1013.77 787.221 1011.12 784.684C1008.51 782.11 1005.09 780.823 1000.84 780.823C997.256 780.823 994.121 781.802 991.438 783.759C988.792 785.681 986.726 788.49 985.24 792.187C983.754 795.885 983.011 800.361 983.011 805.617C983.011 810.946 983.735 815.477 985.185 819.21C986.672 822.944 988.756 825.789 991.438 827.747C994.121 829.704 997.256 830.683 1000.84 830.683C1003.49 830.683 1005.87 830.139 1007.97 829.052C1010.11 827.964 1011.86 826.387 1013.24 824.321C1014.66 822.219 1015.58 819.7 1016.01 816.764H1037.87C1037.51 823.143 1035.77 828.762 1032.65 833.619C1029.57 838.44 1025.31 842.21 1019.88 844.928C1014.44 847.647 1008 849.006 1000.57 849.006Z" fill="#E37329"/>
<path d="M1052.7 847.375V763.859H1075.86V847.375H1052.7ZM1064.34 753.093C1060.89 753.093 1057.94 751.952 1055.48 749.668C1053.05 747.348 1051.83 744.575 1051.83 741.349C1051.83 738.159 1053.05 735.422 1055.48 733.139C1057.94 730.819 1060.89 729.659 1064.34 729.659C1067.78 729.659 1070.72 730.819 1073.15 733.139C1075.61 735.422 1076.84 738.159 1076.84 741.349C1076.84 744.575 1075.61 747.348 1073.15 749.668C1070.72 751.952 1067.78 753.093 1064.34 753.093Z" fill="#E37329"/>
<path d="M1132.48 849.006C1123.89 849.006 1116.49 847.266 1110.3 843.787C1104.13 840.271 1099.39 835.305 1096.05 828.889C1092.72 822.436 1091.05 814.806 1091.05 805.998C1091.05 797.407 1092.72 789.867 1096.05 783.379C1099.39 776.89 1104.08 771.834 1110.13 768.209C1116.22 764.584 1123.36 762.772 1131.56 762.772C1137.07 762.772 1142.19 763.66 1146.94 765.436C1151.73 767.176 1155.9 769.804 1159.45 773.32C1163.04 776.836 1165.83 781.258 1167.82 786.587C1169.82 791.879 1170.81 798.078 1170.81 805.182V811.544H1100.29V797.189H1149.01C1149.01 793.855 1148.28 790.9 1146.83 788.327C1145.38 785.753 1143.37 783.741 1140.8 782.291C1138.26 780.805 1135.31 780.062 1131.94 780.062C1128.42 780.062 1125.3 780.878 1122.58 782.509C1119.9 784.104 1117.8 786.261 1116.28 788.979C1114.75 791.662 1113.98 794.652 1113.94 797.951V811.598C1113.94 815.73 1114.7 819.301 1116.22 822.31C1117.78 825.318 1119.97 827.638 1122.8 829.269C1125.63 830.9 1128.98 831.716 1132.86 831.716C1135.43 831.716 1137.79 831.353 1139.93 830.628C1142.07 829.904 1143.9 828.816 1145.42 827.366C1146.94 825.916 1148.1 824.14 1148.9 822.038L1170.32 823.451C1169.24 828.599 1167.01 833.093 1163.64 836.936C1160.3 840.742 1155.99 843.714 1150.7 845.853C1145.44 847.955 1139.37 849.006 1132.48 849.006Z" fill="#E37329"/>
<path d="M1230.35 763.859V781.258H1180.06V763.859H1230.35ZM1191.47 743.85H1214.64V821.711C1214.64 823.85 1214.96 825.517 1215.62 826.714C1216.27 827.874 1217.17 828.689 1218.33 829.16C1219.53 829.632 1220.91 829.867 1222.47 829.867C1223.55 829.867 1224.64 829.777 1225.73 829.595C1226.82 829.378 1227.65 829.215 1228.23 829.106L1231.87 846.342C1230.71 846.705 1229.08 847.121 1226.98 847.593C1224.88 848.1 1222.32 848.408 1219.31 848.517C1213.73 848.734 1208.84 847.991 1204.63 846.288C1200.46 844.584 1197.22 841.938 1194.9 838.349C1192.58 834.761 1191.44 830.23 1191.47 824.756V743.85Z" fill="#E37329"/>
<path d="M1259.74 878.694C1256.8 878.694 1254.05 878.458 1251.47 877.987C1248.94 877.552 1246.83 876.99 1245.17 876.301L1250.39 859.011C1253.11 859.845 1255.55 860.298 1257.73 860.37C1259.94 860.443 1261.84 859.935 1263.44 858.848C1265.07 857.76 1266.39 855.912 1267.41 853.302L1268.76 849.768L1238.81 763.859H1263.16L1280.45 825.191H1281.32L1298.78 763.859H1323.3L1290.84 856.401C1289.28 860.896 1287.16 864.811 1284.48 868.145C1281.83 871.517 1278.48 874.108 1274.42 875.921C1270.36 877.769 1265.47 878.694 1259.74 878.694Z" fill="#E37329"/>
</svg>
