<svg width="2031" height="1243" viewBox="0 0 2031 1243" fill="none" xmlns="http://www.w3.org/2000/svg">
<path d="M880.292 464.519H877.595C876.259 464.519 874.834 464.456 873.372 464.344C871.935 464.232 870.725 464.057 869.767 463.832C869.415 463.745 869.175 463.67 869.024 463.62V400.59L909.609 473.954H926.839V399.629C926.839 398.731 927.103 398.094 927.671 397.645C928.339 397.108 929.309 396.734 930.544 396.522C931.906 396.297 933.456 396.172 935.157 396.172H937.489V386.749H904.58V396.172H907.277C908.689 396.172 910.126 396.234 911.563 396.347C912.962 396.459 914.172 396.621 915.142 396.809C915.495 396.883 915.722 396.946 915.848 396.996V452.362L879.498 386.736H847.357V396.16H849.576C851.366 396.16 852.954 396.272 854.315 396.509C855.563 396.721 856.546 397.083 857.214 397.582C857.567 397.845 858.033 398.319 858.033 399.492V460.949C858.033 461.785 857.756 462.397 857.176 462.896C856.495 463.458 855.537 463.882 854.29 464.119C852.954 464.381 851.366 464.519 849.576 464.519H847.357V473.942H880.267V464.519H880.292Z" fill="white"/>
<path d="M1017.74 445.073H1007.24L1005.56 459.551C1005.5 460.375 1005.23 461.037 1004.78 461.561C1004.29 462.11 1003.53 462.559 1002.54 462.896C1001.45 463.271 1000.03 463.533 998.29 463.683C996.525 463.845 994.345 463.92 991.773 463.92H973.863V434.027L980.82 434.339C984.375 434.502 987.904 434.676 991.42 434.876C994.937 435.076 998.479 435.263 1002.03 435.413L1003.08 435.463V422.944L1002.03 422.994C998.479 423.156 994.912 423.331 991.357 423.531C987.803 423.73 984.274 423.905 980.757 424.067C978.489 424.167 976.182 424.28 973.863 424.379V396.759H989.832C992.996 396.759 995.605 396.896 997.571 397.171C999.424 397.433 1000.82 397.894 1001.73 398.556C1002.55 399.155 1003.02 400.004 1003.14 401.177L1004.58 412.61H1014.83V386.736H946.285V396.16H948.617C951.163 396.16 953.306 396.422 954.982 396.958C956.343 397.383 956.948 398.169 956.948 399.492V461.186C956.948 462.509 956.343 463.296 954.982 463.72C953.318 464.244 951.176 464.519 948.617 464.519H946.285V473.942H1017.74V445.073Z" fill="white"/>
<path d="M1041.35 464.078C1041.72 464.627 1042.11 465.138 1042.51 465.638C1045.53 469.37 1049.31 472.053 1053.74 473.638C1058.12 475.186 1063.01 475.972 1068.26 475.972C1074.28 475.972 1079.66 474.974 1084.3 473.014C1088.99 471.03 1092.69 467.972 1095.29 463.94C1097.88 459.921 1099.21 454.829 1099.21 448.826C1099.21 444.12 1098.38 440.176 1096.72 437.081C1095.09 433.998 1092.79 431.427 1089.92 429.467C1087.11 427.545 1083.93 425.973 1080.47 424.787C1077.07 423.626 1073.53 422.59 1069.98 421.704C1066.66 420.83 1063.6 420.007 1060.76 419.245C1058.02 418.509 1055.6 417.61 1053.57 416.562C1051.63 415.563 1050.1 414.265 1049.03 412.68C1047.98 411.133 1047.44 409.086 1047.44 406.577C1047.44 404.068 1047.95 401.747 1048.95 399.987C1049.95 398.24 1051.44 396.942 1053.52 396.03C1055.64 395.094 1058.48 394.62 1061.96 394.62C1065.44 394.62 1068.73 395.269 1071.54 396.567C1074.33 397.853 1076.73 399.8 1078.69 402.333C1080.67 404.904 1082.22 408.125 1083.31 411.906L1083.53 412.63H1094.37V386.158H1084.35L1083.36 395.069C1083.05 394.595 1082.73 394.133 1082.41 393.696C1079.96 390.489 1076.9 388.13 1073.31 386.707C1069.76 385.309 1065.63 384.598 1060.99 384.598C1055.29 384.598 1050.27 385.584 1046.03 387.506C1041.75 389.465 1038.38 392.286 1036.04 395.906C1033.68 399.525 1032.48 403.968 1032.48 409.111C1032.48 413.716 1033.25 417.635 1034.76 420.768C1036.29 423.901 1038.41 426.472 1041.08 428.406C1043.69 430.291 1046.71 431.851 1050.05 433.037C1053.32 434.198 1056.79 435.271 1060.39 436.245C1063.55 437.043 1066.6 437.88 1069.45 438.691C1072.26 439.502 1074.78 440.526 1076.94 441.724C1079 442.885 1080.67 444.37 1081.86 446.155C1083.04 447.902 1083.63 450.223 1083.63 453.044C1083.63 456.127 1083.05 458.661 1081.89 460.583C1080.74 462.48 1079.07 463.815 1076.76 464.664C1074.38 465.538 1071.28 465.987 1067.53 465.987C1063.25 465.987 1059.3 465.213 1055.82 463.666C1052.36 462.143 1049.37 459.821 1046.93 456.751C1044.48 453.668 1042.6 449.749 1041.34 445.106L1041.14 444.37H1029.91V474.437H1040.43L1041.34 464.102L1041.35 464.078Z" fill="white"/>
<path d="M1118.36 401.524C1118.5 400.338 1118.95 399.427 1119.77 398.753C1120.64 398.029 1122.06 397.505 1124.02 397.168C1126.1 396.818 1128.91 396.644 1132.4 396.644H1137.21V461.196C1137.21 462.519 1136.57 463.293 1135.13 463.73C1133.38 464.254 1131.15 464.529 1128.52 464.529H1125.45V473.952H1166V464.529H1162.81C1160.25 464.529 1158.07 464.266 1156.32 463.73C1154.88 463.293 1154.24 462.519 1154.24 461.196V396.644H1159.06C1162.54 396.644 1165.36 396.818 1167.44 397.168C1169.4 397.505 1170.85 398.042 1171.76 398.765C1172.59 399.427 1173.02 400.313 1173.1 401.511L1174.52 416.451H1184.92V386.746H1106.56V416.451H1116.96L1118.37 401.524H1118.36Z" fill="white"/>
<path d="M908.749 497.156C903.354 499.241 898.602 502.298 894.645 506.267C890.687 510.236 887.586 515.067 885.456 520.658C883.326 526.225 882.242 532.665 882.242 539.792C882.242 546.918 883.326 553.259 885.456 558.863C887.599 564.492 890.687 569.347 894.645 573.316C898.602 577.285 903.354 580.33 908.761 582.365C914.143 584.399 920.117 585.435 926.508 585.435C932.898 585.435 938.973 584.399 944.317 582.365C949.674 580.318 954.401 577.273 958.371 573.316C962.329 569.36 965.417 564.492 967.559 558.863C969.689 553.259 970.773 546.831 970.773 539.792C970.773 532.752 969.689 526.225 967.559 520.658C965.417 515.067 962.329 510.224 958.371 506.267C954.413 502.311 949.687 499.241 944.33 497.156C938.986 495.084 932.986 494.023 926.508 494.023C920.029 494.023 914.131 495.072 908.749 497.156ZM945.779 513.219C948.061 516.103 949.838 519.797 951.06 524.215C952.283 528.671 952.901 533.913 952.901 539.804C952.901 545.695 952.283 550.925 951.06 555.393C949.85 559.799 948.073 563.506 945.779 566.389C943.511 569.247 940.738 571.431 937.536 572.879C934.335 574.327 930.617 575.076 926.495 575.076C922.374 575.076 918.731 574.34 915.454 572.879C912.189 571.431 909.404 569.247 907.173 566.402C904.917 563.518 903.165 559.824 901.955 555.406C900.732 550.95 900.115 545.708 900.115 539.817C900.115 533.926 900.732 528.684 901.955 524.228C903.165 519.822 904.942 516.115 907.236 513.232C909.505 510.374 912.303 508.19 915.53 506.742C918.781 505.281 922.474 504.545 926.508 504.545C930.541 504.545 934.335 505.281 937.549 506.742C940.738 508.19 943.511 510.374 945.779 513.232V513.219Z" fill="white"/>
<path d="M1035.65 559.06L1015.86 496.18H980.91V505.603H983.116C984.906 505.603 986.506 505.715 987.855 505.952C989.103 506.165 990.086 506.527 990.754 507.026C991.107 507.288 991.561 507.762 991.561 508.935V570.63C991.561 571.453 991.296 572.04 990.729 572.502C990.061 573.038 989.09 573.413 987.855 573.625C986.506 573.85 984.906 573.975 983.116 573.975H980.91V583.398H1011.51V573.975H1010.03C1008.99 573.975 1007.82 573.937 1006.51 573.862C1005.21 573.787 1004.09 573.663 1003.16 573.513C1002.88 573.463 1002.68 573.425 1002.54 573.388V509.447L1027.48 583.772H1037.78L1062.85 509.098V573.4C1062.71 573.438 1062.51 573.475 1062.23 573.525C1061.3 573.675 1060.19 573.8 1058.94 573.875C1057.67 573.95 1056.43 573.987 1055.25 573.987H1053.16V583.41H1090.43V573.987H1088.1C1085.46 573.987 1083.31 573.725 1081.68 573.201C1080.36 572.776 1079.76 571.99 1079.76 570.667V508.973C1079.76 507.65 1080.36 506.864 1081.68 506.439C1083.32 505.915 1085.47 505.64 1088.1 505.64H1090.43V496.217H1056.33L1035.65 559.097V559.06Z" fill="white"/>
<path d="M1171.63 554.514H1161.13L1159.46 568.992C1159.4 569.816 1159.14 570.478 1158.68 570.989C1158.19 571.538 1157.44 571.988 1156.43 572.325C1155.35 572.699 1153.91 572.961 1152.19 573.111C1150.42 573.273 1148.24 573.348 1145.67 573.348H1127.76V543.456L1134.72 543.768C1138.27 543.93 1141.8 544.105 1145.32 544.305C1148.83 544.504 1152.38 544.691 1155.94 544.841L1156.99 544.891V532.373L1155.94 532.423C1152.39 532.585 1148.82 532.76 1145.27 532.959C1141.71 533.159 1138.18 533.334 1134.67 533.496C1132.4 533.596 1130.09 533.708 1127.77 533.808V506.187H1143.74C1146.9 506.187 1149.51 506.324 1151.48 506.599C1153.33 506.861 1154.73 507.323 1155.64 507.972C1156.46 508.571 1156.93 509.42 1157.05 510.593L1158.49 522.026H1168.74V496.152H1100.18V505.576H1102.51C1105.06 505.576 1107.2 505.838 1108.88 506.374C1110.24 506.799 1110.84 507.585 1110.84 508.908V570.602C1110.84 571.925 1110.24 572.712 1108.88 573.136C1107.2 573.66 1105.07 573.935 1102.51 573.935H1100.18V583.358H1171.63V554.489V554.514Z" fill="white"/>
<path d="M1194.95 537.829C1197.56 539.714 1200.59 541.274 1203.93 542.46C1207.2 543.62 1210.67 544.694 1214.26 545.667C1217.41 546.466 1220.46 547.29 1223.33 548.114C1226.14 548.925 1228.66 549.948 1230.81 551.147C1232.89 552.307 1234.54 553.793 1235.74 555.577C1236.91 557.325 1237.52 559.646 1237.52 562.467C1237.52 565.55 1236.94 568.083 1235.78 570.006C1234.63 571.903 1232.95 573.238 1230.65 574.087C1228.27 574.961 1225.17 575.41 1221.42 575.41C1217.14 575.41 1213.19 574.636 1209.71 573.101C1206.25 571.578 1203.25 569.257 1200.81 566.186C1198.37 563.103 1196.49 559.184 1195.24 554.541L1195.04 553.805H1183.82V583.872H1194.35L1195.26 573.538C1195.62 574.087 1196.01 574.599 1196.42 575.098C1199.43 578.83 1203.21 581.526 1207.65 583.098C1212.02 584.646 1216.91 585.432 1222.17 585.432C1228.17 585.432 1233.56 584.434 1238.2 582.474C1242.89 580.49 1246.59 577.432 1249.19 573.4C1251.79 569.369 1253.11 564.289 1253.11 558.286C1253.11 553.58 1252.28 549.636 1250.63 546.541C1248.99 543.458 1246.69 540.887 1243.82 538.928C1241.01 537.005 1237.82 535.433 1234.37 534.247C1230.98 533.086 1227.43 532.05 1223.88 531.164C1220.57 530.291 1217.5 529.467 1214.67 528.705C1211.93 527.969 1209.51 527.07 1207.47 526.022C1205.53 525.024 1204 523.725 1202.93 522.153C1201.87 520.605 1201.34 518.558 1201.34 516.05C1201.34 513.541 1201.85 511.219 1202.86 509.46C1203.85 507.712 1205.34 506.414 1207.42 505.503C1209.54 504.567 1212.39 504.093 1215.86 504.093C1219.34 504.093 1222.63 504.742 1225.44 506.04C1228.23 507.325 1230.64 509.272 1232.59 511.806C1234.57 514.377 1236.12 517.597 1237.22 521.379L1237.42 522.103H1248.26V495.63H1238.24L1237.25 504.542C1236.94 504.068 1236.62 503.606 1236.3 503.169C1233.85 499.961 1230.79 497.602 1227.19 496.18C1223.65 494.782 1219.52 494.07 1214.88 494.07C1209.18 494.07 1204.15 495.056 1199.92 496.978C1195.63 498.938 1192.27 501.759 1189.92 505.378C1187.57 508.998 1186.37 513.441 1186.37 518.583C1186.37 523.189 1187.14 527.108 1188.65 530.241C1190.18 533.373 1192.29 535.945 1194.97 537.879L1194.95 537.829Z" fill="white"/>
<path d="M1338.19 555.914C1337.51 531.713 1332.79 508.149 1324.69 486.332C1327.7 482.525 1330.79 478.793 1333.98 475.111C1330.55 478.219 1327.27 481.427 1324.1 484.709C1314.37 459.173 1299.96 436.12 1281.91 417.398C1264.33 391.45 1241.9 369.695 1216.21 353.408C1226.28 350.312 1236.21 345.919 1245.84 340.115C1235.38 345.232 1224.37 349.014 1213.12 351.485C1211.29 350.362 1209.44 349.276 1207.58 348.203C1191.56 333.088 1172.76 320.907 1151.82 312.532C1156.79 308.588 1161.57 304.219 1166.09 299.402C1161.01 303.932 1155.63 308.076 1150 311.808C1132.05 304.868 1112.56 300.712 1091.93 299.901C1082.95 296.768 1073.83 294.247 1064.63 292.337C1062.6 289.666 1060.61 286.958 1058.7 284.2C1060.12 286.871 1061.6 289.479 1063.15 292.038C1055.7 290.553 1048.21 289.442 1040.69 288.768C1044.71 283.226 1048.44 277.335 1051.84 271.082C1047.76 277.223 1043.29 283.064 1038.49 288.593C1017.88 286.946 997.171 288.356 977.093 292.912C929.399 296.107 884.705 311.221 847.006 335.747C838.902 332.914 830.911 329.631 823.096 325.987C830.092 330.317 837.276 334.099 844.586 337.344C824.861 350.499 807.127 366.251 791.939 384.224C748.089 410.322 718.797 456.776 719.818 512.467C718.142 514.988 716.529 517.559 714.953 520.131C713.731 519.12 712.495 518.121 711.248 517.135C711.878 505.266 713.138 493.396 714.941 481.589C711.865 492.61 709.622 503.668 708.109 514.701C705.866 513.004 703.584 511.331 701.253 509.696C703.547 511.606 705.79 513.566 707.996 515.575C707.088 522.352 706.483 529.129 706.143 535.869C672.793 601.096 670.864 679.952 711.701 750.794C682.762 688.476 680.544 616.061 705.916 553.755C706.546 578.567 711.021 602.756 718.999 625.484C709.559 672.088 714.386 722 732.914 767.544C729.511 771.014 725.957 774.409 722.251 777.729C716.844 769.029 711.802 760.068 707.126 750.907C712.369 765.198 718.823 778.727 726.284 791.42C710.706 796.538 694.698 799.858 677.746 799.221C674.797 799.109 679.233 803.103 681.3 804.75C707.479 815.047 733.658 825.344 759.761 835.803C765.281 841.582 771.054 847.074 777.066 852.229C772.844 853.614 768.647 855.124 764.487 856.784C769.088 855.511 773.713 854.363 778.339 853.327C791.296 864.273 805.337 873.734 820.185 881.534C810.606 886.839 801.266 893.017 792.254 900.131C802.173 893.616 812.572 887.95 823.323 883.157C829.89 886.477 836.62 889.485 843.464 892.143C881.289 921.649 928.58 939.996 978.139 944.165C975.48 947.859 972.946 951.666 970.539 955.572C973.539 951.703 976.639 947.959 979.841 944.314C982.298 944.502 984.756 944.651 987.227 944.776C997.953 946.586 1008.67 947.672 1019.29 948.084C1016.23 955.373 1013.62 962.999 1011.53 970.974C1014.35 963.123 1017.73 955.51 1021.56 948.171C1024.81 948.271 1028.04 948.296 1031.28 948.271C1035.3 954.736 1039.05 961.488 1042.5 968.565C1039.95 961.501 1037.01 954.736 1033.76 948.233C1049.73 947.921 1065.46 946.062 1080.71 942.742C1082.66 944.801 1084.59 946.885 1086.5 949.007C1084.95 946.811 1083.36 944.651 1081.74 942.53C1108.39 936.614 1133.57 926.242 1156.12 911.888C1174.03 905.86 1191.21 897.635 1207.31 887.488C1210.17 888.786 1213.03 890.171 1215.86 891.632C1213.33 889.972 1210.79 888.411 1208.2 886.914C1225.87 875.668 1242.21 862.114 1256.73 846.662C1255.59 846.924 1254.43 847.136 1253.29 847.361C1258.25 843.979 1263.04 840.309 1267.83 836.627C1268.16 836.365 1268.47 836.103 1268.81 835.878C1269.37 835.454 1269.92 835.03 1270.48 834.593C1274.12 831.797 1289.02 821.837 1290.96 820.539C1298.66 815.384 1306.56 810.529 1314.42 805.599C1315.68 804.813 1324.6 799.895 1326.39 798.535C1329.4 796.251 1332.87 794.578 1336.41 792.481C1332.24 790.197 1322.03 794.054 1320.45 794.304C1314.05 795.302 1307.52 796.6 1301.13 796.226C1299.66 796.138 1298.18 796.014 1296.71 795.901C1306.63 783.67 1315.05 770.577 1321.93 756.948C1322.95 757.959 1323.98 758.97 1325.04 759.968C1324.05 758.857 1323.08 757.721 1322.12 756.586C1347.75 705.675 1352.2 647.413 1335.14 598.862C1336.74 589.613 1337.71 580.352 1338.1 571.153C1348.08 599.698 1352.92 631.225 1351.26 664.812C1356.65 626.345 1351.28 589.051 1338.2 555.914H1338.19ZM1332.15 591.048C1328.89 583.06 1325 575.372 1320.52 568.058C1324.9 577.743 1328.53 587.753 1331.41 597.988C1329.39 614.351 1325.65 630.938 1320.02 647.575C1321.08 608.447 1312.59 568.62 1295.07 532.287C1298.65 525.16 1302.59 518.221 1306.87 511.444C1317.16 525.61 1325.97 541.136 1332.97 557.824C1333.47 568.732 1333.22 579.828 1332.16 591.036L1332.15 591.048ZM1301.17 732.871C1301.37 733.159 1301.59 733.433 1301.8 733.72C1301.52 750.333 1298.89 767.007 1293.58 783.283C1292.4 787.314 1291.06 791.296 1289.64 795.252C1283.16 794.553 1276.69 793.617 1270.31 792.357C1268.3 791.957 1266.28 791.583 1264.28 791.246C1264.83 790.048 1265.37 788.862 1265.92 787.651C1280.76 771.039 1292.48 752.542 1301.18 732.871H1301.17ZM1297.79 721.164C1282.73 693.531 1274.01 662.84 1272.58 631.824C1287.99 656.212 1297.82 683.783 1300.84 712.165C1299.9 715.186 1298.88 718.181 1297.8 721.177L1297.79 721.164ZM1272.37 624.186C1272.17 595.829 1278.1 567.397 1290.93 540.974C1291.41 539.913 1291.91 538.852 1292.41 537.804C1312.8 590.262 1317.67 646.128 1304.79 698.087C1300.19 671.689 1289.42 646.365 1272.37 624.198V624.186ZM1331.56 540.837C1325.56 528.443 1318.46 516.748 1310.43 505.927C1313.55 501.234 1316.82 496.629 1320.23 492.11C1325.7 507.649 1329.53 523.962 1331.56 540.837ZM1258.08 396.78C1253 393.16 1247.73 389.828 1242.28 386.832C1251.85 393.759 1260.82 401.485 1269.12 409.91C1269.55 410.471 1269.99 411.033 1270.42 411.595C1288.78 434.473 1303.06 460.533 1314.2 487.967C1310.65 474.862 1306.05 462.305 1300.53 450.361C1308.01 462.73 1314.34 475.91 1319.37 489.727C1315.45 494.033 1311.74 498.476 1308.24 503.019C1295.65 486.631 1280.91 472.34 1264.69 460.795C1259.97 426.035 1246.24 394.084 1225.65 367.961C1237.33 376.373 1248.21 385.996 1258.06 396.767L1258.08 396.78ZM1096.58 325.225C1104.46 325.45 1112.3 326.049 1120.09 327.035C1115.2 328.845 1110.22 330.405 1105.18 331.678C1102.24 329.656 1099.38 327.509 1096.59 325.225H1096.58ZM1100.36 332.801C1079.09 337.407 1056.85 337.145 1035.64 331.304C1053.81 327.097 1072.37 325.05 1090.82 325.138C1093.89 327.846 1097.08 330.405 1100.36 332.814V332.801ZM1127.04 328.021C1134.09 329.119 1141.07 330.53 1147.98 332.252C1155.38 336.77 1162.61 341.6 1169.67 346.693C1164.81 342.212 1159.79 338.006 1154.65 334.024C1171.28 338.692 1187.37 345.17 1202.49 353.42C1170.49 357.988 1137.33 351.897 1109.79 334.711C1115.65 332.926 1121.42 330.692 1127.04 328.033V328.021ZM1183.19 336.246C1169.36 330.517 1154.87 326.249 1139.95 323.553C1139.26 323.103 1138.56 322.667 1137.87 322.217C1141.01 320.333 1144.1 318.311 1147.11 316.126C1159.84 321.593 1171.94 328.333 1183.19 336.234V336.246ZM1144.75 315.128C1141.6 317.038 1138.37 318.81 1135.09 320.47C1123.04 313.031 1110.46 306.865 1097.54 301.948C1113.82 304.432 1129.69 308.887 1144.75 315.115V315.128ZM1096.4 307.502C1107.84 311.508 1118.96 316.376 1129.75 321.968C1117.07 320.32 1104.12 319.821 1090.98 320.57C1083.53 314.192 1076.67 307.128 1070.35 299.539C1079.14 301.573 1087.83 304.207 1096.4 307.489V307.502ZM1067.63 298.94C1073.16 306.99 1079.41 314.329 1086.24 320.907C1069.42 322.242 1052.35 325.612 1035.26 331.191C1028.77 329.381 1022.38 327.047 1016.14 324.177C1013.8 323.178 1011.48 322.105 1009.18 320.994C1019.04 313.543 1028.11 304.769 1036.17 294.709C1046.69 295.295 1057.2 296.693 1067.62 298.952L1067.63 298.94ZM1033.11 294.559C1024.47 303.62 1014.89 311.708 1004.6 318.685C994.537 313.418 984.996 307.115 975.959 300.088C994.65 295.707 1013.88 293.785 1033.11 294.559ZM1001.66 320.62C967.615 342.674 926.097 352.684 884.894 345.282C884.856 345.282 884.818 345.282 884.781 345.27C911.148 323.553 942.255 308.126 975.089 300.288C983.294 308.213 992.23 315.003 1001.67 320.62H1001.66ZM915.661 311.284C925.883 307.777 936.281 304.831 946.843 302.385C923.475 311.833 901.557 325.937 882.335 344.87C873.601 343.435 864.967 341.388 856.459 338.83C874.634 327.235 894.448 317.886 915.661 311.284ZM805.312 381.865C809.95 379.543 814.727 377.434 819.655 375.599C838.612 367.911 858.93 363.542 879.563 361.508C856.031 361.034 833.482 365.377 813.114 373.702C825.315 361.495 838.738 350.487 853.233 340.926C861.614 344.134 870.147 346.655 878.743 348.503C874.886 352.496 871.156 356.678 867.538 361.071C871.71 356.815 876.046 352.759 880.533 348.864C924.673 357.851 970.274 348.989 1006.2 323.203C1036.82 339.953 1072.22 344.671 1105 336.059C1134.71 356.104 1171.26 363.954 1206.89 355.891C1225.52 374.076 1240.38 396.118 1249.69 421.255C1254.53 433.212 1258.25 445.606 1261.04 458.249C1242.48 445.681 1222.1 436.669 1200.83 432.126C1223.02 439.839 1243.87 451.235 1262.58 465.725C1264.33 474.911 1265.6 484.21 1266.47 493.558C1266.71 484.946 1266.41 476.447 1265.58 468.097C1279.98 479.667 1293.06 493.109 1304.43 508.174C1300.05 514.239 1296.03 520.468 1292.37 526.858C1285.41 513.278 1277.18 500.223 1267.69 487.929C1276.3 502.008 1283.7 516.548 1289.86 531.389C1275.46 558.136 1267.42 587.279 1266.17 616.56C1257.23 606.225 1246.83 596.677 1234.93 588.165C1246.69 598.25 1257.09 609.658 1266.02 622.052C1265.52 657.985 1275.32 693.893 1296.17 725.595C1287.37 748.498 1274.83 770.327 1258.3 790.372C1250.74 789.473 1243.14 789.436 1235.3 791.396C1247.25 773.56 1256.12 754.776 1258.44 733.57C1260.76 712.39 1257.77 692.171 1245.79 673.137C1233.89 688.426 1220.91 701.344 1205.32 711.479C1188.99 722.1 1164.55 729.876 1153.3 727.941C1154.62 726.881 1155.86 725.882 1157.27 724.734C1146.1 713.988 1134.4 704.689 1120.3 698.885C1098.73 690.011 1078.85 692.807 1060.85 707.847C1049.13 717.645 1040.44 729.839 1033.82 743.443C1029.26 752.816 1025.53 762.589 1021.04 773.073C1024.41 773.073 1026.22 773.098 1028.05 773.073C1056.64 772.586 1078.51 783.919 1088.9 810.854C1093.81 823.559 1101.77 834.493 1112.59 842.993C1117.67 846.987 1122.88 850.419 1128.25 853.352C1114.17 857.258 1100.71 862.875 1088.2 870.102C1068.21 874.832 1048.94 883.032 1031.32 894.178C1002.75 874.495 970.224 862.251 936.76 858.457C928.013 854.725 918.988 851.555 909.762 848.996C919.644 845.314 929.386 840.721 938.978 835.179C971.925 816.158 994.26 788.575 1003.04 750.882C1004.58 744.292 1006.44 737.639 1009.2 731.486C1020.02 707.235 1039.48 692.994 1064.43 685.63C1070.89 683.721 1077.52 682.41 1084.35 680.763C1084 679.727 1083.84 678.978 1083.5 678.341C1070.54 654.178 1054.14 632.773 1031.5 616.934C998.772 594.044 964.968 595.117 933.105 619.256C918.925 630.002 907.153 643.082 896.603 657.273C894.12 660.618 891.423 661.966 887.402 662.241C849.351 664.812 815.282 653.516 784.074 632.598C783.116 631.962 782.183 631.312 781.238 630.651C776.247 605.626 766.34 581.575 751.417 559.883C761.412 541.623 774.054 524.412 789.443 508.648C789.443 508.748 789.481 508.835 789.481 508.935V570.629C789.481 571.952 788.876 572.739 787.515 573.163C785.851 573.687 783.708 573.962 781.15 573.962H778.818V583.385H817.059V573.962H811.816C810.732 573.962 809.711 573.899 808.791 573.787C807.858 573.675 807.114 573.562 806.572 573.438C806.547 573.438 806.534 573.438 806.509 573.425V543.533H844.511V573.425C844.511 573.425 844.473 573.425 844.448 573.438C843.918 573.55 843.2 573.65 842.33 573.725C841.41 573.799 840.376 573.887 839.255 573.962C838.145 574.037 837.074 574.074 836.053 574.074H833.961V583.372H872.202V573.949H869.996C867.362 573.949 865.181 573.687 863.505 573.15C862.144 572.726 861.539 571.94 861.539 570.617V508.923C861.539 507.6 862.144 506.813 863.505 506.389C865.181 505.865 867.362 505.59 869.996 505.59H872.202V496.167H833.961V505.59H839.33C840.402 505.59 841.41 505.652 842.292 505.765C843.187 505.877 843.906 506.002 844.46 506.114C844.485 506.114 844.498 506.114 844.511 506.127V533.498H806.509V506.127C806.509 506.127 806.547 506.127 806.572 506.114C807.076 506.002 807.807 505.915 808.74 505.827C809.711 505.752 810.757 505.665 811.879 505.59C812.988 505.515 814.009 505.478 814.967 505.478H817.059V496.179H802.514C806.698 492.472 811.047 488.865 815.572 485.371C810.051 488.778 804.783 492.398 799.728 496.179H778.818V505.603H781.15C783.545 505.603 785.561 505.852 787.187 506.314C771.117 520.368 757.744 536.381 747.031 553.767C743.312 548.787 739.304 543.945 735.032 539.264C736.645 522.914 739.758 506.813 744.245 491.162C745.606 489.589 746.993 488.029 748.404 486.481C769.063 462.618 793.956 442.373 820.941 425.149C793.262 438.491 769.012 456.09 748.82 476.721C761.034 441.549 780.293 409.098 805.287 381.865H805.312ZM1134.39 856.472C1154.17 865.708 1175.73 868.417 1198.58 866.182C1195.18 869.914 1191.66 873.521 1188.03 877.029C1161.68 866.357 1133.82 863.324 1106.73 866.744C1115.71 862.625 1125.08 859.255 1134.74 856.747C1134.62 856.659 1134.52 856.56 1134.39 856.472ZM1045.84 905.111C1042.68 902.528 1039.48 900.056 1036.22 897.672C1047.3 891.245 1058.84 885.89 1070.73 881.709C1061.68 888.574 1053.34 896.399 1045.84 905.111ZM1046.68 911.639C1048.78 913.274 1050.88 914.946 1052.94 916.644C1049.74 916.344 1046.53 915.995 1043.31 915.57C1044.42 914.247 1045.55 912.937 1046.68 911.639ZM1006.35 907.82C1002.46 903.476 998.406 899.332 994.171 895.401C1000.08 893.404 1005.98 891.145 1011.87 888.624C1016.05 890.933 1020.16 893.391 1024.19 896.025C1024.93 896.474 1025.66 896.936 1026.39 897.398C1021.04 901.017 1015.86 904.911 1010.88 909.068C1009.37 908.668 1007.86 908.244 1006.36 907.807L1006.35 907.82ZM1010.38 909.492C1009.88 909.916 1009.38 910.328 1008.89 910.753C1008.09 909.804 1007.28 908.868 1006.45 907.944C1007.76 908.469 1009.07 908.993 1010.38 909.492ZM992.621 894.015C981.656 884.068 969.606 875.468 956.725 868.254C975.795 872.248 994.335 878.976 1011.73 888.549C1005.43 890.621 999.049 892.443 992.621 894.003V894.015ZM1015.48 911.352C1022.37 913.786 1029.27 915.832 1036.18 917.517C1032.48 922.784 1029.05 928.326 1025.95 934.117C1021.62 927.078 1016.88 920.438 1011.77 914.16C1012.99 913.199 1014.22 912.263 1015.47 911.339L1015.48 911.352ZM1016.58 910.54C1021.38 907.008 1026.29 903.701 1031.32 900.605C1035.22 903.202 1039.07 905.91 1042.84 908.718C1041.22 910.715 1039.63 912.737 1038.1 914.821C1030.96 913.723 1023.79 912.3 1016.58 910.54ZM750.345 671.701C740.993 657.91 733.141 643.132 727.028 627.568C731.275 605.976 738.435 585.008 748.631 565.187C759.761 583.759 768.054 603.879 773.121 624.735C767.991 620.866 762.924 616.884 757.782 613.028C752.992 621.165 749.299 639.513 749.4 655.763C749.425 661.205 749.753 666.522 750.345 671.701ZM782.738 395.843C763.504 421.679 749.274 451.522 741.573 484.447C733.771 493.134 726.65 502.283 720.26 511.843C723.625 466.162 746.501 423.102 782.738 395.843ZM738.876 497.627C736.506 511.057 735.195 524.961 735.057 539.264C730.444 534.209 725.515 529.354 720.26 524.686C725.755 515.3 731.956 506.252 738.876 497.627ZM711.185 518.558C712.193 519.507 713.189 520.468 714.172 521.441C713.05 523.301 711.953 525.173 710.882 527.07C710.945 524.237 711.059 521.404 711.197 518.57L711.185 518.558ZM713.479 573.125C712.029 562.941 711.21 552.681 710.92 542.372C713.453 536.993 716.214 531.713 719.176 526.521C728.566 536.356 736.985 547.015 744.333 558.31C734.351 575.459 726.877 593.857 721.885 612.94C717.877 600.097 715.004 586.792 713.479 573.113V573.125ZM724.835 640.436C732.284 657.66 741.812 673.861 753.295 688.638C756.206 700.795 760.668 712.228 766.542 723.061C758.437 737.402 748.455 751.069 736.494 763.812C723.247 723.061 719.1 680.838 724.835 640.424V640.436ZM775.44 772.861C773.361 773.373 771.306 773.984 769.264 774.658C765.748 764.262 762.861 753.453 760.681 742.195C761.664 753.752 763.567 764.923 766.277 775.707C761.21 777.579 756.232 779.788 751.228 781.897C748.883 782.883 746.539 783.844 744.195 784.793C741.636 778.515 739.292 772.187 737.174 765.822C749.942 754.526 760.706 741.908 769.567 728.328C773.89 735.605 778.843 742.619 784.376 749.384C781.793 757.335 778.805 765.148 775.44 772.836V772.861ZM788.221 753.99C793.628 760.205 799.527 766.221 805.866 772.075C799.312 771.725 794.321 771.313 789.317 771.214C786.28 771.151 783.318 771.401 780.431 771.863C783.318 765.984 785.927 760.03 788.233 753.99H788.221ZM722.251 777.766C726.146 774.958 729.889 772.037 733.494 769.017C735.863 774.746 738.472 780.412 741.283 785.979C737.641 787.414 733.985 788.787 730.305 790.073C727.545 786.029 724.847 781.935 722.264 777.766H722.251ZM766.693 828.589C764.122 827.379 756.358 823.797 754.996 823.247C741.661 817.868 728.364 812.389 715.067 806.91C714.537 806.697 714.134 806.223 713.176 805.487C714.525 804.95 715.42 804.576 716.34 804.239C733.28 797.936 750.32 791.87 767.147 785.28C785.473 778.103 803.094 779.251 820.437 788.288C828.907 792.706 837.515 796.875 846.489 801.368C847.334 799.571 847.863 798.16 848.62 796.9C850.485 793.829 849.527 792.219 846.502 790.372C826.789 778.24 808.627 764.162 793.464 746.513C768.722 717.732 755.551 684.869 758.349 646.465C758.689 641.697 759.559 636.966 760.277 632.236C760.454 631.05 760.996 629.927 761.677 627.868C763.769 629.378 765.269 630.401 766.706 631.5C789.821 649.248 815.093 662.603 843.817 668.594C876.777 675.471 908.829 672.712 939.306 657.822C947.839 653.654 955.779 648.262 963.644 642.808C947.234 645.915 930.836 649.011 914.312 652.131C914.186 650.721 914.022 650.309 914.148 650.147C928.277 633.047 944.663 618.944 966.392 612.528C987.327 606.35 1006.54 611.343 1024.24 623.05C1043.29 635.643 1057.66 652.743 1069.75 671.889C1069.99 672.263 1070.04 672.75 1070.36 673.786C1068.52 674.422 1066.76 675.134 1064.93 675.646C1042.13 681.948 1022.95 693.556 1009.32 713.351C1002.84 722.762 998.104 733.046 995.86 744.192C988.084 782.821 965.485 810.379 931.58 828.814C890.074 851.38 845.985 856.684 800.421 843.866C788.674 840.559 777.86 833.894 766.706 828.602L766.693 828.589ZM777.583 844.166C780.961 845.776 784.313 847.461 787.704 849.033C786.62 849.333 785.536 849.633 784.452 849.957C782.12 848.085 779.839 846.15 777.583 844.178V844.166ZM786.57 851.617C788.233 851.292 789.897 850.993 791.561 850.706C794.208 851.804 796.88 852.778 799.615 853.489C801.657 854.026 803.699 854.513 805.728 854.974C811.564 862.276 817.853 869.19 824.558 875.693C811.173 868.978 798.443 860.94 786.557 851.605L786.57 851.617ZM817.954 857.421C845.078 861.939 871.521 860.591 897.107 853.19C902.111 854.375 907.077 855.711 911.968 857.209C885.915 857.533 859.749 863.037 834.881 874.195C828.97 868.891 823.311 863.299 817.954 857.421ZM838.234 877.153C868.534 866.17 900.989 861.839 932.79 864.697C951.544 872.51 969.14 882.845 985.059 895.725C939.797 905.211 892.482 902.003 849.716 886.514C845.796 883.506 841.965 880.386 838.234 877.153ZM870.16 900.643C907.455 909.966 947.536 909.629 987.302 897.598C993.478 902.74 999.39 908.256 1005.01 914.172C996.327 922.023 988.323 930.71 981.151 940.133C940.894 934.429 902.994 921.05 870.16 900.643ZM1021.42 943.241C1008.57 943.054 995.835 942.118 983.332 940.445C991.02 932.058 999.226 924.307 1007.87 917.268C1013.64 923.596 1019.08 930.36 1024.17 937.55C1023.22 939.422 1022.3 941.319 1021.42 943.253V943.241ZM1026.8 943.266C1025.95 943.266 1025.09 943.266 1024.24 943.266C1024.82 942.23 1025.42 941.194 1026.02 940.171C1026.72 941.182 1027.4 942.193 1028.06 943.216C1027.65 943.241 1027.23 943.241 1026.82 943.266H1026.8ZM1057.32 940.395C1048.63 941.706 1039.87 942.567 1031.09 943.054C1030.02 941.082 1028.92 939.135 1027.8 937.213C1031.77 930.735 1036.12 924.519 1040.84 918.591C1046.89 919.914 1052.93 920.962 1058.97 921.749C1064.69 926.741 1070.22 931.958 1075.57 937.375C1069.57 938.623 1063.49 939.646 1057.33 940.395H1057.32ZM1077.42 936.988C1073.31 931.896 1069.01 927.041 1064.55 922.398C1086 924.607 1107.31 923.458 1127.94 919.377C1112.01 927.178 1095.09 933.144 1077.42 936.976V936.988ZM1155.09 903.726C1125.03 914.472 1092.76 919.352 1059.31 917.155C1056.17 914.11 1052.94 911.164 1049.65 908.331C1061.11 895.925 1074.23 885.116 1088.63 876.367C1119.96 868.654 1153.08 869.028 1185.72 879.25C1176.19 888.224 1165.94 896.437 1155.08 903.738L1155.09 903.726ZM1183.03 891.744C1186.65 888.574 1190.18 885.291 1193.58 881.884C1195.06 882.42 1196.54 882.982 1198.02 883.556C1193.1 886.452 1188.11 889.185 1183.03 891.731V891.744ZM1199.95 882.433C1198.4 881.647 1196.83 880.898 1195.27 880.174C1200.06 875.281 1204.63 870.139 1208.96 864.772C1214.36 863.561 1224.7 860.99 1226.44 860.516C1229.2 859.755 1231.86 858.819 1234.44 857.77C1223.53 866.931 1212.01 875.194 1199.95 882.433ZM1235.62 845.901C1227.18 849.608 1223.11 851.53 1220.25 852.303C1187.86 861.165 1156.56 859.43 1127.02 842.056C1113.22 833.931 1102.82 822.461 1096.97 807.758C1086.17 780.624 1066.58 766.171 1037.66 763.9C1037.04 763.85 1036.42 763.762 1035.83 763.6C1035.56 763.525 1035.35 763.251 1034.25 762.377C1037.54 755.762 1040.67 748.772 1044.41 742.133C1051.23 730.038 1059.64 719.192 1071.33 711.342C1084.48 702.53 1098.79 700.745 1113.38 706.474C1121.49 709.657 1128.86 714.699 1136.52 718.992C1137.62 719.604 1138.44 720.702 1139.84 722C1125.86 727.667 1111.84 725.108 1096.92 726.107C1156.37 752.816 1203.22 733.396 1244.8 689.15C1246.37 694.592 1247.93 698.898 1248.82 703.329C1254.21 730.113 1247.65 754.501 1233.5 777.254C1225.86 789.536 1216.43 800.357 1205.96 810.292C1200.35 815.609 1200.35 816.083 1206.54 822.224C1211.94 818.055 1217.49 813.936 1222.87 809.593C1233.88 800.682 1246.2 797.399 1260.19 800.07C1268.46 801.655 1276.77 803.065 1285.06 804.488C1285 804.576 1284.92 804.651 1284.86 804.738C1285.38 804.738 1285.91 804.738 1286.46 804.825C1287.23 804.938 1287.93 805.125 1288.58 805.362C1288.64 805.287 1288.72 805.212 1288.78 805.137C1290.48 805.437 1292.2 805.724 1293.9 806.023C1292.38 808.882 1240.19 845.027 1235.62 845.913V845.901ZM1296.68 789.299C1302.37 773.335 1305.78 756.885 1306.93 740.41C1310.34 744.654 1314 748.797 1317.87 752.841C1312.02 765.347 1304.98 777.554 1296.68 789.299ZM1318.29 751.955C1314.34 747.025 1310.62 741.933 1307.16 736.703C1307.46 730.463 1307.43 724.235 1307.08 718.031C1314.97 695.865 1319.23 672.488 1320 648.836C1326.13 634.957 1330.62 620.803 1333.64 606.587C1344.74 653.604 1340.05 704.889 1318.3 751.968L1318.29 751.955Z" fill="white"/>
<path d="M1030.31 659.649C1035.63 659.836 1040.13 654.981 1040.15 649.003C1040.18 643.249 1036.04 638.406 1030.91 638.219C1025.53 638.019 1021.18 642.762 1021.13 648.865C1021.08 654.781 1025.05 659.449 1030.3 659.637L1030.31 659.649Z" fill="white"/>
<path d="M1062.64 727.39C1057.42 727.514 1053.4 732.182 1053.4 738.111C1053.4 743.977 1057.47 748.657 1062.7 748.807C1068.12 748.957 1072.42 744.189 1072.39 738.073C1072.37 731.945 1068.08 727.252 1062.65 727.39H1062.64Z" fill="white"/>
</svg>
