<svg width="2031" height="1243" viewBox="0 0 2031 1243" fill="none" xmlns="http://www.w3.org/2000/svg">
<path d="M825.398 763.79C752.954 880.063 586.784 927.069 461.515 825.614C295.205 688.526 382.554 418.622 599.262 407.939L596.974 368.377C534.79 372.65 474.547 398.772 429.487 441.436C311.982 550.334 319.33 746.077 447.511 842.914C584.635 948.987 765.71 893.021 837.114 763.721H825.468L825.398 763.79Z" fill="#00E357"/>
<path d="M1500.27 785.982C1508.1 788.05 1515.59 791.427 1521.76 796.665C1534.86 807.762 1539.99 824.855 1546.79 840.845C1548.8 845.601 1554.83 847.117 1558.85 843.878C1571.81 833.333 1597.39 814.448 1600.58 811.691C1616.25 798.113 1635.45 789.429 1655.77 786.051H1500.34L1500.27 785.982Z" fill="#00E357"/>
<path d="M1063.18 478.586H1694.73C1775.42 478.586 1841 543.718 1841 624.014V651.928C1841 732.155 1775.49 797.356 1694.73 797.356H1064.78C983.18 797.356 916.906 731.465 916.906 650.343V624.014C916.906 543.787 982.418 478.586 1063.18 478.586Z" fill="#00E357"/>
<path d="M589.141 478.586H1381.8V797.356H590.735C509.14 797.356 442.866 731.465 442.866 650.343V624.014C442.866 543.787 508.378 478.586 589.141 478.586Z" fill="#293C53"/>
<path d="M766.68 588.31C772.296 565.428 794.341 544.062 824.012 543.717C852.573 543.373 876.421 563.774 882.452 588.242C881.897 588.242 881.412 588.31 880.858 588.31C867.825 588.31 854.861 588.31 841.828 588.31C839.61 588.31 837.946 589.069 836.906 591.067C835.173 594.514 837.46 598.511 841.343 598.58C846.473 598.649 851.603 598.58 856.733 598.58C865.537 598.58 874.41 598.58 883.215 598.58C884.116 598.58 884.393 598.925 884.393 599.752C884.393 603.68 884.393 607.609 884.393 611.744C883.631 611.744 882.799 611.744 882.036 611.744C868.587 611.744 855.138 611.744 841.62 611.744C838.986 611.744 837.045 613.192 836.49 615.535C835.935 617.879 836.906 620.36 839.055 621.394C839.817 621.738 840.719 621.945 841.551 621.945C851.811 621.945 862.001 621.945 872.261 621.945C876.282 621.945 880.303 621.945 884.462 621.945V634.972C883.977 634.972 883.561 634.972 883.076 634.972C875.728 634.972 868.31 634.972 860.961 634.972C854.584 634.972 848.206 634.972 841.828 634.972C838.57 634.972 836.351 637.108 836.351 640.21C836.351 643.242 838.57 645.31 841.828 645.31C855.416 645.31 869.003 645.31 882.591 645.31C883.145 645.31 883.7 645.31 884.324 645.31V658.474C881.551 658.474 878.709 658.474 875.936 658.474C864.497 658.474 852.989 658.474 841.551 658.474C839.124 658.474 837.252 659.784 836.559 661.921C835.797 664.126 836.559 666.607 838.5 667.779C839.471 668.399 840.788 668.675 841.967 668.675C855.554 668.675 869.142 668.675 882.799 668.675C883.284 668.675 883.769 668.675 884.324 668.675V681.839C883.63 681.839 883.145 681.839 882.591 681.839C868.864 681.839 855.208 681.839 841.481 681.839C838.916 681.839 836.767 683.562 836.351 685.837C835.866 688.525 837.183 691.075 839.679 691.764C840.927 692.109 842.382 692.04 843.7 692.109C856.317 692.109 868.934 692.109 881.482 692.109C881.759 692.109 882.036 692.109 882.313 692.109C876.975 714.923 853.682 737.254 823.11 736.564C793.509 735.875 771.88 714.233 766.542 692.04H768.344C781.377 692.04 794.479 692.04 807.512 692.04C809.661 692.04 811.325 691.075 812.157 689.076C813.058 687.009 812.85 685.01 811.256 683.287C810.216 682.115 808.76 681.702 807.166 681.702C796.005 681.702 784.774 681.702 773.613 681.702C770.701 681.702 767.789 681.702 764.67 681.702V668.537C767.235 668.537 769.869 668.537 772.504 668.537C784.081 668.537 795.589 668.537 807.166 668.537C810.84 668.537 812.92 666.125 812.504 662.61C812.157 659.991 810.216 658.337 807.304 658.337C802.59 658.337 797.946 658.337 793.231 658.337C784.15 658.337 775.138 658.337 766.056 658.337C765.571 658.337 765.086 658.337 764.462 658.337V645.172C765.017 645.172 765.571 645.172 766.195 645.172C779.783 645.172 793.37 645.172 807.027 645.172C809.939 645.172 812.642 643.036 812.573 640.003C812.504 636.832 810.424 634.834 807.027 634.834C798.639 634.834 790.32 634.834 781.932 634.765C776.178 634.765 770.424 634.765 764.531 634.765V621.738C765.016 621.738 765.502 621.738 766.056 621.738C779.783 621.738 793.44 621.738 807.166 621.738C811.325 621.738 813.821 618.085 812.157 614.364C811.256 612.296 809.453 611.4 807.235 611.4C793.786 611.4 780.337 611.4 766.819 611.4C766.126 611.4 765.363 611.4 764.462 611.4C764.462 609.952 764.462 608.643 764.462 607.264C764.462 604.714 764.462 602.233 764.462 599.683C764.462 598.58 764.878 598.167 766.056 598.167C779.644 598.167 793.232 598.167 806.819 598.167C809.176 598.167 811.048 597.477 812.018 595.203C813.544 591.757 811.325 587.828 807.166 587.828C796.767 587.897 786.438 587.828 776.039 587.828C772.85 587.828 769.661 587.828 766.403 587.828L766.68 588.31Z" fill="white"/>
<path d="M744.496 665.367C747.824 665.367 750.597 668.055 750.597 671.363C750.597 676.05 750.666 682.46 750.943 686.182C751.636 696.589 754.825 706.308 759.955 715.406C765.363 724.986 772.919 733.395 781.931 739.735C794.063 748.213 807.443 752.624 822.001 753.175C831.637 753.52 841.273 752.004 850.285 748.626C863.11 743.802 873.717 736.151 882.174 725.744C889.731 716.37 894.791 705.825 897.079 694.039C897.911 689.49 898.258 684.803 898.465 680.117C898.604 677.911 898.604 674.396 898.604 671.363C898.604 668.055 901.308 665.367 904.635 665.367C907.963 665.367 910.667 668.055 910.667 671.363C910.667 671.501 910.667 671.708 910.667 671.846C910.736 680.048 910.667 688.25 909.003 696.383C904.774 716.646 894.583 733.326 878.5 746.352C865.814 756.622 850.424 763.031 834.132 764.823C816.801 766.684 800.302 763.721 784.843 755.726C776.108 751.246 768.344 745.387 761.619 738.219C752.884 728.915 746.506 718.231 742.555 706.101C740.198 699.002 738.465 686.94 738.396 679.428C738.396 676.74 738.396 674.12 738.396 671.432C738.396 668.124 741.168 665.436 744.496 665.436V665.367Z" fill="#00E357"/>
<path d="M419.573 468.109H290.283C234.346 468.109 189 513.193 189 568.806V609.402C189 665.016 234.346 710.099 290.283 710.099H419.573C475.51 710.099 520.856 665.016 520.856 609.402V568.806C520.856 513.193 475.51 468.109 419.573 468.109Z" fill="#00E357"/>
<path d="M287.163 547.922C287.163 538.549 286.886 532.208 286.4 527.659V527.176H257.7V527.728C258.116 535.241 258.186 548.68 258.186 569.357V651.101H287.579V593.205C287.579 566.394 298.74 554.953 324.945 554.884H325.43V525.178H324.876C301.167 525.316 290.976 539.72 287.094 547.922H287.163Z" fill="white"/>
<path d="M398.914 524.833C357.32 524.833 342.554 559.502 342.554 589.139C342.554 630.562 362.103 653.375 397.597 653.375C433.091 653.375 445.292 632.009 450.422 614.089L450.63 613.4H421.722L421.583 613.744C417.909 624.427 410.145 629.872 398.568 629.872C391.566 629.872 385.743 627.667 381.375 623.256C375.483 617.397 372.294 607.679 372.225 595.755H451.67V595.273C451.878 593.756 452.086 586.864 452.086 585.417C452.086 562.741 445.154 524.695 398.914 524.695V524.833ZM398.429 547.44C417.909 547.44 422.762 562.741 423.317 575.836H372.779C373.542 564.946 378.048 547.44 398.429 547.44Z" fill="white"/>
<path d="M1533.89 658.889C1533.89 681.22 1526.41 690.318 1507.97 690.318C1489.53 690.318 1481.34 680.669 1481.34 658.958V560.26H1447.17V660.13C1447.17 699.278 1467.41 719.197 1507.34 719.197C1547.27 719.197 1568.28 699.14 1568.28 659.647V560.26H1533.89V658.889Z" fill="white"/>
<path d="M1690.84 560.19V614.433C1690.84 630.974 1690.91 647.929 1691.47 663.024C1683.98 648.136 1669.42 619.947 1639.47 562.189L1638.43 560.19H1598.23V716.922H1630.11V662.472C1630.11 644.07 1630.11 625.254 1629.7 608.85C1637.19 623.944 1651.95 653.374 1683.15 714.785L1684.19 716.853H1722.73V560.121H1690.77L1690.84 560.19Z" fill="white"/>
<path d="M675.796 563.292C660.198 609.471 649.66 642.278 644.392 661.439C637.945 635.869 625.952 594.377 615.83 563.361L614.998 560.811H569.938V713.752H601.203V656.132C601.203 643.106 601.064 627.805 600.718 613.744C609.244 646.414 621.099 688.319 627.685 711.064L628.447 713.683H656.662L657.494 711.133C667.962 679.221 680.094 640.004 688.344 610.298C688.136 623.393 687.997 638.419 687.997 653.03V713.683H720.371V560.742H676.697L675.865 563.223L675.796 563.292Z" fill="white"/>
<path d="M984.637 560.811H931.118V713.751H983.042C1028.73 713.751 1056.04 683.976 1056.04 634.076C1056.04 588.931 1028.66 560.811 984.637 560.811ZM964.463 588.862H982.765C1007.65 588.862 1021.86 605.473 1021.86 634.49C1021.86 657.923 1015.07 685.906 982.488 685.906H964.394V588.862H964.463Z" fill="white"/>
<path d="M1117.81 648.481H1182.21V619.671H1117.81V589.552H1184.98V560.811H1085.16V713.751H1185.12L1189.42 685.148H1117.81V648.481Z" fill="white"/>
<path d="M1250.08 560.811H1216.87V713.751H1313.72L1317.81 685.148H1250.08V560.811Z" fill="white"/>
<path d="M659.297 384.505L587.893 342.875L595.796 437.3L659.297 384.505Z" fill="#00E357"/>
<path d="M814.584 797.425C822.902 786.88 830.459 775.714 836.975 763.859H825.329C817.842 775.852 809.315 787.018 799.956 797.425H814.514H814.584Z" fill="#00E357"/>
</svg>
