<svg width="2031" height="1243" viewBox="0 0 2031 1243" fill="none" xmlns="http://www.w3.org/2000/svg">
<path d="M1011.74 746.583C995.152 805.609 963.715 858.392 921.694 900.619C906.028 891.11 890.278 881.077 878.628 873.013C871.224 880.344 870.638 893.246 871.014 904.222C871.893 929.692 871.705 916.35 872.583 941.799C853.989 858.183 823.702 835.666 759.196 782.254C728.428 756.784 645.809 696.355 665.429 646.986C647.587 691.601 609.708 705.823 583.207 739.42C571.138 754.731 562.73 753.181 568.022 777.29C569.005 781.814 588.917 814.909 595.443 808.499C592.096 811.788 588.75 815.097 585.382 818.386C598.852 824.921 612.322 831.456 625.813 838.012C620.605 842.516 615.418 847.061 610.21 851.564C630.29 851.878 638.614 877.055 641.396 896.975C643.237 910.192 645.077 923.408 646.918 936.625C620.814 911.846 602.053 880.407 577.915 853.722C537.254 808.814 468.042 839.876 401.884 881.475C376.638 852.067 356.141 818.491 341.541 781.898C419.747 727.648 503.976 651.531 522.362 634.418C538.091 619.777 555.117 602.183 544.115 576.294C534.43 553.547 505.503 561.799 496.405 546.446C487.641 531.679 535.706 509.225 546.855 500.993C591.49 467.962 631.816 429.128 666.412 385.645C678.376 402.276 695.046 414.843 711.444 427.159C753.842 458.955 796.26 490.772 838.657 522.589C858.988 537.837 874.403 545.545 843.614 553.169C826.756 557.338 811.382 561.108 806.697 580.273C799.627 609.095 819.205 628.91 839.117 644.661C883.857 680.039 952.086 718.851 1011.72 746.667L1011.74 746.583Z" fill="#738276"/>
<path d="M996.084 725.048C954.691 701.651 913.297 678.275 871.904 654.879C859.647 647.946 846.847 640.531 839.484 628.508C832.122 616.485 832.498 598.451 844.107 590.45C851.323 585.485 860.672 585.548 869.29 584.019C877.907 582.49 887.424 577.798 888.846 569.148C890.352 559.952 882.069 552.517 877.154 544.62C866.842 528.073 871.925 504.509 886.587 491.669C901.25 478.829 923.316 476.357 941.597 483.081C949.482 485.972 957.054 490.663 961.572 497.764C966.09 504.865 966.906 514.709 962.053 521.559C956.406 529.518 945.634 531.278 936.535 534.755C927.437 538.252 918.108 547.364 921.789 556.392C925.157 564.644 937.142 565.524 944.923 561.167C952.704 556.811 957.995 549.123 964.919 543.51C971.842 537.875 982.405 534.587 989.391 540.096C996.021 545.332 995.812 555.428 993.762 563.639C990.374 577.149 983.555 589.758 974.122 600.001C968.725 605.845 962.22 611.081 954.502 612.904C946.763 614.747 937.686 612.464 933.231 605.866C928.775 599.268 931.139 588.543 938.627 585.904C946.115 583.265 955.109 592.544 951.051 599.393C959.543 595.079 956.155 580.584 947.391 576.877C938.627 573.169 928.566 576.835 920.116 581.254C907.294 587.978 893.803 601.76 899.911 614.893C903.195 621.931 911.059 625.534 918.547 627.524C934.235 631.692 951.093 631.315 966.571 626.435C977.447 622.999 989.453 617.47 999.556 622.769C1005.68 625.995 1009.3 632.551 1011.75 639.065C1015.01 647.736 1016.77 657.518 1013.55 666.211C1010.33 674.903 1000.81 681.669 991.88 679.26C983.179 676.914 978.577 667.614 975.147 659.257C969.353 667.405 970.231 679.616 977.134 686.863C981.882 691.848 988.617 694.257 994.933 696.98C1001.25 699.682 1007.78 703.201 1010.96 709.296C1014.13 715.392 1012.11 724.587 1005.5 726.493C1001.92 727.519 998.134 726.242 994.703 724.796C987.55 721.738 980.773 717.821 974.561 713.15" fill="#738276"/>
<path d="M720.283 415.012C713.046 401.25 710.683 382.713 721.183 371.256C729.905 361.726 744.232 360.343 757.117 360.448C768.307 360.532 780.083 361.432 789.495 367.486C798.907 373.539 804.868 386.379 799.807 396.37C809.345 394.527 812.754 382.567 812.607 372.848C812.461 363.129 811.122 352.153 817.523 344.843C824.341 337.072 836.808 337.596 846.283 341.701C866.571 350.478 879.686 373.497 876.925 395.448C876.297 400.496 874.791 405.67 871.257 409.335C866.634 414.153 858.707 415.389 852.829 412.205C846.952 409.021 843.647 401.732 845.111 395.197C835.218 397.313 827.709 407.429 828.546 417.525C829.382 427.621 838.481 436.356 848.583 436.795C857.703 437.172 865.902 431.727 874.645 429.129C883.388 426.511 895.373 428.564 897.653 437.424C898.74 441.655 897.151 446.095 895.415 450.096C881.464 482.122 847.077 512.913 815.661 485.578C800.037 471.985 791.921 463.837 771.695 455.458C749.963 446.472 731.662 436.712 720.241 414.97L720.283 415.012Z" fill="#738276"/>
<path d="M901.427 431.148C904.753 433.578 907.786 437.306 907.179 441.369C906.51 446.061 901.281 449.392 901.406 454.125C901.49 457.142 903.979 459.76 906.907 460.472C909.835 461.184 912.994 460.179 915.336 458.294C918.056 456.115 920.628 452.554 924.038 453.288C927.489 454.021 927.761 460.053 924.372 461.1C926.819 462.001 929.392 462.923 931.944 462.504C934.496 462.085 936.964 459.823 936.608 457.225C936.441 455.948 935.625 454.838 935.207 453.602C934.789 452.366 935.019 450.711 936.211 450.229C936.629 450.062 937.089 450.083 937.529 450.125C941.942 450.627 945.142 455.026 945.623 459.446C946.104 463.865 944.473 468.243 942.507 472.244C946.272 472.851 950.12 470.735 952.4 467.656C954.68 464.577 955.6 460.702 955.956 456.89C956.583 450.062 955.558 443.129 953.571 436.552C949.785 423.984 942.214 412.192 931.065 405.259C921.925 399.582 903.833 395.247 894.106 402.368C890.091 405.301 888.459 410.726 888.689 415.564C889.087 423.838 895.445 426.791 901.364 431.106L901.427 431.148Z" fill="#738276"/>
<path d="M696.922 361.703C705.414 355.021 715.265 350.309 725.284 346.329C739.34 340.757 754.776 336.505 769.438 340.129C774.563 341.386 779.415 343.564 784.54 344.779C789.664 345.994 795.353 346.12 799.913 343.48C806.669 339.543 808.907 329.97 805.602 322.87C802.298 315.769 794.454 311.454 786.652 311.119C779.917 310.826 773.266 313.151 766.51 312.878C754.253 312.355 743.899 303.474 731.894 300.981C724.259 299.389 716.102 300.52 709.179 304.144C704.451 306.616 699.934 311.077 700.31 316.397C700.645 321.131 705.288 324.985 710.015 324.859C714.742 324.734 719.009 320.943 720.139 316.355C724.803 319.77 722.858 327.729 718.11 331.018C713.362 334.306 707.212 334.453 701.481 335.102C688.953 336.505 675.399 342.182 670.923 353.995C669.04 358.959 669.333 384.618 677.428 384.367C680.419 384.283 684.435 374.648 686.171 372.407C689.266 368.406 692.927 364.845 696.901 361.724L696.922 361.703Z" fill="#738276"/>
<path d="M343.344 725.063C384.737 701.667 426.13 678.291 467.523 654.895C479.78 647.962 492.581 640.547 499.944 628.524C507.306 616.501 506.93 598.466 495.321 590.465C488.105 585.501 478.755 585.564 470.138 584.035C461.52 582.506 452.004 577.814 450.581 569.163C449.075 559.968 457.358 552.532 462.273 544.636C472.585 528.088 467.502 504.524 452.84 491.685C438.178 478.845 416.111 476.373 397.831 483.097C389.945 485.987 382.373 490.679 377.856 497.78C373.338 504.88 372.522 514.725 377.374 521.574C383.022 529.534 393.794 531.293 402.892 534.77C411.991 538.268 421.319 547.38 417.638 556.407C414.271 564.66 402.286 565.54 394.505 561.183C386.724 556.826 381.432 549.139 374.509 543.526C367.586 537.891 357.023 534.603 350.037 540.111C343.407 545.348 343.616 555.444 345.665 563.654C349.054 577.165 355.873 589.774 365.306 600.016C370.702 605.86 377.207 611.097 384.925 612.919C392.664 614.762 401.742 612.479 406.197 605.881C410.652 599.283 408.289 588.559 400.801 585.92C393.313 583.281 384.319 592.56 388.376 599.409C379.884 595.094 383.273 580.6 392.037 576.892C400.801 573.185 410.861 576.85 419.312 581.27C432.133 587.994 445.624 601.776 439.517 614.909C436.233 621.947 428.368 625.549 420.88 627.539C405.193 631.708 388.335 631.331 372.857 626.45C361.98 623.015 349.974 617.485 339.872 622.785C333.743 626.01 330.125 632.566 327.678 639.081C324.415 647.752 322.658 657.534 325.879 666.226C329.1 674.919 338.617 681.684 347.548 679.276C356.249 676.93 360.851 667.63 364.281 659.272C370.075 667.42 369.196 679.632 362.294 686.879C357.546 691.864 350.811 694.273 344.494 696.996C338.177 699.719 331.652 703.217 328.472 709.312C325.272 715.407 327.322 724.602 333.931 726.508C337.508 727.535 341.294 726.257 344.724 724.812C351.878 721.754 358.654 717.837 364.867 713.166" fill="#738276"/>
<path d="M619.142 415.012C626.379 401.25 628.743 382.713 618.243 371.256C609.521 361.726 595.193 360.343 582.309 360.448C571.118 360.532 559.343 361.432 549.93 367.486C540.518 373.539 534.557 386.379 539.619 396.37C530.081 394.527 526.671 382.567 526.818 372.848C526.964 363.129 528.303 352.153 521.902 344.843C515.084 337.072 502.618 337.596 493.143 341.701C472.854 350.478 459.739 373.497 462.5 395.448C463.128 400.496 464.634 405.67 468.169 409.335C472.791 414.153 480.718 415.389 486.596 412.205C492.473 409.021 495.778 401.732 494.314 395.197C504.207 397.313 511.716 407.429 510.88 417.525C510.043 427.621 500.944 436.356 490.842 436.795C481.722 437.172 473.523 431.727 464.78 429.129C456.037 426.511 444.052 428.564 441.772 437.424C440.685 441.655 442.274 446.095 444.01 450.096C457.962 482.122 492.348 512.913 523.764 485.578C539.388 471.985 547.504 463.837 567.73 455.458C589.462 446.472 607.764 436.712 619.184 414.97L619.142 415.012Z" fill="#738276"/>
<path d="M437.962 431.15C434.637 433.579 431.604 437.308 432.21 441.371C432.88 446.063 438.109 449.394 437.983 454.127C437.9 457.144 435.411 459.762 432.482 460.474C429.554 461.186 426.396 460.181 424.053 458.296C421.334 456.117 418.761 452.556 415.352 453.29C411.901 454.023 411.629 460.055 415.017 461.102C412.57 462.003 409.997 462.925 407.446 462.506C404.873 462.087 402.426 459.825 402.781 457.227C402.949 455.95 403.764 454.84 404.183 453.604C404.601 452.368 404.371 450.713 403.179 450.231C402.76 450.064 402.3 450.085 401.861 450.127C397.448 450.629 394.247 455.028 393.766 459.448C393.285 463.867 394.917 468.245 396.883 472.246C393.118 472.853 389.269 470.737 386.99 467.658C384.71 464.579 383.789 460.704 383.434 456.892C382.806 450.064 383.831 443.131 385.818 436.554C389.604 423.986 397.176 412.194 408.324 405.261C417.464 399.584 435.557 395.249 445.283 402.37C449.299 405.303 450.93 410.728 450.7 415.566C450.303 423.84 443.944 426.793 438.025 431.108L437.962 431.15Z" fill="#738276"/>
<path d="M637.99 360.905C629.854 354.495 620.399 349.971 610.778 346.159C597.308 340.817 582.499 336.754 568.423 340.21C563.507 341.425 558.864 343.519 553.928 344.671C549.012 345.824 543.553 345.97 539.182 343.415C532.698 339.644 530.543 330.449 533.723 323.663C536.902 316.876 544.411 312.708 551.899 312.394C558.362 312.122 564.741 314.342 571.204 314.07C582.959 313.567 592.874 305.063 604.398 302.654C611.719 301.125 619.563 302.214 626.172 305.691C630.711 308.058 635.041 312.331 634.685 317.442C634.371 321.987 629.916 325.674 625.377 325.548C620.839 325.422 616.76 321.799 615.672 317.379C611.196 320.647 613.079 328.292 617.618 331.455C622.177 334.617 628.055 334.743 633.556 335.372C645.562 336.733 658.571 342.158 662.859 353.49C664.658 358.244 664.386 382.856 656.626 382.604C653.761 382.521 649.912 373.284 648.239 371.147C645.269 367.314 641.755 363.9 637.948 360.905H637.99Z" fill="#738276"/>
<path d="M1199.25 368.572L1193.43 370.754L1173.65 341.659H1157.65V435.637L1173.21 440.438L1169.57 447.712H1122.44V441.747L1136.11 430.982V341.659H1120.55L1100.76 370.754L1094.94 368.572V330.748L1103.82 333.367H1190.38L1199.25 330.748V368.572Z" fill="#738276"/>
<path d="M1334.39 447.712H1287.25V441.747L1300.93 430.691V394.904H1246.81V435.492L1262.38 440.438L1258.74 447.712H1211.61V441.747L1225.28 430.691V345.441L1209.86 340.641L1213.5 333.367H1260.63V339.331L1246.81 350.387V386.611H1300.93V345.441L1285.51 340.641L1289.14 333.367H1336.28V339.331L1322.46 350.387V435.492L1338.02 440.438L1334.39 447.712Z" fill="#738276"/>
<path d="M1437.07 447.712H1347.89V441.747L1361.56 430.982V345.587L1346.14 340.641L1349.78 333.367H1435.61L1444.48 330.748V365.663L1438.67 367.845L1421.06 341.659H1383.09V385.157H1403.61L1414.37 367.408H1420.34V410.906L1413.06 414.543L1403.75 393.449H1383.09V439.274H1420.34L1440.12 410.324L1445.94 412.506V450.33L1437.07 447.712Z" fill="#738276"/>
<path d="M1157.06 580.687C1157.06 577.68 1155.85 574.867 1153.43 572.249C1151.1 569.63 1148.19 567.254 1144.7 565.12C1141.21 562.89 1136.36 560.126 1130.15 556.828C1122.88 552.949 1117.01 549.603 1112.55 546.79C1108.09 543.881 1104.26 540.535 1101.05 536.752C1097.95 532.873 1096.4 528.606 1096.4 523.95C1096.4 519.101 1098.48 513.912 1102.66 508.384C1106.92 502.759 1112.11 498.055 1118.22 494.273C1124.33 490.394 1129.96 488.454 1135.1 488.454C1141.3 488.454 1148.53 489.181 1156.77 490.636C1165.11 492.091 1171.17 493.643 1174.96 495.291V524.969H1166.23C1161.77 517.113 1156.82 511.003 1151.39 506.639C1146.06 502.274 1140.43 500.092 1134.51 500.092C1129.57 500.092 1125.69 501.644 1122.88 504.747C1120.06 507.754 1118.66 511.682 1118.66 516.531C1118.66 519.732 1119.87 522.738 1122.29 525.551C1124.72 528.266 1127.73 530.739 1131.31 532.97C1135 535.201 1139.95 537.916 1146.15 541.117C1153.23 544.802 1159 548.051 1163.46 550.864C1167.93 553.676 1171.66 556.974 1174.67 560.756C1177.77 564.539 1179.32 568.709 1179.32 573.267C1179.32 578.116 1177.04 583.354 1172.48 588.979C1168.02 594.507 1162.54 599.211 1156.05 603.09C1149.55 606.872 1143.63 608.764 1138.3 608.764C1131.8 608.764 1124.04 608.036 1115.02 606.582C1106.1 605.127 1099.65 603.575 1095.67 601.926V572.249H1104.55C1109.2 580.105 1114.54 586.215 1120.55 590.579C1126.56 594.943 1132.72 597.125 1139.02 597.125C1144.46 597.125 1148.82 595.525 1152.12 592.325C1155.41 589.027 1157.06 585.148 1157.06 580.687Z" fill="#738276"/>
<path d="M1238.85 605.709H1191.72V599.744L1205.39 588.688V503.438L1189.97 498.637L1193.61 491.363H1240.74V497.328L1226.92 508.384V593.489L1242.49 598.435L1238.85 605.709Z" fill="#738276"/>
<path d="M1303.19 598.435L1299.55 605.709H1252.42V599.744L1266.09 588.688V503.438L1250.67 498.637L1254.31 491.363H1301.44V497.328L1287.62 508.384V593.489L1303.19 598.435ZM1366.76 605.709H1338.54L1294.9 548.391L1338.69 510.13L1321.67 498.637L1325.3 491.363H1366.18V497.328L1315.85 541.408L1353.96 590.579L1370.4 598.435L1366.76 605.709Z" fill="#738276"/>
<path d="M1426.54 598.435L1422.91 605.709H1375.77V599.744L1389.45 588.688V503.438L1374.03 498.637L1377.66 491.363H1424.8V497.328L1410.98 508.384V593.489L1426.54 598.435ZM1490.12 605.709H1461.9L1418.25 548.391L1462.04 510.13L1445.02 498.637L1448.66 491.363H1489.54V497.328L1439.2 541.408L1477.32 590.579L1493.76 598.435L1490.12 605.709Z" fill="#738276"/>
<path d="M1546.26 605.709H1499.13V599.744L1512.8 588.688V503.438L1497.38 498.637L1501.02 491.363H1548.15V497.328L1534.33 508.384V593.489L1549.9 598.435L1546.26 605.709Z" fill="#738276"/>
<path d="M1702.25 605.709H1655.12V599.744L1668.79 588.979V512.749L1630.97 605.709H1621.22L1583.4 512.167V591.306L1598.96 598.435L1595.33 605.709H1559.83V599.744L1573.51 588.979V506.057L1558.08 498.637L1561.72 491.363H1596.93L1631.99 578.65L1666.9 491.363H1704V497.328L1690.18 508.093V593.634L1705.89 598.435L1702.25 605.709Z" fill="#738276"/>
<path d="M1217 754.928H1169.87V748.963L1183.54 737.907V702.12H1129.42V742.708L1144.99 747.654L1141.35 754.928H1094.22V748.963L1107.89 737.907V652.657L1092.47 647.856L1096.11 640.583H1143.24V646.547L1129.42 657.603V693.827H1183.54V652.657L1168.12 647.856L1171.76 640.583H1218.89V646.547L1205.07 657.603V742.708L1220.64 747.654L1217 754.928Z" fill="#738276"/>
<path d="M1277.63 754.928H1230.5V748.963L1244.17 737.907V652.657L1228.75 647.856L1232.39 640.583H1279.53V646.547L1265.71 657.603V742.708L1281.27 747.654L1277.63 754.928Z" fill="#738276"/>
<path d="M1433.63 754.928H1386.49V748.963L1400.17 738.198V661.968L1362.34 754.928H1352.59L1314.77 661.386V740.526L1330.34 747.654L1326.7 754.928H1291.2V748.963L1304.88 738.198V655.276L1289.46 647.856L1293.09 640.583H1328.3L1363.36 727.869L1398.27 640.583H1435.37V646.547L1421.55 657.312V742.853L1437.26 747.654L1433.63 754.928Z" fill="#738276"/>
<path d="M1525.36 754.928H1495.54V742.271L1479.1 755.219C1477.16 755.995 1474.74 756.383 1471.83 756.383C1463.1 756.383 1456.74 754.249 1452.77 749.982C1448.89 745.617 1446.95 740.38 1446.95 734.27C1446.95 730.682 1448.16 727.19 1450.59 723.796C1453.11 720.304 1456.65 717.007 1461.21 713.903H1495.54V707.211C1495.54 696.155 1489.62 690.627 1477.79 690.627C1471.58 690.627 1463.63 693.876 1453.93 700.374L1449.57 693.827L1470.23 677.388C1474.3 676.322 1479.39 675.788 1485.5 675.788C1495.1 675.788 1502.57 678.067 1507.9 682.626C1513.24 687.184 1515.91 693.827 1515.91 702.556V742.562L1529 747.654L1525.36 754.928ZM1477.5 741.107C1482.93 741.107 1488.94 738.634 1495.54 733.688V721.323H1470.66C1468.72 723.65 1467.75 726.463 1467.75 729.76C1467.75 732.961 1468.62 735.676 1470.37 737.907C1472.21 740.041 1474.59 741.107 1477.5 741.107ZM1451.6 638.691H1515.32V646.547H1451.6V638.691Z" fill="#738276"/>
<path d="M1625.11 754.928H1535.5V748.963L1549.17 738.198V652.512L1533.75 647.856L1537.39 640.583H1584.52V646.547L1570.7 657.312V746.49H1606.34L1628.17 714.631L1633.99 716.813V757.546L1625.11 754.928Z" fill="#738276"/>
<path d="M1122.82 886.592H1091.53V882.632L1100.61 875.292V818.694L1090.37 815.507L1092.78 810.678H1124.08V814.638L1114.9 821.978V878.479L1125.24 881.763L1122.82 886.592Z" fill="#738276"/>
<path d="M1199.63 821.978V886.592H1193.06L1147.48 831.057V876.644L1159.06 881.763L1156.65 886.592H1131.83V882.632L1140.91 875.292V821.109L1130.67 815.507L1133.08 810.678H1148.63L1193.06 864.668V820.433L1181.57 815.507L1183.98 810.678H1208.8V814.638L1199.63 821.978Z" fill="#738276"/>
<path d="M1256.01 869.98C1256.01 867.984 1255.21 866.116 1253.6 864.378C1252.05 862.639 1250.12 861.062 1247.8 859.645C1245.49 858.164 1242.27 856.329 1238.15 854.14C1233.32 851.565 1229.42 849.343 1226.46 847.476C1223.5 845.544 1220.95 843.323 1218.83 840.812C1216.77 838.236 1215.74 835.403 1215.74 832.312C1215.74 829.093 1217.12 825.648 1219.89 821.978C1222.72 818.244 1226.17 815.121 1230.23 812.61C1234.28 810.034 1238.02 808.746 1241.43 808.746C1245.55 808.746 1250.35 809.229 1255.82 810.195C1261.36 811.161 1265.38 812.191 1267.89 813.286V832.989H1262.1C1259.14 827.773 1255.85 823.717 1252.25 820.819C1248.71 817.922 1244.97 816.473 1241.04 816.473C1237.76 816.473 1235.18 817.503 1233.32 819.564C1231.45 821.56 1230.52 824.167 1230.52 827.387C1230.52 829.512 1231.32 831.508 1232.93 833.375C1234.54 835.178 1236.54 836.82 1238.92 838.301C1241.36 839.781 1244.65 841.584 1248.77 843.709C1253.47 846.156 1257.3 848.313 1260.26 850.18C1263.22 852.047 1265.7 854.237 1267.7 856.748C1269.76 859.259 1270.79 862.028 1270.79 865.054C1270.79 868.273 1269.28 871.75 1266.25 875.485C1263.29 879.155 1259.65 882.278 1255.34 884.853C1251.02 887.364 1247.1 888.62 1243.55 888.62C1239.24 888.62 1234.09 888.137 1228.1 887.171C1222.18 886.205 1217.9 885.175 1215.26 884.081V864.378H1221.15C1224.24 869.593 1227.78 873.65 1231.77 876.547C1235.76 879.445 1239.85 880.893 1244.04 880.893C1247.64 880.893 1250.54 879.831 1252.73 877.706C1254.92 875.517 1256.01 872.941 1256.01 869.98Z" fill="#738276"/>
<path d="M1348.75 834.051L1344.89 835.5L1331.75 816.183H1321.13V878.575L1331.46 881.763L1329.05 886.592H1297.76V882.632L1306.83 875.485V816.183H1296.5L1283.37 835.5L1279.5 834.051V808.939L1285.39 810.678H1342.86L1348.75 808.939V834.051Z" fill="#738276"/>
<path d="M1388.25 886.592H1356.95V882.632L1366.03 875.292V818.694L1355.79 815.507L1358.21 810.678H1389.5V814.638L1380.33 821.978V878.479L1390.66 881.763L1388.25 886.592Z" fill="#738276"/>
<path d="M1466.99 834.051L1463.12 835.5L1449.99 816.183H1439.36V878.575L1449.7 881.763L1447.28 886.592H1415.99V882.632L1425.07 875.485V816.183H1414.73L1401.6 835.5L1397.74 834.051V808.939L1403.63 810.678H1461.09L1466.99 808.939V834.051Z" fill="#738276"/>
<path d="M1545.02 821.785V856.651C1545.02 863.412 1543.37 869.207 1540.09 874.036C1536.81 878.865 1532.72 882.503 1527.82 884.95C1523 887.332 1518.26 888.523 1513.63 888.523C1507.7 888.523 1502.39 887.268 1497.69 884.757C1493.05 882.181 1489.42 878.672 1486.78 874.229C1484.14 869.722 1482.82 864.668 1482.82 859.066V818.598L1472.58 815.507L1474.99 810.678H1506.29V814.638L1497.11 821.785V854.913C1497.11 862.575 1499.01 868.531 1502.81 872.78C1506.67 877.03 1512.47 879.155 1520.19 879.155C1523.09 879.155 1525.96 878.253 1528.79 876.451C1531.62 874.583 1533.94 871.879 1535.74 868.338C1537.61 864.796 1538.54 860.643 1538.54 855.879V820.24L1528.02 815.507L1530.43 810.678H1554.19V814.638L1545.02 821.785Z" fill="#738276"/>
<path d="M1628.8 834.051L1624.93 835.5L1611.8 816.183H1601.17V878.575L1611.51 881.763L1609.09 886.592H1577.8V882.632L1586.88 875.485V816.183H1576.54L1563.41 835.5L1559.55 834.051V808.939L1565.44 810.678H1622.9L1628.8 808.939V834.051Z" fill="#738276"/>
<path d="M1696.2 886.592H1637V882.632L1646.08 875.485V818.791L1635.84 815.507L1638.25 810.678H1695.24L1701.13 808.939V832.119L1697.26 833.568L1685.58 816.183H1660.37V845.061H1673.99L1681.13 833.278H1685.09V862.156L1680.27 864.571L1674.08 850.567H1660.37V880.99H1685.09L1698.23 861.77L1702.09 863.219V888.33L1696.2 886.592Z" fill="#738276"/>
</svg>
