<svg width="2031" height="1243" viewBox="0 0 2031 1243" fill="none" xmlns="http://www.w3.org/2000/svg">
<g clip-path="url(#clip0_239_577)">
<path d="M360.525 672.363L360.482 672.32L360.525 672.363Z" fill="white"/>
<path d="M360.526 672.363C361.877 673.758 361.398 675.807 362.357 678.16C362.967 675.24 362.923 673.366 360.526 672.363Z" fill="white"/>
<path d="M414.579 740.182C414.579 740.182 414.405 740.009 414.318 739.922C414.318 740.009 414.318 740.052 414.405 740.095C414.405 740.095 414.535 740.096 414.579 740.139V740.182Z" fill="white"/>
<path d="M415.278 738.918H415.146L415.19 739.049L415.278 738.918Z" fill="white"/>
<path d="M307.867 953.926C307.649 953.665 307.606 953.359 307.606 953.011C307.693 953.316 307.78 953.621 307.867 953.926C307.867 952.226 307.867 950.526 307.954 948.827C307.998 947.083 307.344 945.95 305.6 945.514C304.118 944.904 302.68 944.25 301.154 943.683C300.021 943.248 299.672 940.676 297.928 942.114C296.969 942.942 296.533 944.512 296.097 945.819C295.792 946.647 295.879 947.606 295.836 948.478C294.485 949.306 294.746 950.701 294.528 951.921C294.092 954.188 296.141 955.844 296.185 957.587C296.272 960.9 298.19 961.815 300.544 962.033C304.729 962.425 308.826 961.466 312.837 959.636C310.308 958.285 308.129 956.89 307.867 953.882V953.926Z" fill="white"/>
<path d="M498.798 907.115C497.839 909.512 497.752 912.215 496.575 914.568C496.183 915.396 496.967 916.137 497.621 916.53C499.19 917.532 500.716 916.748 502.198 916.225C503.637 915.745 503.811 914.612 503.811 913.391C503.942 910.471 501.37 908.902 500.411 906.505C499.975 905.459 499.147 906.2 498.798 907.115Z" fill="white"/>
<path d="M487.595 885.89C486.505 886.718 487.464 887.547 487.857 888.244C489.164 890.598 490.429 892.995 491.998 895.174C492.783 896.264 493.131 898.966 494.701 897.964C496.313 896.961 494.177 895.348 493.524 894.084C492.347 891.774 490.211 889.9 490.472 886.98C490.167 886.98 489.818 886.98 489.644 886.806C489.034 886.326 488.772 885.019 487.639 885.89H487.595Z" fill="white"/>
<path d="M490.429 886.936V886.978H490.471V886.936H490.429Z" fill="white"/>
<path d="M227.004 959.593C226.394 958.852 225.653 957.806 224.607 958.329C223.561 958.852 223.43 960.072 223.648 961.249C224.258 964.387 226.656 965.695 230.928 964.779C228.399 963.733 228.312 961.249 227.004 959.593Z" fill="white"/>
<path d="M527.7 905.938C526.043 905.938 525.782 907.899 525.651 909.076C525.433 910.82 527.307 910.907 528.441 911.081C530.707 911.43 529.748 909.425 530.01 908.902C530.795 906.156 528.571 905.938 527.7 905.895V905.938Z" fill="white"/>
<path d="M296.446 932.787C297.71 932.003 298.103 930.826 297.972 929.431C297.972 929.213 297.536 928.821 297.405 928.865C295.967 929.213 296.097 930.695 295.531 931.654C295.444 931.829 295.4 932.046 295.313 932.221C294.485 934.269 293.7 936.361 292.784 938.41C292.479 939.064 291.869 939.587 292.828 940.066C293.482 940.415 294.005 939.935 294.267 939.412C295.269 937.277 296.751 935.315 296.403 932.787H296.446Z" fill="white"/>
<path d="M336.55 934.4C336.55 935.882 336.42 937.364 336.333 938.846C338.686 937.189 339.689 935.054 338.73 932.221C337.292 932.221 336.55 932.874 336.55 934.4Z" fill="white"/>
<path d="M220.466 926.031C219.376 925.944 219.158 926.816 218.984 927.557C218.374 929.911 218.635 932.439 217.197 934.618C216.674 935.402 217.458 935.838 218.156 936.1C219.028 936.448 219.507 935.925 219.681 935.184C220.248 932.569 220.771 929.954 221.382 927.121C221.425 926.642 221.251 926.075 220.51 926.031H220.466Z" fill="white"/>
<path d="M216.107 917.751C216.499 917.141 216.892 916.531 217.284 915.92L219.725 911.736C221.6 909.382 222.036 906.767 220.902 903.978L220.815 895.348C220.946 892.123 221.382 888.854 219.812 885.759C219.507 882.011 216.674 879.657 214.756 876.824C214.233 875.429 213.666 874.034 213.186 872.64C212.968 871.986 213.056 871.114 212.097 871.158C211.181 871.158 210.702 871.855 210.615 872.77C207.694 873.904 207.694 877.085 206.168 879.178C204.25 881.052 202.594 883.057 202.289 885.846C201.765 888.461 199.063 890.336 199.804 893.387C199.629 893.648 199.412 893.91 199.237 894.171C196.36 897.266 196.011 901.319 194.965 905.155C193.396 907.813 191.086 910.123 191.391 913.567C190.388 916.705 191.914 920.322 189.603 923.243C186.334 925.509 186.334 928.255 189.255 931.263C191.129 933.18 193.614 933.878 195.75 935.229C195.009 935.621 193.222 935.316 194.398 937.103C193.57 937.016 192.786 937.103 192.088 937.582C191.652 937.408 191.216 937.19 190.78 937.016C189.909 937.582 189.124 938.193 190.127 939.326C190.911 940.241 191.565 940.198 192.132 939.108C193.091 939.631 194.05 939.413 195.052 939.369C196.099 939.457 197.188 939.369 198.191 939.631C199.15 939.849 200.022 940.372 200.588 939.108C201.896 939.674 203.073 939.413 204.032 938.367C204.25 937.975 204.468 937.539 204.686 937.147C206.735 938.323 209.002 938.28 211.268 938.498C215.061 938.934 213.622 935.447 215.017 934.139C215.192 933.485 215.366 932.875 215.54 932.221C215.758 931.48 216.587 930.739 216.151 929.998C213.753 925.901 217.11 921.892 216.151 917.838L216.107 917.751Z" fill="white"/>
<path d="M224.52 948.521C224.738 947.257 224.433 946.037 223.91 944.86C223.822 943.422 222.863 942.942 221.686 943.335C220.553 943.727 220.51 944.729 220.858 945.819C221.294 947.127 221.686 948.434 222.079 949.742C223.474 950.526 224.258 950.047 224.52 948.521Z" fill="white"/>
<path d="M227.876 899.314C225.305 901.232 228.487 902.976 227.876 904.763C229.402 902.888 228.574 901.145 227.876 899.314Z" fill="white"/>
<path d="M233.107 948.783C233.107 946.43 231.93 945.776 229.489 945.471C230.623 947.258 231.538 948.129 233.107 948.783Z" fill="white"/>
<path d="M218.635 860.131C219.594 860.262 219.769 859.172 219.899 858.431C220.074 857.472 219.464 857.037 218.679 856.775C217.676 856.688 217.72 857.385 217.851 857.908C218.025 858.693 217.458 859.913 218.635 860.131Z" fill="white"/>
<path d="M530.227 882.055C530.227 882.055 529.879 882.098 529.704 882.055C528.876 879.875 528.484 877.347 526.043 876.171C526.043 875.778 526.043 875.386 526.043 874.95C526.479 874.95 526.871 874.95 527.307 874.95C529.966 874.95 531.012 873.468 530.881 870.984C530.751 868.805 531.056 866.712 532.102 864.751C532.233 863.705 532.407 862.615 532.538 861.569C533.846 861.177 535.197 860.785 536.505 860.393C537.551 862.397 538.728 863.138 540.036 860.61C540.297 858.344 541.518 856.165 540.559 853.811L541.038 849.453C542.128 847.012 541.038 844.92 539.992 842.827C539.556 841.476 539.12 840.125 538.684 838.818C537.812 837.728 537.115 836.464 536.112 835.462C536.112 835.244 536.199 835.026 536.243 834.808C535.764 832.28 534.238 830.275 532.887 828.183C535.415 830.885 536.81 830.885 539.338 828.183C541.605 825.742 542.172 822.517 543.392 819.596C543.654 818.986 543.392 818.463 543.087 817.94C542.956 817.853 542.825 817.766 542.738 817.679C543.654 815.935 542.564 815.063 541.038 814.453C541.125 814.235 541.212 814.017 541.212 813.799C539.251 810.923 538.51 807.654 537.9 804.298C537.769 803.513 537.333 802.816 536.766 802.249C536.417 802.031 536.025 801.901 535.633 801.77C535.458 800.244 535.022 798.806 533.584 798.109C532.669 797.673 532.145 798.501 531.622 799.285C531.186 799.285 530.751 799.285 530.271 799.373C529.879 799.547 529.617 799.808 529.443 800.07C529.748 799.285 530.184 798.544 530.794 797.847C531.753 796.714 532.451 795.276 531.71 793.663C530.968 792.965 530.445 792.181 530.009 791.309C529.399 789.13 528.658 786.951 527.176 785.12C527.002 784.641 526.784 784.161 526.697 783.682C526.304 781.067 526.958 778.495 527.307 775.923C527.394 775.095 527.438 774.18 526.74 773.613C527.045 773.526 527.394 773.483 527.743 773.396C528.92 773.221 529.617 772.306 530.227 771.391C531.666 769.081 532.233 766.683 531.448 764.025C529.617 761.845 528.222 759.492 527.786 756.615C527.656 755.613 527.307 754.436 526.043 754.043C524.343 753.52 523.253 752.562 522.555 750.775C521.858 748.9 520.507 747.244 518.153 747.113C518.065 747.113 517.978 747.201 517.891 747.244C517.891 747.244 517.891 747.157 517.847 747.113C517.978 747.026 518.065 746.895 518.196 746.808C518.588 745.021 520.027 743.67 520.245 741.796C520.071 741.447 519.94 741.142 519.809 740.793C520.114 740.314 520.376 739.835 520.681 739.355C522.773 736.566 519.46 735.694 518.763 733.907C518.719 733.122 518.632 732.294 518.153 731.64C518.545 728.502 517.411 725.495 517.324 722.4C517.324 721.529 517.019 720.657 516.365 720.09C516.888 719.48 517.629 719.001 517.455 717.998C516.932 714.642 517.847 711.112 515.929 707.973C515.493 707.276 515.581 706.666 516.191 706.099C516.409 705.968 516.627 705.838 516.888 705.707C517.106 705.707 517.324 705.707 517.542 705.751C518.676 706.317 519.983 705.751 521.16 705.097C522.163 704.574 522.686 703.746 522.337 702.787C522.337 702.787 522.337 702.743 522.381 702.7C523.863 701.697 523.732 699.866 524.517 698.559C525.214 696.336 524.735 693.547 527.656 692.457C527.917 692.326 528.179 692.152 528.353 691.89C528.527 691.629 528.702 691.411 528.92 691.149C529.486 691.106 530.053 690.888 530.533 690.452C531.317 689.755 531.927 688.752 533.235 689.319C535.807 691.106 536.941 688.403 538.641 687.532C541.605 688.752 542.913 691.803 545.354 693.59C545.31 692.588 545.179 691.542 544.264 690.931C542.433 689.755 541.648 687.619 539.992 686.268C540.82 686.66 541.3 686.616 540.995 685.483C540.82 684.742 540.646 684.001 540.515 683.304C542.956 682.345 543.566 685.658 546.095 685.701C544.438 683.827 543.087 682.301 541.736 680.732V680.471C541.91 679.73 542.302 679.207 543.087 678.989C543.828 678.989 544.743 678.902 544.656 678.03C544.438 676.069 545.79 674.979 546.749 673.628C546.923 673.541 547.054 673.454 547.185 673.323C548.579 672.625 548.449 671.492 548.056 670.228C547.49 668.398 547.185 666.567 547.751 664.649L547.882 664.475C547.402 663.037 546.182 662.775 545.005 662.949C543.566 663.124 542.084 662.949 540.951 662.339C537.246 660.465 533.41 660.944 529.574 661.032C529.443 661.032 529.312 661.032 529.181 661.032C527.481 661.162 525.52 660.204 524.255 662.165C522.163 661.38 520.201 662.252 518.196 662.731C515.929 663.037 514.055 664.344 512.137 665.434C511.657 665.608 511.221 665.477 510.873 665.172C510.873 665.172 510.873 665.172 510.873 665.129C510.655 665.259 510.437 665.39 510.175 665.521C510.001 666 509.827 666.48 509.696 666.959C504.901 668.093 501.021 671.231 496.749 673.366C492.652 675.371 488.205 676.679 484.108 678.858C479.661 681.255 475.564 683.696 472.163 687.401C468.633 689.711 466.322 693.198 464.404 696.728C461.004 702.917 458.65 709.542 457.299 716.473C456.732 719.219 455.468 721.964 452.852 722.836C449.539 723.926 446.793 725.887 443.655 727.195C439.993 728.764 436.418 730.551 433.585 733.558C430.664 736.653 427.656 739.835 423.384 741.099C421.423 742.188 419.113 742.711 417.761 744.716C417.412 744.891 417.02 745.065 416.671 745.239C414.099 745.675 414.753 742.798 413.271 741.883C412.443 741.404 413.62 740.445 414.317 739.922C414.405 737.699 413.271 736.261 411.31 735.345C411.528 734.343 410.22 733.122 411.528 732.381C413.315 731.335 414.187 729.2 416.192 728.502C417.63 727.195 416.715 726.192 415.669 725.408C414.535 724.536 414.361 723.577 414.841 722.357C415.276 720.482 417.194 718.478 414.317 716.908C413.838 714.991 411.746 714.075 411.397 712.07C410.263 710.894 411.31 709.586 411.179 708.366C411.789 708.802 411.92 709.935 412.923 709.804C413.62 709.717 413.576 709.15 413.446 708.627C412.792 705.794 412.094 703.005 411.528 700.172C411.222 698.777 410.699 698.428 409.566 699.387C409.13 699.387 408.694 699.387 408.258 699.387C408.258 699.387 407.866 699.387 407.692 699.387C407.517 696.336 406.079 694.941 402.94 695.769C402.635 693.939 404.553 691.847 402.286 690.19C401.589 687.488 402.853 685.483 404.64 683.696C407.038 680.253 406.95 679.991 403.42 679.468C403.202 679.381 403.027 679.294 402.809 679.207C402.199 678.466 401.589 677.769 400.978 677.028C402.068 674.5 404.248 672.887 406.079 671.013C404.989 671.754 403.899 672.451 402.766 673.061C400.935 674.63 399.191 676.287 397.927 678.422C396.794 679.556 395.704 680.689 394.57 681.822C392.783 682.084 391.824 683.173 391.388 684.873C390.255 685.352 389.122 685.483 387.901 685.44C383.542 685.265 379.183 685.963 374.824 685.44H374.518C374.736 684.219 374.606 682.824 375.172 681.909C377.047 679.12 375.913 678.248 373.123 678.161C370.944 677.856 369.898 679.12 370.203 681.822C370.552 680.166 372.164 680.253 373.123 679.468C374.867 679.25 374.693 680.035 374.475 681.386C374.213 682.999 372.382 684.611 374.3 686.311C374.3 686.834 374.3 687.357 374.3 687.88C373.952 689.101 373.385 688.578 372.513 688.316C370.9 687.837 369.636 685.788 367.631 687.227C367.239 687.009 366.89 686.791 366.497 686.573C366.497 686.573 366.454 686.573 366.41 686.573C366.105 682.912 363.577 679.643 360.918 679.338C357.038 678.945 356.733 678.597 356.864 674.456C357.997 673.671 356.995 669.705 360.307 672.059C359.828 670.272 360.22 668.136 357.91 666.305C358.433 669.88 355.512 671.797 356.166 674.587C355.6 675.982 354.205 675.894 353.071 676.287C353.071 676.287 352.723 676.287 352.592 676.287C350.935 674.107 349.279 675.938 347.884 676.505C345.617 677.507 343.656 677.507 341.52 676.287C340.778 675.894 340.212 674.587 339.296 675.153C338.337 675.72 338.817 677.028 338.991 677.899C339.253 679.076 338.555 679.73 337.945 680.471C336.201 678.553 334.806 675.502 331.45 678.466C330.927 678.902 330.142 678.466 329.488 678.161C327.309 675.197 323.691 673.323 322.95 668.964C321.991 670.577 322.252 671.667 322.819 672.8C323.429 674.02 325.652 674.282 325.303 675.894C324.955 677.507 322.775 677.289 321.729 678.335C321.38 678.684 320.944 678.945 320.552 679.25C320.029 679.076 319.549 679.25 319.201 679.643C318.024 680.863 317.98 683.217 318.765 685.004C318.808 685.396 318.939 685.701 319.201 685.788C319.549 686.311 319.942 686.704 320.421 686.965C322.775 688.273 325.827 689.58 326.219 692.239C326.742 695.464 327.614 698.21 329.488 700.913C331.537 703.833 334.85 706.579 332.714 710.937C332.714 711.024 332.714 711.155 332.845 711.286C332.845 711.417 332.976 711.591 333.106 711.722C332.976 712.506 332.583 713.16 331.929 713.64C329.052 714.642 328.878 715.47 330.752 719.001C330.055 719.393 329.445 719.872 329.575 720.831C329.75 721.921 329.27 722.487 328.224 722.749C326.437 722.4 325.347 722.749 326.088 724.841C326.611 726.279 326.742 727.282 324.78 727.5C323.996 727.587 323.734 728.589 323.429 729.33C323.342 731.64 322.688 733.515 320.116 734.256C318.721 734.648 317.98 735.868 317.413 737.176C315.67 737.83 314.057 737.96 312.444 736.653C311.005 735.52 309.349 734.604 307.78 733.602C307.954 732.381 308.128 731.161 308.303 729.941C308.651 728.589 307.867 727.979 306.733 727.5C305.644 727.064 304.597 726.497 303.551 725.974C302.549 724.71 303.682 721.529 300.151 722.357C302.2 723.359 301.72 725.931 303.508 726.933C304.554 728.415 307.039 727.892 307.692 729.941C305.033 729.2 304.423 730.289 305.295 732.643C305.295 733.122 305.295 733.602 305.295 734.081C302.767 735.127 301.11 736.827 301.023 739.704C300.282 740.837 300.718 741.97 301.023 743.147C302.244 745.849 301.067 748.465 300.543 751.08C299.977 751.821 300.369 752.562 300.543 753.346C301.285 757.4 300.326 759.099 296.838 760.145C294.528 760.886 292.828 762.412 291.433 764.373C289.166 760.756 285.068 758.664 283.194 754.305C282.932 755.874 282.976 757.312 281.494 758.097C285.621 759.375 286.914 760.857 285.374 762.543C283.63 763.589 281.756 764.33 279.663 764.504C281.973 765.027 284.24 765.376 285.374 762.543C286.376 762.238 287.161 762.499 287.728 763.371C288.599 764.722 289.951 764.983 291.433 764.94C291.476 764.94 291.52 764.94 291.564 764.853C293.438 763.502 295.312 762.107 297.536 761.584C297.972 761.715 298.538 761.497 299.061 761.366C299.323 761.366 299.584 761.366 299.846 761.366C301.11 760.363 301.764 759.012 301.808 757.443C301.851 755.525 302.81 755.395 304.38 755.7C306.428 756.136 307.954 757.443 309.698 758.358C308.651 761.148 307.605 763.894 306.603 766.683C306.254 767.599 305.644 768.47 306.516 769.429C306.298 769.691 306.08 769.996 305.818 770.257C303.377 770.737 301.415 769.255 299.236 768.558C296.751 768.034 294.266 767.555 291.782 767.032C290.735 766.814 289.776 766.465 289.558 767.991C289.558 768.209 289.558 768.383 289.558 768.558C287.728 768.252 286.158 765.724 284.066 767.991C283.891 768.165 283.717 768.296 283.586 768.47C283.281 768.863 283.15 769.298 283.107 769.778C282.366 772.524 283.194 775.444 282.322 778.146C278.661 780.936 276.699 784.51 277.527 789.261C277.135 789.914 276.742 790.525 276.307 791.178C275.871 791.702 275.217 792.442 275.609 793.009C277.266 795.493 275.609 797.629 275.086 799.896C274.563 801.77 272.34 801.116 271.381 802.293C268.591 801.072 267.501 804.08 265.452 804.69C264.929 804.559 264.624 804.908 264.319 805.257C261.398 807.61 260.526 810.879 261.791 814.846C260.09 815.281 258.826 816.284 258.042 817.896C256.69 819.204 253.813 819.204 254.38 822.124C252.985 824.565 255.121 826.919 254.598 829.36C254.598 829.534 254.554 829.665 254.511 829.839C251.503 830.885 249.236 834.415 249.716 837.249C248.931 839.994 248.495 842.61 251.067 844.876C252.506 846.184 251.547 847.84 250.936 849.322C248.8 849.453 248.146 847.927 247.58 846.314C247.231 845.443 246.751 844.702 245.967 844.179C244.572 843.307 243.09 842.653 241.433 843.438C240.518 843.874 239.602 844.484 239.908 845.704C240.3 847.448 241.041 848.93 243.09 849.191C243.918 850.063 244.398 851.022 243.656 852.198C243.264 853.07 242.872 853.898 242.436 854.77C240.605 856.644 238.818 855.772 236.987 854.77C233.936 855.337 232.846 854.77 233.761 852.809C235.854 848.189 233.412 845.138 230.448 842.13C228.356 842.653 226.525 842.61 225.566 840.212C224.563 839.428 223.735 839.689 222.95 840.561C221.032 842.697 219.289 845.007 216.978 846.794C216.368 847.273 216.368 848.014 216.499 848.712C215.322 851.196 216.673 853.201 218.286 854.596C221.817 857.647 221.861 861.046 219.943 864.795C217.24 870.112 219.114 874.732 222.645 878.481C225.828 881.88 227.571 885.672 228.574 889.987C227.397 889.769 226.438 889.726 226.743 891.469C227.31 894.477 228.574 897.222 229.751 899.968C229.925 900.927 230.1 901.886 230.274 902.889C229.794 903.194 229.751 903.673 229.794 904.196C230.012 904.283 230.056 904.458 230.056 904.632C229.969 904.501 229.882 904.327 229.794 904.196C230.23 906.637 229.184 909.034 229.794 911.431C229.446 911.606 229.097 911.824 228.748 911.998C225.958 913.088 224.781 915.528 223.692 918.056C222.776 918.362 222.863 919.233 222.602 919.931C221.556 925.466 223.692 930.26 226.176 934.968C226.874 936.798 227.048 938.803 228.312 940.372C228.487 940.852 228.574 941.375 228.879 941.767C229.358 942.464 229.533 943.728 230.797 943.162C232.061 942.595 231.407 941.723 230.971 940.939C230.23 939.631 230.579 938.193 230.361 936.798C231.015 937.365 231.625 937.931 232.279 938.498C231.887 939.065 232.279 939.631 232.628 939.718C235.984 940.721 236.638 943.99 238.382 946.344C237.99 947.215 237.597 948.087 237.161 948.959C236.638 950.441 236.856 951.835 237.641 953.143C237.466 953.579 237.292 953.971 237.118 954.407C235.461 954.45 233.805 954.581 232.235 953.84C230.71 954.581 228.443 953.099 227.484 955.497C226.743 954.973 226.874 953.361 225.435 953.797C224.563 954.058 224.694 954.93 224.781 955.584C225.043 957.196 226.22 956.455 227.135 956.412C227.615 956.412 228.138 956.499 228.617 956.543C231.451 956.586 234.284 955.758 237.118 956.586C239.515 957.066 239.341 954.886 240.126 953.71C240.692 954.058 241.913 953.971 241.869 954.668C241.564 958.155 244.267 957.458 245.923 957.371C249.672 957.196 252.811 955.453 255.165 952.489C255.906 951.574 256.385 950.397 257.693 950.048C258.434 950.266 259.219 950.441 259.96 950.659C261.311 951.792 262.096 951.705 263.142 950.005C265.016 946.954 264.973 943.118 267.457 940.372C269.506 941.244 271.25 942.464 271.599 944.862C271.686 945.515 271.337 946.474 272.296 946.474C273.473 946.474 273.037 945.297 273.299 944.6C274.737 945.472 276.263 946.169 278.181 946.082C278.181 944.687 278.181 943.423 278.181 942.116C278.225 940.677 277.919 939.021 279.925 938.454C280.579 938.716 281.232 938.934 281.93 939.195C281.102 939.98 278.661 939.806 279.707 941.549C280.535 942.944 282.627 943.336 284.458 943.467C285.94 943.598 286.245 942.464 286.681 941.462C287.946 938.542 289.035 935.578 289.733 932.483C289.951 932.135 290.081 931.829 289.994 931.612C290.648 929.301 291.346 926.991 291.564 924.594C292.392 923.156 292.174 921.761 291.651 920.279C290.735 917.882 289.907 915.441 289.035 913C288.425 910.124 291.215 908.337 291.346 905.809C291.564 901.625 292.043 897.44 292.697 893.3C293.307 892.69 293.961 892.079 294.571 891.469C299.628 889.813 300.718 887.546 298.19 884.103C297.536 882.796 296.054 881.837 296.359 880.137C296.707 878.263 297.013 876.432 296.359 874.558C296.097 873.773 296.141 872.509 297.71 873.337C299.105 873.73 300.456 874.166 301.851 874.558C301.851 874.732 301.851 874.95 301.851 875.125C300.761 876.389 302.374 877.609 301.938 878.96C301.59 880.006 301.241 881.488 302.331 882.229C303.464 882.97 304.51 881.75 305.513 881.27C307.605 882.491 310.439 883.231 309.087 886.718C308.085 886.936 307.649 887.721 307.3 888.549C306.254 889.551 305.208 890.51 304.162 891.513C303.29 892.297 302.156 892.951 301.546 893.953C300.543 895.61 298.887 897.44 301.11 899.445C299.497 901.668 299.759 903.717 301.808 905.547C301.633 905.896 301.459 906.288 301.241 906.637C301.677 908.424 302.331 910.124 303.682 911.431C303.508 912.172 303.333 912.913 303.159 913.654C303.508 914.264 303.856 914.875 304.205 915.485C303.638 915.877 303.508 916.531 303.726 917.098C304.685 919.756 304.772 922.546 304.815 925.292C304.423 925.51 304.074 925.771 303.682 925.989C303.726 931.089 302.723 935.97 301.328 940.808C301.633 941.636 301.72 942.682 302.897 942.682C307.169 942.595 308.826 945.559 310.308 948.828C309.131 950.789 309.741 952.576 311.398 953.622C313.054 954.668 314.318 953.404 315.19 951.922C315.801 950.92 316.454 949.918 317.108 948.915C317.501 948.697 317.893 948.436 318.285 948.218C320.203 945.733 321.206 942.944 320.596 939.762C321.206 939.544 321.598 939.108 321.86 938.498C322.732 939.283 323.734 940.503 324.868 939.588C326.001 938.672 326.916 936.842 325.87 935.534C324.344 933.66 324.519 931.176 323.124 929.345C322.775 928.604 322.688 927.82 323.124 927.079C324.432 926.207 324.824 924.681 325.609 923.461C327.222 920.889 326.916 920.279 323.734 919.233C322.601 918.492 321.642 917.577 321.38 916.182C322.165 916.008 322.732 915.572 323.167 914.918C326.175 917.577 326.35 917.533 328.573 914.003C328.791 913.611 329.314 913.436 329.706 913.131C330.142 913.349 330.578 913.567 330.97 913.741C330.186 915.717 330.651 917.199 332.365 918.187C332.365 918.187 332.583 918.536 332.758 918.623C334.719 919.887 336.419 918.623 337.989 917.839C339.427 917.185 339.253 915.79 338.337 914.526C337.64 913.523 338.119 912.521 338.904 911.867C342.261 909.078 342.261 905.111 341.999 901.494C341.65 897.005 341.258 897.048 345.661 897.963C345.748 896.874 345.574 895.697 345.966 894.782C346.968 892.341 345.617 891.382 343.699 890.815C341.607 890.205 339.427 889.813 337.64 888.462C336.855 885.236 338.381 881.532 335.765 878.655C335.678 878.481 335.722 878.35 335.765 878.175C338.599 875.953 338.991 874.471 337.509 872.03C337.117 871.681 336.768 871.289 336.376 870.94C337.248 869.502 337.335 867.671 338.686 866.495C340.691 868.412 342.348 868.412 343.35 865.536C343.568 864.969 343.786 864.228 344.484 864.402C345.312 864.577 345.399 865.405 345.312 866.102C345.225 866.756 345.094 867.541 344.658 868.064C343.002 870.112 343.917 870.81 346.009 871.027C346.227 871.55 346.402 872.117 346.62 872.64C346.315 873.163 346.009 873.686 345.704 874.209C343.35 877.086 344.92 880.093 345.486 883.057C343.568 884.931 343.743 885.977 346.358 887.808C346.489 886.762 345.356 885.541 346.751 884.844C347.317 885.672 347.884 886.5 348.451 887.329C349.192 889.682 349.235 892.123 348.974 894.564C348.625 895.61 348.276 896.699 347.927 897.745C347.099 899.489 346.315 901.276 345.486 903.019C344.397 905.547 346.14 907.16 347.361 908.991C347.753 911.562 348.625 913.959 349.715 916.313C348.669 918.449 350.456 919.146 351.72 919.931C353.202 920.889 354.902 921.543 356.079 922.938C358.084 925.35 360.366 925.713 362.923 924.028C364.056 925.292 366.236 924.899 367.151 926.556C367.892 927.907 368.808 927.645 369.898 927.035C370.769 926.556 371.729 926.207 372.644 925.815C373.69 924.115 373.211 922.197 373.298 920.366C374.17 918.405 373.952 916.357 373.952 914.308C373.647 913.611 373.036 913.654 372.426 913.698C369.941 913.872 367.892 915.18 365.887 916.444C364.449 917.359 363.272 917.141 362.226 915.834C361.136 914.439 361.092 913.131 362.356 911.824C363.359 910.734 364.623 910.255 366.062 910.124C367.849 910.778 365.931 911.213 365.974 911.78C365.059 912.87 363.141 913.044 363.097 914.918C363.097 915.049 363.577 915.31 363.795 915.267C365.277 914.962 366.236 914.003 366.759 912.565C367.457 912.87 368.11 912.739 368.721 912.347C371.336 910.647 373.341 911.388 374.998 913.785C375.521 916.139 374.344 918.841 376.349 920.933C377.003 923.112 375.87 924.943 375.129 926.861C373.777 928.038 372.47 929.258 371.031 930.348C369.113 931.829 369.898 932.832 371.641 933.399C374.954 934.445 378.267 935.447 381.667 936.275C383.411 936.667 383.193 935.273 383.019 934.183C383.237 933.834 383.411 933.486 383.629 933.181C387.203 931.001 387.465 930.086 385.46 926.512C384.937 925.553 384.239 924.681 383.629 923.81C383.149 921.718 382.408 919.713 381.188 917.969C381.101 911.78 381.537 905.809 386.55 901.189C387.465 900.361 387.421 899.009 386.157 898.443C385.285 898.051 384.196 898.181 383.237 898.007C380.883 897.615 378.006 898.356 377.003 895.087C376.785 893.866 376.567 892.69 376.393 891.469C377.003 890.685 377.613 889.856 378.224 889.072C379.095 887.939 378.79 886.893 378.093 885.847C377.265 884.626 376.48 883.362 376.393 881.837C376.044 881.444 375.652 881.009 375.303 880.616C375.434 880.442 375.608 880.224 375.739 880.05C377.134 878.742 377.439 876.868 378.18 875.212C379.008 873.425 379.837 871.594 380.621 869.807C381.711 866.843 379.924 865.274 377.613 864.141C374.998 862.877 372.252 861.831 370.944 858.954C370.944 858.126 370.944 857.342 370.944 856.513C372.6 854.77 374.431 853.375 377.09 854.16C376.959 854.116 376.872 854.029 376.785 853.942H376.872C376.959 853.942 377.003 854.073 377.09 854.116C378.136 854.508 378.965 855.119 379.662 856.034C381.711 858.823 383.934 859.434 387.073 857.952C387.988 857.516 388.773 857.385 389.557 857.69C388.991 857.821 388.38 857.995 387.814 858.17C384.239 859.39 381.013 859.477 378.18 856.47C377.308 855.555 376.044 855.206 374.911 856.165C373.734 857.124 373.777 858.388 374.344 859.695C374.954 861.046 376.131 861.787 377.439 862.31C378.616 862.746 379.531 863.356 380.229 864.359C382.06 866.189 382.932 868.282 382.147 870.853C381.929 871.943 381.362 872.858 380.621 873.73C378.66 876.127 377.875 878.742 378.354 881.924C378.703 884.408 380.49 886.675 379.488 889.377C379.008 890.51 379.052 891.687 379.052 892.907C379.008 893.125 379.008 893.387 379.052 893.605C379.052 894.041 378.965 894.477 378.878 894.869C380.054 897.005 382.19 896.307 383.934 896.438C387.378 896.699 388.38 897.702 388.642 901.145C388.686 901.93 388.468 902.714 388.642 903.499C388.86 904.632 389.514 905.765 388.991 906.942C388.424 908.25 388.25 909.557 388.206 910.908C388.119 911.257 388.032 911.562 387.945 911.911C386.942 915.267 388.642 917.708 390.211 920.192C390.211 920.759 390.081 921.325 389.863 921.892C390.081 923.287 390.386 924.681 391.475 925.684C391.65 925.815 391.824 925.945 391.999 926.033C392.129 927.776 393.437 929.127 394.658 929.694C396.924 930.696 398.276 934.706 401.763 932.396C401.763 932.309 401.763 932.265 401.807 932.178C401.937 931.786 402.112 931.394 402.155 931.001C402.286 930.478 402.373 929.955 402.461 929.476C403.114 928.386 404.204 927.514 404.204 926.12C405.207 922.894 406.558 919.8 406.34 916.269C406.297 915.441 406.079 914.787 405.73 914.264C406.166 914.7 406.558 915.223 406.82 915.834C407.038 916.008 407.256 916.226 407.43 916.444C406.994 918.972 406.82 921.587 405.991 924.028C405.773 924.507 405.556 924.943 405.425 925.422C404.379 927.166 404.597 928.735 405.686 930.391C406.122 931.829 406.907 933.006 408.04 933.834C408.302 934.27 408.563 934.75 408.738 935.229C410.045 936.667 412.007 936.232 413.576 937.016C414.23 937.321 414.884 937.147 415.582 937.016C416.759 937.801 417.412 938.019 417.892 937.67C418.241 938.237 418.328 938.978 418.851 939.457C418.633 939.936 418.764 940.372 419.418 940.765C420.333 940.765 421.336 940.982 422.077 940.59C423.908 939.675 427.569 941.418 427.133 937.191C427.787 936.624 427.962 935.927 427.7 935.098C427.874 935.186 428.136 935.186 428.267 935.316C431.754 939.675 436.288 939.152 438.816 934.139C438.99 933.834 439.339 933.355 439.601 933.355C443.437 933.268 442.478 930.348 442.739 928.125C442.739 926.425 443.524 924.507 441.606 923.243C439.775 920.105 436.811 917.359 438.031 913.131C440.254 916.836 442.826 920.279 445.703 923.461C446.619 924.464 446.052 926.12 447.534 926.686C448.232 926.948 448.668 928.125 449.539 927.384C450.411 926.643 449.627 925.945 449.191 925.292C448.493 924.202 447.709 923.156 446.968 922.11C447.491 920.628 445.703 918.754 446.88 917.839C448.755 916.4 448.755 913.698 450.978 912.695C452.068 912.216 452.373 911.083 452.416 909.906C452.678 909.165 452.896 908.424 453.158 907.683C454.291 906.245 455.119 904.676 454.901 902.758C455.032 900.535 457.342 898.486 455.511 896.089C456.383 896.656 457.386 897.092 458.171 897.745C459.783 899.097 461.44 899.968 463.489 898.574C463.619 895.566 465.886 896.264 467.717 896.133C468.85 897.571 470.027 899.009 470.071 900.971C470.245 901.363 470.42 901.755 470.594 902.148C470.027 903.368 469.548 904.632 470.594 905.852C470.594 906.637 470.594 907.465 470.681 908.25C471.335 913.567 469.504 918.231 466.715 922.633C465.189 925.074 465.973 927.863 468.763 928.386C473.646 929.345 478.484 928.996 482.713 925.815C483.628 925.161 484.151 924.42 483.323 923.33C485.459 922.328 487.769 921.5 488.772 919.059C490.472 915.746 487.813 915.528 485.764 914.831C484.892 914.221 483.846 914.221 482.843 914.221C482.756 914.003 482.713 913.741 482.669 913.523C485.372 913.306 487.028 912.042 486.897 909.165C486.81 907.552 489.164 906.375 487.595 904.545C488.074 902.758 489.949 901.32 488.859 899.184C488.815 898.181 488.772 897.179 488.728 896.22C488.859 893.648 488.074 891.295 486.941 889.028C486.374 885.89 483.715 883.667 483.192 880.529C482.713 879.483 483.105 878.524 483.497 877.565C484.5 876.214 485.11 874.514 484.238 873.163C483.105 871.42 483.236 869.676 483.366 867.846C483.759 866.32 485.197 865.536 485.982 864.315C486.767 863.095 487.508 861.962 486.331 860.61C484.326 859.782 482.364 860.872 480.402 860.698C480.577 860.131 480.751 859.564 480.925 858.998C482.843 858.562 484.718 858.126 486.636 857.647C488.946 859.695 490.254 861.657 487.9 864.751C485.938 867.366 484.892 870.461 486.331 873.904C486.723 874.907 486.331 876.258 486.331 877.435C486.331 877.87 486.331 878.263 486.374 878.699C485.284 880.442 486.505 881.357 487.638 882.36C488.946 883.537 490.472 884.495 490.646 886.5C491.169 886.675 491.736 887.111 491.692 885.977C491.649 884.583 491.692 883.188 491.736 881.793C491.605 879.396 491.474 876.999 491.344 874.602C491.474 874.427 491.649 874.253 491.78 874.078H492.869C492.564 877.435 495.311 879.832 496.008 882.926C496.88 884.452 496.182 886.326 497.141 887.808C497.708 889.159 497.577 890.641 498.493 891.949C500.106 894.346 500.193 894.477 502.111 892.036C502.46 892.036 502.808 892.036 503.157 892.036C504.29 894.346 502.983 897.266 504.944 899.402C505.249 901.232 505.903 902.714 508.083 902.932C507.996 904.719 509.739 905.286 510.48 906.506C512.137 910.908 515.711 912.521 519.635 910.342C522.643 908.642 525.825 906.855 526.304 902.845C526.653 901.45 526.697 900.099 526.13 898.748C526.348 898.312 526.609 897.876 526.827 897.44C531.012 896.569 533.104 893.823 532.756 889.769C532.625 889.116 532.494 888.418 532.363 887.764C532.145 887.372 531.971 886.98 531.753 886.588C531.492 885.193 531.23 883.798 531.012 882.403M400.76 905.765C400.804 905.504 400.848 905.242 400.891 904.981C401.153 902.932 400.717 902.104 399.104 902.191C401.066 901.93 401.371 902.932 400.76 905.765Z" fill="white"/>
<path d="M396.794 902.756C396.881 902.756 396.924 902.756 397.011 902.713C396.968 902.713 396.881 902.756 396.837 902.756H396.794Z" fill="white"/>
<path d="M393.088 743.451L393.045 743.408H393.088V743.451Z" fill="white"/>
<path d="M411.222 821.775C411.222 821.862 411.266 821.906 411.309 821.992C411.222 821.992 411.179 821.906 411.092 821.819C411.092 821.819 411.179 821.819 411.179 821.775H411.222Z" fill="white"/>
<path d="M501.153 795.623C501.153 795.623 501.109 795.711 501.065 795.755C501.065 795.755 501.065 795.667 501.109 795.623H501.153Z" fill="white"/>
<path d="M471.642 797.062C471.642 797.062 471.511 797.193 471.467 797.28C471.38 797.368 471.249 797.455 471.161 797.586C471.292 797.324 471.467 797.15 471.642 797.062Z" fill="white"/>
<path d="M406.078 719.697C406.078 719.697 406.035 719.697 405.992 719.74C405.992 719.74 405.992 719.74 406.035 719.74L406.078 719.697Z" fill="white"/>
<path d="M525.345 870.721L525.431 870.635C525.431 870.635 525.431 870.678 525.431 870.721C525.431 870.721 525.431 870.721 525.388 870.721H525.345Z" fill="white"/>
<path d="M250.022 837.684C250.022 837.684 249.934 837.597 249.934 837.553C249.934 837.597 250.022 837.64 250.022 837.684Z" fill="white"/>
<path d="M391.868 825.48C391.868 825.48 391.868 825.48 391.911 825.48C391.911 825.48 391.911 825.523 391.911 825.567C391.911 825.567 391.911 825.567 391.911 825.523L391.868 825.48Z" fill="white"/>
<path d="M427.003 932.832C427.003 932.832 427.003 932.832 427.046 932.875C427.046 932.875 427.046 932.875 427.003 932.832Z" fill="white"/>
<path d="M376.088 891.99C376.088 891.99 376.088 891.947 376.131 891.904C376.131 891.904 376.131 891.947 376.088 891.99Z" fill="white"/>
<path d="M490.69 875.602C490.69 875.384 490.865 875.167 491.171 874.992C490.996 875.167 490.821 875.384 490.69 875.602Z" fill="white"/>
<path d="M528.833 802.336C528.833 802.336 528.833 802.511 528.789 802.554C528.876 802.118 528.964 801.639 529.095 801.203C529.008 801.595 528.964 801.944 528.833 802.293V802.336Z" fill="white"/>
<path d="M393.132 945.471C392.173 943.727 390.255 943.073 388.904 941.81C387.77 940.981 386.332 941.243 385.155 940.72C383.324 940.284 381.886 938.758 379.837 938.846C378.442 938.453 377.832 939.325 377.919 940.415C378.093 942.899 377.134 945.122 376.916 947.476C376.829 948.652 374.78 950.962 378.18 951.268C378.747 951.311 378.18 952.096 378.18 952.532C378.006 954.754 380.491 958.59 382.234 959.549C383.411 960.203 384.675 958.939 384.85 959.244C386.724 962.469 389.689 960.682 391.912 960.595C398.407 960.29 400.935 957.37 398.276 951.311C397.273 949.001 396.532 945.907 393.132 945.471Z" fill="white"/>
<path d="M394.266 936.798C395.312 938.977 396.576 939.239 398.494 938.759C398.494 938.454 398.494 938.149 398.363 937.887C396.62 934.967 393.045 933.834 391.563 930.652C391.345 930.173 390.43 930.303 389.95 930.739C389.34 931.349 389.558 932.047 390.125 932.57C391.563 933.965 393.481 935.098 394.309 936.754L394.266 936.798Z" fill="white"/>
<path d="M398.537 938.76L398.494 938.803L398.537 938.76Z" fill="white"/>
<path d="M368.459 932.657C368.198 932.222 367.893 931.829 367.239 931.917C366.541 932.178 365.8 932.57 366.541 933.398C369.288 936.362 371.598 939.718 374.693 942.421C375.129 942.813 375.521 943.118 375.957 942.639C376.524 941.985 375.87 941.593 375.521 941.157C373.211 938.28 370.334 935.926 368.459 932.657Z" fill="white"/>
<path d="M331.014 923.242C329.793 925.77 327.963 927.775 329.314 930.39C330.142 931.959 331.799 931.741 333.281 931.611C333.891 929.606 331.624 928.255 332.017 926.293C331.712 925.422 331.45 924.55 331.014 923.242Z" fill="white"/>
<path d="M338.686 925.682C339.078 925.116 338.948 924.549 338.512 924.026C337.596 922.98 336.594 923.634 335.548 923.852C334.022 924.2 332.801 924.81 332.017 926.162C333.106 927.033 334.283 927.731 335.722 927.774C337.248 927.818 337.945 926.685 338.686 925.639V925.682Z" fill="white"/>
<path d="M333.281 931.567C332.758 932.613 332.017 933.267 330.796 933.398C330.011 933.485 328.529 933.18 328.791 934.4C329.009 935.577 330.447 935.228 331.363 934.967C332.627 934.618 333.586 933.703 334.501 932.788C334.894 932.395 334.937 931.829 334.588 931.437C334.153 930.87 333.717 931.349 333.324 931.567H333.281Z" fill="white"/>
<path d="M339.079 884.625C339.34 885.715 340.038 886.587 341.084 887.023C341.52 887.197 341.825 886.805 341.825 886.369C341.825 885.105 340.997 884.407 339.907 884.059C339.384 883.972 338.948 884.146 339.079 884.625Z" fill="white"/>
<path d="M369.157 939.631C367.108 938.193 365.582 936.362 364.71 933.965C364.58 932.57 365.582 931.567 365.931 930.391C366.411 928.909 365.669 927.95 364.623 927.078C363.49 926.119 362.531 926.206 361.659 927.383C359.349 929.127 357.649 928.299 356.254 926.163C354.161 923.286 350.979 921.761 348.407 919.494C347.928 918.274 347.753 916.923 346.794 915.92C348.015 913.044 346.14 911.126 344.876 908.859C343.874 909.731 343.481 910.646 343.525 911.605C343.612 914.395 343.612 917.141 342.697 919.843C342.522 920.366 343.045 921.15 343.22 921.804C346.402 924.201 349.061 927.035 350.369 930.914C350.194 932.003 350.194 933.049 350.892 933.965C350.892 934.793 350.979 935.621 350.979 936.493C350.718 937.452 350.412 938.41 350.151 939.326C349.584 940.328 349.671 941.418 349.715 942.464C348.102 943.423 348.233 944.948 348.494 946.43C348.843 948.479 349.323 950.527 349.715 952.532C351.328 954.624 353.856 953.796 355.861 954.494C357.91 955.191 359.044 955.104 360.003 953.273C361.746 952.663 363.49 952.924 365.234 953.142C366.716 953.36 368.198 953.23 368.503 951.443C368.852 949.263 370.116 947.476 370.857 945.428C372.731 942.769 371.729 940.938 369.2 939.5L369.157 939.631Z" fill="white"/>
<path d="M386.157 363.907C388.032 366.871 401.72 376.111 405.381 377.288C411.833 379.336 427.308 376.808 433.672 374.237C436.593 373.06 438.86 366.478 440.124 366.26C446.75 367.306 453.724 367.35 460.35 368.309C465.058 369.006 470.725 369.965 475.346 370.837C476.828 371.098 480.49 371.621 481.013 372.973C476.305 395.463 471.379 418.04 465.974 440.4C442.87 536.114 414.361 629.867 377.701 720.961L390.473 723.881C396.968 708.539 403.289 693.066 409.043 677.375C434.849 606.897 453.332 533.499 471.728 460.798C475.433 446.24 479.661 418.04 487.813 406.49C494.7 396.814 503.244 401.608 505.424 411.982C507.342 421.091 505.642 433.731 504.378 443.015C501.065 466.725 495.354 490.218 491.649 513.885C479.618 590.552 472.861 665.389 473.515 742.841L484.849 745.456C484.892 653.621 496.662 561.699 511.919 470.779C516.322 444.671 519.853 407.623 528.397 383.39C529.051 381.515 530.01 379.336 532.32 379.554L579.617 386.789C582.45 381.21 584.455 375.326 585.502 369.137C568.632 365.955 551.326 363.732 534.717 359.679L533.105 357.107L542.477 325.9C542.128 314.916 548.71 302.407 549.321 291.86C549.364 290.814 548.405 286.629 547.839 286.063C545.572 283.709 521.814 278.653 517.368 277.999C514.011 277.476 500.978 276.038 499.103 278.174C498.057 279.351 497.708 281.835 497.403 283.448C494.047 302.32 492.303 321.629 488.772 340.458C487.421 347.649 487.464 350.308 479.4 349.218C472.425 348.259 461.484 345.514 454.596 343.552C452.853 343.073 445.006 340.632 444.221 340.153C442.391 339.063 444.309 334.181 440.778 331C433.934 324.854 423.079 317.88 413.838 316.791C407.169 316.006 403.071 318.926 397.317 320.888C395.878 321.367 393.873 320.713 392.783 321.541C392.129 322.021 387.858 329.343 386.724 331.043C382.452 337.363 379.88 338.104 380.752 347.475C380.839 348.39 385.634 363.166 386.07 363.907H386.157ZM535.982 305.284C535.72 306.766 534.63 306.722 536.461 307.158C537.464 307.376 538.684 308.161 538.815 308.073C539.12 307.856 538.641 306.592 538.946 305.938C540.995 301.274 540.123 295.346 541.518 290.16C541.91 288.765 542.651 287.632 544.177 288.504C542.564 291.86 544.177 296.044 543.479 299.182C542.956 301.448 540.254 307.245 540.384 309.599C540.428 310.819 541.91 311.778 541.91 312.824C541.823 316.747 533.758 335.053 532.146 340.85C529.094 351.79 526.827 364.299 524.212 375.544C523.427 378.987 523.863 383.172 521.291 386.571C520.507 386.397 523.95 373.714 524.168 372.057C524.735 367.917 524.168 357.107 525.65 354.274C526.522 352.662 526.086 355.887 527.22 351.049C527.351 350.526 529.007 350.962 529.181 350.57C529.704 349.218 528.397 347.301 528.571 345.296C529.399 335.402 535.153 323.023 536.069 313.042C536.33 310.427 534.805 309.643 534.805 306.766C534.805 306.199 535.284 303.671 536.069 305.284H535.982ZM510.001 350.526L511.919 349.698C509.522 355.625 508.563 360.986 508.127 367.263C507.909 370.663 508.039 372.755 507.647 376.677C507.386 379.38 509.304 384.784 505.032 385.438C501.937 385.918 505.032 378.813 505.032 378.203C505.337 375.893 505.032 373.234 505.38 371.055C506.557 364.212 508.606 357.369 509.957 350.482L510.001 350.526Z" fill="white"/>
<path d="M711.438 537.289C711.438 475.964 618.544 493.311 618.544 463.804C618.544 453.735 629.922 447.285 648.317 447.285C666.713 447.285 689.206 451.425 705.248 459.968L707.863 418.562C687.419 413.375 669.067 411.588 650.671 411.588C608.475 411.588 582.363 431.245 582.363 461.276C582.363 521.337 675.257 504.992 675.257 535.807C675.257 549.275 662.572 554.941 642.912 554.941C618.85 554.941 593.479 548.447 580.271 537.856C577.176 570.196 603.069 590.638 647.315 590.638C686.94 590.638 711.482 570.458 711.482 537.333L711.438 537.289Z" fill="white"/>
<path d="M733.888 537.332C733.888 571.242 746.573 590.637 776.564 590.637C799.057 590.637 812.788 576.69 818.237 559.081L816.93 586.758H861.437C854.723 577.692 847.226 554.156 847.226 528.005V522.818C847.226 496.667 854.723 473.13 861.437 464.064H803.285C809.998 473.087 817.496 496.667 817.496 522.818V524.649C817.496 543.783 807.645 556.205 790.6 556.205C773.556 556.205 763.704 543.783 763.704 524.649V522.818C763.704 496.667 771.202 473.13 777.915 464.064H719.677C726.172 473.087 733.888 496.667 733.888 522.818V537.332Z" fill="white"/>
<path d="M870.852 586.758H928.785C922.334 577.693 914.574 554.156 914.574 528.005V526.218C914.574 507.084 924.688 494.662 941.732 494.662C958.776 494.662 968.628 507.084 968.628 526.218V528.005C968.628 554.156 960.869 577.693 954.417 586.758H1012.39C1006.16 577.693 998.183 554.156 998.183 528.005V513.491C998.183 479.581 985.498 460.186 955.768 460.186C932.97 460.186 919.282 474.133 914.095 491.742L915.403 464.065H870.896C877.347 473.13 885.107 496.667 885.107 522.818V528.005C885.107 554.156 877.347 577.693 870.896 586.758H870.852Z" fill="white"/>
<path d="M1076.56 592.207C1103.24 592.207 1117.71 572.768 1120.81 555.987L1119.24 586.759H1163.74C1158.08 576.647 1150.27 544.088 1150.27 500.851V493.093C1150.27 454.04 1156.51 417.297 1160.87 407.186H1106.29C1111.7 416.513 1118.71 445.236 1119.76 484.812C1113.79 471.126 1100.62 458.66 1079.13 458.66C1047.31 458.66 1023.51 485.335 1023.51 526.741C1023.51 568.147 1046.31 592.207 1076.56 592.207ZM1087.15 492.831C1105.77 492.831 1118.98 505.776 1118.98 525.433C1118.98 545.091 1105.77 558.036 1087.15 558.036C1067.49 558.036 1055.07 545.091 1055.07 525.433C1055.07 505.776 1067.49 492.831 1087.15 492.831Z" fill="white"/>
<path d="M1229.96 509.132C1205.37 509.132 1177.43 518.983 1177.43 550.539C1177.43 578.215 1198.14 591.683 1221.68 591.683C1241.34 591.683 1257.9 582.879 1264.92 565.837V586.802H1308.38C1302.15 577.736 1294.17 554.2 1294.17 528.048V509.176C1294.17 469.861 1278.91 459.227 1236.19 459.227C1220.41 459.227 1204.37 461.057 1189.11 464.152L1182.66 500.894C1193.26 495.708 1214.48 491.044 1232.1 491.044C1254.59 491.044 1264.7 495.185 1264.7 513.839V515.888C1256.16 512.27 1242.95 509.176 1230 509.176L1229.96 509.132ZM1264.66 541.211C1263.87 553.11 1250.93 560.65 1232.58 560.65C1217.06 560.65 1208.51 554.418 1208.51 545.395C1208.51 535.066 1219.11 530.402 1233.62 530.402C1247.09 530.402 1258.73 533.279 1264.66 536.068V541.255V541.211Z" fill="white"/>
<path d="M1316.66 586.76H1375.42C1368.45 578.478 1360.43 557.252 1360.43 534.5V533.193C1360.43 512.49 1371.81 499.065 1388.89 499.065C1395.87 499.065 1402.84 501.375 1408.34 505.516L1413.52 462.541C1410.43 461.233 1405.24 460.23 1400.32 460.23C1377.04 460.23 1364.05 477.795 1359.69 498.281L1361.26 464.11H1316.75C1323.2 473.175 1330.96 496.712 1330.96 522.863V528.05C1330.96 554.201 1323.2 577.737 1316.75 586.803L1316.66 586.76Z" fill="white"/>
<path d="M1519.67 542.083H1519.71C1500.58 542.127 1479.35 548.098 1466.4 548.098C1457.86 548.098 1454.24 543.696 1454.24 538.509C1454.24 534.369 1456.55 530.49 1460.47 528.397C1468.23 530.708 1477.3 532.015 1487.15 532.015C1524.42 532.015 1548.48 514.45 1548.48 487.776C1548.48 468.903 1538.89 454.127 1522.33 446.108C1516.36 442.752 1514.05 438.349 1514.05 433.686C1514.05 428.238 1518.97 425.143 1525.21 425.143C1534.8 425.143 1543.6 429.022 1549.53 433.947L1550.05 398.992C1544.39 396.115 1534.01 394.066 1523.9 394.066C1505.28 394.066 1492.08 403.655 1492.08 420.741C1492.08 427.715 1494.69 433.947 1498.79 439.352C1494.91 438.829 1491.29 438.567 1487.15 438.567C1449.88 438.567 1425.82 457.701 1425.82 487.732C1425.82 500.415 1431.22 511.007 1441.07 518.765C1431.48 525.477 1425.82 536.33 1425.82 548.011C1425.82 566.622 1441.07 578.303 1462.56 578.303C1484.05 578.303 1502.15 572.07 1516.14 572.07C1523.11 572.07 1526.99 574.119 1526.99 580.09C1526.99 589.94 1513.04 596.914 1485.32 596.914C1457.59 596.914 1436.67 589.679 1425.25 580.352C1424.2 610.382 1451.4 626.945 1489.42 626.945C1527.43 626.945 1555.41 609.38 1555.41 577.257C1555.41 555.246 1542.21 542.04 1519.71 542.04L1519.67 542.083ZM1487.11 468.162C1505.72 468.162 1518.67 474.874 1518.67 487.819C1518.67 500.764 1505.72 508.522 1487.11 508.522C1468.49 508.522 1455.55 500.764 1455.55 487.819C1455.55 474.874 1468.75 468.162 1487.11 468.162Z" fill="white"/>
<path d="M1678.95 509.133C1678.95 469.818 1663.7 459.184 1621.02 459.184C1605.24 459.184 1589.2 461.014 1573.94 464.109L1567.49 500.851C1578.08 495.665 1599.31 491.001 1616.92 491.001C1639.41 491.001 1649.53 495.142 1649.53 513.796V515.845C1640.98 512.227 1627.78 509.133 1614.83 509.133C1590.24 509.133 1562.3 518.983 1562.3 550.539C1562.3 578.216 1583.01 591.684 1606.55 591.684C1626.21 591.684 1642.77 582.88 1649.79 565.838V586.802H1693.25C1687.02 577.737 1679.04 554.2 1679.04 528.049V509.176L1678.95 509.133ZM1649.48 541.212C1648.74 553.111 1635.75 560.651 1617.4 560.651C1601.88 560.651 1593.34 554.418 1593.34 545.396C1593.34 535.066 1603.93 530.403 1618.45 530.403C1631.92 530.403 1643.56 533.279 1649.48 536.069V541.255V541.212Z" fill="white"/>
<path d="M1785.1 586.758H1843.03C1836.8 577.693 1828.82 554.156 1828.82 528.005V513.491C1828.82 479.581 1816.13 460.186 1786.41 460.186C1763.61 460.186 1749.92 474.133 1744.73 491.742L1746.04 464.065H1701.53C1708.03 473.13 1715.74 496.667 1715.74 522.818V528.005C1715.74 554.156 1707.98 577.693 1701.53 586.758H1759.51C1753.06 577.693 1745.3 554.156 1745.3 528.005V526.218C1745.3 507.084 1755.41 494.662 1772.46 494.662C1789.5 494.662 1799.35 507.084 1799.35 526.218V528.005C1799.35 554.156 1791.59 577.693 1785.14 586.758H1785.1Z" fill="white"/>
<path d="M1037.81 792.047C1032.1 792.047 1027.39 793.834 1023.77 797.408C1020.15 800.808 1018.32 805.428 1018.32 811.312C1018.32 817.196 1020.15 821.554 1023.77 824.954C1027.39 828.528 1032.05 830.315 1037.81 830.315C1043.56 830.315 1048.14 828.615 1051.54 825.259C1055.16 821.859 1056.99 817.239 1056.99 811.355C1056.99 805.471 1055.16 800.851 1051.54 797.451C1048.1 793.877 1043.52 792.09 1037.81 792.09V792.047Z" fill="white"/>
<path d="M1105.98 676.284H1132.88L1121.72 657.062H604.769L632.842 702.522C634.368 702.174 636.373 701.869 638.858 701.694C641.342 701.346 644.089 701.171 647.184 701.171C651.761 701.171 656.163 701.869 660.348 703.307C664.751 704.745 668.543 707.142 671.813 710.542C675.257 713.724 678.003 718.213 680.139 723.923C681.403 726.93 682.362 730.417 683.016 734.383C680.749 739.875 678.526 744.8 676.39 749.072C674.123 753.91 671.639 757.615 668.936 760.317C666.277 762.976 663.225 764.327 659.782 764.327C657.297 764.327 654.899 763.717 652.633 762.453C650.54 761.232 648.317 759.14 646.05 756.307C643.958 753.43 641.56 749.377 638.901 744.016L624.865 750.728C628.483 759.968 632.493 768.206 636.896 775.31C641.299 782.241 646.05 787.776 651.194 791.873C656.556 795.796 662.441 797.757 668.936 797.757C674.254 797.757 678.744 796.406 682.406 793.747C686.024 790.871 689.38 787.079 692.432 782.241C695.657 777.272 698.796 771.388 701.891 764.588C704.768 758.356 707.166 753.474 709.04 749.856C711.132 746.108 713.138 743.449 715.056 741.837C716.974 740.05 718.979 739.134 721.071 739.134C723.338 739.134 725.474 740.137 727.349 742.098C729.441 743.885 731.359 746.762 733.059 750.685C734.018 752.864 734.977 755.392 735.936 758.312V814.538C730.967 813.535 725.91 812.968 720.766 812.968C708.909 812.968 699.755 815.845 693.26 821.555C686.765 827.439 683.539 835.11 683.539 844.524C683.539 853.939 686.678 862.351 692.998 868.584C699.276 874.817 707.602 877.955 717.933 877.955C726.913 877.955 734.541 875.819 740.818 871.548C746.921 867.451 751.585 861.915 754.855 854.985C756.468 851.542 757.688 847.968 758.473 844.263C760.042 845.222 761.612 846.181 763.137 847.227C776.128 856.293 787.505 868.802 797.226 884.667L809.257 877.955C805.421 869.761 800.495 861.741 794.349 853.895C788.42 846.224 781.576 839.251 773.73 833.061C769.589 829.88 765.317 826.959 760.827 824.431L759.083 806.91C755.465 770.385 755.378 733.643 758.865 697.118L760.827 676.371H866.536V726.669C866.144 725.754 865.795 724.838 865.403 723.967C862.352 717.036 858.428 710.978 853.633 705.791C849.056 700.43 843.912 696.333 838.202 693.5C832.491 690.493 826.258 688.967 819.588 688.967C809.649 688.967 801.847 691.757 796.092 697.249C790.382 702.61 787.505 710.063 787.505 719.739C787.505 727.933 789.99 734.689 794.959 740.05C800.103 745.411 806.99 748.069 815.578 748.069C824.165 748.069 830.007 745.672 834.191 740.878C838.376 736.04 840.469 730.461 840.469 724.054C840.469 722.746 840.338 721.482 840.163 720.262C842.953 721.264 845.525 722.92 847.923 725.405C851.933 729.328 855.464 735.124 858.516 742.796C861.741 750.292 864.531 759.402 866.798 770.08L891.122 785.858C898.751 777.664 906.292 769.906 913.746 762.583C921.375 755.087 929.003 748.157 936.632 741.749C939.378 739.396 942.124 737.086 944.914 734.863C943.388 740.747 942.255 746.762 941.514 752.995C940.773 759.053 940.337 765.591 940.337 772.521C940.337 785.335 942.037 797.365 945.481 808.61C948.924 819.637 952.935 829.923 957.512 839.338L971.548 834.282C969.456 827.875 967.712 821.991 966.405 816.63C965.228 811.094 964.399 805.777 963.833 800.59C963.44 795.447 963.266 789.999 963.266 784.289C963.266 772.521 964.792 760.927 967.843 749.551C971.069 737.958 975.559 727.192 981.313 717.167L949.796 691.757C943.868 695.331 943.258 699.253 937.155 703.525C931.226 707.796 927.216 712.286 921.462 716.906C915.751 721.351 912.22 725.971 907.251 730.809C904.853 733.12 893.563 746.239 891.384 748.549V676.545H1081.05V686.308C1070.94 689.49 1060.82 700.474 1050.71 704.876C1039.81 709.54 1031.05 714.596 1020.72 720.087C1010.43 725.623 999.055 724.315 990.293 730.548L1008.34 769.296C1019.02 771.257 1029.13 774.352 1038.68 778.667C1048.23 782.764 1056.9 788.212 1064.75 794.968C1072.77 801.593 1079.74 809.743 1085.63 819.55L1103.37 829.967L1105.94 829.444L1103.5 776.487C1102.72 759.62 1102.76 742.752 1103.54 725.928L1105.9 676.502L1105.98 676.284ZM735.108 843.086C733.015 847.924 730.356 851.28 727.087 853.242C723.861 855.203 720.417 856.205 716.799 856.205C712.963 856.205 709.912 855.203 707.645 853.242C705.378 851.455 704.201 848.796 704.201 845.222C704.201 841.648 705.422 838.815 707.907 836.679C710.391 834.718 714.184 833.759 719.371 833.759C725.518 833.759 731.403 834.413 737.113 835.677C736.634 838.466 735.98 840.951 735.151 843.13L735.108 843.086ZM731.664 720.915C728.438 714.857 724.995 710.499 721.376 707.84C717.933 704.963 714.14 703.568 709.912 703.568C706.686 703.568 703.591 704.614 700.758 706.75C697.924 708.712 695.091 711.806 692.214 716.034C691.56 712.416 690.819 709.017 689.86 705.922C687.942 698.992 684.89 693.108 680.706 688.27C676.521 683.301 670.897 679.378 663.792 676.502C663.574 676.415 663.356 676.327 663.138 676.24H735.936V700.299C735.936 705.138 736.023 710.193 736.241 715.511C736.634 720.654 736.982 725.841 737.375 731.027C737.462 731.725 737.505 732.466 737.593 733.163C735.544 728.456 733.582 724.315 731.62 720.828L731.664 720.915ZM1081.09 787.34C1078 781.718 1074.47 776.705 1070.5 772.259C1064.22 765.329 1057.34 759.62 1049.88 755.174C1044.39 751.774 1038.9 748.985 1033.4 746.849C1037.68 743.842 1042.21 741.008 1047.01 738.35C1053.5 734.776 1060.08 731.55 1066.75 728.717C1071.72 726.582 1076.52 724.664 1081.05 722.92V787.34H1081.09Z" fill="white"/>
<path d="M1486.19 656.975L1486.23 657.018H1486.28L1486.19 656.975Z" fill="white"/>
<path d="M1324.81 657.019L1322.55 642.287L1304.81 632.654L1302.8 633.439V653.227C1302.8 657.324 1302.98 662.205 1303.37 667.959C1303.5 669.136 1303.63 670.312 1303.72 671.446C1303.15 670.182 1302.54 669.005 1301.93 667.959C1299.84 664.036 1297.26 661.29 1294.17 659.677C1291.29 657.89 1287.89 657.019 1283.88 657.019H1264.53L1262.26 642.287L1244.52 632.654L1242.51 633.439V665.518C1242.51 670.879 1242.6 676.109 1242.82 681.296C1243.04 686.439 1243.3 691.364 1243.69 695.984C1243.78 697.074 1243.87 698.076 1243.95 699.122C1240.16 690.798 1235.84 683.65 1231.05 677.765C1224.55 669.571 1217.49 663.513 1209.86 659.59C1202.24 655.668 1194.13 653.706 1185.54 653.706C1173.33 653.706 1161.56 658.065 1150.32 666.782C1139.25 675.543 1130.18 688.967 1123.12 707.142L1152.32 729.327C1155.94 725.23 1160.26 721.831 1165.23 719.172C1170.2 716.513 1175.03 715.162 1179.83 715.162C1184.62 715.162 1187.76 716.208 1189.86 718.344C1192.12 720.479 1193.3 723.4 1193.3 727.148C1193.3 733.032 1190.07 738.35 1183.58 743.188C1177.08 747.851 1167.71 752.079 1155.51 756.002L1175.82 787.819C1187.24 782.676 1196.22 777.097 1202.71 771.213C1209.21 765.155 1213.79 758.835 1216.45 752.253C1219.32 745.454 1220.76 738.524 1220.76 731.419C1220.76 721.438 1217.71 713.157 1211.61 706.576C1205.68 699.776 1197.4 696.42 1186.67 696.42C1180.74 696.42 1175.43 697.335 1170.63 699.079C1169.41 699.515 1168.23 699.994 1167.1 700.517C1168.06 698.687 1169.15 696.943 1170.37 695.331C1173.6 690.885 1177.34 687.311 1181.53 684.608C1185.93 681.906 1190.6 680.599 1195.57 680.599C1201.1 680.599 1206.64 682.386 1212.17 685.96C1217.71 689.359 1223.25 695.025 1228.78 703.045C1233.45 709.583 1237.94 718.082 1242.25 728.456V822.819L1264.88 832.451L1267.14 831.928L1263.22 785.161C1261.04 759.184 1261.3 732.989 1263.96 707.055L1267.14 676.066H1288.76C1292.38 676.066 1295.35 677.94 1297.61 681.688C1299.88 685.437 1301.45 690.057 1302.19 695.592V822.862L1325.08 832.495L1327.08 831.972L1322.81 777.184C1320.85 752.035 1321.28 726.712 1324.16 701.65L1327.08 676.109H1443.6V727.192C1443.6 732.16 1443.69 737.521 1443.91 743.231C1444.21 747.546 1444.47 751.687 1444.78 755.827C1442.42 748.636 1439.29 741.924 1435.36 735.734C1431.92 729.85 1427.82 724.707 1423.07 720.218C1418.32 715.772 1412.83 712.285 1406.77 709.801C1400.66 707.317 1393.99 706.053 1386.71 706.053C1376.38 706.053 1367.84 709.06 1360.95 715.118C1354.06 721.177 1350.66 729.763 1350.66 740.79C1350.66 750.423 1353.63 758.443 1359.51 764.85C1365.62 771.257 1373.64 774.482 1383.58 774.482C1390.07 774.482 1395.43 773.218 1399.62 770.734C1404.02 768.075 1407.25 764.675 1409.34 760.578C1411.65 756.307 1412.78 751.687 1412.78 746.674C1412.78 746.151 1412.74 745.672 1412.7 745.149C1415.62 745.89 1418.32 747.285 1420.8 749.377C1424.81 752.384 1428.34 756.612 1431.4 761.973C1434.45 767.116 1437.11 773 1439.42 779.625C1441.68 786.032 1443.6 792.614 1445.13 799.413C1446.87 806.038 1448.09 812.227 1448.83 818.155L1466.01 830.185L1468.27 829.662L1464.96 786.119C1462.39 752.559 1463.13 718.867 1467.18 685.437L1468.32 676.153H1497.22L1486.37 656.932H1324.95L1324.81 657.019Z" fill="white"/>
</g>
<defs>
<clipPath id="clip0_239_577">
<rect width="1656" height="688" fill="white" transform="translate(187.031 277.039)"/>
</clipPath>
</defs>
</svg>
