<svg width="2032" height="1243" viewBox="0 0 2032 1243" fill="none" xmlns="http://www.w3.org/2000/svg">
<path d="M346.329 594.338C375.099 594.338 390.814 610.045 390.814 638.802V730.688C390.814 759.445 375.099 775.152 346.329 775.152H260.623C231.852 775.152 216.137 759.445 216.137 730.688V546.915C216.137 542.464 217.326 539.202 220.59 535.94L255.586 500.961C261.227 495.323 266.566 497.397 266.566 505.412V708.759H340.406V660.731H286.129C280.488 660.731 277.224 657.469 277.224 651.831V632.257C277.224 607.951 290.864 594.318 314.879 594.318H346.309L346.329 594.338Z" fill="white"/>
<path d="M598.11 708.758C603.751 708.758 607.015 712.021 607.015 717.659V739.307C607.015 763.613 593.375 777.246 569.36 777.246C545.344 777.246 531.704 763.613 531.704 739.307V683.285L474.768 696.334V708.778H512.726C518.367 708.778 521.631 712.041 521.631 717.679V739.327C521.631 763.633 507.991 777.266 483.975 777.266H466.467C437.697 777.266 421.982 761.559 421.982 732.802V719.753C421.982 703.16 432.962 690.997 452.223 686.547L531.704 668.464V660.751H436.508C430.867 660.751 427.603 657.489 427.603 651.85V603.239C427.603 597.6 430.867 594.338 436.508 594.338H537.648C566.418 594.338 582.133 610.045 582.133 638.801V708.758H598.15H598.11Z" fill="white"/>
<path d="M779.315 708.76C784.957 708.76 788.22 712.022 788.22 717.66V737.234C788.22 761.54 774.581 775.173 750.565 775.173H666.329C637.559 775.173 624.806 762.426 624.806 739.61V717.681C624.806 691.885 635.786 684.474 653.576 682.118L732.755 671.445V660.772H637.559C631.918 660.772 628.654 657.51 628.654 651.872V603.26C628.654 597.622 631.918 594.359 637.559 594.359H741.66C770.43 594.359 783.184 605.918 783.184 628.754V652.758C783.184 678.554 771.015 684.776 755.904 686.85L675.234 697.825V708.8H779.335L779.315 708.76Z" fill="white"/>
<path d="M1064.02 708.758C1069.66 708.758 1072.92 712.021 1072.92 717.659V739.307C1072.92 763.613 1059.28 777.245 1035.27 777.245C1011.25 777.245 997.61 763.613 997.61 739.307V660.751H956.691V766.271C956.691 771.909 953.427 775.171 947.786 775.171H915.167C909.526 775.171 906.262 771.909 906.262 766.271V660.751H865.343V766.271C865.343 771.909 862.079 775.171 856.438 775.171H823.819C818.178 775.171 814.914 771.909 814.914 766.271V638.801C814.914 610.045 830.629 594.338 859.4 594.338H892.018C913.072 594.338 926.712 605.011 930.278 623.98H932.655C936.221 605.011 949.861 594.338 970.915 594.338H1003.53C1032.3 594.338 1048.02 610.045 1048.02 638.801V708.758H1064.04H1064.02Z" fill="white"/>
<path d="M1270.73 708.758C1276.37 708.758 1279.63 712.021 1279.63 717.659V739.307C1279.63 763.613 1265.69 777.245 1240.18 777.245C1219.71 777.245 1207.87 769.251 1195.7 749.98L1169.89 709.081H1144.08V765.989C1144.08 771.023 1139.93 775.171 1134.89 775.171H1102.86C1097.82 775.171 1093.67 771.023 1093.67 765.989V546.934C1093.67 542.484 1094.86 539.222 1098.12 535.96L1133.12 500.981C1138.76 495.342 1144.1 497.417 1144.1 505.431V644.46H1173.45L1206.07 599.694C1208.73 595.848 1212.3 594.358 1217.05 594.358H1257.09C1264.5 594.358 1266.88 599.392 1262.73 605.333L1221.51 661.959C1216.77 668.484 1209.34 673.518 1203.72 674.122V676.498C1207.28 676.8 1214.7 680.345 1218.24 686.285L1231.58 708.819H1270.73V708.758Z" fill="white"/>
<path d="M1471.52 708.758C1477.16 708.758 1480.42 712.021 1480.42 717.659V739.307C1480.42 763.613 1466.78 777.246 1442.77 777.246C1418.75 777.246 1405.11 763.613 1405.11 739.307V683.285L1348.17 696.334V708.778H1386.13C1391.77 708.778 1395.04 712.041 1395.04 717.679V739.327C1395.04 763.633 1381.4 777.266 1357.38 777.266H1339.87C1311.1 777.266 1295.39 761.559 1295.39 732.802V719.753C1295.39 703.16 1306.37 690.997 1325.63 686.547L1405.11 668.464V660.751H1309.91C1304.27 660.751 1301.01 657.489 1301.01 651.85V603.239C1301.01 597.6 1304.27 594.338 1309.91 594.338H1411.05C1439.82 594.338 1455.54 610.045 1455.54 638.801V708.758H1471.56H1471.52Z" fill="white"/>
<path d="M1672.87 708.758C1678.51 708.758 1681.77 712.021 1681.77 717.659V739.307C1681.77 763.613 1668.13 777.246 1644.12 777.246C1620.1 777.246 1606.46 763.613 1606.46 739.307V683.285L1549.53 696.334V708.778H1587.48C1593.12 708.778 1596.39 712.041 1596.39 717.679V739.327C1596.39 763.633 1582.75 777.266 1558.73 777.266H1541.22C1512.45 777.266 1496.74 761.559 1496.74 732.802V719.753C1496.74 703.16 1507.72 690.997 1526.98 686.547L1606.46 668.464V660.751H1511.27C1505.62 660.751 1502.36 657.489 1502.36 651.85V603.239C1502.36 597.6 1505.62 594.338 1511.27 594.338H1612.4C1641.18 594.338 1656.89 610.045 1656.89 638.801V708.758H1672.91H1672.87Z" fill="white"/>
<path d="M1711.43 775.152C1705.79 775.152 1702.52 771.89 1702.52 766.251V638.782C1702.52 610.026 1718.24 594.318 1747.01 594.318H1806.02C1811.66 594.318 1814.92 597.581 1814.92 603.219V651.831C1814.92 657.469 1811.66 660.731 1806.02 660.731H1752.93V766.251C1752.93 771.89 1749.67 775.152 1744.03 775.152H1711.41H1711.43Z" fill="white"/>
<path d="M1432.4 510.828L1381.89 465.712C1381.34 465.215 1380.49 465.263 1379.99 465.818L1334.85 516.296C1334.35 516.852 1334.4 517.705 1334.96 518.201L1385.46 563.318C1386.02 563.815 1386.87 563.767 1387.37 563.211L1432.5 512.733C1433 512.178 1432.95 511.325 1432.4 510.828Z" fill="white"/>
<path d="M1619.21 522.174L1568.71 477.057C1568.15 476.561 1567.3 476.609 1566.8 477.164L1521.66 527.642C1521.16 528.198 1521.21 529.051 1521.77 529.547L1572.27 574.664C1572.83 575.16 1573.68 575.113 1574.18 574.557L1619.32 524.079C1619.81 523.523 1619.76 522.67 1619.21 522.174Z" fill="white"/>
<path d="M913.893 510.83L863.391 465.714C862.835 465.217 861.981 465.265 861.485 465.82L816.346 516.298C815.849 516.854 815.897 517.707 816.453 518.203L866.955 563.32C867.511 563.817 868.365 563.769 868.861 563.213L914 512.735C914.497 512.18 914.449 511.327 913.893 510.83Z" fill="white"/>
<path d="M1046.35 510.83L995.847 465.714C995.291 465.217 994.438 465.265 993.941 465.82L948.802 516.298C948.305 516.854 948.353 517.707 948.909 518.203L999.412 563.32C999.968 563.817 1000.82 563.769 1001.32 563.213L1046.46 512.735C1046.95 512.18 1046.91 511.327 1046.35 510.83Z" fill="white"/>
</svg>
