<svg width="2031" height="1243" viewBox="0 0 2031 1243" fill="none" xmlns="http://www.w3.org/2000/svg">
<g style="mix-blend-mode:multiply">
<path d="M667.376 709.081H705.427C699.508 699.787 694.643 691.617 690.903 685.118C881.266 632.762 1027.19 640.822 1124.89 709.081H1176.09C1166.68 700.295 1156.48 691.835 1145.23 683.811C1065.17 627.025 956.751 607.492 821.794 625.137L815.149 605.567C824.517 602.88 831.198 594.094 830.726 583.928C830.181 572.055 820.124 562.869 808.251 563.414C796.378 563.958 787.192 574.016 787.737 585.888C788.209 596.055 795.652 604.224 805.201 606.039L799.864 628.332C788.463 630.111 776.844 632.181 765.081 634.468L756.33 613.628C765.48 610.287 771.507 601.029 770.345 590.935C768.966 579.135 758.291 570.675 746.491 572.055C734.691 573.435 726.231 584.109 727.611 595.909C728.773 606.003 736.797 613.628 746.455 614.753L742.388 639.116C732.549 641.258 722.528 643.618 712.434 646.123L697.838 625.137C706.08 619.982 710.038 609.67 706.806 600.048C702.994 588.793 690.794 582.766 679.539 586.578C668.284 590.39 662.256 602.59 666.069 613.845C669.336 623.467 678.74 629.24 688.434 628.332L689.524 652.041C680.592 654.438 671.624 656.907 662.547 659.557L644.139 664.931L652.562 682.177C653.034 683.121 657.972 693.179 667.376 709.081Z" fill="white"/>
<path d="M1273.3 913.387H1240.3C1241.39 918.978 1242.19 923.771 1242.73 927.62C1146.05 973.876 1052.33 982.336 963.997 952.672C934.624 942.833 907.429 929.217 882.413 913.387H826.244C862.625 941.598 905.178 966.977 953.504 983.243C979.21 991.885 1005.28 997.621 1031.71 1000.38C1107.92 1008.44 1186.86 992.103 1267.31 951.546L1276.75 946.79L1276.21 936.261C1276.14 934.917 1275.59 926.494 1273.38 913.387H1273.3Z" fill="white"/>
<path d="M960.86 536.245C995.861 564.202 1036.16 582.138 1075.16 599.457C1102.97 611.838 1131.73 624.619 1157.4 640.703C1189.27 660.673 1216.47 683.91 1238.07 709.071H1279.24C1253.47 673.163 1217.81 640.413 1174.57 613.327C1146.94 596.008 1117.13 582.756 1088.3 569.939C1049.45 552.656 1012.78 536.354 981.047 510.975C950.621 486.685 928.618 453.354 920.631 419.515C914.567 393.954 913.587 355.649 943.069 318.506C961.114 295.777 987.256 280.673 1018.7 274.791C1048.73 269.163 1080.64 272.685 1108.56 284.703C1123.3 291.057 1135.5 300.352 1143.45 311.244C1143.49 311.317 1143.53 311.353 1143.6 311.426C1144.72 312.951 1145.74 314.548 1146.68 316.146L1146.9 316.037C1148.17 317.998 1149.37 320.031 1150.46 322.1C1156.52 334.009 1158.99 347.371 1157.58 360.732C1155.11 384.223 1138.99 403.975 1115.53 412.29C1092 420.64 1066.92 415.376 1050.11 398.565C1043.02 391.485 1037.14 380.556 1039.94 372.06C1041.43 367.558 1045.75 363.092 1051.52 360.188C1058.71 356.52 1067.57 355.141 1074.5 354.378L1070.87 322.246C1061.25 323.335 1048.69 325.368 1036.85 331.359C1023.31 338.258 1013.51 349.114 1009.26 361.894C1001.63 384.913 1013.54 407.715 1027.27 421.403C1042.59 436.689 1062.23 445.766 1083.07 447.98C1097.23 449.469 1111.97 447.799 1126.32 442.716C1161.61 430.226 1185.93 400.09 1189.71 364.109C1191.78 344.502 1188.15 324.896 1179.25 307.396C1176.75 302.494 1173.73 297.883 1170.47 293.453C1169.85 292.582 1169.2 291.783 1168.58 290.912C1167.89 290.04 1167.31 289.096 1166.58 288.225H1166.51C1155.29 274.428 1139.97 263.027 1121.38 255.003C1048.33 223.56 962.712 241.823 917.799 298.428C888.498 335.353 878.332 380.992 889.224 426.958C898.991 468.277 924.443 507.09 960.933 536.209L960.86 536.245Z" fill="white"/>
<path d="M1304.91 913.387C1304.91 926.458 1304.12 939.528 1302.26 952.49L1334.25 957.065C1336.32 942.578 1337.26 927.983 1337.26 913.387H1304.91Z" fill="white"/>
<path d="M468.404 823.949H452.719V895.258H468.404V823.949Z" fill="white"/>
<path d="M541.369 834.153C537.992 830.957 533.998 828.452 529.351 826.673C524.703 824.894 519.584 823.986 514.029 823.986H486.217V895.295H514.029C519.584 895.295 524.703 894.388 529.351 892.536C533.998 890.684 537.992 888.179 541.369 884.984C544.745 881.789 547.323 878.013 549.175 873.692C550.99 869.335 551.934 864.651 551.934 859.641V859.423C551.934 854.412 551.027 849.729 549.175 845.408C547.323 841.087 544.745 837.348 541.369 834.153ZM535.487 859.786C535.487 862.981 534.942 865.849 533.926 868.427C532.873 871.005 531.42 873.256 529.532 875.144C527.681 877.032 525.393 878.521 522.743 879.538C520.092 880.554 517.188 881.063 513.992 881.063H501.866V838.074H513.992C517.188 838.074 520.092 838.618 522.743 839.635C525.393 840.688 527.644 842.177 529.532 844.065C531.384 845.953 532.873 848.24 533.926 850.891C534.978 853.541 535.487 856.409 535.487 859.532V859.75V859.786Z" fill="white"/>
<path d="M1422.6 881.28H581.345V866.321H1422.6V852.378H581.345V837.891H1422.6V823.949H565.842V895.258H1422.6V881.28Z" fill="white"/>
<path d="M1468.35 823.443L1437.78 895.261H1453.75L1460.29 879.285H1490.42L1496.96 895.261H1513.37L1482.8 823.443H1468.35ZM1465.91 865.415L1475.39 842.287L1484.87 865.415H1465.91Z" fill="white"/>
<path d="M1570.07 860.042C1568.14 858.372 1565.74 856.956 1562.91 855.758C1560.08 854.56 1556.89 853.507 1553.25 852.563C1550.2 851.764 1547.66 851.038 1545.63 850.421C1543.63 849.803 1542.04 849.15 1540.87 848.496C1539.71 847.807 1538.91 847.044 1538.48 846.209C1538.04 845.374 1537.82 844.357 1537.82 843.195V842.978C1537.82 841.198 1538.59 839.746 1540.11 838.548C1541.64 837.35 1543.92 836.769 1546.97 836.769C1550.02 836.769 1553.07 837.386 1556.12 838.657C1559.17 839.928 1562.3 841.634 1565.49 843.813L1573.62 832.013C1569.96 829.108 1565.93 826.857 1561.57 825.296C1557.18 823.734 1552.38 822.936 1547.15 822.936C1543.49 822.936 1540.15 823.444 1537.1 824.46C1534.05 825.477 1531.43 826.929 1529.25 828.854C1527.08 830.742 1525.37 833.029 1524.14 835.643C1522.94 838.258 1522.32 841.198 1522.32 844.466V844.684C1522.32 848.206 1522.86 851.183 1523.99 853.543C1525.12 855.903 1526.71 857.9 1528.75 859.498C1530.78 861.095 1533.28 862.439 1536.19 863.528C1539.13 864.617 1542.4 865.597 1545.99 866.469C1548.97 867.231 1551.44 867.921 1553.29 868.611C1555.18 869.301 1556.63 869.954 1557.68 870.644C1558.74 871.334 1559.46 872.06 1559.83 872.823C1560.19 873.585 1560.37 874.493 1560.37 875.51V875.727C1560.37 877.833 1559.46 879.467 1557.68 880.665C1555.87 881.863 1553.36 882.444 1550.1 882.444C1546.03 882.444 1542.25 881.682 1538.84 880.084C1535.43 878.523 1532.05 876.417 1528.82 873.767L1519.56 884.877C1523.84 888.762 1528.6 891.63 1533.83 893.482C1539.06 895.334 1544.4 896.278 1549.81 896.278C1553.69 896.278 1557.21 895.769 1560.37 894.789C1563.57 893.809 1566.29 892.393 1568.58 890.505C1570.86 888.653 1572.64 886.329 1573.95 883.57C1575.22 880.811 1575.87 877.688 1575.87 874.166V873.948C1575.87 870.826 1575.37 868.139 1574.39 865.888C1573.41 863.637 1571.95 861.713 1569.99 860.042H1570.07Z" fill="white"/>
<path d="M505.214 791.832C507.538 790.198 509.353 788.165 510.587 785.732C511.858 783.3 512.475 780.431 512.475 777.164V776.946C512.475 772.189 511.277 768.486 508.917 765.799C506.557 763.112 503.29 761.006 499.187 759.445C500.458 758.755 501.656 757.957 502.781 757.013C503.907 756.069 504.887 754.943 505.722 753.709C506.557 752.438 507.247 751.058 507.755 749.497C508.264 747.936 508.518 746.12 508.518 744.087V743.869C508.518 738.241 506.448 733.739 502.273 730.435C498.098 727.095 492.361 725.461 485.027 725.461H451.986V796.77H485.862C489.856 796.77 493.523 796.37 496.79 795.535C500.094 794.737 502.89 793.502 505.214 791.868V791.832ZM467.272 739.149H482.739C486.08 739.149 488.621 739.766 490.364 741.037C492.143 742.308 493.014 744.123 493.014 746.483V746.701C493.014 749.352 491.998 751.276 489.965 752.438C487.931 753.636 485.172 754.217 481.723 754.217H467.272V739.149ZM494.067 781.085C492.107 782.356 489.384 782.973 485.934 782.973H467.308V767.288H485.426C489.493 767.288 492.47 767.978 494.285 769.394C496.101 770.773 497.045 772.661 497.045 775.058V775.276C497.045 777.926 496.064 779.887 494.104 781.121L494.067 781.085Z" fill="white"/>
<path d="M541.195 768.076H570.132V796.687H585.817V725.414H570.132V753.625H541.195V725.414H525.51V796.687H541.195V768.076Z" fill="white"/>
<path d="M619.337 780.701H649.473L656.008 796.677H672.419L641.848 724.859H627.398L596.826 796.677H612.802L619.337 780.701ZM634.405 743.74L643.881 766.868H624.929L634.405 743.74Z" fill="white"/>
<path d="M690.664 787.532C693.968 790.8 697.889 793.341 702.464 795.157C707.039 797.008 712.122 797.916 717.677 797.916C724.213 797.916 729.986 796.827 735.032 794.612C740.079 792.397 744.436 789.747 748.103 786.624V755.654H717.133V769.197H732.927V779.472C728.933 782.34 723.995 783.792 718.149 783.792C714.954 783.792 712.05 783.248 709.435 782.122C706.821 780.997 704.534 779.399 702.609 777.366C700.685 775.333 699.196 772.936 698.144 770.177C697.091 767.417 696.582 764.404 696.582 761.136V760.918C696.582 757.868 697.091 754.964 698.144 752.277C699.196 749.59 700.649 747.23 702.537 745.233C704.389 743.236 706.567 741.639 709.072 740.441C711.541 739.242 714.228 738.662 717.06 738.662C719.093 738.662 720.981 738.843 722.651 739.17C724.322 739.497 725.919 739.969 727.371 740.586C728.824 741.203 730.24 741.929 731.583 742.837C732.927 743.708 734.306 744.725 735.65 745.887L745.526 733.978C743.674 732.417 741.786 731.037 739.825 729.802C737.865 728.568 735.759 727.551 733.508 726.752C731.256 725.954 728.824 725.3 726.21 724.864C723.595 724.429 720.691 724.211 717.496 724.211C712.05 724.211 707.075 725.191 702.537 727.116C697.998 729.04 694.041 731.69 690.737 735.067C687.396 738.444 684.819 742.329 682.93 746.795C681.079 751.224 680.135 756.017 680.135 761.1V761.318C680.135 766.619 681.042 771.52 682.894 775.986C684.746 780.452 687.287 784.337 690.591 787.605L690.664 787.532Z" fill="white"/>
<path d="M783.302 796.687H798.987V768.294L826.4 725.414H808.572L791.253 754.025L774.261 725.414H755.926L783.302 768.584V796.687Z" fill="white"/>
<path d="M852.573 780.701H882.709L889.245 796.677H905.656L875.084 724.859H860.634L830.062 796.677H846.038L852.573 780.701ZM867.641 743.74L877.118 766.868H858.165L867.641 743.74Z" fill="white"/>
<path d="M932.109 750.467L951.969 780.602H952.369L972.447 750.14V796.687H987.914V725.414H970.995L952.26 755.55L933.525 725.414H916.605V796.687H932.109V750.467Z" fill="white"/>
<path d="M1051.98 780.701H1082.12L1088.65 796.677H1105.06L1074.49 724.859H1060.04L1029.47 796.677H1045.45L1051.98 780.701ZM1067.09 743.74L1076.56 766.868H1057.61L1067.09 743.74Z" fill="white"/>
<path d="M1131.75 773.886H1144.06L1159.34 796.688H1177.68L1160.25 771.236C1164.79 769.529 1168.49 766.879 1171.29 763.248C1174.12 759.617 1175.5 754.897 1175.5 749.124V748.907C1175.5 741.5 1173.14 735.727 1168.42 731.588C1163.7 727.448 1157.09 725.379 1148.59 725.379H1115.99V796.688H1131.68V773.886H1131.75ZM1131.75 739.575H1147.32C1151.21 739.575 1154.22 740.41 1156.4 742.117C1158.58 743.823 1159.67 746.365 1159.67 749.742V749.959C1159.67 753.009 1158.62 755.478 1156.55 757.294C1154.48 759.109 1151.5 760.053 1147.65 760.053H1131.75V739.575Z" fill="white"/>
<path d="M1206.28 796.687H1221.96V739.865H1243.68V725.414H1184.6V739.865H1206.28V796.687Z" fill="white"/>
<path d="M1289.04 782.083C1287.22 783.281 1284.72 783.862 1281.45 783.862C1277.38 783.862 1273.61 783.1 1270.2 781.502C1266.78 779.941 1263.41 777.835 1260.17 775.185L1250.92 786.295C1255.2 790.18 1259.96 793.048 1265.19 794.9C1270.41 796.752 1275.75 797.696 1281.16 797.696C1285.05 797.696 1288.57 797.187 1291.73 796.207C1294.92 795.227 1297.64 793.811 1299.93 791.923C1302.22 790.071 1304 787.747 1305.31 784.988C1306.58 782.228 1307.23 779.106 1307.23 775.584V775.366C1307.23 772.244 1306.72 769.557 1305.74 767.306C1304.76 765.055 1303.31 763.13 1301.35 761.46C1299.42 759.79 1297.03 758.374 1294.2 757.176C1291.36 755.978 1288.17 754.925 1284.54 753.981C1281.49 753.182 1278.95 752.456 1276.91 751.839C1274.92 751.221 1273.32 750.568 1272.16 749.914C1270.99 749.225 1270.2 748.462 1269.76 747.627C1269.32 746.792 1269.11 745.775 1269.11 744.613V744.396C1269.11 742.616 1269.87 741.164 1271.39 739.966C1272.92 738.768 1275.21 738.187 1278.26 738.187C1281.31 738.187 1284.36 738.804 1287.41 740.075C1290.46 741.346 1293.58 743.052 1296.77 745.231L1304.91 733.431C1301.24 730.526 1297.21 728.275 1292.85 726.714C1288.46 725.152 1283.67 724.354 1278.44 724.354C1274.77 724.354 1271.43 724.862 1268.38 725.878C1265.33 726.895 1262.72 728.347 1260.54 730.272C1258.36 732.16 1256.65 734.447 1255.42 737.061C1254.22 739.676 1253.6 742.616 1253.6 745.884V746.102C1253.6 749.624 1254.15 752.601 1255.27 754.961C1256.4 757.321 1258 759.318 1260.03 760.916C1262.06 762.513 1264.57 763.857 1267.47 764.946C1270.41 766.035 1273.68 767.015 1277.28 767.887C1280.25 768.649 1282.72 769.339 1284.57 770.029C1286.46 770.719 1287.91 771.372 1288.97 772.062C1290.02 772.752 1290.75 773.478 1291.11 774.241C1291.47 775.003 1291.65 775.911 1291.65 776.928V777.145C1291.65 779.251 1290.75 780.885 1288.97 782.083H1289.04Z" fill="white"/>
<path d="M1367.83 780.701H1397.97L1404.5 796.677H1420.91L1390.34 724.859H1375.89L1345.32 796.677H1361.29L1367.83 780.701ZM1382.9 743.74L1392.37 766.868H1373.42L1382.9 743.74Z" fill="white"/>
<path d="M1447.37 751.374L1481.89 796.687H1495.26V725.414H1479.75V769.31L1446.35 725.414H1431.9V796.687H1447.37V751.374Z" fill="white"/>
<path d="M1575.31 746.836C1573.46 742.515 1570.88 738.775 1567.5 735.58C1564.12 732.385 1560.13 729.88 1555.48 728.101C1550.84 726.322 1545.72 725.414 1540.16 725.414H1512.35V796.723H1540.16C1545.72 796.723 1550.84 795.815 1555.48 793.964C1560.13 792.112 1564.12 789.607 1567.5 786.412C1570.88 783.216 1573.46 779.44 1575.31 775.12C1577.12 770.763 1578.07 766.079 1578.07 761.069V760.851C1578.07 755.84 1577.16 751.156 1575.31 746.836ZM1561.69 761.25C1561.69 764.445 1561.15 767.314 1560.13 769.891C1559.08 772.469 1557.63 774.72 1555.74 776.608C1553.89 778.496 1551.6 779.985 1548.95 781.002C1546.3 782.018 1543.39 782.527 1540.2 782.527H1528.07V739.538H1540.2C1543.39 739.538 1546.3 740.082 1548.95 741.099C1551.6 742.152 1553.85 743.641 1555.74 745.529C1557.59 747.417 1559.08 749.704 1560.13 752.355C1561.18 755.005 1561.69 757.873 1561.69 760.996V761.214V761.25Z" fill="white"/>
</g>
</svg>
