<svg width="2031" height="1243" viewBox="0 0 2031 1243" fill="none" xmlns="http://www.w3.org/2000/svg">
<path d="M1614.33 780.789H610.975V793.979H1614.33V780.789Z" fill="white"/>
<path d="M550.515 618.708V586.668H567.525V760.998C567.525 765.288 559.985 780.348 557.005 784.428C526.425 826.268 444.195 824.718 418.335 777.928L430.535 767.628C451.335 803.428 517.915 809.648 540.765 773.888C551.735 756.718 543.815 735.178 548.625 716.728L528.455 735.218C484.715 764.758 428.665 738.388 416.915 688.828C395.915 600.308 493.325 542.628 550.525 618.698L550.515 618.708ZM481.995 602.208C412.615 613.188 421.655 743.678 505.655 729.458C518.505 727.278 542.115 710.578 545.865 697.948C547.895 691.118 547.855 648.588 546.605 640.508C545.105 630.808 530.955 616.658 522.775 611.508C510.425 603.748 496.685 599.878 481.995 602.208Z" fill="white"/>
<path d="M1453.73 522.598V723.308C1453.73 725.398 1460.82 727.438 1461.27 729.268C1458.57 741.018 1465.29 752.038 1446.06 746.018C1432.86 741.878 1434.29 727.848 1434.81 716.708C1404.65 756.138 1352.13 760.677 1318.6 722.387C1261.97 657.717 1330.78 543.498 1411.99 597.198L1432.94 616.828V522.598H1453.73ZM1366.31 602.198C1313.68 611.188 1302.89 695.968 1350.38 722.728C1377.78 738.168 1422.13 726.848 1431.46 695.458C1433.88 687.318 1434.32 651.248 1432.83 642.368C1431.16 632.398 1415.53 616.778 1407.11 611.478C1394.49 603.528 1381.38 599.618 1366.3 602.198H1366.31Z" fill="white"/>
<path d="M593.735 524.698C595.045 526.948 593.435 529.268 592.175 531.168C590.915 533.068 568.225 555.688 566.675 556.598C548.175 567.398 516.375 543.318 507.395 526.968C475.465 468.878 533.665 405.008 594.015 436.808C647.305 464.888 607.095 528.768 671.065 544.638C699.325 551.648 731.065 528.428 732.045 499.038C732.845 475.198 713.815 446.338 688.905 443.718C681.115 442.898 663.515 469.008 659.195 469.358C656.425 469.578 646.845 462.878 650.545 457.508C652.995 453.958 677.945 429.978 680.835 429.118C697.215 424.218 725.725 445.268 734.165 459.088C779.415 533.178 676.785 600.188 627.165 531.888C609.135 507.068 622.735 479.588 596.845 456.588C552.035 416.778 488.595 467.958 520.655 521.268C528.705 534.658 540.545 540.958 555.335 545.108C566.145 538.658 575.485 529.988 582.585 519.618L593.735 524.688V524.698Z" fill="white"/>
<path d="M1264.77 744.979H1243.98V636.609C1243.98 635.009 1240.28 622.999 1239.26 620.589C1228.47 595.179 1195.89 599.139 1176.91 613.059C1170.93 617.439 1151.4 639.629 1151.4 646.039V744.979H1130.61V586.669H1149.51V620.589C1173.29 584.249 1242.7 561.429 1260.57 614.409C1261.58 617.409 1264.77 628.819 1264.77 630.949V744.969V744.979Z" fill="white"/>
<path d="M947.325 586.668L968.105 586.688C966.715 589.508 966.185 591.838 966.105 595.038C965.425 622.218 962.755 685.068 971.795 708.308C983.035 737.198 1017.58 734.858 1038.92 718.538C1044.68 714.128 1062.59 693.748 1062.59 687.488V586.658H1083.38V723.298C1083.38 724.588 1089.97 725.888 1090.95 730.808C1093.6 744.158 1089.6 750.288 1075.72 745.998C1058.91 740.808 1066.59 711.148 1063.54 711.028C1045.51 748.348 975.575 767.578 954.525 723.658C953.245 720.978 947.325 704.178 947.325 702.568V586.658V586.668Z" fill="white"/>
<path d="M1589.14 721.728C1598.26 712.728 1598.37 695.388 1588.54 686.858C1564.27 665.798 1493.22 677.208 1493.28 630.968C1493.34 579.848 1565.26 574.008 1599.08 595.318C1611.76 603.308 1614.73 607.048 1600.42 616.718C1579.39 592.868 1509 588.748 1514.17 632.908C1515.17 641.428 1519.67 644.828 1527 648.378C1558.24 663.518 1623.31 657.308 1615.74 709.648C1608.8 757.698 1534.38 754.418 1501.61 735.888C1487.05 727.658 1483.94 724.908 1496.25 711.108C1516.78 731.428 1567.14 743.478 1589.15 721.748L1589.14 721.728Z" fill="white"/>
<path d="M871.735 605.517H915.195V620.598H871.735V744.987H850.945V623.427C847.995 617.647 829.855 622.198 828.265 620.608V605.507L850.125 603.747C849.205 568.957 851.685 520.347 897.225 518.697C911.565 518.177 942.815 525.587 923.735 543.077C908.615 534.517 887.485 533.607 877.675 550.177C876.735 551.777 871.735 564.187 871.735 564.977V605.497V605.517Z" fill="white"/>
<path d="M684.405 586.938L737.605 724.248L793.315 588.548L813.155 586.678L750.595 744.758L726.045 743.818L662.015 587.598L684.405 586.938Z" fill="white"/>
<path d="M633.655 586.668H612.865V744.978H633.655V586.668Z" fill="white"/>
</svg>
