<svg width="2031" height="1243" viewBox="0 0 2031 1243" fill="none" xmlns="http://www.w3.org/2000/svg">
<g clip-path="url(#clip0_239_968)">
<path d="M880.288 464.515H877.591C876.255 464.515 874.83 464.452 873.368 464.34C871.931 464.228 870.721 464.053 869.764 463.828C869.411 463.741 869.171 463.666 869.02 463.616V400.586L909.605 473.951H926.835V399.625C926.835 398.727 927.1 398.09 927.667 397.641C928.335 397.104 929.305 396.73 930.54 396.518C931.902 396.293 933.452 396.168 935.154 396.168H937.485V386.745H904.576V396.168H907.273C908.685 396.168 910.122 396.231 911.559 396.343C912.958 396.455 914.168 396.617 915.138 396.805C915.491 396.88 915.718 396.942 915.844 396.992V452.358L879.494 386.732H847.354V396.156H849.572C851.362 396.156 852.95 396.268 854.311 396.505C855.559 396.717 856.542 397.079 857.21 397.579C857.563 397.841 858.029 398.315 858.029 399.488V460.945C858.029 461.781 857.752 462.393 857.172 462.892C856.491 463.454 855.534 463.878 854.286 464.115C852.95 464.378 851.362 464.515 849.572 464.515H847.354V473.938H880.263V464.515H880.288Z" fill="white"/>
<path d="M1017.75 445.069H1007.25L1005.57 459.547C1005.51 460.371 1005.24 461.033 1004.79 461.557C1004.3 462.106 1003.54 462.555 1002.55 462.892C1001.46 463.267 1000.04 463.529 998.299 463.679C996.535 463.841 994.354 463.916 991.783 463.916H973.873V434.023L980.83 434.335C984.384 434.498 987.914 434.672 991.43 434.872C994.947 435.072 998.488 435.259 1002.04 435.409L1003.09 435.459V422.94L1002.04 422.99C998.488 423.152 994.921 423.327 991.367 423.527C987.813 423.726 984.284 423.901 980.767 424.063C978.498 424.163 976.192 424.276 973.873 424.376V396.755H989.842C993.006 396.755 995.615 396.892 997.581 397.167C999.434 397.429 1000.83 397.891 1001.74 398.552C1002.56 399.151 1003.03 400 1003.15 401.173L1004.59 412.606H1014.84V386.732H946.295V396.156H948.627C951.173 396.156 953.315 396.418 954.992 396.954C956.353 397.379 956.958 398.165 956.958 399.488V461.182C956.958 462.505 956.353 463.292 954.992 463.716C953.328 464.24 951.185 464.515 948.627 464.515H946.295V473.938H1017.75V445.069Z" fill="white"/>
<path d="M1041.35 464.078C1041.72 464.627 1042.11 465.138 1042.51 465.638C1045.53 469.37 1049.31 472.053 1053.74 473.638C1058.12 475.186 1063.01 475.972 1068.26 475.972C1074.28 475.972 1079.66 474.974 1084.3 473.014C1088.99 471.03 1092.69 467.972 1095.29 463.94C1097.88 459.921 1099.21 454.829 1099.21 448.826C1099.21 444.12 1098.38 440.176 1096.72 437.081C1095.09 433.998 1092.79 431.427 1089.92 429.467C1087.11 427.545 1083.93 425.973 1080.47 424.787C1077.07 423.626 1073.53 422.59 1069.98 421.704C1066.66 420.83 1063.6 420.007 1060.76 419.245C1058.02 418.509 1055.6 417.61 1053.57 416.562C1051.63 415.563 1050.1 414.265 1049.03 412.68C1047.98 411.133 1047.44 409.086 1047.44 406.577C1047.44 404.068 1047.95 401.747 1048.95 399.987C1049.95 398.24 1051.44 396.942 1053.52 396.03C1055.64 395.094 1058.48 394.62 1061.96 394.62C1065.44 394.62 1068.73 395.269 1071.54 396.567C1074.33 397.853 1076.73 399.8 1078.69 402.333C1080.67 404.904 1082.22 408.125 1083.31 411.906L1083.53 412.63H1094.37V386.158H1084.35L1083.36 395.069C1083.05 394.595 1082.73 394.133 1082.41 393.696C1079.96 390.489 1076.9 388.13 1073.31 386.707C1069.76 385.309 1065.63 384.598 1060.99 384.598C1055.29 384.598 1050.27 385.584 1046.03 387.506C1041.75 389.465 1038.38 392.286 1036.04 395.906C1033.68 399.525 1032.48 403.968 1032.48 409.111C1032.48 413.716 1033.25 417.635 1034.76 420.768C1036.29 423.901 1038.41 426.472 1041.08 428.406C1043.69 430.291 1046.71 431.851 1050.05 433.037C1053.32 434.198 1056.79 435.271 1060.39 436.245C1063.55 437.043 1066.6 437.88 1069.45 438.691C1072.26 439.502 1074.78 440.526 1076.94 441.724C1079 442.885 1080.67 444.37 1081.86 446.155C1083.04 447.902 1083.63 450.223 1083.63 453.044C1083.63 456.127 1083.05 458.661 1081.89 460.583C1080.74 462.48 1079.07 463.815 1076.76 464.664C1074.38 465.538 1071.28 465.987 1067.53 465.987C1063.25 465.987 1059.3 465.213 1055.82 463.666C1052.36 462.143 1049.37 459.821 1046.93 456.751C1044.48 453.668 1042.6 449.749 1041.34 445.106L1041.14 444.37H1029.91V474.437H1040.43L1041.34 464.102L1041.35 464.078Z" fill="white"/>
<path d="M1118.35 401.522C1118.49 400.336 1118.95 399.425 1119.77 398.751C1120.64 398.027 1122.06 397.503 1124.01 397.166C1126.09 396.816 1128.9 396.642 1132.4 396.642H1137.21V461.194C1137.21 462.517 1136.57 463.291 1135.13 463.728C1133.38 464.252 1131.15 464.527 1128.51 464.527H1125.45V473.95H1166V464.527H1162.81C1160.25 464.527 1158.07 464.264 1156.32 463.728C1154.88 463.291 1154.24 462.517 1154.24 461.194V396.642H1159.05C1162.53 396.642 1165.35 396.816 1167.43 397.166C1169.4 397.503 1170.85 398.04 1171.76 398.763C1172.59 399.425 1173.02 400.311 1173.09 401.509L1174.52 416.449H1184.92V386.744H1106.56V416.449H1116.96L1118.37 401.522H1118.35Z" fill="white"/>
<path d="M908.747 497.152C903.352 499.237 898.6 502.295 894.643 506.264C890.685 510.233 887.584 515.063 885.454 520.654C883.324 526.221 882.24 532.661 882.24 539.788C882.24 546.915 883.324 553.255 885.454 558.859C887.597 564.488 890.685 569.343 894.643 573.312C898.6 577.281 903.352 580.327 908.759 582.361C914.141 584.395 920.116 585.431 926.506 585.431C932.896 585.431 938.971 584.395 944.315 582.361C949.672 580.314 954.399 577.269 958.369 573.312C962.327 569.356 965.415 564.488 967.557 558.859C969.687 553.255 970.771 546.827 970.771 539.788C970.771 532.748 969.687 526.221 967.557 520.654C965.415 515.063 962.327 510.22 958.369 506.264C954.411 502.307 949.685 499.237 944.328 497.152C938.984 495.08 932.984 494.02 926.506 494.02C920.027 494.02 914.129 495.068 908.747 497.152ZM945.777 513.216C948.059 516.099 949.836 519.793 951.059 524.211C952.281 528.667 952.899 533.909 952.899 539.8C952.899 545.691 952.281 550.921 951.059 555.389C949.849 559.795 948.071 563.502 945.777 566.385C943.509 569.243 940.736 571.428 937.534 572.875C934.333 574.323 930.615 575.072 926.493 575.072C922.372 575.072 918.729 574.336 915.452 572.875C912.188 571.428 909.402 569.243 907.171 566.398C904.915 563.514 903.163 559.82 901.953 555.402C900.73 550.946 900.113 545.704 900.113 539.813C900.113 533.922 900.73 528.68 901.953 524.224C903.163 519.818 904.94 516.111 907.234 513.228C909.503 510.37 912.301 508.186 915.528 506.738C918.779 505.278 922.472 504.541 926.506 504.541C930.539 504.541 934.333 505.278 937.547 506.738C940.736 508.186 943.509 510.37 945.777 513.228V513.216Z" fill="white"/>
<path d="M1035.65 559.06L1015.86 496.18H980.906V505.603H983.112C984.902 505.603 986.502 505.715 987.851 505.952C989.099 506.165 990.082 506.527 990.75 507.026C991.103 507.288 991.557 507.762 991.557 508.935V570.63C991.557 571.453 991.292 572.04 990.725 572.502C990.057 573.039 989.086 573.413 987.851 573.625C986.502 573.85 984.902 573.975 983.112 573.975H980.906V583.398H1011.51V573.975H1010.02C1008.99 573.975 1007.82 573.937 1006.51 573.862C1005.21 573.787 1004.09 573.663 1003.15 573.513C1002.88 573.463 1002.67 573.425 1002.53 573.388V509.447L1027.48 583.772H1037.78L1062.85 509.098V573.4C1062.71 573.438 1062.51 573.475 1062.23 573.525C1061.3 573.675 1060.19 573.8 1058.94 573.875C1057.67 573.95 1056.43 573.987 1055.25 573.987H1053.15V583.41H1090.42V573.987H1088.09C1085.46 573.987 1083.3 573.725 1081.68 573.201C1080.35 572.776 1079.76 571.99 1079.76 570.667V508.973C1079.76 507.65 1080.35 506.864 1081.68 506.439C1083.31 505.915 1085.47 505.64 1088.09 505.64H1090.42V496.217H1056.33L1035.65 559.097V559.06Z" fill="white"/>
<path d="M1171.63 554.516H1161.13L1159.45 568.994C1159.39 569.818 1159.14 570.479 1158.67 570.991C1158.18 571.54 1157.44 571.99 1156.43 572.327C1155.35 572.701 1153.91 572.963 1152.18 573.113C1150.42 573.275 1148.24 573.35 1145.67 573.35H1127.76V543.458L1134.71 543.77C1138.27 543.932 1141.8 544.107 1145.31 544.307C1148.83 544.506 1152.37 544.693 1155.94 544.843L1156.98 544.893V532.375L1155.94 532.424C1152.38 532.587 1148.82 532.761 1145.26 532.961C1141.71 533.161 1138.18 533.336 1134.66 533.498C1132.39 533.598 1130.09 533.71 1127.77 533.81V506.189H1143.74C1146.9 506.189 1149.51 506.326 1151.48 506.601C1153.33 506.863 1154.73 507.325 1155.64 507.974C1156.45 508.573 1156.92 509.422 1157.05 510.595L1158.48 522.028H1168.73V496.154H1100.18V505.578H1102.51C1105.06 505.578 1107.2 505.84 1108.87 506.376C1110.24 506.801 1110.84 507.587 1110.84 508.91V570.604C1110.84 571.927 1110.24 572.714 1108.87 573.138C1107.2 573.662 1105.07 573.937 1102.51 573.937H1100.18V583.36H1171.63V554.491V554.516Z" fill="white"/>
<path d="M1194.95 537.829C1197.56 539.714 1200.58 541.274 1203.92 542.46C1207.2 543.62 1210.67 544.694 1214.26 545.667C1217.41 546.466 1220.46 547.29 1223.32 548.114C1226.13 548.925 1228.65 549.948 1230.81 551.147C1232.89 552.307 1234.54 553.793 1235.73 555.577C1236.91 557.325 1237.51 559.646 1237.51 562.467C1237.51 565.55 1236.93 568.083 1235.77 570.006C1234.63 571.903 1232.95 573.238 1230.64 574.087C1228.26 574.961 1225.16 575.41 1221.42 575.41C1217.13 575.41 1213.19 574.636 1209.71 573.101C1206.24 571.578 1203.24 569.257 1200.81 566.186C1198.36 563.103 1196.49 559.184 1195.24 554.541L1195.04 553.805H1183.82V583.872H1194.34L1195.25 573.538C1195.62 574.087 1196.01 574.599 1196.41 575.098C1199.42 578.83 1203.2 581.526 1207.64 583.098C1212.01 584.646 1216.9 585.432 1222.16 585.432C1228.16 585.432 1233.55 584.434 1238.19 582.474C1242.88 580.49 1246.59 577.432 1249.18 573.4C1251.78 569.369 1253.1 564.289 1253.1 558.286C1253.1 553.58 1252.27 549.636 1250.62 546.541C1248.98 543.458 1246.69 540.887 1243.81 538.928C1241 537.005 1237.81 535.433 1234.36 534.247C1230.97 533.086 1227.43 532.05 1223.87 531.164C1220.56 530.291 1217.5 529.467 1214.66 528.705C1211.93 527.969 1209.51 527.07 1207.46 526.022C1205.52 525.024 1204 523.725 1202.93 522.153C1201.87 520.605 1201.34 518.558 1201.34 516.05C1201.34 513.541 1201.84 511.219 1202.85 509.46C1203.85 507.712 1205.33 506.414 1207.41 505.503C1209.53 504.567 1212.38 504.093 1215.86 504.093C1219.34 504.093 1222.63 504.742 1225.44 506.04C1228.22 507.325 1230.63 509.272 1232.58 511.806C1234.56 514.377 1236.11 517.597 1237.21 521.379L1237.41 522.103H1248.25V495.63H1238.23L1237.25 504.542C1236.93 504.068 1236.62 503.606 1236.29 503.169C1233.84 499.961 1230.78 497.602 1227.19 496.18C1223.65 494.782 1219.51 494.07 1214.87 494.07C1209.18 494.07 1204.15 495.056 1199.91 496.978C1195.63 498.938 1192.26 501.759 1189.92 505.378C1187.56 508.998 1186.36 513.441 1186.36 518.583C1186.36 523.189 1187.13 527.108 1188.65 530.241C1190.17 533.373 1192.29 535.945 1194.96 537.879L1194.95 537.829Z" fill="white"/>
<path d="M1338.18 555.914C1337.5 531.713 1332.79 508.149 1324.68 486.332C1327.69 482.525 1330.78 478.793 1333.97 475.111C1330.54 478.219 1327.27 481.427 1324.09 484.709C1314.36 459.173 1299.95 436.12 1281.9 417.398C1264.32 391.45 1241.9 369.695 1216.2 353.408C1226.27 350.312 1236.2 345.919 1245.83 340.115C1235.37 345.232 1224.37 349.014 1213.11 351.485C1211.28 350.362 1209.43 349.276 1207.58 348.203C1191.56 333.088 1172.75 320.907 1151.82 312.532C1156.78 308.588 1161.56 304.219 1166.09 299.402C1161.01 303.932 1155.62 308.076 1149.99 311.808C1132.04 304.868 1112.56 300.712 1091.92 299.901C1082.95 296.768 1073.82 294.247 1064.62 292.337C1062.59 289.666 1060.6 286.958 1058.7 284.2C1060.11 286.871 1061.6 289.479 1063.15 292.038C1055.7 290.553 1048.2 289.442 1040.69 288.768C1044.71 283.226 1048.44 277.335 1051.83 271.082C1047.76 277.223 1043.28 283.064 1038.48 288.593C1017.87 286.946 997.165 288.356 977.087 292.912C929.393 296.107 884.699 311.221 847 335.747C838.896 332.914 830.905 329.631 823.09 325.987C830.086 330.317 837.27 334.099 844.58 337.344C824.855 350.499 807.121 366.251 791.933 384.224C748.083 410.322 718.792 456.776 719.813 512.467C718.136 514.988 716.523 517.559 714.947 520.131C713.725 519.12 712.49 518.121 711.242 517.135C711.872 505.266 713.132 493.396 714.935 481.589C711.859 492.61 709.616 503.668 708.103 514.701C705.86 513.004 703.578 511.331 701.247 509.696C703.541 511.606 705.784 513.566 707.99 515.575C707.082 522.352 706.477 529.129 706.137 535.869C672.787 601.096 670.858 679.952 711.695 750.794C682.757 688.476 680.538 616.061 705.91 553.755C706.54 578.567 711.015 602.756 718.993 625.484C709.553 672.088 714.38 722 732.908 767.544C729.505 771.014 725.951 774.409 722.245 777.729C716.838 769.029 711.796 760.068 707.12 750.907C712.363 765.198 718.817 778.727 726.278 791.42C710.7 796.538 694.693 799.858 677.74 799.221C674.791 799.109 679.227 803.103 681.294 804.75C707.473 815.047 733.652 825.344 759.755 835.803C765.275 841.582 771.048 847.074 777.06 852.229C772.838 853.614 768.641 855.124 764.481 856.784C769.082 855.511 773.708 854.363 778.333 853.327C791.29 864.273 805.331 873.734 820.179 881.534C810.6 886.839 801.26 893.017 792.248 900.131C802.168 893.616 812.566 887.95 823.317 883.157C829.884 886.477 836.615 889.485 843.459 892.143C881.283 921.649 928.574 939.996 978.133 944.165C975.474 947.859 972.94 951.666 970.533 955.572C973.533 951.703 976.633 947.959 979.835 944.314C982.293 944.502 984.75 944.651 987.221 944.776C997.947 946.586 1008.66 947.672 1019.29 948.084C1016.22 955.373 1013.61 962.999 1011.52 970.974C1014.34 963.123 1017.72 955.51 1021.55 948.171C1024.81 948.271 1028.03 948.296 1031.27 948.271C1035.29 954.736 1039.05 961.488 1042.49 968.565C1039.94 961.501 1037.01 954.736 1033.76 948.233C1049.72 947.921 1065.45 946.062 1080.71 942.742C1082.66 944.801 1084.59 946.885 1086.49 949.007C1084.94 946.811 1083.35 944.651 1081.74 942.53C1108.38 936.614 1133.57 926.242 1156.12 911.888C1174.03 905.86 1191.21 897.635 1207.3 887.488C1210.16 888.786 1213.02 890.171 1215.86 891.632C1213.33 889.972 1210.78 888.411 1208.2 886.914C1225.87 875.668 1242.2 862.114 1256.72 846.662C1255.59 846.924 1254.43 847.136 1253.28 847.361C1258.25 843.979 1263.04 840.309 1267.83 836.627C1268.15 836.365 1268.47 836.103 1268.81 835.878C1269.36 835.454 1269.92 835.03 1270.47 834.593C1274.11 831.797 1289.01 821.837 1290.95 820.539C1298.66 815.384 1306.56 810.529 1314.41 805.599C1315.67 804.813 1324.59 799.895 1326.38 798.535C1329.4 796.251 1332.86 794.578 1336.4 792.481C1332.23 790.197 1322.02 794.054 1320.45 794.304C1314.04 795.302 1307.52 796.6 1301.13 796.226C1299.65 796.138 1298.18 796.014 1296.7 795.901C1306.62 783.67 1315.04 770.577 1321.92 756.948C1322.94 757.959 1323.98 758.97 1325.04 759.968C1324.04 758.857 1323.07 757.721 1322.11 756.586C1347.75 705.675 1352.2 647.413 1335.13 598.862C1336.73 589.613 1337.7 580.352 1338.09 571.153C1348.08 599.698 1352.92 631.225 1351.25 664.812C1356.65 626.345 1351.28 589.051 1338.19 555.914H1338.18ZM1332.14 591.048C1328.88 583.06 1325 575.372 1320.51 568.058C1324.9 577.743 1328.53 587.753 1331.4 597.988C1329.38 614.351 1325.64 630.938 1320.02 647.575C1321.08 608.447 1312.58 568.62 1295.06 532.287C1298.64 525.16 1302.59 518.221 1306.86 511.444C1317.16 525.61 1325.97 541.136 1332.96 557.824C1333.47 568.732 1333.22 579.828 1332.16 591.036L1332.14 591.048ZM1301.16 732.871C1301.36 733.159 1301.58 733.433 1301.79 733.72C1301.52 750.333 1298.88 767.007 1293.58 783.283C1292.39 787.314 1291.05 791.296 1289.63 795.252C1283.15 794.553 1276.69 793.617 1270.31 792.357C1268.29 791.957 1266.28 791.583 1264.27 791.246C1264.83 790.048 1265.37 788.862 1265.91 787.651C1280.76 771.039 1292.48 752.542 1301.18 732.871H1301.16ZM1297.79 721.164C1282.72 693.531 1274 662.84 1272.58 631.824C1287.98 656.212 1297.81 683.783 1300.84 712.165C1299.89 715.186 1298.87 718.181 1297.8 721.177L1297.79 721.164ZM1272.36 624.186C1272.16 595.829 1278.1 567.397 1290.93 540.974C1291.41 539.913 1291.9 538.852 1292.4 537.804C1312.8 590.262 1317.66 646.128 1304.78 698.087C1300.18 671.689 1289.42 646.365 1272.36 624.198V624.186ZM1331.55 540.837C1325.55 528.443 1318.46 516.748 1310.43 505.927C1313.54 501.234 1316.82 496.629 1320.22 492.11C1325.69 507.649 1329.52 523.962 1331.55 540.837ZM1258.07 396.78C1252.99 393.16 1247.72 389.828 1242.28 386.832C1251.84 393.759 1260.82 401.485 1269.11 409.91C1269.54 410.471 1269.98 411.033 1270.41 411.595C1288.77 434.473 1303.05 460.533 1314.2 487.967C1310.64 474.862 1306.04 462.305 1300.52 450.361C1308.01 462.73 1314.33 475.91 1319.36 489.727C1315.44 494.033 1311.74 498.476 1308.23 503.019C1295.64 486.631 1280.91 472.34 1264.69 460.795C1259.96 426.035 1246.23 394.084 1225.64 367.961C1237.32 376.373 1248.2 385.996 1258.06 396.767L1258.07 396.78ZM1096.57 325.225C1104.45 325.45 1112.29 326.049 1120.08 327.035C1115.19 328.845 1110.21 330.405 1105.17 331.678C1102.23 329.656 1099.37 327.509 1096.59 325.225H1096.57ZM1100.35 332.801C1079.08 337.407 1056.85 337.145 1035.63 331.304C1053.81 327.097 1072.36 325.05 1090.81 325.138C1093.89 327.846 1097.08 330.405 1100.35 332.814V332.801ZM1127.04 328.021C1134.08 329.119 1141.07 330.53 1147.97 332.252C1155.37 336.77 1162.61 341.6 1169.66 346.693C1164.8 342.212 1159.78 338.006 1154.64 334.024C1171.28 338.692 1187.36 345.17 1202.49 353.42C1170.48 357.988 1137.32 351.897 1109.78 334.711C1115.64 332.926 1121.42 330.692 1127.04 328.033V328.021ZM1183.19 336.246C1169.35 330.517 1154.87 326.249 1139.94 323.553C1139.25 323.103 1138.56 322.667 1137.86 322.217C1141 320.333 1144.09 318.311 1147.1 316.126C1159.83 321.593 1171.93 328.333 1183.19 336.234V336.246ZM1144.75 315.128C1141.6 317.038 1138.37 318.81 1135.08 320.47C1123.03 313.031 1110.45 306.865 1097.53 301.948C1113.82 304.432 1129.68 308.887 1144.75 315.115V315.128ZM1096.4 307.502C1107.83 311.508 1118.96 316.376 1129.75 321.968C1117.07 320.32 1104.11 319.821 1090.98 320.57C1083.53 314.192 1076.66 307.128 1070.34 299.539C1079.13 301.573 1087.83 304.207 1096.4 307.489V307.502ZM1067.62 298.94C1073.16 306.99 1079.41 314.329 1086.24 320.907C1069.41 322.242 1052.35 325.612 1035.25 331.191C1028.76 329.381 1022.37 327.047 1016.13 324.177C1013.79 323.178 1011.47 322.105 1009.18 320.994C1019.03 313.543 1028.11 304.769 1036.16 294.709C1046.69 295.295 1057.2 296.693 1067.61 298.952L1067.62 298.94ZM1033.1 294.559C1024.47 303.62 1014.89 311.708 1004.59 318.685C994.531 313.418 984.99 307.115 975.953 300.088C994.645 295.707 1013.88 293.785 1033.1 294.559ZM1001.65 320.62C967.609 342.674 926.091 352.684 884.888 345.282C884.85 345.282 884.813 345.282 884.775 345.27C911.142 323.553 942.249 308.126 975.083 300.288C983.288 308.213 992.225 315.003 1001.67 320.62H1001.65ZM915.655 311.284C925.877 307.777 936.275 304.831 946.837 302.385C923.469 311.833 901.551 325.937 882.33 344.87C873.595 343.435 864.961 341.388 856.453 338.83C874.628 327.235 894.442 317.886 915.655 311.284ZM805.306 381.865C809.944 379.543 814.721 377.434 819.649 375.599C838.606 367.911 858.924 363.542 879.557 361.508C856.025 361.034 833.476 365.377 813.108 373.702C825.309 361.495 838.732 350.487 853.227 340.926C861.608 344.134 870.141 346.655 878.737 348.503C874.881 352.496 871.15 356.678 867.532 361.071C871.704 356.815 876.04 352.759 880.527 348.864C924.667 357.851 970.268 348.989 1006.19 323.203C1036.82 339.953 1072.21 344.671 1104.99 336.059C1134.7 356.104 1171.25 363.954 1206.88 355.891C1225.51 374.076 1240.37 396.118 1249.69 421.255C1254.53 433.212 1258.25 445.606 1261.03 458.249C1242.48 445.681 1222.1 436.669 1200.82 432.126C1223.02 439.839 1243.87 451.235 1262.57 465.725C1264.32 474.911 1265.59 484.21 1266.46 493.558C1266.7 484.946 1266.4 476.447 1265.57 468.097C1279.98 479.667 1293.06 493.109 1304.43 508.174C1300.04 514.239 1296.02 520.468 1292.37 526.858C1285.41 513.278 1277.18 500.223 1267.69 487.929C1276.3 502.008 1283.69 516.548 1289.86 531.389C1275.45 558.136 1267.41 587.279 1266.16 616.56C1257.23 606.225 1246.83 596.677 1234.93 588.165C1246.69 598.25 1257.09 609.658 1266.01 622.052C1265.52 657.985 1275.31 693.893 1296.16 725.595C1287.36 748.498 1274.82 770.327 1258.3 790.372C1250.73 789.473 1243.13 789.436 1235.29 791.396C1247.24 773.56 1256.12 754.776 1258.44 733.57C1260.75 712.39 1257.77 692.171 1245.78 673.137C1233.88 688.426 1220.9 701.344 1205.31 711.479C1188.99 722.1 1164.55 729.876 1153.29 727.941C1154.62 726.881 1155.85 725.882 1157.26 724.734C1146.1 713.988 1134.4 704.689 1120.29 698.885C1098.73 690.011 1078.84 692.807 1060.84 707.847C1049.12 717.645 1040.44 729.839 1033.82 743.443C1029.26 752.816 1025.52 762.589 1021.04 773.073C1024.4 773.073 1026.22 773.098 1028.05 773.073C1056.63 772.586 1078.5 783.919 1088.9 810.854C1093.8 823.559 1101.77 834.493 1112.58 842.993C1117.66 846.987 1122.88 850.419 1128.25 853.352C1114.17 857.258 1100.71 862.875 1088.19 870.102C1068.2 874.832 1048.93 883.032 1031.31 894.178C1002.75 874.495 970.218 862.251 936.754 858.457C928.007 854.725 918.982 851.555 909.756 848.996C919.638 845.314 929.381 840.721 938.972 835.179C971.919 816.158 994.254 788.575 1003.04 750.882C1004.58 744.292 1006.43 737.639 1009.19 731.486C1020.02 707.235 1039.48 692.994 1064.42 685.63C1070.89 683.721 1077.52 682.41 1084.35 680.763C1083.99 679.727 1083.83 678.978 1083.49 678.341C1070.53 654.178 1054.14 632.773 1031.5 616.934C998.766 594.044 964.962 595.117 933.099 619.256C918.919 630.002 907.147 643.082 896.597 657.273C894.114 660.618 891.417 661.966 887.396 662.241C849.345 664.812 815.276 653.516 784.068 632.598C783.11 631.962 782.178 631.312 781.232 630.651C776.241 605.626 766.334 581.575 751.411 559.883C761.406 541.623 774.048 524.412 789.437 508.648C789.437 508.748 789.475 508.835 789.475 508.935V570.629C789.475 571.952 788.87 572.739 787.509 573.163C785.845 573.687 783.703 573.962 781.144 573.962H778.812V583.385H817.053V573.962H811.81C810.726 573.962 809.705 573.899 808.785 573.787C807.852 573.675 807.108 573.562 806.566 573.438C806.541 573.438 806.529 573.438 806.503 573.425V543.533H844.505V573.425C844.505 573.425 844.467 573.425 844.442 573.438C843.912 573.55 843.194 573.65 842.324 573.725C841.404 573.799 840.371 573.887 839.249 573.962C838.14 574.037 837.068 574.074 836.047 574.074H833.955V583.372H872.196V573.949H869.99C867.356 573.949 865.175 573.687 863.499 573.15C862.138 572.726 861.533 571.94 861.533 570.617V508.923C861.533 507.6 862.138 506.813 863.499 506.389C865.175 505.865 867.356 505.59 869.99 505.59H872.196V496.167H833.955V505.59H839.324C840.396 505.59 841.404 505.652 842.286 505.765C843.181 505.877 843.9 506.002 844.454 506.114C844.479 506.114 844.492 506.114 844.505 506.127V533.498H806.503V506.127C806.503 506.127 806.541 506.127 806.566 506.114C807.071 506.002 807.802 505.915 808.734 505.827C809.705 505.752 810.751 505.665 811.873 505.59C812.982 505.515 814.003 505.478 814.961 505.478H817.053V496.179H802.508C806.692 492.472 811.041 488.865 815.566 485.371C810.045 488.778 804.777 492.398 799.722 496.179H778.812V505.603H781.144C783.539 505.603 785.555 505.852 787.181 506.314C771.111 520.368 757.738 536.381 747.025 553.767C743.307 548.787 739.298 543.945 735.026 539.264C736.639 522.914 739.752 506.813 744.239 491.162C745.6 489.589 746.987 488.029 748.399 486.481C769.057 462.618 793.95 442.373 820.935 425.149C793.257 438.491 769.006 456.09 748.815 476.721C761.028 441.549 780.287 409.098 805.281 381.865H805.306ZM1134.39 856.472C1154.16 865.708 1175.73 868.417 1198.58 866.182C1195.18 869.914 1191.66 873.521 1188.03 877.029C1161.67 866.357 1133.82 863.324 1106.72 866.744C1115.71 862.625 1125.07 859.255 1134.74 856.747C1134.61 856.659 1134.51 856.56 1134.39 856.472ZM1045.83 905.111C1042.68 902.528 1039.48 900.056 1036.21 897.672C1047.29 891.245 1058.84 885.89 1070.72 881.709C1061.67 888.574 1053.33 896.399 1045.83 905.111ZM1046.67 911.639C1048.78 913.274 1050.87 914.946 1052.94 916.644C1049.74 916.344 1046.52 915.995 1043.31 915.57C1044.42 914.247 1045.54 912.937 1046.67 911.639ZM1006.34 907.82C1002.46 903.476 998.401 899.332 994.166 895.401C1000.08 893.404 1005.98 891.145 1011.86 888.624C1016.05 890.933 1020.16 893.391 1024.19 896.025C1024.92 896.474 1025.65 896.936 1026.38 897.398C1021.04 901.017 1015.86 904.911 1010.88 909.068C1009.37 908.668 1007.85 908.244 1006.35 907.807L1006.34 907.82ZM1010.37 909.492C1009.87 909.916 1009.38 910.328 1008.89 910.753C1008.08 909.804 1007.27 908.868 1006.44 907.944C1007.75 908.469 1009.06 908.993 1010.37 909.492ZM992.615 894.015C981.65 884.068 969.6 875.468 956.719 868.254C975.789 872.248 994.329 878.976 1011.72 888.549C1005.42 890.621 999.043 892.443 992.615 894.003V894.015ZM1015.48 911.352C1022.36 913.786 1029.27 915.832 1036.17 917.517C1032.47 922.784 1029.04 928.326 1025.94 934.117C1021.62 927.078 1016.88 920.438 1011.76 914.16C1012.98 913.199 1014.22 912.263 1015.47 911.339L1015.48 911.352ZM1016.58 910.54C1021.38 907.008 1026.28 903.701 1031.31 900.605C1035.22 903.202 1039.06 905.91 1042.83 908.718C1041.22 910.715 1039.63 912.737 1038.09 914.821C1030.96 913.723 1023.79 912.3 1016.58 910.54ZM750.34 671.701C740.987 657.91 733.135 643.132 727.022 627.568C731.27 605.976 738.429 585.008 748.625 565.187C759.755 583.759 768.048 603.879 773.115 624.735C767.985 620.866 762.918 616.884 757.776 613.028C752.986 621.165 749.293 639.513 749.394 655.763C749.42 661.205 749.747 666.522 750.34 671.701ZM782.732 395.843C763.498 421.679 749.268 451.522 741.567 484.447C733.765 493.134 726.644 502.283 720.254 511.843C723.619 466.162 746.495 423.102 782.732 395.843ZM738.87 497.627C736.5 511.057 735.189 524.961 735.051 539.264C730.438 534.209 725.51 529.354 720.254 524.686C725.749 515.3 731.95 506.252 738.87 497.627ZM711.179 518.558C712.187 519.507 713.183 520.468 714.166 521.441C713.044 523.301 711.948 525.173 710.876 527.07C710.939 524.237 711.053 521.404 711.191 518.57L711.179 518.558ZM713.473 573.125C712.023 562.941 711.204 552.681 710.914 542.372C713.447 536.993 716.208 531.713 719.17 526.521C728.56 536.356 736.979 547.015 744.327 558.31C734.345 575.459 726.871 593.857 721.88 612.94C717.871 600.097 714.998 586.792 713.473 573.113V573.125ZM724.829 640.436C732.278 657.66 741.807 673.861 753.289 688.638C756.201 700.795 760.662 712.228 766.536 723.061C758.431 737.402 748.449 751.069 736.488 763.812C723.241 723.061 719.094 680.838 724.829 640.424V640.436ZM775.434 772.861C773.355 773.373 771.3 773.984 769.258 774.658C765.742 764.262 762.855 753.453 760.675 742.195C761.658 753.752 763.561 764.923 766.271 775.707C761.204 777.579 756.226 779.788 751.222 781.897C748.878 782.883 746.533 783.844 744.189 784.793C741.63 778.515 739.286 772.187 737.168 765.822C749.936 754.526 760.7 741.908 769.561 728.328C773.884 735.605 778.837 742.619 784.371 749.384C781.787 757.335 778.8 765.148 775.434 772.836V772.861ZM788.215 753.99C793.622 760.205 799.521 766.221 805.861 772.075C799.306 771.725 794.315 771.313 789.311 771.214C786.274 771.151 783.312 771.401 780.426 771.863C783.312 765.984 785.921 760.03 788.227 753.99H788.215ZM722.245 777.766C726.14 774.958 729.883 772.037 733.488 769.017C735.858 774.746 738.467 780.412 741.277 785.979C737.635 787.414 733.98 788.787 730.299 790.073C727.539 786.029 724.842 781.935 722.258 777.766H722.245ZM766.687 828.589C764.116 827.379 756.352 823.797 754.991 823.247C741.655 817.868 728.358 812.389 715.061 806.91C714.531 806.697 714.128 806.223 713.17 805.487C714.519 804.95 715.414 804.576 716.334 804.239C733.274 797.936 750.314 791.87 767.141 785.28C785.467 778.103 803.088 779.251 820.431 788.288C828.901 792.706 837.509 796.875 846.484 801.368C847.328 799.571 847.857 798.16 848.614 796.9C850.479 793.829 849.521 792.219 846.496 790.372C826.783 778.24 808.621 764.162 793.458 746.513C768.716 717.732 755.545 684.869 758.343 646.465C758.684 641.697 759.553 636.966 760.272 632.236C760.448 631.05 760.99 629.927 761.671 627.868C763.763 629.378 765.263 630.401 766.7 631.5C789.816 649.248 815.087 662.603 843.811 668.594C876.771 675.471 908.823 672.712 939.3 657.822C947.833 653.654 955.774 648.262 963.638 642.808C947.228 645.915 930.83 649.011 914.306 652.131C914.18 650.721 914.016 650.309 914.142 650.147C928.271 633.047 944.657 618.944 966.386 612.528C987.322 606.35 1006.53 611.343 1024.24 623.05C1043.28 635.643 1057.65 652.743 1069.74 671.889C1069.98 672.263 1070.03 672.75 1070.36 673.786C1068.52 674.422 1066.75 675.134 1064.92 675.646C1042.12 681.948 1022.94 693.556 1009.32 713.351C1002.84 722.762 998.098 733.046 995.855 744.192C988.078 782.821 965.479 810.379 931.574 828.814C890.068 851.38 845.979 856.684 800.416 843.866C788.669 840.559 777.854 833.894 766.7 828.602L766.687 828.589ZM777.577 844.166C780.955 845.776 784.308 847.461 787.698 849.033C786.614 849.333 785.53 849.633 784.446 849.957C782.114 848.085 779.833 846.15 777.577 844.178V844.166ZM786.564 851.617C788.227 851.292 789.891 850.993 791.555 850.706C794.202 851.804 796.874 852.778 799.609 853.489C801.651 854.026 803.693 854.513 805.722 854.974C811.558 862.276 817.847 869.19 824.552 875.693C811.167 868.978 798.437 860.94 786.551 851.605L786.564 851.617ZM817.948 857.421C845.072 861.939 871.515 860.591 897.102 853.19C902.105 854.375 907.071 855.711 911.962 857.209C885.909 857.533 859.743 863.037 834.875 874.195C828.964 868.891 823.305 863.299 817.948 857.421ZM838.228 877.153C868.528 866.17 900.984 861.839 932.784 864.697C951.539 872.51 969.134 882.845 985.053 895.725C939.792 905.211 892.476 902.003 849.71 886.514C845.79 883.506 841.959 880.386 838.228 877.153ZM870.154 900.643C907.449 909.966 947.53 909.629 987.296 897.598C993.472 902.74 999.384 908.256 1005.01 914.172C996.321 922.023 988.317 930.71 981.146 940.133C940.888 934.429 902.988 921.05 870.154 900.643ZM1021.42 943.241C1008.56 943.054 995.829 942.118 983.326 940.445C991.015 932.058 999.22 924.307 1007.87 917.268C1013.64 923.596 1019.07 930.36 1024.16 937.55C1023.22 939.422 1022.3 941.319 1021.42 943.253V943.241ZM1026.8 943.266C1025.94 943.266 1025.08 943.266 1024.24 943.266C1024.82 942.23 1025.41 941.194 1026.02 940.171C1026.71 941.182 1027.39 942.193 1028.06 943.216C1027.64 943.241 1027.23 943.241 1026.81 943.266H1026.8ZM1057.31 940.395C1048.63 941.706 1039.87 942.567 1031.08 943.054C1030.01 941.082 1028.92 939.135 1027.79 937.213C1031.76 930.735 1036.11 924.519 1040.84 918.591C1046.89 919.914 1052.93 920.962 1058.96 921.749C1064.69 926.741 1070.22 931.958 1075.56 937.375C1069.56 938.623 1063.49 939.646 1057.32 940.395H1057.31ZM1077.42 936.988C1073.31 931.896 1069.01 927.041 1064.55 922.398C1086 924.607 1107.3 923.458 1127.93 919.377C1112 927.178 1095.09 933.144 1077.42 936.976V936.988ZM1155.08 903.726C1125.02 914.472 1092.75 919.352 1059.3 917.155C1056.17 914.11 1052.94 911.164 1049.65 908.331C1061.11 895.925 1074.23 885.116 1088.62 876.367C1119.95 868.654 1153.08 869.028 1185.71 879.25C1176.18 888.224 1165.93 896.437 1155.07 903.738L1155.08 903.726ZM1183.03 891.744C1186.64 888.574 1190.17 885.291 1193.57 881.884C1195.05 882.42 1196.54 882.982 1198.01 883.556C1193.1 886.452 1188.1 889.185 1183.03 891.731V891.744ZM1199.94 882.433C1198.39 881.647 1196.83 880.898 1195.26 880.174C1200.05 875.281 1204.63 870.139 1208.95 864.772C1214.36 863.561 1224.69 860.99 1226.43 860.516C1229.19 859.755 1231.85 858.819 1234.44 857.77C1223.52 866.931 1212 875.194 1199.94 882.433ZM1235.61 845.901C1227.18 849.608 1223.11 851.53 1220.24 852.303C1187.85 861.165 1156.56 859.43 1127.01 842.056C1113.21 833.931 1102.81 822.461 1096.96 807.758C1086.16 780.624 1066.58 766.171 1037.65 763.9C1037.03 763.85 1036.41 763.762 1035.82 763.6C1035.56 763.525 1035.34 763.251 1034.25 762.377C1037.54 755.762 1040.66 748.772 1044.41 742.133C1051.22 730.038 1059.63 719.192 1071.33 711.342C1084.47 702.53 1098.78 700.745 1113.38 706.474C1121.48 709.657 1128.85 714.699 1136.52 718.992C1137.61 719.604 1138.43 720.702 1139.83 722C1125.85 727.667 1111.84 725.108 1096.91 726.107C1156.37 752.816 1203.22 733.396 1244.8 689.15C1246.36 694.592 1247.92 698.898 1248.82 703.329C1254.2 730.113 1247.65 754.501 1233.49 777.254C1225.85 789.536 1216.43 800.357 1205.95 810.292C1200.34 815.609 1200.34 816.083 1206.53 822.224C1211.94 818.055 1217.48 813.936 1222.87 809.593C1233.87 800.682 1246.2 797.399 1260.19 800.07C1268.46 801.655 1276.76 803.065 1285.06 804.488C1284.99 804.576 1284.92 804.651 1284.85 804.738C1285.37 804.738 1285.9 804.738 1286.45 804.825C1287.22 804.938 1287.93 805.125 1288.57 805.362C1288.63 805.287 1288.71 805.212 1288.77 805.137C1290.47 805.437 1292.19 805.724 1293.89 806.023C1292.38 808.882 1240.18 845.027 1235.61 845.913V845.901ZM1296.68 789.299C1302.36 773.335 1305.78 756.885 1306.92 740.41C1310.34 744.654 1313.99 748.797 1317.86 752.841C1312.02 765.347 1304.97 777.554 1296.68 789.299ZM1318.28 751.955C1314.33 747.025 1310.62 741.933 1307.15 736.703C1307.45 730.463 1307.43 724.235 1307.07 718.031C1314.96 695.865 1319.22 672.488 1319.99 648.836C1326.12 634.957 1330.62 620.803 1333.63 606.587C1344.74 653.604 1340.05 704.889 1318.29 751.968L1318.28 751.955Z" fill="white"/>
<path d="M1030.3 659.645C1035.62 659.832 1040.12 654.977 1040.15 648.999C1040.17 643.245 1036.04 638.402 1030.91 638.215C1025.52 638.015 1021.18 642.758 1021.13 648.861C1021.08 654.778 1025.05 659.445 1030.29 659.633L1030.3 659.645Z" fill="white"/>
<path d="M1062.64 727.392C1057.43 727.516 1053.4 732.184 1053.4 738.113C1053.4 743.979 1057.48 748.659 1062.71 748.809C1068.13 748.959 1072.42 744.191 1072.4 738.075C1072.37 731.947 1068.09 727.254 1062.66 727.392H1062.64Z" fill="white"/>
</g>
<defs>
<clipPath id="clip0_239_968">
<rect width="676.575" height="699.905" fill="white" transform="translate(676.744 271.082)"/>
</clipPath>
</defs>
</svg>
