<svg width="2031" height="1243" viewBox="0 0 2031 1243" fill="none" xmlns="http://www.w3.org/2000/svg">
<path fill-rule="evenodd" clip-rule="evenodd" d="M1571.44 450.62H1514.01L1517.49 511.716H1568.61L1571.44 450.62ZM919.612 450.62L933.545 545.23C935.239 556.715 932.415 561.893 917.541 561.893H888.169L937.687 610.657C944.653 617.529 947.007 622.99 937.028 622.99H911.045C905.679 622.99 903.043 618.847 896.642 610.657L858.045 561.893V549.937C858.045 546.454 859.363 545.23 862.375 545.23H888.828C894.006 545.23 899.56 546.454 899.278 536.287L896.642 450.62H857.48V432.545H1819.4V450.62H1792.01L1798.69 610.563C1799.25 622.895 1795.96 622.801 1791.72 622.801H1768.85C1764.42 622.801 1761.13 622.801 1761.69 610.375L1766.3 511.716H1740.23C1736.18 511.716 1731.28 511.716 1731.57 520.377L1732.51 543.253C1733.07 555.586 1729.78 555.491 1725.54 555.491H1706.06C1701.63 555.491 1698.34 555.491 1698.9 543.065L1699.94 520.754C1700.31 511.716 1694.85 511.716 1690.52 511.716H1662.56C1658.42 511.716 1657.1 514.164 1658.99 521.507L1678.28 594.559C1680.73 603.597 1684.97 606.327 1694.57 606.327H1695.7V622.99H1664.35C1657.29 622.99 1649.67 622.99 1646.46 608.492L1624.81 511.81C1622.27 500.325 1624.25 494.112 1633.1 494.112H1701.16H1701.25C1708.79 494.301 1713.96 502.961 1715.47 511.81C1716.88 502.679 1720.36 494.112 1729.97 494.112H1766.87L1768.85 450.62H1593.93L1600.62 610.563C1601.18 622.895 1597.89 622.801 1593.65 622.801H1570.78C1566.35 622.801 1563.06 622.801 1563.62 610.375L1567.39 529.321H1518.06L1520.22 568.106C1520.88 580.344 1517.4 580.344 1513.26 580.344C1502.24 580.344 1487.84 580.344 1476.83 580.344C1472.49 580.344 1468.63 580.344 1469.67 567.918L1474.1 516.612C1474.57 511.622 1476.45 511.622 1480.59 511.622H1488.12L1490.66 450.526H1354.16L1355.95 494.018H1437.66C1446.42 494.018 1448.49 500.231 1445.95 511.716L1427.97 591.453C1424.67 605.95 1417.14 605.95 1410.08 605.95H1378.73V589.287H1379.86C1389.37 589.287 1393.61 586.652 1396.15 577.52L1411.77 521.413C1413.85 514.07 1412.43 511.622 1408.2 511.622H1356.8L1360.94 610.469C1361.5 622.801 1358.21 622.707 1353.97 622.707H1331.1C1326.67 622.707 1323.38 622.707 1323.94 610.281L1324.88 590.135H1277.63C1270.56 590.135 1265.01 589.57 1259.74 575.637L1235.54 511.622C1231.4 500.608 1234.98 493.924 1243.83 493.924H1308.69V511.528H1273.39C1269.15 511.528 1266.23 514.635 1269.81 521.319L1291.65 561.705C1296.17 569.989 1298.34 573.472 1307.94 573.472H1325.73L1331.38 450.431H1208.43L1215.12 610.375C1215.68 622.707 1212.39 622.613 1208.15 622.613H1185.27C1180.85 622.613 1177.55 622.613 1178.12 610.187L1182.73 511.528H1123.8L1151.57 590.041C1159.67 613.011 1152.23 622.801 1137.64 622.801H1067.03C1054.33 622.801 1045.76 622.425 1040.02 590.135L1032.86 550.314C1031.92 545.042 1034.56 545.042 1037.76 545.042H1056.68C1059.22 545.042 1060.82 545.23 1062.33 550.314L1074.38 590.135C1079.08 605.574 1080.87 606.139 1093.11 606.139H1109.96C1119.28 606.139 1115.61 595.595 1114.29 590.135L1095.37 511.622C1092.92 501.643 1090.57 493.924 1099.14 493.924H1183.49L1185.46 450.431H1001.33L1008.01 610.469C1008.57 622.801 1005.28 622.707 1001.04 622.707H978.167C973.742 622.707 970.447 622.707 971.012 610.281L978.449 450.431H919.612V450.62Z" fill="white"/>
<path fill-rule="evenodd" clip-rule="evenodd" d="M1690.91 695.467H1648.33L1650.92 740.765H1688.82L1690.91 695.467ZM1528.01 695.467L1534.71 740.765H1574.56L1576.65 695.467H1528.01ZM1711.92 828.498H1681.35C1675.42 828.568 1671.02 831.848 1670.39 837.083L1667.67 860.255C1666.55 869.468 1669.69 869.468 1672.97 869.468C1681.14 869.468 1686.79 869.468 1694.96 869.468C1698.1 869.468 1700.96 869.468 1700.12 860.394L1698.52 841.689H1715.55L1741.58 884.195C1746.05 891.523 1750.31 890.965 1755.61 890.965H1775.01C1780.6 890.965 1781.09 885.661 1776.41 880.914L1735.51 839.107C1725.04 828.358 1721.62 828.498 1711.92 828.498ZM1593.54 695.467L1598.5 814.12C1598.85 823.263 1596.48 823.193 1593.34 823.193H1576.38C1573.09 823.193 1570.65 823.193 1571.07 813.98L1573.86 753.816H1536.52L1538.27 765.612C1539.52 774.127 1537.43 777.966 1526.4 777.966H1504.63L1541.34 814.12C1546.5 819.215 1548.25 823.263 1540.85 823.263H1521.59C1517.61 823.263 1515.65 820.192 1510.91 814.12L1482.29 777.966V769.102C1482.29 766.519 1483.27 765.612 1485.5 765.612H1505.11C1508.95 765.612 1513.07 766.519 1512.86 758.981L1510.91 695.467H1484.17V682.066H1819.4V695.467H1796.23L1799.16 727.713H1755.05C1751.98 727.713 1747.79 729.458 1748.7 735.041C1749.33 739.299 1751.77 741.951 1757.29 742.021H1796.09H1796.16C1801.75 742.161 1810.54 743.277 1809.21 755.143L1806.7 778.524C1806 784.806 1803.21 792.413 1787.72 792.344H1774.04L1776.27 778.384H1780.88C1785.41 778.384 1787.58 775.383 1788.27 772.242L1790.02 764.705C1791.49 758.214 1785.62 755.91 1782.41 755.91L1759.8 755.631C1755.12 755.631 1751.63 758.981 1752.89 764.425L1761.68 803.93C1763.22 810.7 1766.64 812.654 1773.76 812.654H1774.59L1777.11 825.008H1753.87C1748.63 825.008 1742.14 825.148 1740.6 814.26L1733.35 762.75C1732.3 755.143 1735.3 750.745 1741.79 749.838C1737.25 749.838 1732.58 748.721 1731.39 740.904L1729.02 724.781C1727.69 715.987 1733.14 713.754 1739.63 713.754C1768.1 713.754 1760.85 713.754 1777.53 713.754L1779.2 695.537H1708.15L1713.1 814.12C1713.52 823.263 1711.08 823.193 1707.94 823.193H1690.98C1687.7 823.193 1685.26 823.193 1685.68 813.98L1688.47 753.886H1651.89L1653.5 782.642C1653.99 791.716 1651.41 791.715 1648.33 791.715C1640.17 791.715 1629.49 791.715 1621.32 791.715C1618.11 791.715 1615.25 791.715 1616.02 782.502L1619.3 744.464C1619.65 740.765 1621.04 740.765 1624.12 740.765H1629.7L1631.58 695.467H1593.75H1593.54Z" fill="white"/>
<path fill-rule="evenodd" clip-rule="evenodd" d="M1283.02 682.133H1449.62V695.533H1428.75L1433.71 814.116C1434.06 823.26 1431.69 823.19 1428.54 823.19H1411.58C1408.3 823.19 1405.86 823.19 1406.28 813.977L1409.07 753.883H1364.96C1369.57 753.883 1372.71 757.233 1372.99 762.189L1374.17 782.708C1374.66 791.782 1372.08 791.782 1369.01 791.782C1360.84 791.782 1350.16 791.782 1342 791.782C1338.79 791.782 1335.93 791.782 1336.69 782.569L1339.56 748.927C1340.25 740.831 1343.95 740.831 1347.79 740.831H1409.63L1411.72 695.533H1312.13L1317.08 814.186C1317.5 823.329 1315.06 823.26 1311.92 823.26H1294.96C1291.68 823.26 1289.23 823.26 1289.65 814.047L1295.16 695.533H1282.95V682.133H1283.02Z" fill="white"/>
<path fill-rule="evenodd" clip-rule="evenodd" d="M894.82 695.463L898.729 745.367C899.357 753.324 901.87 755.696 909.059 755.696H923.158H933.208L936 695.463H894.82ZM1168.14 695.463L1173.1 814.046C1173.52 823.189 1171.07 823.119 1167.93 823.119H1150.97C1147.69 823.119 1145.25 823.119 1145.67 813.906L1151.18 695.463H1062.19L1063.52 727.709H1124.1C1130.59 727.709 1132.13 732.315 1130.24 740.83L1116.91 799.947C1114.47 810.696 1108.88 810.696 1103.65 810.696H1080.41V798.342H1081.25C1088.29 798.342 1091.44 796.388 1093.32 789.617L1104.91 748.019C1106.44 742.575 1105.39 740.76 1102.25 740.76H1064.15L1067.22 814.046C1067.57 823.189 1065.19 823.119 1062.05 823.119H1045.09C1041.81 823.119 1039.37 823.119 1039.79 813.906L1040.48 798.97H1005.45C1000.21 798.97 996.094 798.551 992.186 788.221L974.248 740.76C971.177 732.594 973.829 727.639 980.39 727.639H1028.48V740.69H1002.31C999.165 740.69 997.001 742.994 999.654 747.949L1015.85 777.892C1019.2 784.034 1020.8 786.616 1027.92 786.616H1041.11L1045.3 695.393H953.03L957.986 813.976C958.404 823.119 955.962 823.05 952.821 823.05H935.86C932.58 823.05 930.137 823.05 930.556 813.836L932.65 768.888L901.591 816.349C896.914 823.538 892.866 823.119 887.562 823.119H868.158C862.575 823.119 862.016 817.815 866.763 813.069L911.083 767.981H889.586H885.189C881.908 767.981 874.021 768.469 875.208 755.208L880.373 695.393H857.48V681.992H1179.94V695.393H1168.28L1168.14 695.463Z" fill="white"/>
<path fill-rule="evenodd" clip-rule="evenodd" d="M1271.65 694.481L1262.01 765.673C1260.9 774.188 1261.18 778.027 1250.15 778.027H1218.32L1260.06 814.181C1265.5 818.857 1266.97 823.324 1259.57 823.324H1240.31C1236.33 823.324 1234.79 819.765 1229.63 814.181L1195.99 778.027V769.163C1195.99 766.58 1196.96 765.673 1199.2 765.673H1226.35C1230.19 765.673 1237.38 766.301 1239.12 759.042L1252.52 702.368C1253.78 696.994 1252.73 694.481 1247.15 694.481H1214.41C1211.27 694.481 1208.9 697.134 1210.71 702.508L1217.55 722.4C1220.07 729.658 1222.51 731.124 1229.63 731.124H1235.49V743.478H1211.55C1206.32 743.478 1200.52 743.478 1198.29 732.73L1190.4 695.319C1188.59 686.804 1189.98 682.197 1196.55 682.197H1260.83C1272.9 682.197 1271.99 692.457 1271.72 694.551" fill="white"/>
<path fill-rule="evenodd" clip-rule="evenodd" d="M301.999 620.459C301.999 738.873 398.032 834.906 516.446 834.906C634.861 834.906 730.894 738.873 730.894 620.459C730.894 502.045 634.861 406.011 516.446 406.011C643.575 406.011 746.664 493.33 746.664 620.459C746.664 747.587 643.303 857.113 516.174 857.113C389.045 857.113 270.409 747.587 270.409 620.459C270.409 756.921 379.96 866.769 516.422 866.769C652.884 866.769 763.574 756.946 763.574 620.459C763.574 483.972 652.661 360.903 516.199 360.903C662.713 360.903 781.746 473.97 781.746 620.459C781.746 766.947 662.935 889.149 516.422 889.149C369.908 889.149 245.107 765.982 241.294 620.31C241.294 621.969 241.368 624.568 241.442 626.623C245.329 774.325 359.832 900.216 516.174 900.216C672.516 900.216 801.279 777.717 801.279 620.434C801.279 463.151 673.705 315.895 516.422 315.895C685.266 315.895 822.174 451.614 822.174 620.459C822.174 789.303 685.242 926.211 516.422 926.211C347.602 926.211 210.669 789.303 210.669 620.459C210.669 505.015 268.601 406.63 365.6 349.837C381.074 340.776 396.943 332.729 412.788 325.203C419.299 332.036 433.411 338.176 450.394 342.929C467.699 347.757 488.099 352.931 507.583 352.832V357.908C461.436 357.016 429.202 366.201 388.872 388.656C386 384.497 379.662 383.729 372.087 388.755C364.511 393.781 359.015 404.501 361.169 411.136C363.298 417.771 371.839 417.474 379.044 412.151C386.248 406.803 390.259 399.772 390.308 393.806C429.895 371.301 462.005 361.77 507.583 362.958V367.959C488.57 366.3 470.2 373.133 457.029 384.546C443.437 396.331 435.614 411.359 433.262 421.583C361.045 462.284 301.974 533.437 301.974 620.483" fill="white"/>
<path fill-rule="evenodd" clip-rule="evenodd" d="M524.693 790.26C523.158 789.74 521.846 789.17 520.484 788.626C520.335 788.205 520.236 787.908 520.088 787.685C523.455 787.685 528.852 783.105 531.476 780.778C535.809 774.093 538.681 767.904 541.206 760.254C543.533 748.247 544.202 740.795 544.721 739.705C553.807 734.68 573.069 738.294 579.555 746.687C584.828 759.016 567.647 766.072 559.526 771.568C547.593 781.124 539.745 789.245 524.693 790.21M522.415 770.083C498.252 766.889 473.074 756.441 451.263 745.771C435.269 735.967 421.43 725.049 407.541 712.448C388.231 691.206 385.804 687.715 385.012 687.344C380.383 679.025 394.073 680.981 397.564 683.011C416.9 704.996 435.69 723.687 461.314 737.601C466.86 739.953 472.381 742.453 477.951 744.954C493.944 750.475 510.631 756.54 527.268 758.868C532.021 762.061 534.2 766.097 528.208 769.711C526.228 769.81 524.297 769.959 522.44 770.083H522.415ZM527.787 752.53C526.335 752.365 524.486 751.82 522.242 750.896C521.846 749.534 521.92 741.612 522.489 738.864C526.451 733.467 534.695 736.957 537.418 741.909C537.418 750.5 535.933 751.589 527.787 752.53ZM487.656 743.419C482.407 741.612 478.199 741.538 478.075 735.422C483.076 725.049 486.616 715.938 496.643 727.352C498.153 732.922 498.004 739.557 493.226 743.171C491.345 743.171 489.463 743.27 487.656 743.394V743.419ZM588.245 732.798C584.16 731.956 576.188 731.684 575.074 726.98C583.912 717.424 591.934 706.952 599.46 696.306C600.549 696.025 601.465 695.976 602.208 696.157C602.554 696.719 603.182 701.695 604.089 711.086C604.089 718.587 605.278 727.97 598.395 732.105C595.028 732.303 591.636 732.526 588.245 732.823V732.798ZM546.133 730.694C531.897 729.604 519.271 728.094 505.852 723.093C486.319 713.19 436.161 673.628 461.24 648.104H488.201C508.204 675.634 533.036 706.382 562.076 730.025C556.654 730.174 551.381 730.471 546.133 730.694ZM450.149 724.059C445.148 721.063 438.24 720.098 437.027 713.289C438.364 711.408 441.484 708.635 446.881 702.669C449.356 698.658 451.486 692.023 456.66 692.023C459.358 695.489 461.958 698.93 463.295 703.238C462.502 710.294 457.081 721.484 450.173 724.084L450.149 724.059ZM567.102 723.093C563.413 720.345 553.139 710.418 553.981 705.837C566.582 687.616 579.159 667.959 589.334 648.104H602.48C607.258 675.213 588.913 700.762 573.638 720.89C571.129 721.996 568.959 722.73 567.127 723.093H567.102ZM411.428 690.513C408.036 687.071 404.249 683.729 401.798 679.595C402.07 678.902 402.318 678.307 402.738 677.787C413.582 668.825 425.639 661.076 432.026 648.079H447.45C440.023 666.226 429.179 681.798 411.428 690.513ZM530.511 683.63C526.871 680.436 518.999 673.826 518.999 668.825C524.569 661.076 529.917 655.011 536.254 648.104H556.135C555.862 650.455 555.615 651.248 555.045 652.387C550.861 660.606 539.894 682.368 530.511 683.63ZM621.989 634.19C624.786 634.19 626.643 635.18 626.643 637.829C626.643 640.453 624.638 641.394 622.014 641.394H418.286C414.845 641.394 410.76 641.815 410.636 637.928C410.512 634.041 414.894 634.19 418.137 634.19H621.989ZM647.316 633.026C644.865 632.383 644.493 633.15 641.201 630.922C639.864 630.006 639.641 626.416 641.102 626.243C645.186 625.797 655.337 624.782 653.381 631.17C652.812 633.026 649.148 633.472 647.316 633.002V633.026ZM455.843 628.05C455.719 627.803 473.272 628.05 491.766 617.404C502.411 625.327 523.876 628.05 537.517 628.05H455.843ZM628.129 629.511C618.572 628.793 616.295 611.884 621.964 600.966C627.015 591.211 647.439 587.621 642.958 597.623C640.086 604.06 631.124 601.684 629.787 614.087C628.946 621.91 635.68 630.08 628.129 629.511ZM594.211 627.926C594.211 616.167 594.607 602.6 608.051 600.669C611.517 602.476 614.24 619.336 614.562 623.643C615.106 625.178 615.106 625.574 614.809 628.075L594.211 627.951V627.926ZM533.605 619.781C531.278 619.162 532.169 616.414 533.457 615.894C536.626 614.607 549.549 614.161 547.519 619.237C546.851 620.895 538.755 621.143 533.605 619.756V619.781ZM641.052 621.737C640.606 621.019 641.671 617.603 643.404 617.429C646.102 617.132 660.61 615.548 657.318 621.588C655.708 624.559 642.81 624.584 641.052 621.737ZM563.884 620.573C559.378 619.558 559.303 614.879 561.012 609.68C562.274 605.868 563.586 600.842 561.532 597.203C556.11 593.093 555.837 591.162 556.258 584.23C560.195 567.122 561.111 556.774 562.324 553.159C568.142 552.318 574.331 555.165 576.559 559.472C583.318 572.52 582.501 586.656 576.559 602.005C574.801 606.586 569.429 621.811 563.859 620.573H563.884ZM520.954 621.638C509.962 620.029 493.474 617.429 492.459 607.303C491.246 595.271 505.184 592.078 511.25 591.409C521.994 590.246 541.528 592.672 548.311 596.138C552.099 598.069 551.406 600.792 545.514 599.332C532.244 596.039 527.886 600.57 528.332 618.84C528.406 622.183 523.009 621.935 520.954 621.638ZM535.834 612.255C533.358 611.512 533.135 609.903 533.952 608.913C535.289 607.279 548.014 607.378 547.321 611.364C546.875 613.988 539.72 613.443 535.834 612.255ZM647.316 612.329C643.132 611.735 640.507 608.517 644.766 605.57C648.553 605.026 666.156 603.318 659.521 611.884C656.971 613.171 651.401 612.181 647.316 612.329ZM543.805 606.09C541.28 605.942 534.596 606.115 535.289 602.773C535.957 599.431 542.865 601.659 545.687 602.501C550.143 603.837 548.93 606.387 543.805 606.09ZM654.099 601.238C649.197 598.341 653.802 595.866 657.441 595.866C662.418 595.024 662.987 597.846 659.942 600.347C658.58 601.04 657.639 600.842 654.099 601.238ZM642.562 586.879C631.917 587.25 626.049 573.856 629.317 565.315C639.74 565.414 650.311 565.587 660.907 565.835C661.749 575.639 657.986 586.334 642.562 586.879ZM481.615 535.21C480.922 534.913 480.352 534.789 479.833 534.616C479.833 529.937 487.433 526.05 488.646 531.447C486.888 533.799 484.14 534.344 481.615 535.186V535.21ZM469.855 530.63C468.989 530.333 468.32 530.086 467.652 529.962C465.993 522.906 481.07 515.999 486.765 519.861C486.443 520.703 486.319 521.52 486.22 522.361C476.416 523.228 472.183 527.56 469.831 530.63H469.855ZM458.838 511.988C453.491 493.717 455.199 470.198 476.49 459.775C497.881 449.303 534.546 455.418 551.703 492.95C533.506 483.938 516.152 481.437 499.267 485.522C482.927 489.484 470.029 499.461 458.838 512.013V511.988ZM519.271 561.205C518.726 561.057 515.533 560.785 515.434 560.388C515.087 559.052 516.671 557.17 517.934 556.601C521.895 554.793 525.931 551.501 526.995 557.145C525.782 559.67 521.846 560.314 519.271 561.205ZM512.487 555.239C511.968 554.843 511.398 554.397 511.002 554.125C511.002 549.025 523.752 546.747 526.475 548.455V549.817C521.87 553.952 518.479 554.892 512.487 555.214V555.239ZM484.982 511.988C480.897 511.295 475.599 510.552 464.706 517.93C480.625 499.04 499.515 491.093 515.186 491.415C530.882 491.737 541.33 495.945 551.406 502.432C564.701 493.593 565.518 517.336 555.466 523.03C555.466 540.954 551.282 554.273 537.047 565.043C514.938 575.565 492.162 561.725 478.273 544.296C478.273 543.776 481.219 544.296 481.219 543.851C493.82 540.682 496.073 535.532 497.757 533.552C501.124 537.686 505.209 542.761 507.511 547.49C511.299 547.614 520.137 548.753 519.122 542.514C518 541.688 515.739 540.723 512.339 539.617C504.936 527.857 499.737 514.439 485.007 511.988H484.982ZM517.389 515.702C516.325 515.875 515.953 514.81 516.572 513.894C518.602 510.849 524.792 505.056 527.441 508.349C530.115 511.666 520.979 515.132 517.389 515.702ZM512.884 522.584C498.227 517.732 518.924 503.348 524.817 501.615C528.357 500.575 534.026 500.104 537.443 501.738C538.804 510.453 529.446 518.252 522.514 520.95C519.444 522.138 515.904 523.574 512.884 522.584ZM510.68 584.453L461.166 546.326C463.196 545.287 464.582 543.925 466.711 542.885C477.555 557.393 499.96 576.283 520.459 577.174C539.448 578.016 548.98 566.429 551.356 562.047C553.659 567.296 548.955 583.834 544.499 587.423C536.873 585.839 527.317 583.611 510.705 584.453H510.68ZM446.41 546.104L412.592 522.312C405.585 517.385 407.368 510.082 416.083 515.9L454.555 541.647C457.65 539.716 459.754 538.082 462.082 537.117C443.687 511.666 439.553 468.811 470.4 452.793C509.69 432.393 546.43 457.844 559.972 488.617C574.95 489.88 576.262 516.073 564.527 526.743C565.146 532.091 564.577 538.454 563.091 542.316C584.853 544.618 602.183 573.584 608.026 591.706C614.562 588.958 618.449 588.488 623.945 588.339C618.449 582.15 615.156 562.641 621.766 556.328L668.335 556.749C676.727 563.087 670.464 583.536 666.032 591.979C667.938 599.307 667.518 605.793 667.121 613.542C663.185 628.446 653.975 641.592 652.49 657.09C649.321 669.139 647.332 676.277 646.523 678.505C645.459 679.05 644.642 678.753 643.28 678.629C638.527 670.633 635.556 657.239 632.436 648.104H613.448C615.874 660.68 613.299 673.306 611.17 685.982H679.896C689.353 685.982 690.987 698.187 680.119 698.187H612.606C612.457 717.919 617.483 742.602 585.719 740.968C596.662 754.807 579.852 764.884 570.717 773.796C552.594 791.473 533.234 798.207 522.118 795.137C511.25 792.141 510.086 783.031 526.822 777.906C529.57 777.064 522.96 776.024 518.85 775.455C471.366 768.771 426.035 746.588 383.626 698.163H350.08C343.395 698.163 342.925 685.957 349.634 685.957H378.229C380.209 685.957 375.332 682.17 376.05 678.208C390.038 674.866 420.935 666.449 422.817 648.079H415.538C410.438 648.079 403.654 645.702 403.555 638.077C403.456 630.452 409.67 628.05 415.538 628.05H436.532C421.48 626.045 408.928 616.216 406.279 603.986C400.213 576.085 424.352 558.779 446.435 546.079L446.41 546.104ZM501.966 586.087L452.996 550.659C430.813 562.988 410.735 578.313 414.622 602.104C417.122 617.404 431.927 620.846 444.727 621.044C458.442 621.242 473.049 620.053 485.378 613.245C485.799 611.884 486.22 610.646 486.616 609.433C490.528 577.941 454.506 583.71 435.789 588.414C435.096 587.621 434.403 586.904 433.735 586.21C433.735 584.552 433.487 583.462 434.552 582.348C437.126 581.383 449.183 579.278 454.481 577.793C455.273 574.451 449.332 572.916 447.029 572.099C446.856 571.43 446.856 570.737 446.856 570.217C449.852 567.989 452.179 569.078 455.57 570.019C455.793 569.771 456.115 569.474 456.363 569.326C457.18 564.102 449.852 562.146 452.03 557.764C461.933 556.502 465.969 572.42 471.539 578.907C482.531 578.461 489.191 584.626 492.855 589.553C495.652 588.042 498.178 586.953 501.941 586.111L501.966 586.087Z" fill="white"/>
</svg>
