<svg width="2031" height="1243" viewBox="0 0 2031 1243" fill="none" xmlns="http://www.w3.org/2000/svg">
<path d="M825.397 764.256C752.953 880.53 586.783 927.536 461.514 826.08C295.204 688.992 382.553 419.087 599.261 408.404L596.973 368.842C534.789 373.115 474.546 399.237 429.486 441.901C311.981 550.8 319.329 746.543 447.51 843.38C584.634 949.454 765.709 893.488 837.113 764.187H825.467L825.397 764.256Z" fill="#AAAAAA"/>
<path d="M1500.27 786.449C1508.1 788.517 1515.59 791.894 1521.76 797.132C1534.86 808.229 1539.99 825.322 1546.79 841.312C1548.8 846.068 1554.83 847.584 1558.85 844.345C1571.81 833.8 1597.39 814.915 1600.58 812.158C1616.25 798.58 1635.45 789.895 1655.77 786.518H1500.34L1500.27 786.449Z" fill="#AAAAAA"/>
<path d="M1063.18 479.051H1694.73C1775.42 479.051 1841 544.184 1841 624.479V652.394C1841 732.62 1775.49 797.822 1694.73 797.822H1064.78C983.18 797.822 916.906 731.931 916.906 650.808V624.479C916.906 544.252 982.418 479.051 1063.18 479.051Z" fill="#AAAAAA"/>
<path d="M589.141 479.051H1381.8V797.822H590.735C509.14 797.822 442.866 731.931 442.866 650.808V624.479C442.866 544.252 508.378 479.051 589.141 479.051Z" fill="#555454"/>
<path d="M766.68 588.777C772.296 565.895 794.341 544.529 824.012 544.184C852.573 543.839 876.421 564.241 882.452 588.709C881.897 588.709 881.412 588.777 880.857 588.777C867.825 588.777 854.861 588.777 841.828 588.777C839.61 588.777 837.946 589.536 836.906 591.534C835.173 594.981 837.46 598.978 841.343 599.047C846.473 599.116 851.603 599.047 856.733 599.047C865.537 599.047 874.41 599.047 883.215 599.047C884.116 599.047 884.393 599.392 884.393 600.219C884.393 604.147 884.393 608.076 884.393 612.211C883.631 612.211 882.799 612.211 882.036 612.211C868.587 612.211 855.138 612.211 841.62 612.211C838.986 612.211 837.045 613.659 836.49 616.002C835.935 618.346 836.906 620.827 839.055 621.861C839.817 622.205 840.719 622.412 841.551 622.412C851.811 622.412 862.001 622.412 872.261 622.412C876.282 622.412 880.303 622.412 884.462 622.412V635.439C883.977 635.439 883.561 635.439 883.076 635.439C875.728 635.439 868.31 635.439 860.961 635.439C854.584 635.439 848.206 635.439 841.828 635.439C838.57 635.439 836.351 637.575 836.351 640.677C836.351 643.71 838.57 645.777 841.828 645.777C855.416 645.777 869.003 645.777 882.591 645.777C883.145 645.777 883.7 645.777 884.324 645.777V658.942C881.551 658.942 878.709 658.942 875.936 658.942C864.497 658.942 852.989 658.942 841.551 658.942C839.124 658.942 837.252 660.251 836.559 662.388C835.797 664.593 836.559 667.075 838.5 668.246C839.471 668.867 840.788 669.142 841.967 669.142C855.554 669.142 869.142 669.142 882.799 669.142C883.284 669.142 883.769 669.142 884.324 669.142V682.307C883.63 682.307 883.145 682.307 882.591 682.307C868.864 682.307 855.208 682.307 841.481 682.307C838.916 682.307 836.767 684.03 836.351 686.304C835.866 688.992 837.183 691.542 839.679 692.232C840.927 692.576 842.382 692.507 843.7 692.576C856.317 692.576 868.934 692.576 881.481 692.576C881.759 692.576 882.036 692.576 882.313 692.576C876.975 715.39 853.682 737.721 823.11 737.032C793.509 736.343 771.88 714.701 766.542 692.507H768.344C781.377 692.507 794.479 692.507 807.512 692.507C809.661 692.507 811.325 691.542 812.157 689.544C813.058 687.476 812.85 685.477 811.256 683.754C810.216 682.582 808.76 682.169 807.166 682.169C796.005 682.169 784.774 682.169 773.613 682.169C770.701 682.169 767.789 682.169 764.67 682.169V669.004C767.235 669.004 769.869 669.004 772.504 669.004C784.081 669.004 795.589 669.004 807.166 669.004C810.84 669.004 812.92 666.592 812.504 663.077C812.157 660.458 810.216 658.804 807.304 658.804C802.59 658.804 797.946 658.804 793.231 658.804C784.15 658.804 775.138 658.804 766.056 658.804C765.571 658.804 765.086 658.804 764.462 658.804V645.639C765.017 645.639 765.571 645.639 766.195 645.639C779.783 645.639 793.37 645.639 807.027 645.639C809.939 645.639 812.642 643.503 812.573 640.47C812.504 637.3 810.424 635.301 807.027 635.301C798.639 635.301 790.32 635.301 781.932 635.232C776.178 635.232 770.424 635.232 764.531 635.232V622.205C765.016 622.205 765.502 622.205 766.056 622.205C779.783 622.205 793.44 622.205 807.166 622.205C811.325 622.205 813.821 618.552 812.157 614.831C811.256 612.763 809.453 611.867 807.235 611.867C793.786 611.867 780.337 611.867 766.819 611.867C766.126 611.867 765.363 611.867 764.462 611.867C764.462 610.419 764.462 609.11 764.462 607.731C764.462 605.181 764.462 602.7 764.462 600.15C764.462 599.047 764.878 598.634 766.056 598.634C779.644 598.634 793.232 598.634 806.819 598.634C809.176 598.634 811.048 597.944 812.018 595.67C813.544 592.224 811.325 588.295 807.166 588.295C796.767 588.364 786.438 588.295 776.039 588.295C772.85 588.295 769.661 588.295 766.403 588.295L766.68 588.777Z" fill="white"/>
<path d="M744.496 665.834C747.824 665.834 750.597 668.522 750.597 671.83C750.597 676.517 750.666 682.927 750.943 686.649C751.636 697.056 754.825 706.775 759.955 715.873C765.363 725.453 772.919 733.862 781.931 740.203C794.063 748.68 807.443 753.091 822.001 753.642C831.637 753.987 841.273 752.471 850.285 749.094C863.11 744.269 873.717 736.619 882.174 726.211C889.731 716.837 894.791 706.292 897.079 694.506C897.911 689.957 898.258 685.27 898.465 680.584C898.604 678.378 898.604 674.863 898.604 671.83C898.604 668.522 901.308 665.834 904.635 665.834C907.963 665.834 910.667 668.522 910.667 671.83C910.667 671.968 910.667 672.175 910.667 672.313C910.736 680.515 910.667 688.717 909.003 696.85C904.774 717.113 894.583 733.793 878.5 746.819C865.814 757.089 850.424 763.499 834.132 765.291C816.801 767.152 800.302 764.188 784.843 756.193C776.108 751.713 768.344 745.854 761.619 738.686C752.884 729.382 746.506 718.698 742.555 706.568C740.198 699.469 738.465 687.407 738.396 679.894C738.396 677.206 738.396 674.587 738.396 671.899C738.396 668.591 741.168 665.903 744.496 665.903V665.834Z" fill="#AAAAAA"/>
<path d="M419.573 468.574H290.283C234.346 468.574 189 513.658 189 569.271V609.867C189 665.481 234.346 710.565 290.283 710.565H419.573C475.51 710.565 520.856 665.481 520.856 609.867V569.271C520.856 513.658 475.51 468.574 419.573 468.574Z" fill="#AAAAAA"/>
<path d="M287.163 548.387C287.163 539.014 286.886 532.673 286.4 528.124V527.641H257.7V528.193C258.116 535.705 258.186 549.145 258.186 569.822V651.566H287.579V593.67C287.579 566.859 298.74 555.418 324.945 555.349H325.43V525.643H324.876C301.167 525.78 290.976 540.185 287.094 548.387H287.163Z" fill="white"/>
<path d="M398.914 525.298C357.32 525.298 342.554 559.967 342.554 589.604C342.554 631.027 362.103 653.84 397.597 653.84C433.091 653.84 445.292 632.474 450.422 614.554L450.63 613.865H421.722L421.583 614.209C417.909 624.892 410.145 630.338 398.568 630.338C391.566 630.338 385.743 628.132 381.375 623.721C375.483 617.862 372.294 608.144 372.225 596.22H451.67V595.738C451.878 594.222 452.086 587.329 452.086 585.882C452.086 563.206 445.154 525.16 398.914 525.16V525.298ZM398.429 547.905C417.909 547.905 422.762 563.206 423.317 576.301H372.779C373.542 565.411 378.048 547.905 398.429 547.905Z" fill="white"/>
<path d="M1533.89 659.354C1533.89 681.685 1526.41 690.783 1507.97 690.783C1489.53 690.783 1481.34 681.134 1481.34 659.423V560.725H1447.17V660.595C1447.17 699.743 1467.41 719.662 1507.34 719.662C1547.27 719.662 1568.28 699.605 1568.28 660.112V560.725H1533.89V659.354Z" fill="white"/>
<path d="M1690.84 560.655V614.898C1690.84 631.439 1690.91 648.395 1691.47 663.489C1683.98 648.601 1669.42 620.412 1639.47 562.654L1638.43 560.655H1598.23V717.387H1630.11V662.937C1630.11 644.535 1630.11 625.719 1629.7 609.315C1637.19 624.409 1651.95 653.84 1683.15 715.25L1684.19 717.318H1722.73V560.586H1690.77L1690.84 560.655Z" fill="white"/>
<path d="M675.796 563.757C660.198 609.936 649.66 642.744 644.392 661.904C637.945 636.334 625.952 594.842 615.83 563.826L614.998 561.276H569.938V714.217H601.203V656.597C601.203 643.571 601.064 628.27 600.718 614.209C609.244 646.879 621.099 688.785 627.685 711.529L628.447 714.148H656.662L657.494 711.598C667.962 679.687 680.094 640.469 688.344 610.763C688.136 623.859 687.997 638.884 687.997 653.496V714.148H720.371V561.207H676.697L675.865 563.688L675.796 563.757Z" fill="white"/>
<path d="M984.637 561.275H931.118V714.217H983.042C1028.73 714.217 1056.04 684.442 1056.04 634.541C1056.04 589.396 1028.66 561.275 984.637 561.275ZM964.463 589.327H982.765C1007.65 589.327 1021.86 605.938 1021.86 634.955C1021.86 658.389 1015.07 686.372 982.488 686.372H964.394V589.327H964.463Z" fill="white"/>
<path d="M1117.81 648.946H1182.21V620.136H1117.81V590.016H1184.98V561.275H1085.16V714.217H1185.12L1189.42 685.613H1117.81V648.946Z" fill="white"/>
<path d="M1250.08 561.275H1216.87V714.217H1313.72L1317.81 685.613H1250.08V561.275Z" fill="white"/>
<path d="M659.297 384.97L587.893 343.34L595.796 437.765L659.297 384.97Z" fill="#AAAAAA"/>
<path d="M814.584 797.89C822.902 787.345 830.459 776.179 836.975 764.324H825.329C817.842 776.317 809.315 787.482 799.956 797.89H814.514H814.584Z" fill="#AAAAAA"/>
</svg>
