<svg width="1226" height="666" viewBox="0 0 1226 666" fill="none" xmlns="http://www.w3.org/2000/svg">
<path d="M340.863 494.843C329.936 485.501 314.227 482.158 304.201 472.244C315.896 466.048 333.999 463.914 325.905 445.964C323.523 440.677 306.345 451.391 304.181 452.989C297.538 457.905 291.798 464.231 284.599 468.37C272.92 475.093 266.996 468.179 256.334 462.392C243.888 455.645 230.653 450.328 216.908 446.93C206.347 444.323 195.533 442.836 184.897 440.51C171.705 437.627 158.847 433.462 146.12 429.024C141.338 427.35 134.035 426.436 131.778 421.229C130.352 417.94 131.747 413.948 131.026 410.445C129.344 402.262 117.59 367.913 105.893 380.203C96.1485 390.454 116.292 401.776 111.206 412.84L87.9362 405.207C81.8787 403.214 51.6966 409.606 50.7387 417C48.9241 431.031 76.3168 423.3 83.0461 423.455C93.8207 423.706 105.884 426.594 113.614 434.573L110.905 447.138C103.913 444.567 96.5744 442.407 89.0621 442.321C84.1706 442.269 62.5035 447.416 57.207 449.119C46.8874 452.455 49.2575 464.438 56.7062 466.993C64.5807 469.685 78.7865 457.14 89.1857 458.861C103.698 461.26 120.213 470.224 131.432 479.646C114.698 494.822 102.705 484.534 85.2459 481.31C81.2469 480.576 47.9268 481.201 46.406 482.42C41.7642 486.168 46.4959 495.758 51.4112 497.93C58.8894 501.241 86.2247 494.178 88.9636 502.39C82.971 516.43 65.5421 521.767 61.1918 537.003L74.1253 544.218L106.858 512.421C119.847 509.148 126.015 496.024 140.198 495.793C142.667 503.186 110.734 539.511 103.038 544.423C96.2741 548.74 82.9116 549.64 85.5194 560.545C87.4206 568.508 92.8615 567.675 99.4613 565.269C105.285 563.147 120.948 550.404 126.055 545.741C142.792 530.424 155.085 510.552 159.106 487.941C168.567 484.92 179.632 480.008 189.44 483.809C185.143 496.538 187.026 511.587 176.851 521.746L160.011 511.683C143.995 532.864 174.953 528.038 169.423 545.242C164.618 560.187 152.331 555.679 140.716 558.451C133.818 560.088 105.113 575.278 115.889 582.859C129.605 592.497 140.287 569.697 153.716 575.438C157.341 578.139 150.067 593.092 148.93 597.898C148.434 600.012 146.969 611.402 147.572 612.113C154.479 617.417 157.257 610.747 164.149 612.963C168.573 592.167 171.76 569.702 186.23 553.111C187.81 560.807 193.017 570.091 193.339 577.758C193.819 589.384 183.355 610.624 199.82 613.676C209.291 598.953 210.754 582.924 206.795 566.23C205.026 558.799 192.507 534.19 193.075 530.797C193.667 527.199 197.653 524.168 198.97 520.565C202.111 511.958 201.136 500.929 205.695 491.46C206.443 489.909 206.062 488.434 208.446 490.081C212.222 492.693 226.889 509.188 227.367 513.484C227.845 517.815 218.627 531.418 216.741 538.854C212.834 554.211 219.154 608.857 231.655 618.375C236.704 622.218 239.977 622.221 242.88 616.07C246.87 607.609 237.234 591.309 234.891 581.435C230.747 563.987 230.374 547.751 238.04 531.015C241.869 528.261 254.73 573.366 255.466 576.898C258.052 589.243 253.675 612.059 273.872 606.607C281.067 591.982 269.199 577.268 271.489 562.326C284.656 563.563 295.457 584.329 308.88 579.288C324.026 573.598 303.832 561.143 297.4 556.848C285.872 549.144 282.233 548.904 270.189 544.849C258.03 540.753 253.043 527.278 252.499 515.464C268.68 523.089 290.807 518.756 304.816 530.726C310.949 535.971 312.582 545.94 316.955 550.458C324.46 558.203 336.773 552.913 331.292 542.015C322.199 523.938 304.961 509.893 286.329 502.424L288.978 489.897C302.051 495.572 314.526 493.791 325.677 503.675C331.921 509.208 335.728 523.24 346.571 518.89C356.997 514.714 346.361 499.533 340.839 494.811L340.863 494.843Z" fill="white"/>
<path d="M223.131 115.987C224.43 118.995 235.66 129.429 238.884 131.016C244.532 133.801 259.073 133.696 265.303 132.239C268.158 131.574 271.171 125.852 272.367 125.823C278.309 127.74 284.692 128.744 290.635 130.59C294.847 131.896 299.912 133.575 304.054 135.047C305.362 135.508 308.66 136.516 308.966 137.834C301.418 157.837 293.699 177.851 285.546 197.617C250.649 282.22 211.106 364.261 164.407 442.713L175.721 447.222C183.878 434.04 191.902 420.763 199.412 407.162C233.165 346.124 260.612 281.344 287.899 217.184C293.362 204.344 301.277 179.027 310.442 169.615C318.147 161.717 325.31 167.337 325.845 177.191C326.32 185.838 322.952 197.21 320.435 205.562C314.003 226.871 305.405 247.631 298.618 268.839C276.608 337.539 259.751 405.316 249.291 476.546L259.347 480.553C272.518 396.214 296.439 313.445 323.443 232.12C331.198 208.774 339.75 175.226 351.069 154.216C351.949 152.593 353.114 150.702 355.238 151.238L397.635 164.628C401.027 159.918 403.712 154.792 405.575 149.27C390.519 143.939 374.96 139.428 360.285 133.318L359.154 130.737L372.216 103.404C373.465 93.2654 381.287 82.7161 383.362 73.1295C383.573 72.1603 383.259 68.207 382.83 67.6054C381.104 65.1349 360.002 57.1041 356.002 55.8363C352.972 54.8753 341.215 51.6917 339.198 53.3764C338.046 54.3224 337.382 56.5432 336.897 57.9853C331.122 74.8418 326.765 92.3169 320.824 109.103C318.56 115.528 318.228 117.984 310.949 115.822C304.667 113.963 295.033 109.868 288.965 107.065C287.424 106.356 280.583 103.019 279.935 102.47C278.428 101.192 280.881 96.9929 278.088 93.5773C272.679 86.9508 263.717 79.0006 255.362 76.696C249.335 75.0221 245.174 77.137 239.617 78.0961C238.216 78.3374 236.473 77.462 235.345 78.037C234.678 78.3829 229.709 84.5061 228.419 85.8778C223.575 91.0728 221.133 91.3741 220.597 100.127C220.547 100.976 222.821 115.25 223.141 115.991L223.131 115.987ZM369.093 83.5295C368.632 84.8376 367.659 84.6724 369.279 85.3262C370.16 85.6845 371.192 86.5582 371.292 86.5104C371.585 86.3527 371.348 85.1423 371.718 84.5615C374.256 80.558 374.33 74.9983 376.322 70.423C376.867 69.18 377.718 68.2465 379.016 69.2734C377.075 72.1233 377.953 76.1923 376.848 78.9928C376.06 80.9922 372.746 85.9198 372.51 88.1019C372.392 89.2461 373.618 90.3425 373.45 91.2912C372.812 94.8851 362.804 110.558 360.488 115.648C356.11 125.276 352.258 136.407 348.238 146.399C347.008 149.452 346.842 153.354 343.982 156.118C343.276 155.833 348.254 144.673 348.707 143.184C349.832 139.453 350.835 129.442 352.606 127.077C353.634 125.708 352.77 128.629 354.492 124.35C354.673 123.904 356.134 124.538 356.345 124.173C357.023 122.989 356.084 121.045 356.522 119.231C358.695 110.272 365.732 99.6951 367.998 90.6743C368.591 88.3214 367.333 87.3801 367.736 84.7232C367.819 84.1834 368.639 81.9581 369.097 83.5543L369.093 83.5295ZM338.758 121.378L340.652 120.883C337.625 125.972 335.952 130.754 334.672 136.47C333.975 139.557 333.822 141.507 332.88 145.053C332.237 147.483 333.237 152.722 329.215 152.727C326.296 152.73 330.125 146.644 330.28 146.105C330.881 144.028 330.963 141.543 331.612 139.601C333.651 133.477 336.549 127.478 338.758 121.378Z" fill="white"/>
<path d="M1129 308.445C1129 285.196 1119.98 278.911 1094.74 278.911C1085.41 278.911 1075.92 279.981 1066.89 281.819L1063.06 303.548C1069.33 300.489 1081.88 297.731 1092.28 297.731C1105.58 297.731 1111.55 300.171 1111.55 311.203V312.423C1106.5 310.284 1098.7 308.445 1091.04 308.445C1076.5 308.445 1059.99 314.261 1059.99 332.931C1059.99 349.294 1072.22 357.25 1086.15 357.25C1097.78 357.25 1107.56 352.052 1111.7 341.957V354.342H1137.41C1133.73 348.993 1129 335.071 1129 319.61V308.445ZM1111.57 327.415C1111.12 334.452 1103.46 338.898 1092.6 338.898C1083.42 338.898 1078.37 335.221 1078.37 329.872C1078.37 323.755 1084.64 320.997 1093.22 320.997C1101.17 320.997 1108.06 322.685 1111.57 324.357V327.415Z" fill="white"/>
<path d="M1191.72 354.339H1225.98C1222.3 348.99 1217.57 335.067 1217.57 319.607V311.033C1217.57 290.992 1210.07 279.51 1192.48 279.51C1179.01 279.51 1170.91 287.766 1167.85 298.179L1168.62 281.816H1142.31C1146.14 287.165 1150.72 301.088 1150.72 316.548V319.607C1150.72 335.067 1146.12 348.99 1142.31 354.339H1176.57C1172.74 348.99 1168.17 335.067 1168.17 319.607V318.537C1168.17 307.222 1174.13 299.868 1184.23 299.868C1194.32 299.868 1200.14 307.205 1200.14 318.537V319.607C1200.14 335.067 1195.54 348.99 1191.73 354.339H1191.72Z" fill="white"/>
<path d="M418.073 281.663C418.073 275.696 424.808 271.869 435.673 271.869C446.537 271.869 459.841 274.309 469.335 279.373L470.872 254.887C458.788 251.828 447.924 250.759 437.06 250.759C412.122 250.759 396.662 262.392 396.662 280.142C396.662 315.643 451.584 305.999 451.584 324.2C451.584 332.156 444.08 335.516 432.464 335.516C418.24 335.516 403.247 331.688 395.442 325.421C393.603 344.541 408.913 356.626 435.071 356.626C458.487 356.626 473.012 344.692 473.012 325.103C473.012 288.85 418.089 299.096 418.089 281.646L418.073 281.663Z" fill="white"/>
<path d="M561.723 281.82H527.292C531.27 287.169 535.699 301.092 535.699 316.552V317.622C535.699 328.937 529.883 336.291 519.787 336.291C509.692 336.291 503.875 328.954 503.875 317.622V316.552C503.875 301.092 508.305 287.169 512.283 281.82H477.852C481.679 287.169 486.259 301.092 486.259 316.552V325.126C486.259 345.167 493.763 356.649 511.497 356.649C524.801 356.649 532.925 348.392 536.134 337.98L535.365 354.343H561.673C557.695 348.994 553.266 335.071 553.266 319.611V316.552C553.266 301.092 557.695 287.169 561.673 281.82H561.723Z" fill="white"/>
<path d="M642.521 311.049C642.521 291.009 635.017 279.526 617.433 279.526C603.962 279.526 595.856 287.783 592.797 298.196L593.566 281.833H567.258C571.085 287.181 575.665 301.104 575.665 316.565V319.624C575.665 335.084 571.069 349.007 567.258 354.355H601.522C597.694 349.007 593.114 335.084 593.114 319.624V318.554C593.114 307.238 599.081 299.884 609.177 299.884C619.272 299.884 625.089 307.222 625.089 318.554V319.624C625.089 335.084 620.492 349.007 616.681 354.355H650.945C647.268 349.007 642.538 335.084 642.538 319.624V311.049H642.521Z" fill="white"/>
<path d="M732.471 298.965C732.471 275.866 736.148 254.138 738.738 248.171H706.463C709.672 253.687 713.801 270.668 714.419 294.068C710.893 285.961 703.104 278.607 690.401 278.607C671.581 278.607 657.508 294.369 657.508 318.855C657.508 343.341 670.979 357.564 688.88 357.564C704.642 357.564 713.199 346.082 715.038 336.154L714.118 354.355H740.426C737.067 348.388 732.471 329.117 732.471 303.561V298.965ZM695.131 337.357C683.498 337.357 676.161 329.702 676.161 318.086C676.161 306.47 683.498 298.815 695.131 298.815C706.146 298.815 713.951 306.47 713.951 318.086C713.951 329.702 706.146 337.357 695.131 337.357Z" fill="white"/>
<path d="M817.513 308.445C817.513 285.196 808.487 278.911 783.249 278.911C773.922 278.911 764.429 279.981 755.403 281.819L751.575 303.548C757.843 300.489 770.395 297.731 780.792 297.731C794.096 297.731 800.063 300.171 800.063 311.203V312.423C795.015 310.284 787.21 308.445 779.555 308.445C765.014 308.445 748.5 314.261 748.5 332.931C748.5 349.294 760.735 357.25 774.658 357.25C786.291 357.25 796.068 352.052 800.213 341.957V354.342H825.92C822.243 348.993 817.513 335.071 817.513 319.61V308.445ZM800.063 327.415C799.612 334.452 791.957 338.898 781.092 338.898C771.916 338.898 766.869 335.221 766.869 329.872C766.869 323.755 773.137 320.997 781.711 320.997C789.667 320.997 796.553 322.685 800.063 324.357V327.415Z" fill="white"/>
<path d="M856.213 302.024L857.132 281.834H830.824C834.652 287.182 839.231 301.105 839.231 316.566V319.624C839.231 335.085 834.635 349.008 830.824 354.356H865.556C861.428 349.459 856.681 336.907 856.681 323.452V322.683C856.681 310.448 863.417 302.492 873.512 302.492C877.64 302.492 881.769 303.863 884.995 306.32L888.053 280.915C886.215 280.146 883.156 279.544 880.248 279.544C866.475 279.544 858.82 289.94 856.23 302.041L856.213 302.024Z" fill="white"/>
<path d="M950.861 327.971C939.546 327.971 926.993 331.498 919.338 331.498C914.291 331.498 912.151 328.89 912.151 325.832C912.151 323.391 913.522 321.085 915.828 319.865C920.425 321.235 925.773 322.004 931.59 322.004C953.619 322.004 967.843 311.608 967.843 295.847C967.843 284.682 962.177 275.957 952.382 271.21C948.855 269.221 947.485 266.614 947.485 263.873C947.485 260.663 950.393 258.825 954.07 258.825C959.736 258.825 964.934 261.115 968.444 264.023L968.745 243.364C965.386 241.676 959.252 240.456 953.285 240.456C942.27 240.456 934.465 246.122 934.465 256.217C934.465 260.346 936.002 264.023 938.443 267.232C936.153 266.931 934.013 266.764 931.556 266.764C909.527 266.764 895.304 278.079 895.304 295.83C895.304 303.334 898.513 309.602 904.329 314.182C898.663 318.16 895.304 324.578 895.304 331.464C895.304 342.479 904.329 349.365 917.032 349.365C929.735 349.365 940.432 345.688 948.705 345.688C952.833 345.688 955.123 346.908 955.123 350.435C955.123 356.251 946.866 360.38 930.487 360.38C914.107 360.38 901.722 356.101 894.986 350.585C894.368 368.336 910.447 378.13 932.927 378.13C955.407 378.13 971.938 367.734 971.938 348.747C971.938 335.743 964.132 327.938 950.828 327.938L950.861 327.971ZM931.573 284.214C942.588 284.214 950.243 288.192 950.243 295.847C950.243 303.502 942.588 308.081 931.573 308.081C920.558 308.081 912.903 303.485 912.903 295.847C912.903 288.208 920.709 284.214 931.573 284.214Z" fill="white"/>
<path d="M1044.99 308.445C1044.99 285.196 1035.96 278.911 1010.73 278.911C1001.4 278.911 991.905 279.981 982.879 281.819L979.052 303.548C985.32 300.489 997.872 297.731 1008.27 297.731C1021.57 297.731 1027.54 300.171 1027.54 311.203V312.423C1022.49 310.284 1014.69 308.445 1007.03 308.445C992.49 308.445 975.977 314.261 975.977 332.931C975.977 349.294 988.211 357.25 1002.13 357.25C1013.77 357.25 1023.54 352.052 1027.69 341.957V354.342H1053.4C1049.72 348.993 1044.99 335.071 1044.99 319.61V308.445ZM1027.56 327.415C1027.1 334.452 1019.45 338.898 1008.59 338.898C999.41 338.898 994.362 335.221 994.362 329.872C994.362 323.755 1000.63 320.997 1009.2 320.997C1017.16 320.997 1024.05 322.685 1027.56 324.357V327.415Z" fill="white"/>
<path d="M653.876 481.104C650.493 481.104 647.728 482.157 645.579 484.263C643.431 486.262 642.367 489.006 642.367 492.484C642.367 495.962 643.441 498.547 645.579 500.547C647.728 502.653 650.483 503.706 653.876 503.706C657.269 503.706 659.97 502.706 662.002 500.706C664.14 498.707 665.214 495.962 665.214 492.484C665.214 489.006 664.14 486.262 662.002 484.263C659.97 482.157 657.258 481.104 653.876 481.104Z" fill="white"/>
<path d="M700.918 401.277H395.293L411.886 428.155C412.79 427.943 413.97 427.783 415.438 427.677C416.906 427.464 418.544 427.358 420.352 427.358C423.064 427.358 425.66 427.783 428.138 428.623C430.733 429.464 432.988 430.889 434.913 432.888C436.945 434.782 438.583 437.42 439.827 440.791C440.572 442.578 441.136 444.642 441.54 446.971C440.2 450.204 438.891 453.119 437.626 455.65C436.275 458.501 434.807 460.713 433.222 462.287C431.637 463.872 429.84 464.659 427.808 464.659C426.34 464.659 424.926 464.287 423.575 463.553C422.331 462.819 421.033 461.607 419.682 459.915C418.438 458.224 417.034 455.81 415.449 452.64L407.152 456.597C409.301 462.075 411.662 466.925 414.258 471.137C416.853 475.242 419.671 478.518 422.724 480.943C425.883 483.262 429.382 484.422 433.222 484.422C436.381 484.422 439.03 483.634 441.178 482.05C443.327 480.358 445.294 478.093 447.103 475.253C449.017 472.307 450.879 468.829 452.687 464.819C454.378 461.128 455.792 458.235 456.92 456.118C458.164 453.906 459.345 452.321 460.472 451.374C461.6 450.321 462.781 449.79 464.025 449.79C465.376 449.79 466.62 450.375 467.748 451.534C468.992 452.587 470.12 454.278 471.13 456.597C471.694 457.884 472.258 459.394 472.821 461.107V494.345C469.886 493.739 466.897 493.42 463.855 493.42C456.856 493.42 451.442 495.111 447.603 498.483C443.763 501.961 441.848 506.492 441.848 512.076C441.848 517.66 443.71 522.617 447.432 526.307C451.155 529.998 456.069 531.838 462.164 531.838C467.471 531.838 471.981 530.573 475.704 528.041C479.309 525.616 482.075 522.351 484 518.234C484.957 516.192 485.67 514.076 486.149 511.895C487.085 512.448 487.999 513.023 488.903 513.65C496.572 519.022 503.294 526.403 509.049 535.784L516.154 531.828C513.899 526.978 510.963 522.234 507.347 517.596C503.847 513.065 499.784 508.949 495.158 505.269C492.711 503.376 490.169 501.674 487.531 500.163L486.5 489.814C484.351 468.222 484.309 446.482 486.361 424.89L487.531 412.637H550.02V442.376C549.797 441.844 549.584 441.302 549.339 440.781C547.531 436.675 545.223 433.091 542.394 430.027C539.681 426.868 536.639 424.443 533.257 422.752C529.875 420.965 526.205 420.061 522.259 420.061C516.388 420.061 511.761 421.699 508.379 424.964C504.996 428.123 503.305 432.548 503.305 438.249C503.305 443.099 504.773 447.099 507.708 450.268C510.75 453.427 514.814 455.012 519.898 455.012C524.982 455.012 528.417 453.587 530.896 450.747C533.374 447.896 534.618 444.578 534.618 440.791C534.618 440.015 534.544 439.281 534.438 438.558C536.086 439.143 537.618 440.142 539.022 441.589C541.394 443.908 543.479 447.333 545.287 451.864C547.201 456.288 548.839 461.67 550.19 467.988L564.581 477.316C569.091 472.466 573.547 467.882 577.951 463.564C582.461 459.139 586.981 455.023 591.491 451.236C593.108 449.843 594.746 448.492 596.394 447.162C595.49 450.63 594.82 454.204 594.373 457.884C593.927 461.468 593.693 465.319 593.693 469.424C593.693 477.008 594.703 484.124 596.735 490.771C598.766 497.302 601.138 503.365 603.84 508.949L612.136 505.95C610.892 502.152 609.881 498.674 609.094 495.515C608.413 492.25 607.913 489.091 607.573 486.028C607.35 482.975 607.233 479.752 607.233 476.38C607.233 469.424 608.137 462.574 609.945 455.831C611.86 448.981 614.519 442.599 617.901 436.696L599.277 421.678C595.777 423.784 595.416 426.102 591.799 428.634C588.3 431.165 585.928 433.803 582.535 436.537C579.153 439.175 577.057 441.908 574.122 444.759C572.707 446.131 566.038 453.885 564.741 455.246V412.658H676.858V418.423C670.881 420.316 664.892 426.804 658.915 429.4C652.48 432.144 647.289 435.143 641.195 438.409C635.1 441.674 628.399 440.898 623.209 444.588L633.877 467.51C640.195 468.669 646.183 470.509 651.82 473.041C657.458 475.466 662.595 478.678 667.222 482.688C671.966 486.591 676.082 491.431 679.581 497.228L690.079 503.397L691.6 503.078L690.164 471.775C689.707 461.809 689.718 451.832 690.196 441.866L691.6 412.647H707.512L700.907 401.267L700.918 401.277ZM470.279 439.058C468.365 435.473 466.333 432.888 464.185 431.314C462.153 429.623 459.898 428.783 457.409 428.783C455.495 428.783 453.686 429.41 451.995 430.676C450.315 431.825 448.634 433.665 446.943 436.164C446.571 434.027 446.113 432.027 445.56 430.197C444.433 426.092 442.625 422.614 440.146 419.763C437.668 416.817 434.339 414.498 430.159 412.807C430.031 412.754 429.904 412.701 429.776 412.647H472.811V426.879C472.811 429.729 472.864 432.729 472.981 435.888C473.204 438.941 473.428 442.004 473.662 445.056C473.715 445.482 473.747 445.907 473.8 446.333C472.587 443.546 471.417 441.11 470.279 439.047V439.058ZM472.321 511.289C471.077 514.139 469.503 516.139 467.578 517.298C465.663 518.458 463.631 519.043 461.483 519.043C459.228 519.043 457.42 518.458 456.069 517.298C454.718 516.245 454.037 514.661 454.037 512.555C454.037 510.449 454.771 508.758 456.239 507.492C457.707 506.332 459.962 505.758 463.015 505.758C466.652 505.758 470.141 506.141 473.502 506.896C473.225 508.545 472.832 510.013 472.332 511.289H472.321ZM670.615 469.414C666.892 465.308 662.829 461.926 658.425 459.299C655.181 457.278 651.937 455.629 648.693 454.363C651.225 452.576 653.894 450.906 656.734 449.343C660.574 447.237 664.467 445.333 668.413 443.652C671.359 442.397 674.178 441.249 676.88 440.228V478.316C675.061 474.987 672.976 472.02 670.615 469.414Z" fill="white"/>
<path d="M916.425 401.274H820.963L819.613 392.573L809.115 386.883L807.934 387.361V399.061C807.934 401.487 808.051 404.38 808.274 407.762C808.349 408.464 808.423 409.145 808.487 409.825C808.157 409.081 807.806 408.389 807.423 407.762C806.179 405.443 804.658 403.805 802.85 402.859C801.159 401.806 799.127 401.274 796.755 401.274H785.321L783.97 392.573L773.472 386.883L772.292 387.361V406.337C772.292 409.496 772.345 412.612 772.462 415.665C772.579 418.717 772.749 421.621 772.972 424.355C773.025 424.993 773.079 425.599 773.132 426.216C770.888 421.281 768.345 417.069 765.516 413.601C761.676 408.751 757.507 405.167 752.987 402.848C748.477 400.529 743.68 399.37 738.596 399.37C731.374 399.37 724.428 401.955 717.77 407.113C711.228 412.282 705.868 420.238 701.688 430.981L718.95 444.106C721.099 441.681 723.63 439.682 726.566 438.097C729.502 436.512 732.373 435.725 735.203 435.725C738.032 435.725 739.883 436.352 741.127 437.618C742.478 438.884 743.159 440.618 743.159 442.83C743.159 446.308 741.244 449.467 737.404 452.318C733.565 455.062 728.034 457.583 720.812 459.901L732.831 478.717C739.595 475.664 744.903 472.388 748.743 468.91C752.582 465.326 755.284 461.582 756.869 457.689C758.56 453.679 759.411 449.573 759.411 445.361C759.411 439.458 757.603 434.555 753.997 430.662C750.498 426.652 745.594 424.652 739.266 424.652C735.766 424.652 732.607 425.184 729.789 426.237C729.065 426.493 728.363 426.78 727.693 427.088C728.268 426.014 728.895 424.982 729.619 424.025C731.533 421.387 733.735 419.281 736.224 417.696C738.819 416.111 741.584 415.324 744.52 415.324C747.796 415.324 751.061 416.377 754.337 418.483C757.613 420.483 760.879 423.855 764.155 428.599C766.92 432.47 769.569 437.491 772.111 443.617V499.426L785.481 505.116L786.831 504.797L784.513 477.132C783.226 461.763 783.375 446.297 784.949 430.96L786.831 412.633H799.616C801.765 412.633 803.509 413.74 804.86 415.952C806.211 418.164 807.115 420.908 807.572 424.174V499.426L821.112 505.116L822.293 504.797L819.772 472.41C818.613 457.529 818.879 442.564 820.57 427.737L822.293 412.633H891.174V442.83C891.174 445.776 891.227 448.946 891.344 452.318C891.514 454.86 891.684 457.327 891.855 459.752C891.812 459.752 891.876 459.752 891.833 459.752C890.44 455.487 888.579 451.531 886.26 447.882C884.228 444.404 881.803 441.352 878.985 438.714C876.166 436.076 872.943 434.023 869.338 432.545C865.732 431.066 861.775 430.332 857.489 430.332C851.394 430.332 846.32 432.119 842.257 435.704C838.194 439.288 836.163 444.351 836.163 450.882C836.163 456.572 837.907 461.316 841.406 465.113C845.023 468.91 849.756 470.804 855.627 470.804C859.467 470.804 862.626 470.07 865.104 468.591C867.7 467.006 869.614 465.007 870.858 462.582C872.209 460.05 872.89 457.317 872.89 454.36C872.89 454.051 872.858 453.754 872.837 453.445C874.549 453.871 876.155 454.7 877.623 455.945C879.995 457.731 882.08 460.21 883.888 463.379C885.696 466.432 887.27 469.91 888.632 473.814C889.983 477.611 891.11 481.504 892.014 485.514C893.035 489.417 893.769 493.097 894.216 496.586L904.374 503.702L905.724 503.383L903.757 477.643C902.236 457.806 902.672 437.873 905.065 418.122L905.724 412.633H922.817L916.382 401.253L916.425 401.274Z" fill="white"/>
</svg>
