<svg width="2031" height="1243" viewBox="0 0 2031 1243" fill="none" xmlns="http://www.w3.org/2000/svg">
<g clip-path="url(#clip0_239_649)">
<path d="M360.493 672.322L360.451 672.279L360.493 672.322Z" fill="white"/>
<path d="M360.495 672.322C361.846 673.717 361.366 675.766 362.325 678.119C362.936 675.199 362.892 673.325 360.495 672.322Z" fill="white"/>
<path d="M414.548 740.141C414.548 740.141 414.374 739.968 414.287 739.881C414.287 739.968 414.287 740.011 414.374 740.054C414.374 740.054 414.504 740.054 414.548 740.098V740.141Z" fill="white"/>
<path d="M415.246 738.877H415.115L415.159 739.008L415.246 738.877Z" fill="white"/>
<path d="M307.836 953.885C307.618 953.624 307.574 953.318 307.574 952.97C307.662 953.275 307.749 953.58 307.836 953.885C307.836 952.185 307.836 950.485 307.923 948.786C307.967 947.042 307.313 945.909 305.569 945.473C304.087 944.863 302.648 944.209 301.123 943.642C299.989 943.207 299.641 940.635 297.897 942.073C296.938 942.901 296.502 944.471 296.066 945.778C295.761 946.606 295.848 947.565 295.805 948.437C294.453 949.265 294.715 950.66 294.497 951.88C294.061 954.147 296.11 955.803 296.153 957.546C296.241 960.859 298.159 961.774 300.512 961.992C304.697 962.384 308.795 961.425 312.805 959.595C310.277 958.244 308.097 956.849 307.836 953.841V953.885Z" fill="white"/>
<path d="M498.767 907.074C497.808 909.471 497.721 912.174 496.544 914.527C496.151 915.355 496.936 916.096 497.59 916.489C499.159 917.491 500.685 916.707 502.167 916.184C503.605 915.704 503.78 914.571 503.78 913.35C503.911 910.43 501.339 908.861 500.38 906.464C499.944 905.418 499.116 906.159 498.767 907.074Z" fill="white"/>
<path d="M487.564 885.849C486.474 886.677 487.433 887.506 487.825 888.203C489.133 890.556 490.397 892.954 491.967 895.133C492.751 896.223 493.1 898.925 494.669 897.923C496.282 896.92 494.146 895.307 493.492 894.043C492.315 891.733 490.179 889.859 490.441 886.939C490.136 886.939 489.787 886.939 489.613 886.765C489.002 886.285 488.741 884.978 487.608 885.849H487.564Z" fill="white"/>
<path d="M490.397 886.895V886.937H490.44V886.895H490.397Z" fill="white"/>
<path d="M226.973 959.552C226.363 958.811 225.622 957.765 224.576 958.288C223.529 958.811 223.399 960.031 223.617 961.208C224.227 964.346 226.624 965.654 230.896 964.738C228.368 963.692 228.281 961.208 226.973 959.552Z" fill="white"/>
<path d="M527.668 905.897C526.012 905.897 525.75 907.858 525.62 909.035C525.402 910.779 527.276 910.866 528.409 911.04C530.676 911.389 529.717 909.384 529.979 908.861C530.763 906.115 528.54 905.897 527.668 905.854V905.897Z" fill="white"/>
<path d="M296.415 932.746C297.679 931.962 298.071 930.785 297.941 929.39C297.941 929.172 297.505 928.78 297.374 928.824C295.935 929.172 296.066 930.654 295.499 931.613C295.412 931.787 295.369 932.005 295.282 932.18C294.453 934.228 293.669 936.32 292.753 938.369C292.448 939.023 291.838 939.546 292.797 940.025C293.451 940.374 293.974 939.894 294.235 939.371C295.238 937.236 296.72 935.274 296.371 932.746H296.415Z" fill="white"/>
<path d="M336.519 934.359C336.519 935.841 336.388 937.323 336.301 938.805C338.655 937.148 339.658 935.013 338.699 932.18C337.26 932.18 336.519 932.833 336.519 934.359Z" fill="white"/>
<path d="M220.435 925.99C219.345 925.903 219.127 926.775 218.953 927.516C218.342 929.87 218.604 932.398 217.166 934.577C216.642 935.361 217.427 935.797 218.125 936.059C218.996 936.407 219.476 935.884 219.65 935.143C220.217 932.528 220.74 929.913 221.35 927.08C221.394 926.601 221.22 926.034 220.478 925.99H220.435Z" fill="white"/>
<path d="M216.076 917.71C216.468 917.1 216.86 916.49 217.253 915.879L219.694 911.695C221.568 909.341 222.004 906.726 220.871 903.937L220.784 895.307C220.914 892.082 221.35 888.813 219.781 885.718C219.476 881.97 216.643 879.616 214.724 876.783C214.201 875.388 213.635 873.993 213.155 872.599C212.937 871.945 213.024 871.073 212.065 871.117C211.15 871.117 210.67 871.814 210.583 872.729C207.663 873.863 207.663 877.044 206.137 879.137C204.219 881.011 202.562 883.016 202.257 885.805C201.734 888.42 199.032 890.295 199.773 893.346C199.598 893.607 199.38 893.869 199.206 894.13C196.329 897.225 195.98 901.278 194.934 905.114C193.365 907.772 191.054 910.082 191.359 913.526C190.357 916.664 191.883 920.281 189.572 923.202C186.303 925.468 186.303 928.214 189.223 931.221C191.098 933.139 193.583 933.837 195.719 935.188C194.978 935.58 193.19 935.275 194.367 937.062C193.539 936.975 192.754 937.062 192.057 937.541C191.621 937.367 191.185 937.149 190.749 936.975C189.877 937.541 189.093 938.152 190.095 939.285C190.88 940.2 191.534 940.157 192.1 939.067C193.059 939.59 194.019 939.372 195.021 939.328C196.067 939.416 197.157 939.328 198.16 939.59C199.119 939.808 199.991 940.331 200.557 939.067C201.865 939.633 203.042 939.372 204.001 938.326C204.219 937.934 204.437 937.498 204.655 937.106C206.704 938.282 208.97 938.239 211.237 938.457C215.03 938.893 213.591 935.406 214.986 934.098C215.16 933.444 215.335 932.834 215.509 932.18C215.727 931.439 216.555 930.698 216.119 929.957C213.722 925.86 217.078 921.851 216.119 917.797L216.076 917.71Z" fill="white"/>
<path d="M224.489 948.48C224.707 947.216 224.402 945.996 223.878 944.819C223.791 943.381 222.832 942.901 221.655 943.294C220.522 943.686 220.478 944.688 220.827 945.778C221.263 947.086 221.655 948.393 222.048 949.701C223.442 950.485 224.227 950.006 224.489 948.48Z" fill="white"/>
<path d="M227.845 899.273C225.273 901.191 228.455 902.935 227.845 904.722C229.371 902.847 228.543 901.104 227.845 899.273Z" fill="white"/>
<path d="M233.076 948.742C233.076 946.389 231.899 945.735 229.458 945.43C230.591 947.217 231.507 948.088 233.076 948.742Z" fill="white"/>
<path d="M218.604 860.09C219.563 860.221 219.737 859.131 219.868 858.39C220.043 857.431 219.432 856.996 218.648 856.734C217.645 856.647 217.689 857.344 217.819 857.867C217.994 858.652 217.427 859.872 218.604 860.09Z" fill="white"/>
<path d="M530.196 882.014C530.196 882.014 529.847 882.057 529.673 882.014C528.845 879.834 528.452 877.306 526.011 876.13C526.011 875.737 526.011 875.345 526.011 874.909C526.447 874.909 526.84 874.909 527.276 874.909C529.935 874.909 530.981 873.427 530.85 870.943C530.719 868.764 531.024 866.671 532.071 864.71C532.201 863.664 532.376 862.574 532.507 861.528C533.814 861.136 535.166 860.744 536.473 860.352C537.52 862.356 538.697 863.097 540.004 860.569C540.266 858.303 541.486 856.124 540.527 853.77L541.007 849.412C542.097 846.971 541.007 844.879 539.961 842.786C539.525 841.435 539.089 840.084 538.653 838.777C537.781 837.687 537.084 836.423 536.081 835.421C536.081 835.203 536.168 834.985 536.212 834.767C535.732 832.239 534.207 830.234 532.855 828.142C535.384 830.844 536.779 830.844 539.307 828.142C541.574 825.701 542.14 822.476 543.361 819.555C543.622 818.945 543.361 818.422 543.056 817.899C542.925 817.812 542.794 817.725 542.707 817.638C543.622 815.894 542.533 815.022 541.007 814.412C541.094 814.194 541.181 813.976 541.181 813.758C539.22 810.882 538.479 807.613 537.868 804.257C537.738 803.472 537.302 802.775 536.735 802.208C536.386 801.99 535.994 801.86 535.602 801.729C535.427 800.203 534.991 798.765 533.553 798.068C532.637 797.632 532.114 798.46 531.591 799.244C531.155 799.244 530.719 799.244 530.24 799.332C529.847 799.506 529.586 799.767 529.412 800.029C529.717 799.244 530.153 798.503 530.763 797.806C531.722 796.673 532.419 795.235 531.678 793.622C530.937 792.924 530.414 792.14 529.978 791.268C529.368 789.089 528.627 786.91 527.145 785.079C526.97 784.6 526.752 784.12 526.665 783.641C526.273 781.026 526.927 778.454 527.276 775.882C527.363 775.054 527.406 774.139 526.709 773.572C527.014 773.485 527.363 773.442 527.711 773.354C528.888 773.18 529.586 772.265 530.196 771.35C531.635 769.04 532.201 766.642 531.417 763.984C529.586 761.804 528.191 759.451 527.755 756.574C527.624 755.572 527.276 754.395 526.011 754.002C524.311 753.479 523.222 752.521 522.524 750.734C521.827 748.859 520.475 747.203 518.121 747.072C518.034 747.072 517.947 747.16 517.86 747.203C517.86 747.203 517.86 747.116 517.816 747.072C517.947 746.985 518.034 746.854 518.165 746.767C518.557 744.98 519.996 743.629 520.214 741.755C520.039 741.406 519.909 741.101 519.778 740.752C520.083 740.273 520.344 739.794 520.65 739.314C522.742 736.525 519.429 735.653 518.732 733.866C518.688 733.081 518.601 732.253 518.121 731.599C518.514 728.461 517.38 725.454 517.293 722.359C517.293 721.488 516.988 720.616 516.334 720.049C516.857 719.439 517.598 718.96 517.424 717.957C516.901 714.601 517.816 711.071 515.898 707.932C515.462 707.235 515.549 706.625 516.16 706.058C516.378 705.927 516.596 705.797 516.857 705.666C517.075 705.666 517.293 705.666 517.511 705.71C518.644 706.276 519.952 705.71 521.129 705.056C522.132 704.533 522.655 703.705 522.306 702.746C522.306 702.746 522.306 702.702 522.35 702.659C523.832 701.656 523.701 699.825 524.486 698.518C525.183 696.295 524.704 693.506 527.624 692.416C527.886 692.285 528.147 692.111 528.322 691.849C528.496 691.588 528.67 691.37 528.888 691.108C529.455 691.065 530.022 690.847 530.501 690.411C531.286 689.714 531.896 688.711 533.204 689.278C535.776 691.065 536.909 688.362 538.609 687.491C541.574 688.711 542.881 691.762 545.322 693.549C545.279 692.547 545.148 691.501 544.233 690.89C542.402 689.714 541.617 687.578 539.961 686.227C540.789 686.619 541.268 686.575 540.963 685.442C540.789 684.701 540.615 683.96 540.484 683.263C542.925 682.304 543.535 685.617 546.064 685.66C544.407 683.786 543.056 682.26 541.704 680.691V680.43C541.879 679.689 542.271 679.166 543.056 678.948C543.797 678.948 544.712 678.861 544.625 677.989C544.407 676.028 545.758 674.938 546.717 673.587C546.892 673.5 547.023 673.413 547.153 673.282C548.548 672.584 548.417 671.451 548.025 670.187C547.458 668.357 547.153 666.526 547.72 664.608L547.851 664.434C547.371 662.996 546.151 662.734 544.974 662.908C543.535 663.083 542.053 662.908 540.92 662.298C537.214 660.424 533.378 660.903 529.542 660.991C529.412 660.991 529.281 660.991 529.15 660.991C527.45 661.121 525.488 660.162 524.224 662.124C522.132 661.339 520.17 662.211 518.165 662.69C515.898 662.996 514.024 664.303 512.106 665.393C511.626 665.567 511.19 665.436 510.842 665.131C510.842 665.131 510.842 665.131 510.842 665.088C510.624 665.218 510.406 665.349 510.144 665.48C509.97 665.959 509.795 666.439 509.665 666.918C504.869 668.051 500.99 671.19 496.718 673.325C492.62 675.33 488.174 676.638 484.076 678.817C479.63 681.214 475.532 683.655 472.132 687.36C468.601 689.67 466.291 693.157 464.373 696.687C460.973 702.876 458.619 709.501 457.267 716.432C456.701 719.178 455.437 721.923 452.821 722.795C449.508 723.885 446.762 725.846 443.623 727.154C439.962 728.723 436.387 730.51 433.554 733.517C430.633 736.612 427.625 739.794 423.353 741.058C421.392 742.147 419.081 742.67 417.73 744.675C417.381 744.849 416.989 745.024 416.64 745.198C414.068 745.634 414.722 742.757 413.24 741.842C412.412 741.363 413.589 740.404 414.286 739.881C414.373 737.658 413.24 736.22 411.278 735.304C411.496 734.302 410.189 733.081 411.496 732.34C413.284 731.294 414.155 729.159 416.161 728.461C417.599 727.154 416.684 726.151 415.638 725.367C414.504 724.495 414.33 723.536 414.809 722.316C415.245 720.441 417.163 718.437 414.286 716.867C413.807 714.95 411.714 714.034 411.366 712.029C410.232 710.853 411.278 709.545 411.148 708.325C411.758 708.761 411.889 709.894 412.891 709.763C413.589 709.676 413.545 709.109 413.414 708.586C412.76 705.753 412.063 702.964 411.496 700.131C411.191 698.736 410.668 698.387 409.535 699.346C409.099 699.346 408.663 699.346 408.227 699.346C408.227 699.346 407.835 699.346 407.66 699.346C407.486 696.295 406.047 694.9 402.909 695.728C402.604 693.898 404.522 691.806 402.255 690.149C401.557 687.447 402.822 685.442 404.609 683.655C407.006 680.212 406.919 679.95 403.388 679.427C403.17 679.34 402.996 679.253 402.778 679.166C402.168 678.425 401.557 677.728 400.947 676.987C402.037 674.459 404.217 672.846 406.047 670.972C404.958 671.713 403.868 672.41 402.734 673.02C400.904 674.589 399.16 676.246 397.896 678.381C396.762 679.515 395.673 680.648 394.539 681.781C392.752 682.043 391.793 683.132 391.357 684.832C390.224 685.311 389.09 685.442 387.87 685.399C383.511 685.224 379.151 685.922 374.792 685.399H374.487C374.705 684.178 374.574 682.783 375.141 681.868C377.015 679.079 375.882 678.207 373.092 678.12C370.913 677.815 369.866 679.079 370.172 681.781C370.52 680.125 372.133 680.212 373.092 679.427C374.836 679.209 374.661 679.994 374.444 681.345C374.182 682.958 372.351 684.57 374.269 686.27C374.269 686.793 374.269 687.316 374.269 687.839C373.92 689.06 373.354 688.537 372.482 688.275C370.869 687.796 369.605 685.747 367.6 687.186C367.207 686.968 366.859 686.75 366.466 686.532C366.466 686.532 366.423 686.532 366.379 686.532C366.074 682.871 363.546 679.602 360.887 679.297C357.007 678.904 356.702 678.556 356.833 674.415C357.966 673.63 356.963 669.664 360.276 672.018C359.797 670.231 360.189 668.095 357.879 666.264C358.402 669.839 355.481 671.756 356.135 674.546C355.568 675.941 354.173 675.853 353.04 676.246C353.04 676.246 352.691 676.246 352.561 676.246C350.904 674.066 349.248 675.897 347.853 676.464C345.586 677.466 343.624 677.466 341.488 676.246C340.747 675.853 340.181 674.546 339.265 675.112C338.306 675.679 338.786 676.987 338.96 677.858C339.222 679.035 338.524 679.689 337.914 680.43C336.17 678.512 334.775 675.461 331.419 678.425C330.896 678.861 330.111 678.425 329.457 678.12C327.277 675.156 323.659 673.282 322.918 668.923C321.959 670.536 322.221 671.626 322.788 672.759C323.398 673.979 325.621 674.241 325.272 675.853C324.923 677.466 322.744 677.248 321.698 678.294C321.349 678.643 320.913 678.904 320.521 679.209C319.998 679.035 319.518 679.209 319.169 679.602C317.992 680.822 317.949 683.176 318.733 684.963C318.777 685.355 318.908 685.66 319.169 685.747C319.518 686.27 319.91 686.663 320.39 686.924C322.744 688.232 325.795 689.539 326.188 692.198C326.711 695.423 327.583 698.169 329.457 700.872C331.506 703.792 334.819 706.538 332.683 710.896C332.683 710.983 332.683 711.114 332.814 711.245C332.814 711.376 332.944 711.55 333.075 711.681C332.944 712.465 332.552 713.119 331.898 713.599C329.021 714.601 328.847 715.429 330.721 718.96C330.024 719.352 329.413 719.831 329.544 720.79C329.719 721.88 329.239 722.446 328.193 722.708C326.406 722.359 325.316 722.708 326.057 724.8C326.58 726.238 326.711 727.241 324.749 727.459C323.964 727.546 323.703 728.548 323.398 729.289C323.311 731.599 322.657 733.474 320.085 734.215C318.69 734.607 317.949 735.827 317.382 737.135C315.638 737.789 314.026 737.919 312.413 736.612C310.974 735.479 309.318 734.563 307.748 733.561C307.923 732.34 308.097 731.12 308.272 729.9C308.62 728.548 307.836 727.938 306.702 727.459C305.612 727.023 304.566 726.456 303.52 725.933C302.517 724.669 303.651 721.488 300.12 722.316C302.169 723.318 301.689 725.89 303.476 726.892C304.523 728.374 307.007 727.851 307.661 729.9C305.002 729.159 304.392 730.248 305.264 732.602C305.264 733.081 305.264 733.561 305.264 734.04C302.735 735.086 301.079 736.786 300.992 739.663C300.251 740.796 300.687 741.929 300.992 743.106C302.212 745.808 301.035 748.424 300.512 751.039C299.946 751.78 300.338 752.521 300.512 753.305C301.253 757.359 300.294 759.058 296.807 760.104C294.497 760.845 292.797 762.371 291.402 764.332C289.135 760.715 285.037 758.623 283.163 754.264C282.901 755.833 282.945 757.271 281.463 758.056C285.589 759.334 286.883 760.816 285.342 762.502C283.599 763.548 281.724 764.289 279.632 764.463C281.942 764.986 284.209 765.335 285.342 762.502C286.345 762.197 287.13 762.458 287.696 763.33C288.568 764.681 289.919 764.942 291.402 764.899C291.445 764.899 291.489 764.899 291.532 764.812C293.407 763.461 295.281 762.066 297.504 761.543C297.94 761.674 298.507 761.456 299.03 761.325C299.292 761.325 299.553 761.325 299.815 761.325C301.079 760.322 301.733 758.971 301.776 757.402C301.82 755.484 302.779 755.354 304.348 755.659C306.397 756.095 307.923 757.402 309.666 758.317C308.62 761.107 307.574 763.853 306.571 766.642C306.223 767.558 305.612 768.429 306.484 769.388C306.266 769.65 306.048 769.955 305.787 770.216C303.346 770.696 301.384 769.214 299.204 768.516C296.72 767.993 294.235 767.514 291.75 766.991C290.704 766.773 289.745 766.424 289.527 767.95C289.527 768.168 289.527 768.342 289.527 768.516C287.696 768.211 286.127 765.683 284.035 767.95C283.86 768.124 283.686 768.255 283.555 768.429C283.25 768.822 283.119 769.257 283.076 769.737C282.335 772.483 283.163 775.403 282.291 778.105C278.629 780.895 276.668 784.469 277.496 789.22C277.104 789.873 276.711 790.484 276.275 791.137C275.839 791.66 275.186 792.401 275.578 792.968C277.234 795.452 275.578 797.588 275.055 799.855C274.532 801.729 272.308 801.075 271.349 802.252C268.56 801.031 267.47 804.039 265.421 804.649C264.898 804.518 264.593 804.867 264.288 805.216C261.367 807.569 260.495 810.838 261.759 814.804C260.059 815.24 258.795 816.243 258.01 817.855C256.659 819.163 253.782 819.163 254.349 822.083C252.954 824.524 255.09 826.878 254.567 829.319C254.567 829.493 254.523 829.624 254.48 829.798C251.472 830.844 249.205 834.374 249.684 837.208C248.9 839.953 248.464 842.569 251.036 844.835C252.474 846.143 251.515 847.799 250.905 849.281C248.769 849.412 248.115 847.886 247.548 846.273C247.2 845.402 246.72 844.661 245.936 844.138C244.541 843.266 243.059 842.612 241.402 843.397C240.487 843.833 239.571 844.443 239.876 845.663C240.269 847.407 241.01 848.889 243.059 849.15C243.887 850.022 244.366 850.981 243.625 852.157C243.233 853.029 242.841 853.857 242.405 854.729C240.574 856.603 238.787 855.731 236.956 854.729C233.904 855.296 232.815 854.729 233.73 852.768C235.822 848.148 233.381 845.097 230.417 842.089C228.325 842.612 226.494 842.569 225.535 840.171C224.532 839.387 223.704 839.648 222.919 840.52C221.001 842.656 219.258 844.966 216.947 846.753C216.337 847.232 216.337 847.973 216.468 848.671C215.291 851.155 216.642 853.16 218.255 854.555C221.786 857.606 221.829 861.005 219.911 864.754C217.209 870.071 219.083 874.691 222.614 878.44C225.796 881.839 227.54 885.631 228.543 889.946C227.366 889.728 226.407 889.685 226.712 891.428C227.278 894.436 228.543 897.181 229.72 899.927C229.894 900.886 230.068 901.845 230.243 902.848C229.763 903.153 229.72 903.632 229.763 904.155C229.981 904.242 230.025 904.417 230.025 904.591C229.937 904.46 229.85 904.286 229.763 904.155C230.199 906.596 229.153 908.993 229.763 911.39C229.414 911.565 229.066 911.783 228.717 911.957C225.927 913.047 224.75 915.487 223.66 918.015C222.745 918.321 222.832 919.192 222.571 919.89C221.524 925.425 223.66 930.219 226.145 934.927C226.842 936.757 227.017 938.762 228.281 940.331C228.455 940.811 228.543 941.334 228.848 941.726C229.327 942.423 229.502 943.687 230.766 943.121C232.03 942.554 231.376 941.682 230.94 940.898C230.199 939.59 230.548 938.152 230.33 936.757C230.984 937.324 231.594 937.89 232.248 938.457C231.856 939.024 232.248 939.59 232.597 939.677C235.953 940.68 236.607 943.949 238.351 946.302C237.958 947.174 237.566 948.046 237.13 948.918C236.607 950.4 236.825 951.794 237.61 953.102C237.435 953.538 237.261 953.93 237.086 954.366C235.43 954.409 233.774 954.54 232.204 953.799C230.679 954.54 228.412 953.058 227.453 955.456C226.712 954.932 226.842 953.32 225.404 953.756C224.532 954.017 224.663 954.889 224.75 955.543C225.012 957.155 226.189 956.414 227.104 956.371C227.584 956.371 228.107 956.458 228.586 956.502C231.42 956.545 234.253 955.717 237.086 956.545C239.484 957.025 239.31 954.845 240.094 953.668C240.661 954.017 241.882 953.93 241.838 954.627C241.533 958.114 244.236 957.417 245.892 957.33C249.641 957.155 252.779 955.412 255.133 952.448C255.874 951.533 256.354 950.356 257.662 950.007C258.403 950.225 259.187 950.4 259.928 950.617C261.28 951.751 262.064 951.664 263.111 949.964C264.985 946.913 264.942 943.077 267.426 940.331C269.475 941.203 271.219 942.423 271.567 944.821C271.655 945.474 271.306 946.433 272.265 946.433C273.442 946.433 273.006 945.256 273.267 944.559C274.706 945.431 276.232 946.128 278.15 946.041C278.15 944.646 278.15 943.382 278.15 942.075C278.193 940.636 277.888 938.98 279.893 938.413C280.547 938.675 281.201 938.893 281.899 939.154C281.07 939.939 278.629 939.765 279.675 941.508C280.504 942.903 282.596 943.295 284.427 943.426C285.909 943.557 286.214 942.423 286.65 941.421C287.914 938.501 289.004 935.537 289.702 932.442C289.919 932.094 290.05 931.788 289.963 931.57C290.617 929.26 291.314 926.95 291.532 924.553C292.361 923.115 292.143 921.72 291.62 920.238C290.704 917.841 289.876 915.4 289.004 912.959C288.394 910.083 291.184 908.296 291.314 905.768C291.532 901.584 292.012 897.399 292.666 893.259C293.276 892.649 293.93 892.038 294.54 891.428C299.597 889.772 300.687 887.505 298.158 884.062C297.504 882.755 296.022 881.796 296.327 880.096C296.676 878.222 296.981 876.391 296.327 874.517C296.066 873.732 296.109 872.468 297.679 873.296C299.074 873.689 300.425 874.125 301.82 874.517C301.82 874.691 301.82 874.909 301.82 875.083C300.73 876.347 302.343 877.568 301.907 878.919C301.558 879.965 301.21 881.447 302.299 882.188C303.433 882.929 304.479 881.709 305.482 881.229C307.574 882.449 310.408 883.19 309.056 886.677C308.054 886.895 307.618 887.68 307.269 888.508C306.223 889.51 305.177 890.469 304.13 891.472C303.258 892.256 302.125 892.91 301.515 893.912C300.512 895.569 298.856 897.399 301.079 899.404C299.466 901.627 299.728 903.676 301.776 905.506C301.602 905.855 301.428 906.247 301.21 906.596C301.646 908.383 302.299 910.083 303.651 911.39C303.476 912.131 303.302 912.872 303.128 913.613C303.476 914.223 303.825 914.834 304.174 915.444C303.607 915.836 303.476 916.49 303.694 917.057C304.653 919.715 304.741 922.505 304.784 925.251C304.392 925.469 304.043 925.73 303.651 925.948C303.694 931.048 302.692 935.929 301.297 940.767C301.602 941.595 301.689 942.641 302.866 942.641C307.138 942.554 308.795 945.518 310.277 948.787C309.1 950.748 309.71 952.535 311.367 953.581C313.023 954.627 314.287 953.363 315.159 951.881C315.769 950.879 316.423 949.876 317.077 948.874C317.469 948.656 317.862 948.395 318.254 948.177C320.172 945.692 321.175 942.903 320.564 939.721C321.175 939.503 321.567 939.067 321.828 938.457C322.7 939.242 323.703 940.462 324.836 939.547C325.97 938.631 326.885 936.801 325.839 935.493C324.313 933.619 324.488 931.135 323.093 929.304C322.744 928.563 322.657 927.779 323.093 927.038C324.4 926.166 324.793 924.64 325.577 923.42C327.19 920.848 326.885 920.238 323.703 919.192C322.57 918.451 321.611 917.536 321.349 916.141C322.134 915.967 322.7 915.531 323.136 914.877C326.144 917.536 326.318 917.492 328.542 913.962C328.76 913.57 329.283 913.395 329.675 913.09C330.111 913.308 330.547 913.526 330.939 913.7C330.154 915.676 330.619 917.158 332.334 918.146C332.334 918.146 332.552 918.495 332.726 918.582C334.688 919.846 336.388 918.582 337.957 917.797C339.396 917.144 339.222 915.749 338.306 914.485C337.609 913.482 338.088 912.48 338.873 911.826C342.229 909.037 342.229 905.07 341.968 901.453C341.619 896.964 341.227 897.007 345.629 897.922C345.717 896.833 345.542 895.656 345.935 894.741C346.937 892.3 345.586 891.341 343.668 890.774C341.575 890.164 339.396 889.772 337.609 888.421C336.824 885.195 338.35 881.491 335.734 878.614C335.647 878.44 335.691 878.309 335.734 878.134C338.568 875.912 338.96 874.43 337.478 871.989C337.086 871.64 336.737 871.248 336.344 870.899C337.216 869.461 337.304 867.63 338.655 866.454C340.66 868.371 342.317 868.371 343.319 865.495C343.537 864.928 343.755 864.187 344.453 864.361C345.281 864.536 345.368 865.364 345.281 866.061C345.194 866.715 345.063 867.5 344.627 868.023C342.97 870.071 343.886 870.769 345.978 870.986C346.196 871.509 346.371 872.076 346.589 872.599C346.283 873.122 345.978 873.645 345.673 874.168C343.319 877.045 344.888 880.052 345.455 883.016C343.537 884.89 343.711 885.936 346.327 887.767C346.458 886.721 345.324 885.5 346.719 884.803C347.286 885.631 347.853 886.459 348.419 887.288C349.16 889.641 349.204 892.082 348.942 894.523C348.594 895.569 348.245 896.658 347.896 897.704C347.068 899.448 346.283 901.235 345.455 902.978C344.365 905.506 346.109 907.119 347.33 908.95C347.722 911.521 348.594 913.918 349.684 916.272C348.637 918.408 350.425 919.105 351.689 919.89C353.171 920.848 354.871 921.502 356.048 922.897C358.053 925.309 360.334 925.672 362.892 923.987C364.025 925.251 366.205 924.858 367.12 926.515C367.861 927.866 368.777 927.604 369.866 926.994C370.738 926.515 371.697 926.166 372.613 925.774C373.659 924.074 373.179 922.156 373.267 920.325C374.138 918.364 373.92 916.316 373.92 914.267C373.615 913.57 373.005 913.613 372.395 913.657C369.91 913.831 367.861 915.139 365.856 916.403C364.417 917.318 363.24 917.1 362.194 915.793C361.104 914.398 361.061 913.09 362.325 911.783C363.328 910.693 364.592 910.214 366.03 910.083C367.818 910.737 365.9 911.172 365.943 911.739C365.028 912.829 363.11 913.003 363.066 914.877C363.066 915.008 363.546 915.269 363.764 915.226C365.246 914.921 366.205 913.962 366.728 912.524C367.425 912.829 368.079 912.698 368.689 912.306C371.305 910.606 373.31 911.347 374.967 913.744C375.49 916.098 374.313 918.8 376.318 920.892C376.972 923.071 375.838 924.902 375.097 926.82C373.746 927.996 372.438 929.217 371 930.307C369.082 931.788 369.866 932.791 371.61 933.358C374.923 934.404 378.236 935.406 381.636 936.234C383.38 936.626 383.162 935.232 382.987 934.142C383.205 933.793 383.38 933.445 383.598 933.14C387.172 930.96 387.434 930.045 385.429 926.471C384.905 925.512 384.208 924.64 383.598 923.769C383.118 921.677 382.377 919.672 381.157 917.928C381.069 911.739 381.505 905.768 386.518 901.148C387.434 900.32 387.39 898.968 386.126 898.402C385.254 898.01 384.164 898.14 383.205 897.966C380.851 897.574 377.974 898.315 376.972 895.046C376.754 893.825 376.536 892.649 376.362 891.428C376.972 890.644 377.582 889.815 378.192 889.031C379.064 887.898 378.759 886.852 378.062 885.806C377.233 884.585 376.449 883.321 376.362 881.796C376.013 881.403 375.62 880.968 375.272 880.575C375.403 880.401 375.577 880.183 375.708 880.009C377.103 878.701 377.408 876.827 378.149 875.171C378.977 873.384 379.805 871.553 380.59 869.766C381.68 866.802 379.892 865.233 377.582 864.1C374.967 862.836 372.22 861.79 370.913 858.913C370.913 858.085 370.913 857.301 370.913 856.472C372.569 854.729 374.4 853.334 377.059 854.119C376.928 854.075 376.841 853.988 376.754 853.901H376.841C376.928 853.901 376.972 854.032 377.059 854.075C378.105 854.467 378.933 855.078 379.631 855.993C381.68 858.782 383.903 859.393 387.041 857.911C387.957 857.475 388.742 857.344 389.526 857.649C388.959 857.78 388.349 857.954 387.783 858.129C384.208 859.349 380.982 859.436 378.149 856.429C377.277 855.514 376.013 855.165 374.879 856.124C373.702 857.083 373.746 858.347 374.313 859.654C374.923 861.005 376.1 861.746 377.408 862.269C378.585 862.705 379.5 863.315 380.198 864.318C382.028 866.148 382.9 868.241 382.116 870.812C381.898 871.902 381.331 872.817 380.59 873.689C378.628 876.086 377.844 878.701 378.323 881.883C378.672 884.367 380.459 886.634 379.457 889.336C378.977 890.469 379.021 891.646 379.021 892.866C378.977 893.084 378.977 893.346 379.021 893.564C379.021 894 378.933 894.436 378.846 894.828C380.023 896.964 382.159 896.266 383.903 896.397C387.347 896.658 388.349 897.661 388.611 901.104C388.654 901.889 388.436 902.673 388.611 903.458C388.829 904.591 389.483 905.724 388.96 906.901C388.393 908.209 388.218 909.516 388.175 910.867C388.088 911.216 388 911.521 387.913 911.87C386.911 915.226 388.611 917.667 390.18 920.151C390.18 920.718 390.049 921.284 389.831 921.851C390.049 923.246 390.354 924.64 391.444 925.643C391.619 925.774 391.793 925.904 391.967 925.992C392.098 927.735 393.406 929.086 394.626 929.653C396.893 930.655 398.244 934.665 401.732 932.355C401.732 932.268 401.732 932.224 401.775 932.137C401.906 931.745 402.081 931.353 402.124 930.96C402.255 930.437 402.342 929.914 402.429 929.435C403.083 928.345 404.173 927.473 404.173 926.079C405.176 922.853 406.527 919.759 406.309 916.228C406.265 915.4 406.047 914.746 405.699 914.223C406.135 914.659 406.527 915.182 406.788 915.793C407.006 915.967 407.224 916.185 407.399 916.403C406.963 918.931 406.788 921.546 405.96 923.987C405.742 924.466 405.524 924.902 405.394 925.381C404.347 927.125 404.565 928.694 405.655 930.35C406.091 931.788 406.876 932.965 408.009 933.793C408.271 934.229 408.532 934.709 408.706 935.188C410.014 936.626 411.976 936.191 413.545 936.975C414.199 937.28 414.853 937.106 415.55 936.975C416.727 937.76 417.381 937.978 417.861 937.629C418.209 938.196 418.297 938.936 418.82 939.416C418.602 939.895 418.733 940.331 419.386 940.724C420.302 940.724 421.304 940.941 422.045 940.549C423.876 939.634 427.538 941.377 427.102 937.15C427.756 936.583 427.93 935.885 427.669 935.057C427.843 935.145 428.105 935.145 428.235 935.275C431.723 939.634 436.256 939.111 438.785 934.098C438.959 933.793 439.308 933.314 439.569 933.314C443.405 933.227 442.446 930.307 442.708 928.084C442.708 926.384 443.493 924.466 441.575 923.202C439.744 920.064 436.779 917.318 438 913.09C440.223 916.795 442.795 920.238 445.672 923.42C446.588 924.422 446.021 926.079 447.503 926.645C448.2 926.907 448.636 928.084 449.508 927.343C450.38 926.602 449.595 925.904 449.159 925.251C448.462 924.161 447.677 923.115 446.936 922.069C447.459 920.587 445.672 918.713 446.849 917.797C448.724 916.359 448.724 913.657 450.947 912.654C452.036 912.175 452.342 911.042 452.385 909.865C452.647 909.124 452.865 908.383 453.126 907.642C454.26 906.204 455.088 904.635 454.87 902.717C455.001 900.494 457.311 898.445 455.48 896.048C456.352 896.615 457.355 897.051 458.139 897.704C459.752 899.056 461.409 899.927 463.457 898.533C463.588 895.525 465.855 896.223 467.686 896.092C468.819 897.53 469.996 898.968 470.04 900.93C470.214 901.322 470.389 901.714 470.563 902.107C469.996 903.327 469.517 904.591 470.563 905.811C470.563 906.596 470.563 907.424 470.65 908.209C471.304 913.526 469.473 918.19 466.683 922.592C465.158 925.033 465.942 927.822 468.732 928.345C473.614 929.304 478.453 928.955 482.681 925.774C483.597 925.12 484.12 924.379 483.292 923.289C485.428 922.287 487.738 921.459 488.741 919.018C490.441 915.705 487.782 915.487 485.733 914.79C484.861 914.18 483.815 914.18 482.812 914.18C482.725 913.962 482.681 913.7 482.638 913.482C485.34 913.265 486.997 912.001 486.866 909.124C486.779 907.511 489.133 906.334 487.564 904.504C488.043 902.717 489.918 901.279 488.828 899.143C488.784 898.14 488.741 897.138 488.697 896.179C488.828 893.607 488.043 891.254 486.91 888.987C486.343 885.849 483.684 883.626 483.161 880.488C482.681 879.442 483.074 878.483 483.466 877.524C484.469 876.173 485.079 874.473 484.207 873.122C483.074 871.379 483.204 869.635 483.335 867.805C483.728 866.279 485.166 865.495 485.951 864.274C486.735 863.054 487.476 861.921 486.299 860.569C484.294 859.741 482.333 860.831 480.371 860.657C480.545 860.09 480.72 859.523 480.894 858.957C482.812 858.521 484.687 858.085 486.605 857.606C488.915 859.654 490.223 861.615 487.869 864.71C485.907 867.325 484.861 870.42 486.299 873.863C486.692 874.866 486.299 876.217 486.299 877.394C486.299 877.829 486.299 878.222 486.343 878.657C485.253 880.401 486.474 881.316 487.607 882.319C488.915 883.496 490.441 884.454 490.615 886.459C491.138 886.634 491.705 887.07 491.661 885.936C491.618 884.542 491.661 883.147 491.705 881.752C491.574 879.355 491.443 876.958 491.312 874.56C491.443 874.386 491.618 874.212 491.748 874.037H492.838C492.533 877.394 495.279 879.791 495.977 882.885C496.849 884.411 496.151 886.285 497.11 887.767C497.677 889.118 497.546 890.6 498.462 891.908C500.074 894.305 500.162 894.436 502.08 891.995C502.428 891.995 502.777 891.995 503.126 891.995C504.259 894.305 502.951 897.225 504.913 899.361C505.218 901.191 505.872 902.673 508.052 902.891C507.964 904.678 509.708 905.245 510.449 906.465C512.106 910.867 515.68 912.48 519.603 910.301C522.611 908.601 525.793 906.814 526.273 902.804C526.622 901.409 526.665 900.058 526.099 898.707C526.317 898.271 526.578 897.835 526.796 897.399C530.981 896.528 533.073 893.782 532.724 889.728C532.594 889.075 532.463 888.377 532.332 887.723C532.114 887.331 531.94 886.939 531.722 886.547C531.46 885.152 531.199 883.757 530.981 882.362M400.729 905.724C400.773 905.463 400.816 905.201 400.86 904.94C401.122 902.891 400.686 902.063 399.073 902.15C401.034 901.889 401.339 902.891 400.729 905.724Z" fill="white"/>
<path d="M396.763 902.715C396.85 902.715 396.893 902.715 396.98 902.672C396.937 902.672 396.85 902.715 396.806 902.715H396.763Z" fill="white"/>
<path d="M393.056 743.41L393.014 743.367H393.056V743.41Z" fill="white"/>
<path d="M411.191 821.734C411.191 821.821 411.235 821.865 411.278 821.951C411.191 821.951 411.148 821.865 411.061 821.778C411.061 821.778 411.148 821.778 411.148 821.734H411.191Z" fill="white"/>
<path d="M501.121 795.582C501.121 795.582 501.078 795.67 501.034 795.714C501.034 795.714 501.034 795.626 501.078 795.582H501.121Z" fill="white"/>
<path d="M471.611 797.021C471.611 797.021 471.479 797.152 471.436 797.239C471.348 797.327 471.217 797.414 471.13 797.545C471.261 797.283 471.436 797.109 471.611 797.021Z" fill="white"/>
<path d="M406.047 719.656C406.047 719.656 406.003 719.656 405.96 719.699C405.96 719.699 405.96 719.699 406.003 719.699L406.047 719.656Z" fill="white"/>
<path d="M525.314 870.68L525.4 870.594C525.4 870.594 525.4 870.637 525.4 870.68C525.4 870.68 525.4 870.68 525.357 870.68H525.314Z" fill="white"/>
<path d="M249.991 837.643C249.991 837.643 249.903 837.556 249.903 837.512C249.903 837.556 249.991 837.599 249.991 837.643Z" fill="white"/>
<path d="M391.837 825.439C391.837 825.439 391.837 825.439 391.88 825.439C391.88 825.439 391.88 825.482 391.88 825.526C391.88 825.526 391.88 825.526 391.88 825.482L391.837 825.439Z" fill="white"/>
<path d="M426.972 932.791C426.972 932.791 426.972 932.791 427.014 932.834C427.014 932.834 427.014 932.834 426.972 932.791Z" fill="white"/>
<path d="M376.057 891.949C376.057 891.949 376.057 891.906 376.1 891.863C376.1 891.863 376.1 891.906 376.057 891.949Z" fill="white"/>
<path d="M490.659 875.561C490.659 875.343 490.833 875.126 491.139 874.951C490.965 875.126 490.79 875.343 490.659 875.561Z" fill="white"/>
<path d="M528.802 802.295C528.802 802.295 528.802 802.47 528.758 802.513C528.845 802.077 528.933 801.598 529.064 801.162C528.976 801.554 528.933 801.903 528.802 802.252V802.295Z" fill="white"/>
<path d="M393.101 945.43C392.142 943.686 390.224 943.032 388.873 941.768C387.739 940.94 386.301 941.202 385.124 940.679C383.293 940.243 381.854 938.717 379.806 938.805C378.411 938.412 377.8 939.284 377.888 940.374C378.062 942.858 377.103 945.081 376.885 947.435C376.798 948.611 374.749 950.921 378.149 951.227C378.716 951.27 378.149 952.055 378.149 952.491C377.975 954.713 380.459 958.549 382.203 959.508C383.38 960.162 384.644 958.898 384.819 959.203C386.693 962.428 389.657 960.641 391.88 960.554C398.376 960.249 400.904 957.329 398.245 951.27C397.242 948.96 396.501 945.866 393.101 945.43Z" fill="white"/>
<path d="M394.234 936.757C395.281 938.936 396.545 939.197 398.463 938.718C398.463 938.413 398.463 938.108 398.332 937.846C396.588 934.926 393.014 933.793 391.532 930.611C391.314 930.132 390.398 930.262 389.919 930.698C389.309 931.308 389.527 932.006 390.093 932.529C391.532 933.924 393.45 935.057 394.278 936.713L394.234 936.757Z" fill="white"/>
<path d="M398.506 938.719L398.463 938.762L398.506 938.719Z" fill="white"/>
<path d="M368.428 932.616C368.167 932.181 367.862 931.788 367.208 931.876C366.51 932.137 365.769 932.529 366.51 933.357C369.256 936.321 371.567 939.677 374.662 942.38C375.098 942.772 375.49 943.077 375.926 942.598C376.493 941.944 375.839 941.552 375.49 941.116C373.18 938.239 370.303 935.885 368.428 932.616Z" fill="white"/>
<path d="M330.983 923.201C329.762 925.729 327.931 927.734 329.283 930.349C330.111 931.918 331.767 931.7 333.25 931.57C333.86 929.565 331.593 928.214 331.985 926.252C331.68 925.381 331.419 924.509 330.983 923.201Z" fill="white"/>
<path d="M338.655 925.641C339.047 925.075 338.916 924.508 338.481 923.985C337.565 922.939 336.562 923.593 335.516 923.811C333.991 924.159 332.77 924.769 331.985 926.121C333.075 926.992 334.252 927.69 335.691 927.733C337.216 927.777 337.914 926.644 338.655 925.598V925.641Z" fill="white"/>
<path d="M333.249 931.526C332.726 932.572 331.985 933.226 330.765 933.357C329.98 933.444 328.498 933.139 328.76 934.359C328.978 935.536 330.416 935.187 331.331 934.926C332.596 934.577 333.555 933.662 334.47 932.747C334.862 932.354 334.906 931.788 334.557 931.396C334.121 930.829 333.685 931.308 333.293 931.526H333.249Z" fill="white"/>
<path d="M339.047 884.584C339.309 885.674 340.006 886.546 341.053 886.981C341.488 887.156 341.794 886.764 341.794 886.328C341.794 885.064 340.965 884.366 339.876 884.018C339.352 883.931 338.917 884.105 339.047 884.584Z" fill="white"/>
<path d="M369.126 939.59C367.077 938.152 365.551 936.321 364.679 933.924C364.548 932.529 365.551 931.526 365.9 930.35C366.379 928.868 365.638 927.909 364.592 927.037C363.459 926.078 362.5 926.165 361.628 927.342C359.317 929.086 357.617 928.258 356.222 926.122C354.13 923.245 350.948 921.72 348.376 919.453C347.896 918.233 347.722 916.882 346.763 915.879C347.984 913.003 346.109 911.085 344.845 908.818C343.842 909.69 343.45 910.605 343.494 911.564C343.581 914.354 343.581 917.1 342.665 919.802C342.491 920.325 343.014 921.109 343.189 921.763C346.371 924.16 349.03 926.994 350.338 930.873C350.163 931.962 350.163 933.008 350.861 933.924C350.861 934.752 350.948 935.58 350.948 936.452C350.686 937.411 350.381 938.369 350.12 939.285C349.553 940.287 349.64 941.377 349.684 942.423C348.071 943.382 348.202 944.907 348.463 946.389C348.812 948.438 349.291 950.486 349.684 952.491C351.297 954.583 353.825 953.755 355.83 954.453C357.879 955.15 359.012 955.063 359.971 953.232C361.715 952.622 363.459 952.883 365.202 953.101C366.684 953.319 368.167 953.189 368.472 951.402C368.82 949.222 370.085 947.435 370.826 945.387C372.7 942.728 371.697 940.897 369.169 939.459L369.126 939.59Z" fill="white"/>
<path d="M386.126 363.866C388.001 366.83 401.688 376.07 405.35 377.247C411.802 379.295 427.277 376.767 433.641 374.196C436.562 373.019 438.828 366.437 440.093 366.219C446.718 367.265 453.693 367.309 460.319 368.268C465.027 368.965 470.694 369.924 475.315 370.796C476.797 371.057 480.458 371.58 480.981 372.932C476.274 395.422 471.348 417.999 465.942 440.359C442.839 536.073 414.33 629.826 377.669 720.92L390.442 723.84C396.937 708.498 403.258 693.025 409.012 677.334C434.818 606.856 453.301 533.458 471.696 460.757C475.402 446.199 479.63 417.999 487.782 406.449C494.669 396.773 503.213 401.567 505.393 411.941C507.311 421.05 505.611 433.69 504.347 442.974C501.034 466.684 495.323 490.177 491.618 513.844C479.586 590.511 472.83 665.348 473.484 742.8L484.817 745.415C484.861 653.58 496.631 561.658 511.888 470.738C516.291 444.63 519.822 407.582 528.365 383.349C529.019 381.474 529.978 379.295 532.289 379.513L579.586 386.748C582.419 381.169 584.424 375.285 585.47 369.096C568.6 365.914 551.295 363.691 534.686 359.638L533.073 357.066L542.446 325.859C542.097 314.875 548.679 302.366 549.289 291.819C549.333 290.773 548.374 286.588 547.807 286.022C545.541 283.668 521.783 278.612 517.337 277.958C513.98 277.435 500.946 275.997 499.072 278.133C498.026 279.309 497.677 281.794 497.372 283.407C494.015 302.279 492.272 321.588 488.741 340.417C487.389 347.608 487.433 350.267 479.369 349.177C472.394 348.218 461.452 345.473 454.565 343.511C452.821 343.032 444.975 340.591 444.19 340.112C442.359 339.022 444.277 334.14 440.746 330.959C433.903 324.813 423.048 317.839 413.807 316.75C407.137 315.965 403.04 318.885 397.286 320.847C395.847 321.326 393.842 320.672 392.752 321.5C392.098 321.98 387.826 329.302 386.693 331.002C382.421 337.322 379.849 338.063 380.721 347.434C380.808 348.349 385.603 363.125 386.039 363.866H386.126ZM535.95 305.243C535.689 306.725 534.599 306.681 536.43 307.117C537.433 307.335 538.653 308.12 538.784 308.032C539.089 307.815 538.609 306.551 538.915 305.897C540.963 301.233 540.092 295.305 541.487 290.119C541.879 288.724 542.62 287.591 544.146 288.462C542.533 291.819 544.146 296.003 543.448 299.141C542.925 301.407 540.222 307.204 540.353 309.558C540.397 310.778 541.879 311.737 541.879 312.783C541.792 316.706 533.727 335.012 532.114 340.809C529.063 351.749 526.796 364.258 524.181 375.503C523.396 378.946 523.832 383.131 521.26 386.53C520.475 386.356 523.919 373.672 524.137 372.016C524.704 367.876 524.137 357.066 525.619 354.233C526.491 352.621 526.055 355.846 527.188 351.008C527.319 350.485 528.976 350.921 529.15 350.529C529.673 349.177 528.365 347.26 528.54 345.255C529.368 335.361 535.122 322.982 536.038 313.001C536.299 310.386 534.773 309.602 534.773 306.725C534.773 306.158 535.253 303.63 536.038 305.243H535.95ZM509.97 350.485L511.888 349.657C509.49 355.584 508.531 360.945 508.095 367.222C507.877 370.621 508.008 372.714 507.616 376.636C507.354 379.339 509.272 384.743 505 385.397C501.905 385.876 505 378.772 505 378.162C505.306 375.852 505 373.193 505.349 371.014C506.526 364.171 508.575 357.328 509.926 350.441L509.97 350.485Z" fill="white"/>
<path d="M711.406 537.25C711.406 475.925 618.513 493.272 618.513 463.764C618.513 453.696 629.89 447.246 648.286 447.246C666.681 447.246 689.175 451.386 705.216 459.929L707.832 418.523C687.387 413.336 669.035 411.549 650.64 411.549C608.443 411.549 582.332 431.206 582.332 461.237C582.332 521.298 675.225 504.953 675.225 535.768C675.225 549.236 662.54 554.902 642.88 554.902C618.818 554.902 593.447 548.408 580.239 537.817C577.144 570.157 603.038 590.599 647.283 590.599C686.908 590.599 711.45 570.419 711.45 537.294L711.406 537.25Z" fill="white"/>
<path d="M733.856 537.293C733.856 571.203 746.542 590.598 776.533 590.598C799.026 590.598 812.757 576.651 818.206 559.042L816.898 586.719H861.405C854.692 577.653 847.194 554.117 847.194 527.966V522.779C847.194 496.627 854.692 473.091 861.405 464.025H803.254C809.967 473.048 817.465 496.627 817.465 522.779V524.609C817.465 543.744 807.613 556.166 790.569 556.166C773.525 556.166 763.673 543.744 763.673 524.609V522.779C763.673 496.627 771.171 473.091 777.884 464.025H719.646C726.141 473.048 733.856 496.627 733.856 522.779V537.293Z" fill="white"/>
<path d="M870.821 586.719H928.754C922.302 577.653 914.543 554.117 914.543 527.966V526.179C914.543 507.045 924.656 494.623 941.701 494.623C958.745 494.623 968.597 507.045 968.597 526.179V527.966C968.597 554.117 960.837 577.653 954.386 586.719H1012.36C1006.13 577.653 998.152 554.117 998.152 527.966V513.452C998.152 479.542 985.467 460.146 955.737 460.146C932.939 460.146 919.251 474.094 914.064 491.703L915.371 464.026H870.864C877.316 473.091 885.075 496.628 885.075 522.779V527.966C885.075 554.117 877.316 577.653 870.864 586.719H870.821Z" fill="white"/>
<path d="M1076.53 592.168C1103.21 592.168 1117.68 572.728 1120.77 555.948L1119.21 586.719H1163.71C1158.05 576.608 1150.24 544.049 1150.24 500.812V493.054C1150.24 454.001 1156.48 417.258 1160.84 407.146H1106.26C1111.66 416.474 1118.68 445.197 1119.73 484.773C1113.76 471.087 1100.59 458.621 1079.1 458.621C1047.28 458.621 1023.48 485.296 1023.48 526.702C1023.48 568.108 1046.28 592.168 1076.53 592.168ZM1087.12 492.792C1105.74 492.792 1118.94 505.737 1118.94 525.394C1118.94 545.052 1105.74 557.997 1087.12 557.997C1067.46 557.997 1055.04 545.052 1055.04 525.394C1055.04 505.737 1067.46 492.792 1087.12 492.792Z" fill="white"/>
<path d="M1229.93 509.093C1205.34 509.093 1177.4 518.943 1177.4 550.499C1177.4 578.176 1198.11 591.644 1221.65 591.644C1241.31 591.644 1257.87 582.84 1264.89 565.798V586.763H1308.35C1302.12 577.697 1294.14 554.161 1294.14 528.009V509.137C1294.14 469.822 1278.88 459.188 1236.16 459.188C1220.38 459.188 1204.34 461.018 1189.08 464.113L1182.63 500.855C1193.22 495.669 1214.45 491.005 1232.06 491.005C1254.56 491.005 1264.67 495.146 1264.67 513.8V515.849C1256.13 512.231 1242.92 509.137 1229.97 509.137L1229.93 509.093ZM1264.63 541.172C1263.84 553.071 1250.9 560.611 1232.54 560.611C1217.03 560.611 1208.48 554.379 1208.48 545.356C1208.48 535.027 1219.07 530.363 1233.59 530.363C1247.06 530.363 1258.7 533.24 1264.63 536.029V541.216V541.172Z" fill="white"/>
<path d="M1316.63 586.719H1375.39C1368.42 578.437 1360.4 557.211 1360.4 534.459V533.152C1360.4 512.449 1371.78 499.024 1388.86 499.024C1395.84 499.024 1402.81 501.334 1408.3 505.475L1413.49 462.5C1410.4 461.192 1405.21 460.189 1400.28 460.189C1377.01 460.189 1364.02 477.754 1359.66 498.24L1361.23 464.069H1316.72C1323.17 473.134 1330.93 496.671 1330.93 522.822V528.009C1330.93 554.16 1323.17 577.696 1316.72 586.762L1316.63 586.719Z" fill="white"/>
<path d="M1519.64 542.044H1519.68C1500.54 542.088 1479.32 548.059 1466.37 548.059C1457.82 548.059 1454.21 543.657 1454.21 538.47C1454.21 534.33 1456.52 530.451 1460.44 528.358C1468.2 530.668 1477.27 531.976 1487.12 531.976C1524.39 531.976 1548.45 514.411 1548.45 487.737C1548.45 468.864 1538.86 454.088 1522.3 446.069C1516.32 442.713 1514.01 438.31 1514.01 433.647C1514.01 428.199 1518.94 425.104 1525.17 425.104C1534.76 425.104 1543.57 428.983 1549.5 433.908L1550.02 398.953C1544.35 396.076 1533.98 394.027 1523.87 394.027C1505.25 394.027 1492.04 403.616 1492.04 420.702C1492.04 427.675 1494.66 433.908 1498.76 439.313C1494.88 438.79 1491.26 438.528 1487.12 438.528C1449.85 438.528 1425.78 457.662 1425.78 487.693C1425.78 500.376 1431.19 510.968 1441.04 518.726C1431.45 525.438 1425.78 536.291 1425.78 547.972C1425.78 566.583 1441.04 578.264 1462.53 578.264C1484.02 578.264 1502.11 572.031 1516.11 572.031C1523.08 572.031 1526.96 574.08 1526.96 580.051C1526.96 589.901 1513.01 596.875 1485.29 596.875C1457.56 596.875 1436.64 589.64 1425.22 580.313C1424.17 610.343 1451.37 626.906 1489.38 626.906C1527.4 626.906 1555.38 609.341 1555.38 577.218C1555.38 555.207 1542.17 542.001 1519.68 542.001L1519.64 542.044ZM1487.07 468.123C1505.69 468.123 1518.63 474.835 1518.63 487.78C1518.63 500.725 1505.69 508.483 1487.07 508.483C1468.46 508.483 1455.51 500.725 1455.51 487.78C1455.51 474.835 1468.72 468.123 1487.07 468.123Z" fill="white"/>
<path d="M1678.92 509.094C1678.92 469.779 1663.66 459.145 1620.99 459.145C1605.21 459.145 1589.17 460.975 1573.91 464.07L1567.46 500.812C1578.05 495.626 1599.28 490.962 1616.89 490.962C1639.38 490.962 1649.5 495.103 1649.5 513.757V515.806C1640.95 512.188 1627.74 509.094 1614.8 509.094C1590.21 509.094 1562.27 518.944 1562.27 550.5C1562.27 578.177 1582.98 591.645 1606.52 591.645C1626.18 591.645 1642.74 582.841 1649.76 565.799V586.763H1693.22C1686.99 577.698 1679.01 554.161 1679.01 528.01V509.137L1678.92 509.094ZM1649.45 541.173C1648.71 553.072 1635.72 560.612 1617.37 560.612C1601.85 560.612 1593.31 554.379 1593.31 545.357C1593.31 535.027 1603.9 530.364 1618.42 530.364C1631.89 530.364 1643.52 533.24 1649.45 536.03V541.216V541.173Z" fill="white"/>
<path d="M1785.07 586.719H1843C1836.77 577.653 1828.79 554.117 1828.79 527.966V513.452C1828.79 479.542 1816.1 460.146 1786.37 460.146C1763.58 460.146 1749.89 474.094 1744.7 491.703L1746.01 464.026H1701.5C1708 473.091 1715.71 496.628 1715.71 522.779V527.966C1715.71 554.117 1707.95 577.653 1701.5 586.719H1759.48C1753.03 577.653 1745.27 554.117 1745.27 527.966V526.179C1745.27 507.045 1755.38 494.623 1772.43 494.623C1789.47 494.623 1799.32 507.045 1799.32 526.179V527.966C1799.32 554.117 1791.56 577.653 1785.11 586.719H1785.07Z" fill="white"/>
<path d="M1037.78 792.008C1032.07 792.008 1027.36 793.795 1023.74 797.369C1020.12 800.769 1018.29 805.389 1018.29 811.273C1018.29 817.157 1020.12 821.515 1023.74 824.915C1027.36 828.489 1032.02 830.276 1037.78 830.276C1043.53 830.276 1048.11 828.576 1051.51 825.22C1055.13 821.82 1056.96 817.2 1056.96 811.316C1056.96 805.432 1055.13 800.812 1051.51 797.412C1048.06 793.838 1043.49 792.051 1037.78 792.051V792.008Z" fill="white"/>
<path d="M1105.95 676.245H1132.85L1121.69 657.023H604.738L632.811 702.483C634.336 702.135 636.342 701.83 638.826 701.655C641.311 701.306 644.057 701.132 647.152 701.132C651.729 701.132 656.132 701.83 660.317 703.268C664.72 704.706 668.512 707.103 671.782 710.503C675.225 713.685 677.972 718.174 680.108 723.884C681.372 726.891 682.331 730.378 682.985 734.344C680.718 739.836 678.495 744.761 676.359 749.033C674.092 753.871 671.607 757.576 668.905 760.278C666.245 762.937 663.194 764.288 659.75 764.288C657.266 764.288 654.868 763.678 652.601 762.414C650.509 761.193 648.286 759.101 646.019 756.268C643.927 753.391 641.529 749.338 638.87 743.977L624.834 750.689C628.452 759.929 632.462 768.167 636.865 775.271C641.268 782.202 646.019 787.737 651.163 791.834C656.525 795.757 662.409 797.718 668.905 797.718C674.223 797.718 678.713 796.367 682.374 793.708C685.992 790.831 689.349 787.04 692.4 782.202C695.626 777.233 698.765 771.349 701.86 764.549C704.737 758.317 707.134 753.435 709.009 749.817C711.101 746.069 713.106 743.41 715.024 741.798C716.942 740.011 718.948 739.095 721.04 739.095C723.307 739.095 725.443 740.098 727.317 742.059C729.41 743.846 731.328 746.723 733.028 750.645C733.987 752.825 734.946 755.353 735.905 758.273V814.498C730.935 813.496 725.879 812.929 720.735 812.929C708.878 812.929 699.724 815.806 693.229 821.516C686.734 827.4 683.508 835.071 683.508 844.485C683.508 853.9 686.646 862.312 692.967 868.545C699.244 874.777 707.57 877.916 717.901 877.916C726.881 877.916 734.51 875.78 740.787 871.509C746.89 867.411 751.554 861.876 754.824 854.946C756.436 851.503 757.657 847.929 758.442 844.224C760.011 845.183 761.58 846.142 763.106 847.188C776.096 856.254 787.474 868.763 797.195 884.628L809.226 877.916C805.39 869.722 800.464 861.702 794.318 853.856C788.389 846.185 781.545 839.212 773.699 833.022C769.557 829.841 765.286 826.92 760.796 824.392L759.052 806.871C755.434 770.346 755.347 733.603 758.834 697.079L760.796 676.332H866.505V726.63C866.113 725.714 865.764 724.799 865.372 723.927C862.32 716.997 858.397 710.939 853.602 705.752C849.025 700.391 843.881 696.294 838.171 693.461C832.46 690.454 826.227 688.928 819.557 688.928C809.618 688.928 801.815 691.718 796.061 697.209C790.351 702.57 787.474 710.024 787.474 719.7C787.474 727.894 789.958 734.65 794.928 740.011C800.072 745.372 806.959 748.03 815.547 748.03C824.134 748.03 829.975 745.633 834.16 740.839C838.345 736.001 840.437 730.422 840.437 724.015C840.437 722.707 840.307 721.443 840.132 720.223C842.922 721.225 845.494 722.881 847.892 725.366C851.902 729.288 855.433 735.085 858.484 742.756C861.71 750.253 864.5 759.363 866.767 770.041L891.091 785.819C898.719 777.625 906.261 769.867 913.715 762.544C921.343 755.048 928.972 748.118 936.6 741.71C939.347 739.357 942.093 737.047 944.883 734.824C943.357 740.708 942.224 746.723 941.483 752.955C940.742 759.014 940.306 765.552 940.306 772.482C940.306 785.296 942.006 797.326 945.449 808.571C948.893 819.598 952.904 829.884 957.481 839.299L971.517 834.243C969.425 827.836 967.681 821.952 966.373 816.591C965.196 811.055 964.368 805.738 963.802 800.551C963.409 795.408 963.235 789.96 963.235 784.25C963.235 772.482 964.76 760.888 967.812 749.512C971.038 737.918 975.528 727.153 981.282 717.128L949.765 691.718C943.837 695.292 943.226 699.214 937.123 703.486C931.195 707.757 927.185 712.246 921.43 716.867C915.72 721.312 912.189 725.932 907.22 730.77C904.822 733.08 893.532 746.2 891.352 748.51V676.506H1081.02V686.269C1070.91 689.451 1060.79 700.435 1050.68 704.837C1039.78 709.501 1031.02 714.557 1020.69 720.048C1010.4 725.584 999.024 724.276 990.262 730.509L1008.31 769.257C1018.99 771.218 1029.1 774.312 1038.65 778.627C1048.19 782.725 1056.87 788.173 1064.72 794.929C1072.74 801.554 1079.71 809.704 1085.6 819.511L1103.34 829.928L1105.91 829.405L1103.47 776.448C1102.68 759.581 1102.73 742.713 1103.51 725.889L1105.87 676.463L1105.95 676.245ZM735.077 843.047C732.984 847.885 730.325 851.241 727.056 853.203C723.83 855.164 720.386 856.166 716.768 856.166C712.932 856.166 709.881 855.164 707.614 853.203C705.347 851.416 704.17 848.757 704.17 845.183C704.17 841.609 705.391 838.776 707.875 836.64C710.36 834.679 714.153 833.72 719.34 833.72C725.486 833.72 731.371 834.374 737.082 835.638C736.602 838.427 735.948 840.911 735.12 843.091L735.077 843.047ZM731.633 720.876C728.407 714.818 724.963 710.459 721.345 707.801C717.901 704.924 714.109 703.529 709.881 703.529C706.655 703.529 703.56 704.575 700.726 706.711C697.893 708.672 695.06 711.767 692.182 715.995C691.529 712.377 690.788 708.978 689.829 705.883C687.91 698.953 684.859 693.069 680.674 688.231C676.49 683.262 670.866 679.339 663.761 676.463C663.543 676.375 663.325 676.288 663.107 676.201H735.905V700.26C735.905 705.098 735.992 710.154 736.21 715.472C736.602 720.615 736.951 725.802 737.343 730.988C737.431 731.686 737.474 732.427 737.561 733.124C735.512 728.417 733.551 724.276 731.589 720.789L731.633 720.876ZM1081.06 787.301C1077.97 781.678 1074.44 776.666 1070.47 772.22C1064.19 765.29 1057.31 759.581 1049.85 755.135C1044.36 751.735 1038.87 748.946 1033.37 746.81C1037.65 743.803 1042.18 740.969 1046.97 738.311C1053.47 734.737 1060.05 731.511 1066.72 728.678C1071.69 726.543 1076.49 724.625 1081.02 722.881V787.301H1081.06Z" fill="white"/>
<path d="M1486.16 656.936L1486.2 656.979H1486.25L1486.16 656.936Z" fill="white"/>
<path d="M1324.78 656.98L1322.52 642.248L1304.78 632.615L1302.77 633.4V653.188C1302.77 657.285 1302.94 662.166 1303.34 667.92C1303.47 669.096 1303.6 670.273 1303.69 671.406C1303.12 670.143 1302.51 668.966 1301.9 667.92C1299.81 663.997 1297.23 661.251 1294.14 659.638C1291.26 657.851 1287.86 656.98 1283.85 656.98H1264.5L1262.23 642.248L1244.49 632.615L1242.48 633.4V665.479C1242.48 670.84 1242.57 676.07 1242.79 681.257C1243.01 686.4 1243.27 691.325 1243.66 695.945C1243.75 697.035 1243.83 698.037 1243.92 699.083C1240.13 690.759 1235.81 683.611 1231.02 677.726C1224.52 669.532 1217.46 663.474 1209.83 659.551C1202.2 655.628 1194.1 653.667 1185.51 653.667C1173.3 653.667 1161.53 658.026 1150.29 666.743C1139.21 675.504 1130.15 688.928 1123.09 707.103L1152.29 729.288C1155.91 725.191 1160.23 721.792 1165.19 719.133C1170.16 716.474 1175 715.123 1179.8 715.123C1184.59 715.123 1187.73 716.169 1189.82 718.305C1192.09 720.44 1193.27 723.361 1193.27 727.109C1193.27 732.993 1190.04 738.311 1183.55 743.149C1177.05 747.812 1167.68 752.04 1155.47 755.963L1175.79 787.78C1187.21 782.637 1196.19 777.058 1202.68 771.174C1209.18 765.116 1213.76 758.796 1216.41 752.214C1219.29 745.415 1220.73 738.485 1220.73 731.38C1220.73 721.399 1217.68 713.118 1211.58 706.537C1205.65 699.737 1197.37 696.381 1186.64 696.381C1180.71 696.381 1175.4 697.296 1170.6 699.04C1169.38 699.476 1168.2 699.955 1167.07 700.478C1168.03 698.648 1169.12 696.904 1170.34 695.291C1173.56 690.846 1177.31 687.272 1181.5 684.569C1185.9 681.867 1190.57 680.559 1195.53 680.559C1201.07 680.559 1206.61 682.347 1212.14 685.921C1217.68 689.32 1223.22 694.986 1228.75 703.006C1233.42 709.544 1237.91 718.043 1242.22 728.417V822.78L1264.85 832.412L1267.11 831.889L1263.19 785.122C1261.01 759.144 1261.27 732.949 1263.93 707.016L1267.11 676.027H1288.73C1292.35 676.027 1295.32 677.901 1297.58 681.649C1299.85 685.397 1301.42 690.018 1302.16 695.553V822.823L1325.05 832.456L1327.05 831.933L1322.78 777.145C1320.82 751.996 1321.25 726.673 1324.13 701.611L1327.05 676.07H1443.57V727.153C1443.57 732.121 1443.66 737.482 1443.88 743.192C1444.18 747.507 1444.44 751.648 1444.75 755.788C1442.39 748.597 1439.26 741.885 1435.33 735.695C1431.89 729.811 1427.79 724.668 1423.04 720.179C1418.29 715.733 1412.79 712.246 1406.74 709.762C1400.63 707.278 1393.96 706.014 1386.68 706.014C1376.35 706.014 1367.81 709.021 1360.92 715.079C1354.03 721.138 1350.63 729.724 1350.63 740.751C1350.63 750.384 1353.6 758.404 1359.48 764.811C1365.59 771.218 1373.61 774.443 1383.54 774.443C1390.04 774.443 1395.4 773.179 1399.59 770.695C1403.99 768.036 1407.22 764.636 1409.31 760.539C1411.62 756.268 1412.75 751.648 1412.75 746.635C1412.75 746.112 1412.71 745.633 1412.66 745.11C1415.58 745.851 1418.29 747.246 1420.77 749.338C1424.78 752.345 1428.31 756.573 1431.36 761.934C1434.42 767.077 1437.08 772.961 1439.39 779.586C1441.65 785.993 1443.57 792.575 1445.1 799.374C1446.84 805.999 1448.06 812.188 1448.8 818.116L1465.98 830.146L1468.24 829.623L1464.93 786.08C1462.36 752.519 1463.1 718.828 1467.15 685.397L1468.29 676.114H1497.19L1486.33 656.892H1324.91L1324.78 656.98Z" fill="white"/>
</g>
<defs>
<clipPath id="clip0_239_649">
<rect width="1656" height="688" fill="white" transform="translate(187 277)"/>
</clipPath>
</defs>
</svg>
