<svg width="463" height="200" viewBox="0 0 463 200" fill="none" xmlns="http://www.w3.org/2000/svg">
<path d="M425.024 0.0419415C434.629 -0.116774 446.074 -0.0387526 454.803 4.27767C457.952 5.83541 461.247 8.62739 462.166 12.0132C464.166 19.3707 458.445 23.5299 453.112 27.0197C451.364 28.1632 448.667 30.506 447.029 31.4158C441.586 34.4358 436.031 37.2926 430.302 39.7149C428.11 40.6412 425.585 42.4478 423.291 43.4296C418.149 45.6299 413.073 47.8636 407.895 49.9762C405.331 51.0224 402.641 52.731 400.053 53.8843L368.984 67.407C366.287 68.6104 363.502 69.593 360.797 70.7777C355.942 72.9047 351.24 75.3024 346.446 77.5497C341.401 79.9144 336.323 82.0669 331.353 84.6114C328.634 86.0039 326.105 87.7257 323.422 89.1811C311.498 95.6464 299.99 102.567 290.034 111.878C287.451 114.291 283.748 116.552 282.161 119.774C281.542 121.031 281.35 122.414 281.836 123.75C282.322 125.081 283.602 125.891 284.827 126.471C299.608 133.48 342.502 131.029 358.243 125.349C355.719 123.554 352.946 122.9 350.28 121.491C339.511 115.804 328.127 111.573 317.435 105.7C314.004 103.815 316.251 99.1145 317.77 96.6879C324.465 94.872 337.373 97.673 336.772 106.522C343.071 109.311 349.724 111.311 356.027 114.034C361.14 116.242 367.941 119.009 370.06 124.623C370.593 126.03 370.833 128.077 370.121 129.466C369.186 131.287 365.281 132.448 363.424 133.014C357.719 134.754 351.342 135.28 345.421 135.954C340.308 136.537 335.156 137.185 330.024 137.553C319.133 138.334 290.081 139.411 280.859 134.39C277.899 132.779 274.32 129.049 273.435 125.747C272.432 121.998 274.488 117.719 276.531 114.689C280.514 108.78 284.307 105.903 289.816 101.682C301.003 93.1094 313.226 86.4183 325.942 80.3801C328.331 79.2467 330.834 78.3717 333.22 77.2344C335.506 76.1451 337.511 74.5492 339.827 73.5038C342.825 72.1485 345.848 70.7548 348.888 69.4997C351.08 68.5953 353.34 67.8418 355.485 66.8278C357.84 65.7143 360.085 64.3688 362.45 63.2806C368.347 60.5652 374.383 58.0807 380.22 55.2335C385.316 52.7471 390.19 49.9539 395.381 47.6147L415.01 38.6691C418.839 36.9562 423.605 35.3377 427.169 33.2696C433.723 29.467 441.941 25.2028 448.028 20.7277C460.824 11.3205 449.778 9.15094 440.503 7.5633C414.92 3.18417 388.363 8.40694 363.657 15.2599C357.675 17.0429 351.947 19.6468 346.128 21.8698C340.483 24.0272 334.935 26.2052 329.441 28.7565C302.68 41.4005 278.152 58.3126 256.817 78.8308C254.671 80.8589 252.171 82.9679 250.115 85.0278C248.091 87.139 246.397 89.1767 244.426 91.3596C235.562 101.179 225.277 113.712 223.689 127.286C223.096 132.348 227.283 145.74 216.785 141.689C213.728 140.509 214.521 133.873 214.14 131.284C213.491 125.96 211.627 120.093 209.378 115.178C204.613 106.29 198.077 99.0105 189.391 93.7297C184.782 90.9277 179.211 89.7793 173.794 90.9992C159.674 95.0798 167.759 115.235 166.7 125.204C166.5 127.089 165.98 128.191 165.055 129.745C162.156 133.189 158.496 135.003 154.273 136.405C151.157 137.439 147.889 138.039 144.678 138.711C132.862 141.186 116.418 143.538 105.203 137.841C101.995 136.211 99.8532 133.644 98.7583 130.22C96.9851 124.673 97.7537 118.29 100.622 113.246C107.015 102.005 128.998 85.9149 139.735 77.6377C141.772 76.067 143.63 74.2801 145.685 72.717C147.822 71.0915 150.14 69.6778 152.231 68.0034C154.491 66.1939 156.256 63.8209 158.489 61.9664C162.602 58.5503 166.495 55.2484 170.369 51.568C176.068 46.1544 178.869 43.203 182.502 36.133C181.239 34.2041 179.736 33.0423 177.601 32.1537C160.966 25.2312 118.406 34.9027 100.586 40.2484C98.6093 40.8415 96.7579 41.9007 94.8047 42.5835C87.7547 45.0473 80.6691 47.4108 73.76 50.2672C69.6203 51.9785 65.5985 54.0292 61.5568 55.9622C56.9146 58.1823 52.1509 60.3141 47.7463 62.986C45.2194 64.519 42.9206 66.4163 40.453 68.0428C38.3088 69.4559 36.0412 70.6851 33.9347 72.1548C27.2537 76.8421 21.176 82.3355 15.8392 88.5105C14.7617 89.7666 11.6119 93.2992 10.9688 94.6552C9.05118 98.6982 8.90152 106.052 7.20499 110.138C5.4317 111.662 3.11051 108.971 1.8495 107.84C-0.186054 106.016 -0.0989886 102.561 0.093027 100.008C0.975686 88.2723 11.2087 80.0772 19.0976 72.5097C21.1936 70.5203 24.8021 68.0623 27.156 66.3215C36.0604 59.6085 45.5661 53.7336 55.5521 48.7714C61.6428 45.7855 68.5934 43.3997 74.811 40.5826C75.9655 40.1546 77.2028 39.4823 78.3658 39.1255C89.8427 35.607 101.646 31.1934 113.294 28.2942C132.755 23.6895 152.308 20.6081 172.355 21.8078C181.456 22.3527 191.254 27.0131 190.389 37.6042C189.605 47.2275 178.538 56.2099 172.045 62.5556C167.77 66.734 163.878 69.4977 159.341 73.1317L146.307 83.5901C144.434 85.0706 142.607 87.1394 140.745 88.4833C132.003 94.7592 124.396 101.247 116.425 108.594C111.511 113.123 100.51 124.876 111.179 130.211C113.868 131.555 119.258 132.643 122.302 132.806C124.18 132.903 126.062 132.857 127.933 132.668C133.082 132.111 151.524 128.893 155.703 125.602C158.2 123.636 156.585 106.886 156.798 102.605C156.694 97.5707 158.142 89.8019 162.323 86.2756C179.251 71.9971 201.229 90.0816 211.316 104.154C214.27 108.275 215.157 111.817 218.489 115.271C222.739 107.644 226.051 102.059 231.667 95.3246C239.655 85.493 248.837 76.6467 258.114 68.0474C262.192 64.2682 265.939 60.5613 270.415 57.2089C280.344 49.7682 290.975 43.2358 301.443 36.5858C304.522 34.6295 308.009 33.256 311.032 31.1849C317.347 26.4946 325.325 24.032 332.194 20.5702C342.784 15.2351 353.665 11.9188 365.106 8.91809C368.69 7.97819 371.97 6.64916 375.729 5.88524C391.923 2.595 408.561 1.21298 425.024 0.0419415Z" fill="black"/>
<path d="M123.63 160.45C132.824 159.736 141.995 161.643 144.33 171.64C145.976 178.691 141.588 181.978 136.779 185.725C132.163 189.32 128.423 191.688 122.997 193.915C118.666 195.839 115.351 197.096 110.723 198.244C90.5669 201.99 84.3532 191.933 96.3383 176.026C103.047 167.122 112.329 160.873 123.63 160.45ZM98.5629 190.714C101.532 193.139 103.583 193.219 107.411 192.945C107.991 192.903 109.52 192.638 109.998 192.432C111.564 191.963 116.048 190.774 117.257 190.057C123.497 186.356 133.419 182.694 136.943 176.198C137.468 175.219 137.959 174.222 138.417 173.209C134.795 167.928 131.756 167.791 125.674 167.753C124.225 167.804 120.473 167.873 119.108 168.413C113.126 170.778 106.566 174.374 102.074 179.005C98.7199 182.463 97.1526 185.909 98.5629 190.714Z" fill="black"/>
</svg>
